<svg width="531" height="91" viewBox="0 0 531 91" fill="none" xmlns="http://www.w3.org/2000/svg">
<path d="M23.126 62.99C23.846 62.99 24.506 62.9 25.106 62.72C25.706 62.48 26.366 62.15 27.086 61.73V45.08L22.136 46.97C20.576 47.57 19.316 48.41 18.356 49.49C17.396 50.57 16.916 52.4 16.916 54.98C16.916 57.26 17.366 59.18 18.266 60.74C19.226 62.24 20.846 62.99 23.126 62.99ZM43.466 61.1C43.466 62.18 43.586 63.14 43.826 63.98C44.126 64.76 44.816 65.15 45.896 65.15C46.556 65.15 47.156 65.09 47.696 64.97C48.236 64.85 48.656 64.73 48.956 64.61L49.586 67.04C48.086 68.54 46.346 69.74 44.366 70.64C42.446 71.48 40.226 71.9 37.706 71.9C35.066 71.9 32.846 71.24 31.046 69.92C29.246 68.6 28.016 66.74 27.356 64.34C26.036 66.26 24.266 67.97 22.046 69.47C19.886 70.91 17.126 71.63 13.766 71.63C9.986 71.63 6.896 70.61 4.496 68.57C2.096 66.47 0.895996 63.47 0.895996 59.57C0.895996 57.59 1.196 55.91 1.796 54.53C2.456 53.09 3.326 51.86 4.406 50.84C5.486 49.82 6.746 48.95 8.186 48.23C9.626 47.45 11.156 46.79 12.776 46.25L27.086 41.21V32.03C27.086 29.93 26.726 28.25 26.006 26.99C25.346 25.73 24.146 25.1 22.406 25.1C20.666 25.1 19.406 25.76 18.626 27.08C17.906 28.4 17.546 30.11 17.546 32.21C17.546 33.23 17.606 34.28 17.726 35.36C17.906 36.38 18.116 37.43 18.356 38.51L8.366 39.86C7.046 39.38 5.966 38.63 5.126 37.61C4.346 36.53 3.956 35.18 3.956 33.56C3.956 31.52 4.436 29.75 5.396 28.25C6.416 26.75 7.796 25.52 9.536 24.56C11.276 23.54 13.316 22.79 15.656 22.31C18.056 21.83 20.606 21.59 23.306 21.59C26.426 21.59 29.246 21.86 31.766 22.4C34.286 22.94 36.386 23.84 38.066 25.1C39.806 26.3 41.126 27.89 42.026 29.87C42.986 31.85 43.466 34.31 43.466 37.25V61.1Z" fill="url(#paint0_linear_33_21)"/>
<path d="M77.2905 67.67C78.9105 67.67 80.3205 67.19 81.5205 66.23C82.7805 65.27 83.8305 63.95 84.6705 62.27C85.5705 60.53 86.2305 58.52 86.6505 56.24C87.0705 53.9 87.2805 51.41 87.2805 48.77C87.2805 42.77 86.2905 38.39 84.3105 35.63C82.3305 32.81 79.6305 31.4 76.2105 31.4C74.1705 31.4 72.4005 31.91 70.9005 32.93V58.22C70.9005 61.16 71.3505 63.47 72.2505 65.15C73.2105 66.83 74.8905 67.67 77.2905 67.67ZM54.2505 32.39L49.3005 29.33V26.81L68.1105 21.59H71.2605L70.9005 30.32C71.5005 29.3 72.2805 28.28 73.2405 27.26C74.2005 26.24 75.3105 25.31 76.5705 24.47C77.8305 23.63 79.2405 22.94 80.8005 22.4C82.3605 21.86 84.1005 21.59 86.0205 21.59C88.6605 21.59 91.0905 22.07 93.3105 23.03C95.5305 23.93 97.4505 25.31 99.0705 27.17C100.691 28.97 101.951 31.28 102.851 34.1C103.751 36.86 104.201 40.07 104.201 43.73C104.201 48.35 103.541 52.43 102.221 55.97C100.901 59.45 99.0705 62.39 96.7305 64.79C94.4505 67.13 91.7505 68.9 88.6305 70.1C85.5705 71.3 82.2705 71.9 78.7305 71.9C76.9905 71.9 75.4305 71.75 74.0505 71.45C72.7305 71.15 71.6805 70.67 70.9005 70.01V82.7C70.9005 83.54 70.9905 84.17 71.1705 84.59C71.4105 85.07 71.8005 85.43 72.3405 85.67C72.8805 85.91 73.6005 86.09 74.5005 86.21C75.4005 86.33 76.5105 86.45 77.8305 86.57V90.08H49.2105V86.57C51.0105 86.45 52.3005 86.18 53.0805 85.76C53.8605 85.4 54.2505 84.5 54.2505 83.06V32.39Z" fill="url(#paint1_linear_33_21)"/>
<path d="M134.398 67.67C136.018 67.67 137.428 67.19 138.628 66.23C139.888 65.27 140.938 63.95 141.778 62.27C142.678 60.53 143.338 58.52 143.758 56.24C144.178 53.9 144.388 51.41 144.388 48.77C144.388 42.77 143.398 38.39 141.418 35.63C139.438 32.81 136.738 31.4 133.318 31.4C131.278 31.4 129.508 31.91 128.008 32.93V58.22C128.008 61.16 128.458 63.47 129.358 65.15C130.318 66.83 131.998 67.67 134.398 67.67ZM111.358 32.39L106.408 29.33V26.81L125.218 21.59H128.368L128.008 30.32C128.608 29.3 129.388 28.28 130.348 27.26C131.308 26.24 132.418 25.31 133.678 24.47C134.938 23.63 136.348 22.94 137.908 22.4C139.468 21.86 141.208 21.59 143.128 21.59C145.768 21.59 148.198 22.07 150.418 23.03C152.638 23.93 154.558 25.31 156.178 27.17C157.798 28.97 159.058 31.28 159.958 34.1C160.858 36.86 161.308 40.07 161.308 43.73C161.308 48.35 160.648 52.43 159.328 55.97C158.008 59.45 156.178 62.39 153.838 64.79C151.558 67.13 148.858 68.9 145.738 70.1C142.678 71.3 139.378 71.9 135.838 71.9C134.098 71.9 132.538 71.75 131.158 71.45C129.838 71.15 128.788 70.67 128.008 70.01V82.7C128.008 83.54 128.098 84.17 128.278 84.59C128.518 85.07 128.908 85.43 129.448 85.67C129.988 85.91 130.708 86.09 131.608 86.21C132.508 86.33 133.618 86.45 134.938 86.57V90.08H106.318V86.57C108.118 86.45 109.408 86.18 110.188 85.76C110.968 85.4 111.358 84.5 111.358 83.06V32.39Z" fill="url(#paint2_linear_33_21)"/>
<path d="M185.476 63.98C185.476 65.42 185.866 66.35 186.646 66.77C187.426 67.13 188.716 67.37 190.516 67.49V71H163.786V67.49C165.586 67.37 166.876 67.13 167.656 66.77C168.436 66.35 168.826 65.42 168.826 63.98V9.89003L163.876 7.37003V4.67003L182.686 0.530029H185.476V63.98Z" fill="url(#paint3_linear_33_21)"/>
<path d="M214.553 63.98C214.553 65.42 214.943 66.35 215.723 66.77C216.503 67.13 217.793 67.37 219.593 67.49V71H192.953V67.49C194.753 67.37 196.043 67.13 196.823 66.77C197.603 66.35 197.993 65.42 197.993 63.98V32.39L193.043 29.33V26.81L211.763 21.59H214.553V63.98ZM206.453 17.63C203.633 17.63 201.443 16.82 199.883 15.2C198.383 13.52 197.633 11.54 197.633 9.26003C197.633 6.98003 198.383 5.03003 199.883 3.41003C201.443 1.79003 203.633 0.980029 206.453 0.980029C209.153 0.980029 211.283 1.79003 212.843 3.41003C214.463 5.03003 215.273 6.98003 215.273 9.26003C215.273 11.54 214.463 13.52 212.843 15.2C211.283 16.82 209.153 17.63 206.453 17.63Z" fill="url(#paint4_linear_33_21)"/>
<path d="M236.422 42.02C236.422 47.84 237.652 52.4 240.112 55.7C242.572 59 246.052 60.65 250.552 60.65C253.252 60.65 255.562 60.2 257.482 59.3C259.402 58.34 261.082 56.81 262.522 54.71L264.502 55.97C263.002 61.49 260.512 65.54 257.032 68.12C253.552 70.64 249.262 71.9 244.162 71.9C241.042 71.9 238.132 71.36 235.432 70.28C232.732 69.2 230.392 67.64 228.412 65.6C226.432 63.56 224.872 61.1 223.732 58.22C222.592 55.28 222.022 51.95 222.022 48.23C222.022 44.45 222.592 40.94 223.732 37.7C224.932 34.4 226.612 31.58 228.772 29.24C230.932 26.84 233.512 24.98 236.512 23.66C239.572 22.28 242.962 21.59 246.682 21.59C248.962 21.59 251.092 21.83 253.072 22.31C255.112 22.73 256.852 23.42 258.292 24.38C259.792 25.28 260.962 26.45 261.802 27.89C262.702 29.33 263.152 31.04 263.152 33.02C263.152 34.76 262.732 36.17 261.892 37.25C261.112 38.33 260.212 39.11 259.192 39.59H250.642C250.762 38.57 250.852 37.67 250.912 36.89C250.972 36.11 251.002 35.3 251.002 34.46C251.002 31.82 250.582 29.69 249.742 28.07C248.902 26.45 247.402 25.64 245.242 25.64C243.862 25.64 242.602 26.06 241.462 26.9C240.382 27.74 239.452 28.91 238.672 30.41C237.952 31.85 237.382 33.56 236.962 35.54C236.602 37.52 236.422 39.68 236.422 42.02Z" fill="url(#paint5_linear_33_21)"/>
<path d="M288.956 62.99C289.676 62.99 290.336 62.9 290.936 62.72C291.536 62.48 292.196 62.15 292.916 61.73V45.08L287.966 46.97C286.406 47.57 285.146 48.41 284.186 49.49C283.226 50.57 282.746 52.4 282.746 54.98C282.746 57.26 283.196 59.18 284.096 60.74C285.056 62.24 286.676 62.99 288.956 62.99ZM309.296 61.1C309.296 62.18 309.416 63.14 309.656 63.98C309.956 64.76 310.646 65.15 311.726 65.15C312.386 65.15 312.986 65.09 313.526 64.97C314.066 64.85 314.486 64.73 314.786 64.61L315.416 67.04C313.916 68.54 312.176 69.74 310.196 70.64C308.276 71.48 306.056 71.9 303.536 71.9C300.896 71.9 298.676 71.24 296.876 69.92C295.076 68.6 293.846 66.74 293.186 64.34C291.866 66.26 290.096 67.97 287.876 69.47C285.716 70.91 282.956 71.63 279.596 71.63C275.816 71.63 272.726 70.61 270.326 68.57C267.926 66.47 266.726 63.47 266.726 59.57C266.726 57.59 267.026 55.91 267.626 54.53C268.286 53.09 269.156 51.86 270.236 50.84C271.316 49.82 272.576 48.95 274.016 48.23C275.456 47.45 276.986 46.79 278.606 46.25L292.916 41.21V32.03C292.916 29.93 292.556 28.25 291.836 26.99C291.176 25.73 289.976 25.1 288.236 25.1C286.496 25.1 285.236 25.76 284.456 27.08C283.736 28.4 283.376 30.11 283.376 32.21C283.376 33.23 283.436 34.28 283.556 35.36C283.736 36.38 283.946 37.43 284.186 38.51L274.196 39.86C272.876 39.38 271.796 38.63 270.956 37.61C270.176 36.53 269.786 35.18 269.786 33.56C269.786 31.52 270.266 29.75 271.226 28.25C272.246 26.75 273.626 25.52 275.366 24.56C277.106 23.54 279.146 22.79 281.486 22.31C283.886 21.83 286.436 21.59 289.136 21.59C292.256 21.59 295.076 21.86 297.596 22.4C300.116 22.94 302.216 23.84 303.896 25.1C305.636 26.3 306.956 27.89 307.856 29.87C308.816 31.85 309.296 34.31 309.296 37.25V61.1Z" fill="url(#paint6_linear_33_21)"/>
<path d="M336.45 22.49H346.98V27.35H336.45V57.14C336.45 59.3 336.87 60.89 337.71 61.91C338.55 62.87 339.84 63.35 341.58 63.35C342.78 63.35 343.89 63.17 344.91 62.81C345.93 62.39 346.98 61.82 348.06 61.1L349.41 63.08C347.67 65.9 345.51 68.09 342.93 69.65C340.41 71.15 337.35 71.9 333.75 71.9C331.65 71.9 329.73 71.63 327.99 71.09C326.31 70.55 324.84 69.71 323.58 68.57C322.38 67.37 321.42 65.84 320.7 63.98C320.04 62.06 319.71 59.78 319.71 57.14V27.35H314.58V24.38C318.18 23 321.54 21.08 324.66 18.62C327.84 16.16 330.6 13.37 332.94 10.25H336.45V22.49Z" fill="url(#paint7_linear_33_21)"/>
<path d="M372.057 63.98C372.057 65.42 372.447 66.35 373.227 66.77C374.007 67.13 375.297 67.37 377.097 67.49V71H350.457V67.49C352.257 67.37 353.547 67.13 354.327 66.77C355.107 66.35 355.497 65.42 355.497 63.98V32.39L350.547 29.33V26.81L369.267 21.59H372.057V63.98ZM363.957 17.63C361.137 17.63 358.947 16.82 357.387 15.2C355.887 13.52 355.137 11.54 355.137 9.26003C355.137 6.98003 355.887 5.03003 357.387 3.41003C358.947 1.79003 361.137 0.980029 363.957 0.980029C366.657 0.980029 368.787 1.79003 370.347 3.41003C371.967 5.03003 372.777 6.98003 372.777 9.26003C372.777 11.54 371.967 13.52 370.347 15.2C368.787 16.82 366.657 17.63 363.957 17.63Z" fill="url(#paint8_linear_33_21)"/>
<path d="M405.085 68.12C407.785 68.12 409.645 66.5 410.665 63.26C411.685 60.02 412.195 55.52 412.195 49.76C412.195 46.1 412.045 42.77 411.745 39.77C411.505 36.71 411.055 34.13 410.395 32.03C409.795 29.93 408.985 28.31 407.965 27.17C406.945 25.97 405.715 25.37 404.275 25.37C401.575 25.37 399.715 26.99 398.695 30.23C397.675 33.47 397.165 37.97 397.165 43.73C397.165 47.45 397.285 50.81 397.525 53.81C397.825 56.81 398.275 59.36 398.875 61.46C399.535 63.56 400.375 65.21 401.395 66.41C402.415 67.55 403.645 68.12 405.085 68.12ZM404.635 71.9C400.915 71.9 397.495 71.33 394.375 70.19C391.315 69.05 388.675 67.43 386.455 65.33C384.295 63.23 382.585 60.71 381.325 57.77C380.125 54.77 379.525 51.41 379.525 47.69C379.525 43.91 380.125 40.43 381.325 37.25C382.585 34.07 384.325 31.31 386.545 28.97C388.825 26.63 391.495 24.83 394.555 23.57C397.615 22.25 401.005 21.59 404.725 21.59C408.445 21.59 411.835 22.16 414.895 23.3C418.015 24.44 420.655 26.06 422.815 28.16C425.035 30.26 426.745 32.81 427.945 35.81C429.205 38.81 429.835 42.14 429.835 45.8C429.835 49.58 429.205 53.06 427.945 56.24C426.745 59.42 425.005 62.18 422.725 64.52C420.505 66.86 417.835 68.69 414.715 70.01C411.655 71.27 408.295 71.9 404.635 71.9Z" fill="url(#paint9_linear_33_21)"/>
<path d="M468.138 37.7C468.138 35.72 467.718 34.19 466.878 33.11C466.038 31.97 464.448 31.4 462.108 31.4C460.668 31.4 459.318 31.58 458.058 31.94C456.798 32.3 455.568 32.78 454.368 33.38V63.98C454.368 65.42 454.728 66.35 455.448 66.77C456.168 67.13 457.428 67.37 459.228 67.49V71H432.768V67.49C434.568 67.37 435.858 67.13 436.638 66.77C437.418 66.35 437.808 65.42 437.808 63.98V32.39L432.858 29.33V26.81L451.668 21.59H454.728L454.368 30.59C455.208 29.51 456.168 28.43 457.248 27.35C458.388 26.27 459.618 25.31 460.938 24.47C462.318 23.63 463.848 22.94 465.528 22.4C467.208 21.86 469.068 21.59 471.108 21.59C475.488 21.59 478.848 22.82 481.188 25.28C483.588 27.68 484.788 31.37 484.788 36.35V63.98C484.788 65.42 485.178 66.35 485.958 66.77C486.738 67.13 488.028 67.37 489.828 67.49V71H463.368V67.49C465.168 67.37 466.398 67.13 467.058 66.77C467.778 66.35 468.138 65.42 468.138 63.98V37.7Z" fill="url(#paint10_linear_33_21)"/>
<path d="M510.084 71.9C506.304 71.9 502.974 71.48 500.094 70.64C497.274 69.8 494.904 68.69 492.984 67.31L492.444 55.16H496.584C497.004 57.02 497.604 58.73 498.384 60.29C499.224 61.85 500.214 63.23 501.354 64.43C502.494 65.57 503.784 66.47 505.224 67.13C506.724 67.79 508.344 68.12 510.084 68.12C512.184 68.12 513.984 67.61 515.484 66.59C516.984 65.57 517.734 64.04 517.734 62C517.734 60.86 517.524 59.9 517.104 59.12C516.684 58.28 516.054 57.56 515.214 56.96C514.374 56.36 513.354 55.82 512.154 55.34C510.954 54.86 509.604 54.38 508.104 53.9C505.584 53.12 503.334 52.25 501.354 51.29C499.434 50.33 497.814 49.19 496.494 47.87C495.174 46.55 494.154 45.05 493.434 43.37C492.774 41.63 492.444 39.62 492.444 37.34C492.444 34.82 492.894 32.6 493.794 30.68C494.754 28.7 496.044 27.05 497.664 25.73C499.284 24.35 501.234 23.33 503.514 22.67C505.794 21.95 508.284 21.59 510.984 21.59C514.044 21.59 516.894 21.98 519.534 22.76C522.234 23.48 524.544 24.47 526.464 25.73V36.53H522.594C522.294 35.03 521.844 33.62 521.244 32.3C520.644 30.92 519.864 29.72 518.904 28.7C517.944 27.68 516.804 26.87 515.484 26.27C514.224 25.67 512.814 25.37 511.254 25.37C509.334 25.37 507.774 25.88 506.574 26.9C505.374 27.86 504.774 29.21 504.774 30.95C504.774 32.87 505.464 34.34 506.844 35.36C508.224 36.32 510.414 37.31 513.414 38.33C516.114 39.23 518.484 40.16 520.524 41.12C522.624 42.08 524.364 43.22 525.744 44.54C527.184 45.86 528.264 47.39 528.984 49.13C529.704 50.87 530.064 52.97 530.064 55.43C530.064 58.07 529.584 60.41 528.624 62.45C527.724 64.49 526.404 66.23 524.664 67.67C522.924 69.05 520.824 70.1 518.364 70.82C515.904 71.54 513.144 71.9 510.084 71.9Z" fill="url(#paint11_linear_33_21)"/>
<defs>
<linearGradient id="paint0_linear_33_21" x1="265.48" y1="-44.245" x2="236.015" y2="129.869" gradientUnits="userSpaceOnUse">
<stop stop-color="#FF00FF"/>
<stop offset="1" stop-color="#0000FF"/>
</linearGradient>
<linearGradient id="paint1_linear_33_21" x1="265.48" y1="-44.245" x2="236.015" y2="129.869" gradientUnits="userSpaceOnUse">
<stop stop-color="#FF00FF"/>
<stop offset="1" stop-color="#0000FF"/>
</linearGradient>
<linearGradient id="paint2_linear_33_21" x1="265.48" y1="-44.245" x2="236.015" y2="129.869" gradientUnits="userSpaceOnUse">
<stop stop-color="#FF00FF"/>
<stop offset="1" stop-color="#0000FF"/>
</linearGradient>
<linearGradient id="paint3_linear_33_21" x1="265.48" y1="-44.245" x2="236.015" y2="129.869" gradientUnits="userSpaceOnUse">
<stop stop-color="#FF00FF"/>
<stop offset="1" stop-color="#0000FF"/>
</linearGradient>
<linearGradient id="paint4_linear_33_21" x1="265.48" y1="-44.245" x2="236.015" y2="129.869" gradientUnits="userSpaceOnUse">
<stop stop-color="#FF00FF"/>
<stop offset="1" stop-color="#0000FF"/>
</linearGradient>
<linearGradient id="paint5_linear_33_21" x1="265.48" y1="-44.245" x2="236.015" y2="129.869" gradientUnits="userSpaceOnUse">
<stop stop-color="#FF00FF"/>
<stop offset="1" stop-color="#0000FF"/>
</linearGradient>
<linearGradient id="paint6_linear_33_21" x1="265.48" y1="-44.245" x2="236.015" y2="129.869" gradientUnits="userSpaceOnUse">
<stop stop-color="#FF00FF"/>
<stop offset="1" stop-color="#0000FF"/>
</linearGradient>
<linearGradient id="paint7_linear_33_21" x1="265.48" y1="-44.245" x2="236.015" y2="129.869" gradientUnits="userSpaceOnUse">
<stop stop-color="#FF00FF"/>
<stop offset="1" stop-color="#0000FF"/>
</linearGradient>
<linearGradient id="paint8_linear_33_21" x1="265.48" y1="-44.245" x2="236.015" y2="129.869" gradientUnits="userSpaceOnUse">
<stop stop-color="#FF00FF"/>
<stop offset="1" stop-color="#0000FF"/>
</linearGradient>
<linearGradient id="paint9_linear_33_21" x1="265.48" y1="-44.245" x2="236.015" y2="129.869" gradientUnits="userSpaceOnUse">
<stop stop-color="#FF00FF"/>
<stop offset="1" stop-color="#0000FF"/>
</linearGradient>
<linearGradient id="paint10_linear_33_21" x1="265.48" y1="-44.245" x2="236.015" y2="129.869" gradientUnits="userSpaceOnUse">
<stop stop-color="#FF00FF"/>
<stop offset="1" stop-color="#0000FF"/>
</linearGradient>
<linearGradient id="paint11_linear_33_21" x1="265.48" y1="-44.245" x2="236.015" y2="129.869" gradientUnits="userSpaceOnUse">
<stop stop-color="#FF00FF"/>
<stop offset="1" stop-color="#0000FF"/>
</linearGradient>
</defs>
</svg>
