<svg width="1200" height="760" xmlns="http://www.w3.org/2000/svg" xmlns:xlink="http://www.w3.org/1999/xlink">
  <defs>
    <path id="a" d="M0 0h1593v760H0z"/>
  </defs>
  <g transform="translate(-20)" fill="none" fill-rule="evenodd">
    <mask id="b" fill="#fff">
      <use xlink:href="#a"/>
    </mask>
    <use fill="#8D8D8D" xlink:href="#a"/>
    <g mask="url(#b)">
      <path d="M1688.148-112.173V-106.861c-2.875 224.814-186.088 406.171-411.641 406.171a411.79 411.79 0 01-127.239-20.03c146.418-240.447 146.418-542.46 0-782.907a411.79 411.79 0 01127.239-20.03c225.553 0 408.766 181.336 411.64 406.171V-112.173z" fill="#999" fill-rule="nonzero"/>
      <path d="M1697-117.117C1691.3 411.333 1260.973 838 731 838s-960.626-426.97-966-955.704c5.374 410.398 339.862 741.48 751.696 741.48a754.273 754.273 0 00140.244-13.05 780.48 780.48 0 00257.905 43.497c428.477 0 776.455-344.39 782.155-771.34z" fill="#535353" fill-rule="nonzero"/>
      <path d="M1695.877-120.458v3.216a.69.69 0 010 .26c-4.655 321.108-266.75 580-589.442 580a591.683 591.683 0 01-112.081-10.643 753.89 753.89 0 00163.369-188.186 411.568 411.568 0 00127.067 20.05c225.25 0 408.216-180.951 411.087-405.261-.011.188-.011.376 0 .564z"/>
      <path d="M1695.893-123.235V-117.495c-4.654 321.392-266.756 580.514-589.455 580.514a591.204 591.204 0 01-112.084-10.654 754.367 754.367 0 00163.373-188.351 411.254 411.254 0 00127.07 19.98c225.255 0 408.225-181.111 411.096-405.62v-1.609z"/>
      <path d="M1697-117.704v1.087c-5.7 426.76-353.704 770.998-782.214 770.998a780.92 780.92 0 01-257.923-43.479 748.649 748.649 0 00338.364-158.825 591.663 591.663 0 00112.121 10.652c322.742-.022 584.93-259.086 589.652-580.433z" fill="#8D8D8D" fill-rule="nonzero"/>
      <path d="M1694.992-121.022V-117.214a.69.69 0 010 .261c-4.663 321.704-267.254 581.078-590.558 581.078a592.825 592.825 0 01-112.293-10.664 755.297 755.297 0 00163.678-188.535 412.36 412.36 0 00127.308 20.066c225.676 0 408.989-181.287 411.865-406.014z" fill="#9D9D9D" fill-rule="nonzero"/>
      <path d="M132.586-125.447a779.275 779.275 0 0060.64 302.35c-97.45 34.523-205.56 20.004-290.45-39.006C-182.116 78.887-233.398-17.393-235-120.77v-4.677-4.677C-233.397-233.5-182.115-329.78-97.225-388.79c84.89-59.01 193.002-73.529 290.452-39.006a779.275 779.275 0 00-60.641 302.35z" fill="#959595" fill-rule="nonzero"/>
      <path d="M194.195 179.847c-80.961-193.221-98.161-417.155 0-603.951 128.145 45.438 213.732 166.406 213.699 302.04-.03 135.585-85.603 256.484-213.699 301.911z" fill="#999" fill-rule="nonzero"/>
      <path d="M516.347-125.801c-.182 115.594 33.662 228.675 97.298 325.095-80.994 90.683-192.954 147.678-313.812 159.748-44.034-55.725-79.5-117.025-106.941-182.568 127.9-45.573 212.56-167.05 212.56-303.06S320.02-383.887 192.12-429.46a781.604 781.604 0 01107.713-182.688c121.151 12.119 233.342 69.38 314.356 160.445-63.999 96.58-98.042 209.974-97.842 325.902z" fill="#8D8D8D" fill-rule="nonzero"/>
      <path d="M1157.605 265.52a754.972 754.972 0 01-163.187 188.65c-155.525-30.233-292.977-122.982-380.23-255.518 165.604-185.084 166.464-464.374 1.17-649.735C702.9-583.627 840.066-675.191 995.83-705.063c63.853 53.148 119.547 113.59 162.81 184.587-169.173 55.177-284.72 216.137-284.72 394.452s114.513 336.366 283.685 391.543z" fill="#757575" fill-rule="nonzero"/>
      <path d="M739.852-125.763c.173 120.187-44.512 235.064-125.038 324.415-130.308-197.352-129.885-452.17.754-649.304 80.197 89.262 124.467 204.989 124.284 324.89z" fill="#A8A8A8" fill-rule="nonzero"/>
      <path d="M656.863 612.564a753.971 753.971 0 01-140.219 13.062C104.8 625.643-229.627 294.363-235-116.282v-3.634c3.415 266.32 220.268 481.153 487.261 481.153 16.46 0 32.717-.805 48.77-2.415 92.156 116.628 215.567 204.416 355.832 253.526v.216z" fill="#999" fill-rule="nonzero"/>
      <path d="M300.56 358.841c-16.01 1.609-32.253 2.413-48.727 2.413-266.758 0-483.42-214.606-486.833-480.646v-1.63c1.601 103.315 52.843 199.538 137.668 258.512 84.824 58.975 192.85 73.486 290.224 38.984A779.662 779.662 0 00300.56 358.84z" fill="#9D9D9D" fill-rule="nonzero"/>
      <path d="M994.354 453.212C896.9 534.046 780.564 588.8 656.232 612.348 516.028 563.179 392.674 475.097 300.56 358.375c120.89-12.068 232.88-69.053 313.894-159.723 87.32 132.546 224.25 224.299 379.9 254.56z" fill="#535353" fill-rule="nonzero"/>
      <path d="M1267.67-126c.222 137.96-38.081 273.792-110.065 391.52C988.135 210.415 873.742 52.076 873.742-126c0-178.077 114.715-335.917 284.186-391.02A747.363 747.363 0 011267.67-126z" fill="#959595" fill-rule="nonzero"/>
    </g>
  </g>
</svg>
