<?xml version="1.0" encoding="UTF-8"?>
<svg width="1440px" height="687px" viewBox="0 0 1440 687" version="1.1" xmlns="http://www.w3.org/2000/svg" xmlns:xlink="http://www.w3.org/1999/xlink">
    <title>hero-home3</title>
    <defs>
        <rect id="path-1" x="0" y="0" width="1440" height="687"></rect>
    </defs>
    <g id="Page-1" stroke="none" stroke-width="1" fill="none" fill-rule="evenodd">
        <g id="hero-home3">
            <g id="Mask" fill="#EF2B55" fill-rule="nonzero">
                <rect id="path-1" x="0" y="0" width="1440" height="687"></rect>
            </g>
            <g id="Path-Clipped">
                <mask id="mask-2" fill="white">
                    <use xlink:href="#path-1"></use>
                </mask>
                <g id="path-1"></g>
                <g id="Path" mask="url(#mask-2)">
                    <g transform="translate(-212.000000, -637.000000)" id="Group">
                        <path d="M1738,536 L1738,536.649524 C1738,537.338412 1738,538.027301 1738,538.735872 L1738,539.34603 C1738,539.838094 1738,540.310474 1738,540.802538 C1735.40183,744.04436 1569.82734,908.00015 1365.98884,908.00015 C1326.94647,908.0351 1288.1419,901.92433 1251,889.89192 C1383.32199,672.51629 1383.32199,399.483706 1251,182.108081 C1288.1419,170.075672 1326.94647,163.964903 1365.98884,163.99985 C1569.82734,163.99985 1735.40183,327.935958 1738,531.197462 C1738,531.610795 1738,532.024129 1738,532.437462 L1738,533.04762 C1738,534.031747 1738,535.015873 1738,536 Z" id="Path" fill="#FED533" fill-rule="nonzero"></path>
                        <path d="M1746,531.53087 C1740.84851,1009.27413 1351.95061,1395 873,1395 C394.049392,1395 4.85655405,1008.99886 0,531 C4.85655405,902.01882 307.142635,1201.33093 679.327703,1201.33093 C721.102827,1201.3612 762.635647,1198.83862 803.704212,1191.27998 C804.439427,1191.14466 805.174493,1191.00773 805.909409,1190.86917 C880.834953,1216.99837 959.794245,1228.95768 1039.14527,1228.8575 C1426.37189,1228.8575 1740.84851,917.51235 1746,531.53087 Z" id="Path" fill="#001E3C" fill-rule="nonzero"></path>
                        <path d="M1744.98502,528.5106 C1744.98502,529.001562 1744.98502,529.472885 1744.98502,529.944209 L1744.98502,530.729747 C1744.98502,530.94577 1744.98502,531.181432 1744.98502,531.417094 L1744.98502,531.417094 C1744.99626,531.49438 1744.99626,531.575469 1744.98502,531.652755 C1740.7785,821.94862 1503.91621,1056.0001 1212.29057,1056.0001 C1178.29746,1056.02027 1144.38004,1052.79803 1111,1046.37705 C1169.3178,998.24152 1219.21272,940.74711 1258.64089,876.24899 C1295.72956,888.27445 1334.48194,894.39144 1373.47487,894.3753 C1577.03884,894.3753 1742.39035,730.78684 1744.98502,528 C1744.97521,528.170059 1744.97521,528.340541 1744.98502,528.5106 Z" id="Path"></path>
                        <path d="M1745,526 L1745,527.965583 C1745,528.456979 1745,528.928719 1745,529.400459 L1745,530.186693 C1745,530.402907 1745,530.638777 1745,530.874647 L1745,531.18914 C1740.79338,821.74168 1503.9255,1056.0001 1212.29296,1056.0001 C1178.29905,1056.02029 1144.38083,1052.7952 1111,1046.36855 C1169.31918,998.19045 1219.21528,940.6452 1258.64437,876.09006 C1295.7382,888.09947 1334.4914,894.19532 1373.48107,894.15377 C1577.04986,894.15377 1742.40526,730.42067 1745,527.454532 C1745,526.963136 1745,526.589675 1745,526 Z" id="Path"></path>
                        <path d="M1746,531 L1746,531.982655 C1740.84813,917.79263 1426.34809,1229.00528 1039.09263,1229.00528 C959.735694,1229.09958 880.931124,1217.1176 806,1191 C918.442096,1169.76482 1023.65465,1119.05471 1111.78906,1046.10771 C1145.18099,1052.53347 1179.11049,1055.7581 1213.11572,1055.73772 C1504.78629,1055.71807 1741.73299,821.5121 1746,531 Z" id="Path" fill="#EF2B55" fill-rule="nonzero"></path>
                        <path d="M1744.18575,528 C1744.18575,528.629598 1744.18575,529.298546 1744.18575,529.967493 L1744.18575,530.754491 C1744.18575,530.970915 1744.18575,531.207014 1744.18575,531.443113 C1744.19701,531.520543 1744.19701,531.601782 1744.18575,531.679212 C1739.97126,822.51406 1502.66037,1057 1210.48241,1057 C1176.42491,1057.02031 1142.44326,1053.79209 1109,1047.35919 C1167.42825,999.13428 1219.32341,942.324093 1258.82625,877.706223 C1295.98624,889.747333 1332.90625,895.07806 1371.97198,895.05554 C1575.92149,895.05554 1741.58616,731.16335 1744.18575,528 Z" id="Path" fill="#3A6EFF" fill-rule="nonzero"></path>
                        <path d="M388.914612,796.95019 C300.84625,828.15988 201.229028,817.05355 124.511227,763.70578 C47.7934258,710.358 1.44831314,620.685402 0,527.227901 C0,525.812046 0,524.415855 0,523 C0,521.584145 0,520.187954 0,518.772099 C1.44831314,425.314598 47.7934258,338.272955 124.511227,284.925182 C201.229028,231.577409 298.931638,218.451619 387,249.661308 C350.713906,336.212356 332.081552,429.144662 332.197278,523 C332.081552,616.855338 352.628518,710.39914 388.914612,796.95019 Z" id="Path" fill="#FDC22D" fill-rule="nonzero"></path>
                        <path d="M386.697184,796.95019 C313.530205,622.269098 312.708255,425.681092 385.875234,251 C501.683106,292.078306 579.029963,401.438953 579.00019,524.058908 C578.974115,646.633776 502.460503,755.88146 386.697184,796.95019 Z" id="Path" fill="#FED533" fill-rule="nonzero"></path>
                        <path d="M679.01207,523.67946 C678.847779,628.181834 709.433767,730.41239 766.9432,817.58031 C693.747078,899.56254 592.565452,951.08799 483.3432,962 C443.548412,911.62209 411.495741,856.20422 386.697184,796.95019 C502.2839,755.74997 578.794112,645.930257 578.794112,522.970458 C578.794112,400.010659 501.586716,290.358202 386,249.157982 C410.803325,189.924612 443.553018,134.359629 483.3432,84 C592.830457,94.956143 694.220512,146.72338 767.434436,229.049909 C709.597189,316.361797 678.831386,418.875621 679.01207,523.67946 Z" id="Path" fill="#EF2B55" fill-rule="nonzero"></path>
                        <path d="M1258.82625,877.706223 C1219.44198,942.363843 1168.8638,999.23773 1110.61093,1047.49231 C970.058529,1020.16053 846.526557,936.81871 767.674211,817 C917.334706,649.67587 917.871932,397.184874 768.490868,229.609904 C847.60517,109.783861 971.56606,27.005945 1112.33436,0 C1170.03992,48.048857 1220.37197,102.691438 1259.46896,166.876004 C1106.58332,216.758575 1002.16027,362.273526 1002.16027,523.478294 C1002.16027,684.68306 1105.94061,827.823643 1258.82625,877.706223 Z" id="Path" fill="#000814" fill-rule="nonzero"></path>
                        <path d="M881,523.714687 C881.1564,632.369165 840.447676,736.22253 767.674211,817 C649.910629,638.584759 650.618863,408.218233 768.681231,230 C841.156936,310.696442 881.165303,415.319194 881,523.714687 Z" id="Path" fill="#043666" fill-rule="nonzero"></path>
                        <path d="M679.281073,1203.0042 C307.086,1203.01949 4.85565854,903.52741 0,532.285501 C0,531.183776 0,530.082051 0,529 C3.08639024,769.76622 199.062341,963.98456 440.35122,963.98456 C455.226179,963.98456 469.917659,963.25663 484.425659,961.80078 C567.7098,1067.23864 679.239539,1146.60268 806,1191 C764.220918,1198.88305 721.796221,1203.03065 679.281073,1203.0042 Z" id="Path" fill="#FED533" fill-rule="nonzero"></path>
                        <path d="M439.964289,964 C198.887428,964 3.08367827,769.98639 0,529.473969 C0,528.982646 0,528.491323 0,528 C1.44717988,621.401728 47.7560288,708.39143 124.413801,761.70736 C201.071572,815.0233 298.697732,828.14126 386.697184,796.95019 C411.485453,856.07915 444.221721,911.54695 484,961.81853 C469.530936,963.27284 454.852366,964 439.964289,964 Z" id="Path" fill="#3A6EFF" fill-rule="nonzero"></path>
                        <path d="M806,1191 C679.293818,1146.54934 567.246004,1066.91871 484,961.39751 C593.250833,950.48718 694.458936,898.96964 767.674211,817 C846.587909,936.82821 970.334563,1019.77663 1111,1047.13415 C1022.92868,1120.21161 918.362517,1169.71072 806,1191 Z" id="Path" fill="#001E3C" fill-rule="nonzero"></path>
                        <path d="M1358.00179,523.5 C1358.20346,648.222386 1323.87957,771.275563 1258.82625,877.706223 C1105.67111,827.890293 1002,684.4894 1002,523.5 C1002,362.510604 1105.67111,219.815928 1258.82625,170 C1323.87483,276.432727 1358.19833,398.778314 1358.00179,523.5 Z" id="Path" fill="#FDC22D" fill-rule="nonzero"></path>
                    </g>
                </g>
            </g>
        </g>
    </g>
</svg>