<svg xmlns="http://www.w3.org/2000/svg" viewBox="0 0 1041.91 1082.15"><defs><style>.cls-1{fill:#282f42;}.cls-1,.cls-2{stroke:#3a4270;}.cls-1,.cls-2,.cls-3{stroke-miterlimit:10;}.cls-2{fill:#323851;}.cls-3{fill:#21222b;stroke:#373b56;}</style></defs><g id="Layer_2" data-name="Layer 2"><g id="Layer_56" data-name="Layer 56"><g id="Layer_22" data-name="Layer 22"><polygon class="cls-1" points="520.95 1081.28 520.95 961.2 624.95 901.16 624.95 1021.24 520.95 1081.28"/><polygon class="cls-1" points="624.95 901.16 728.93 841.13 728.93 961.2 624.95 1021.24 624.95 901.16"/><polygon class="cls-1" points="416.96 781.09 520.95 721.05 520.95 841.13 416.96 901.16 416.96 781.09"/><polygon class="cls-1" points="728.93 721.05 624.95 781.09 624.95 901.16 728.93 841.13 728.93 721.05"/><path class="cls-1" d="M728.94,721.05c.1-.29,104-60,104-60V781.09l-104,60Z"/><polygon class="cls-1" points="312.97 600.97 312.97 721.05 416.96 661.01 416.96 540.93 312.97 600.97"/><polygon class="cls-1" points="520.95 480.89 520.95 600.97 416.96 661.01 416.96 540.93 520.95 480.89"/><polygon class="cls-1" points="832.93 540.93 728.93 600.97 728.93 721.05 832.93 661.01 832.93 540.93"/><polygon class="cls-1" points="936.92 480.89 832.93 540.93 832.93 661.01 936.92 600.97 936.92 480.89"/><polygon class="cls-1" points="520.95 240.73 520.95 360.81 416.96 420.85 416.96 300.77 520.95 240.73"/><polygon class="cls-1" points="312.97 360.81 416.96 300.77 416.96 420.85 312.97 480.89 312.97 360.81"/><polygon class="cls-1" points="208.98 420.85 312.97 360.81 312.97 480.89 208.98 540.93 208.98 420.85"/><polygon class="cls-1" points="936.92 360.81 832.93 420.85 832.93 540.93 936.92 480.89 936.92 360.81"/><polygon class="cls-1" points="1040.91 300.77 1040.91 420.85 936.92 480.89 936.92 360.81 1040.91 300.77"/><polygon class="cls-2" points="104.99 240.73 208.98 300.77 104.99 360.81 1 300.77 104.99 240.73"/><polygon class="cls-2" points="208.98 180.69 312.97 240.73 208.98 300.77 104.99 240.73 208.98 180.69"/><polygon class="cls-2" points="312.97 120.66 416.96 180.69 312.97 240.73 208.98 180.69 312.97 120.66"/><polygon class="cls-2" points="416.96 60.62 520.95 120.66 416.96 180.69 312.97 120.66 416.96 60.62"/><polygon class="cls-2" points="936.92 240.73 1040.91 300.77 936.92 360.81 832.93 300.77 936.92 240.73"/><polygon class="cls-2" points="624.95 420.85 520.95 480.89 416.96 420.85 520.95 360.81 624.95 420.85"/><polygon id="l1" class="cls-2" points="520.95 841.13 624.95 901.16 520.95 961.2 416.96 901.16 520.95 841.13"/><polygon class="cls-2" points="624.95 661.01 728.93 721.05 624.95 781.09 520.95 721.05 624.95 661.01"/><polygon class="cls-2" points="520.95 600.97 624.95 661.01 520.95 721.05 416.96 661.01 520.95 600.97"/><polygon class="cls-2" points="312.97 721.05 416.96 661.01 520.95 721.05 416.96 781.09 312.97 721.05"/><polygon class="cls-2" points="728.93 480.89 624.95 420.85 520.95 480.89 624.95 540.93 728.93 480.89"/><polygon class="cls-2" points="728.93 480.89 832.93 540.93 728.93 600.97 624.95 540.93 728.93 480.89"/><polygon class="cls-2" points="312.97 480.89 416.96 540.93 312.97 600.97 208.98 540.93 312.97 480.89"/><polygon class="cls-2" points="416.96 420.85 312.97 480.89 416.96 540.93 520.95 480.89 416.96 420.85"/><polygon class="cls-2" points="728.93 360.81 832.93 300.77 936.92 360.81 832.93 420.85 728.93 360.81"/><polygon class="cls-2" points="728.93 240.73 832.93 300.77 728.93 360.81 624.95 300.77 728.93 240.73"/><polygon class="cls-2" points="624.94 180.69 728.93 240.73 624.95 300.77 520.95 240.73 624.94 180.69"/><polygon class="cls-2" points="832.93 180.69 936.92 240.73 832.93 300.77 728.93 240.73 832.93 180.69"/><polygon class="cls-2" points="728.93 120.66 832.93 180.69 728.93 240.73 624.94 180.69 728.93 120.66"/><polygon class="cls-2" points="520.95 120.66 624.94 180.69 520.95 240.73 416.96 180.69 520.95 120.66"/><polygon class="cls-2" points="624.95 60.62 728.93 120.66 624.94 180.69 520.95 120.66 624.95 60.62"/><polygon class="cls-2" points="312.97 240.73 416.96 180.69 520.95 240.73 416.96 300.77 312.97 240.73"/><polygon class="cls-2" points="208.98 300.77 312.97 240.73 416.96 300.77 312.97 360.81 208.98 300.77"/><polygon class="cls-2" points="104.99 360.81 208.98 300.77 312.97 360.81 208.98 420.85 104.99 360.81"/><polygon class="cls-2" points="520.95 0.58 624.95 60.62 520.95 120.66 416.96 60.62 520.95 0.58"/><polygon class="cls-3" points="104.99 360.81 208.98 420.85 208.98 540.93 104.99 480.89 104.99 360.81"/><polygon class="cls-3" points="1 300.77 104.99 360.81 104.99 480.89 1 420.85 1 300.77"/><polygon class="cls-3" points="624.95 300.77 520.95 240.73 520.95 360.81 624.95 420.85 624.95 300.77"/><polygon class="cls-3" points="208.98 540.93 312.97 600.97 312.97 721.05 208.98 661.01 208.98 540.93"/><polygon class="cls-3" points="104.99 480.89 208.98 540.93 208.98 661.01 104.99 600.97 104.99 480.89"/><polygon class="cls-3" points="520.95 1081.28 416.96 1021.24 416.96 901.16 520.95 961.2 520.95 1081.28"/><polygon class="cls-3" points="416.96 1021.24 416.96 901.16 312.97 841.13 312.97 961.2 416.96 1021.24"/><polygon class="cls-3" points="520.95 721.05 520.95 841.13 624.95 901.16 624.95 781.09 520.95 721.05"/><polygon class="cls-3" points="312.97 721.05 416.96 781.09 416.96 901.16 312.97 841.13 312.97 721.05"/><polygon class="cls-3" points="208.98 661.01 312.97 721.05 312.97 841.13 208.98 781.09 208.98 661.01"/><polygon class="cls-3" points="624.95 540.93 520.95 480.89 520.95 600.97 624.95 661.01 624.95 540.93"/><polygon class="cls-3" points="728.93 600.97 624.95 540.93 624.95 661.01 728.93 721.05 728.93 600.97"/><polygon class="cls-3" points="728.93 360.81 624.95 300.77 624.95 420.85 728.93 480.89 728.93 360.81"/><polygon class="cls-3" points="832.93 420.85 728.93 360.81 728.93 480.89 832.93 540.93 832.93 420.85"/></g></g></g></svg>