<svg xmlns="http://www.w3.org/2000/svg" viewBox="0 0 1040.91 1082.67"><defs><style>.cls-1{fill:#fafafa;}.cls-2{fill:#eee;}.cls-3{fill:#ddd;}.cls-4,.cls-5{fill:none;stroke-miterlimit:10;}.cls-4{stroke:#ddd;}.cls-5{stroke:#ccc;}</style></defs><g id="Layer_2" data-name="Layer 2"><g id="Layer_1-2" data-name="Layer 1"><g id="Layer_3" data-name="Layer 3"><rect class="cls-1" x="624.44" y="181.69" width="0.01" height="0.01"/><polygon class="cls-1" points="832.42 661.97 832.42 661.98 728.44 722.01 728.44 722 832.42 661.97"/><polygon class="cls-1" points="728.4 481.87 625.28 541.41 625.27 541.41 624.45 540.94 624.45 540.93 624.45 540.92 727.56 481.39 728.4 481.87"/><polygon class="cls-1" points="313.34 121.16 312.47 121.66 312.47 120.66 313.34 121.16"/><polygon class="cls-2" points="415.59 541.43 312.47 600.97 209.31 541.41 312.44 481.87 312.47 481.89 415.59 541.43"/><polygon class="cls-1" points="209.31 541.41 208.48 541.89 208.48 540.93 209.31 541.41"/><polygon class="cls-1" points="624.44 180.68 624.44 180.69 596.91 164.79 624.44 180.68"/><polygon class="cls-1" points="832.42 421.82 832.42 421.85 832.39 421.83 832.42 421.82"/><polygon class="cls-1" points="416.46 661.97 313.3 721.53 312.47 721.05 415.63 661.49 416.46 661.97"/><polygon class="cls-1" points="936.41 481.86 936.41 600.97 935.58 601.45 832.43 661 832.43 541.89 832.84 541.65 833.25 541.41 833.26 541.41 849.48 532.05 936.41 481.86"/><polygon class="cls-1" points="936.41 601.93 832.43 661.96 832.43 661.01 832.43 661 935.58 601.45 936.41 601.93"/><polygon class="cls-1" points="728.43 721.05 727.6 721.53 624.45 661.97 624.86 661.73 625.27 661.49 625.28 661.49 728.43 721.05"/><polygon class="cls-1" points="832.42 540.92 832.42 540.93 832.01 540.69 832.42 540.92"/><polygon class="cls-1" points="832.42 541.88 832.42 541.89 832.01 541.65 832.42 541.88"/><polygon class="cls-1" points="832.42 541.89 832.42 541.9 832.01 542.13 832.42 541.89"/><polygon class="cls-1" points="625.27 661.49 624.86 661.73 624.45 661.96 624.45 661.02 625.27 661.49"/><polygon class="cls-2" points="935.54 241.23 832.66 300.63 832.43 300.76 832.43 300.77 832.42 300.77 832.42 300.76 804.66 284.74 796 279.74 729.31 241.23 772.04 216.56 832.42 181.7 832.43 181.7 832.43 181.71 935.54 241.23"/><polygon class="cls-1" points="936.41 361.81 936.41 480.89 935.69 481.31 935.59 481.37 935.58 481.37 919.36 490.73 832.43 540.92 832.43 421.84 832.46 421.83 833.29 421.35 936.41 361.81"/><polygon class="cls-1" points="625.32 181.19 625.31 181.2 625.3 181.2 624.45 180.71 624.45 180.69 624.46 180.69 625.32 181.19"/><polygon class="cls-1" points="417.03 181.02 417.05 181.04 417.03 181.03 417.03 181.02"/><polygon class="cls-1" points="520.45 360.81 520.45 361.77 519.62 361.29 520.45 360.81"/><polygon class="cls-1" points="520.45 241.73 520.44 241.74 450.92 281.88 436.08 290.44 417.33 301.27 417.29 301.25 520.42 241.71 520.45 241.73"/><polygon class="cls-1" points="208.48 540.93 207.65 541.41 104.49 481.85 105.32 481.37 208.48 540.93"/><rect class="cls-1" x="728.43" y="361.81" width="0.01" height="0.01"/><polygon class="cls-1" points="833.29 181.2 832.43 181.7 832.43 181.69 832.43 181.68 833.28 181.19 833.29 181.2"/><polygon class="cls-1" points="624.44 661.02 624.44 661.96 624.03 661.73 623.61 661.49 624.44 661.01 624.44 661.02"/><polygon class="cls-1" points="729.3 481.39 728.47 481.87 728.46 481.87 728.45 481.87 728.44 481.86 728.44 481.85 728.45 481.84 729.07 481.48 729.16 481.43 729.26 481.37 729.27 481.37 729.3 481.39"/><polygon class="cls-1" points="417.29 661.49 416.46 661.97 416.46 661.01 417.29 661.49"/><polygon class="cls-1" points="625.31 181.2 728.42 240.73 728.06 240.95 727.9 241.04 727.58 241.23 727.57 241.23 727.56 241.23 624.45 181.69 625.3 181.2 625.31 181.2"/><polygon class="cls-1" points="727.56 241.23 624.45 181.71 624.45 181.7 624.45 181.69 727.56 241.23"/><polygon class="cls-1" points="521.28 481.37 520.45 481.85 520.45 480.89 521.28 481.37"/><polygon class="cls-1" points="624.44 300.76 624.44 300.77 624.03 300.53 624.44 300.76"/><polygon class="cls-1" points="416.43 421.83 313.3 481.37 312.47 480.89 415.59 421.35 416.43 421.83"/><polygon class="cls-1" points="624.45 661 624.45 661.01 624.44 661.01 624.44 541.93 624.45 541.92 624.45 661"/><polygon class="cls-1" points="728.44 361.8 728.44 361.81 728.43 361.81 728.43 361.78 728.44 361.77 728.44 361.8"/><polygon class="cls-1" points="520.45 241.69 520.45 241.73 520.42 241.71 520.45 241.69"/><polygon class="cls-1" points="623.61 541.41 623.57 541.43 520.45 481.89 520.48 481.87 623.61 541.41"/><polygon class="cls-1" points="520.45 481.85 520.45 481.89 520.42 481.87 520.45 481.85"/><polygon class="cls-1" points="624.44 421.82 624.44 421.85 624.41 421.83 624.44 421.82"/><polygon class="cls-1" points="727.6 361.29 727.57 361.31 727.56 361.31 624.45 301.78 624.45 301.77 624.45 301.76 624.47 301.75 624.48 301.75 727.6 361.29"/><polygon class="cls-1" points="416.43 301.75 313.3 361.29 312.47 360.81 415.59 301.27 416.43 301.75"/><polygon class="cls-1" points="208.48 421.81 208.48 421.85 208.45 421.83 208.48 421.81"/><polygon class="cls-1" points="624.44 300.77 624.44 301.73 623.61 301.25 624.44 300.77"/><polygon class="cls-1" points="209.35 421.35 208.51 421.83 208.48 421.81 209.31 421.33 209.35 421.35"/><polygon class="cls-1" points="208.48 420.85 208.48 421.81 208.45 421.83 207.61 421.35 208.48 420.85"/><polygon class="cls-1" points="624.44 420.85 624.44 421.8 624.03 421.57 623.61 421.33 624.44 420.85"/><polygon class="cls-1" points="208.48 181.69 105.36 241.23 104.49 240.73 207.61 181.19 208.48 181.69"/><polygon class="cls-1" points="936.41 360.81 936.28 360.89 936.16 360.96 936.12 360.99 935.93 361.1 935.9 361.11 935.85 361.14 935.55 361.31 935.54 361.31 832.43 301.78 832.43 301.77 832.99 301.44 833.29 301.27 833.3 301.27 936.18 360.67 936.41 360.81"/><polygon class="cls-1" points="312.47 360.81 312.47 361.77 312.44 361.79 311.6 361.31 312.47 360.81"/><polygon class="cls-3" points="416.46 902.13 416.46 1022.2 312.47 962.16 312.47 842.09 416.45 902.13 416.46 902.13"/><polygon class="cls-1" points="312.47 600.97 312.47 601.93 311.64 601.45 312.47 600.97"/><polygon class="cls-1" points="209.31 421.33 208.48 421.81 208.48 420.85 209.31 421.33"/><polygon class="cls-1" points="520.42 361.79 417.29 421.33 416.46 420.85 519.58 361.31 520.42 361.79"/><polygon class="cls-1" points="936.41 241.73 936.41 241.74 862.73 284.28 936.41 241.73"/><polygon class="cls-3" points="104.49 361.81 104.49 480.89 0.5 420.85 0.5 301.77 103.62 361.31 104.49 361.81"/><polygon class="cls-1" points="624.44 61.62 521.32 121.16 520.45 120.66 623.57 61.12 623.58 61.12 623.88 61.29 624.44 61.62"/><polygon class="cls-1" points="832.6 300.87 832.43 300.78 832.43 300.77 832.6 300.87"/><polygon class="cls-1" points="520.45 240.73 519.58 241.23 416.46 181.7 416.9 181.44 417.3 181.2 417.31 181.2 417.33 181.2 520.45 240.73"/><polygon class="cls-1" points="416.45 181.7 313.34 241.23 312.47 240.73 415.59 181.2 415.61 181.2 415.92 181.39 416.45 181.7"/><polygon class="cls-1" points="728.43 240.72 728.43 240.73 728.42 240.73 625.31 181.2 625.32 181.19 728.43 240.72"/><polygon class="cls-1" points="623.61 301.25 623.57 301.27 520.46 241.74 520.49 241.72 623.61 301.25"/><polygon class="cls-1" points="624.47 301.75 624.45 301.76 624.45 301.73 624.47 301.75"/><polygon class="cls-1" points="625.32 61.12 624.45 61.62 624.44 61.62 624.44 61.61 624.44 60.63 624.44 60.62 624.45 60.62 625.32 61.12"/><polygon class="cls-1" points="416.45 180.7 416.16 180.87 415.59 181.19 312.47 121.66 313.34 121.16 342.77 138.15 416.45 180.7"/><polygon class="cls-1" points="936.41 481.85 936.41 481.86 849.48 532.05 936.41 481.85"/><polygon class="cls-1" points="935.54 241.23 832.43 181.71 832.43 181.7 935.54 241.23"/><polygon class="cls-1" points="520.45 480.89 520.45 481.85 519.62 481.37 520.45 480.89"/><polygon class="cls-1" points="936.41 361.81 833.29 421.35 832.43 420.86 832.43 420.85 875.49 395.98 897.92 383.03 935.54 361.31 935.55 361.31 936.41 361.81"/><polygon class="cls-1" points="729.3 361.31 728.47 361.79 728.46 361.79 728.44 361.77 728.44 360.82 729.3 361.31"/><polygon class="cls-1" points="624.45 421.84 624.45 421.85 624.44 421.85 624.44 421.82 624.44 421.81 624.45 421.81 624.45 421.82 624.45 421.84"/><polygon class="cls-1" points="521.28 361.29 520.45 361.77 520.45 360.81 521.28 361.29"/><polygon class="cls-1" points="416.46 180.69 416.46 180.7 416.45 180.7 342.77 138.15 416.46 180.69"/><polygon class="cls-1" points="624.44 420.84 624.44 420.85 624.03 420.61 624.44 420.84"/><polygon class="cls-1" points="624.44 661.97 521.28 721.53 520.45 721.05 623.61 661.49 624.03 661.73 624.44 661.97"/><polygon class="cls-1" points="417.33 301.27 416.49 301.75 416.46 301.73 417.29 301.25 417.33 301.27"/><polygon class="cls-1" points="312.47 121.66 209.35 181.19 208.48 180.69 311.6 121.16 312.47 121.66"/><rect class="cls-1" x="623.57" y="181.19" width="0.01" height="0.01"/><polygon class="cls-1" points="832.42 301.77 729.3 361.31 728.44 360.82 728.44 360.81 759.98 342.6 802.57 318.01 808.83 314.39 823.21 306.09 831.55 301.27 831.56 301.27 831.75 301.38 832.42 301.77"/><polygon class="cls-1" points="802.57 318.01 759.98 342.6 728.44 360.8 802.57 318.01"/><polygon class="cls-1" points="520.45 361.77 520.45 361.81 520.42 361.79 520.45 361.77"/><polygon class="cls-1" points="832.66 300.63 832.43 300.77 832.43 300.76 832.66 300.63"/><polygon class="cls-1" points="832.42 300.78 832.42 301.76 831.75 301.38 831.56 301.27 831.77 301.15 831.86 301.1 831.91 301.07 831.94 301.05 832.42 300.78"/><polygon class="cls-1" points="208.48 540.93 208.48 541.89 207.65 541.41 208.48 540.93"/><polygon class="cls-1" points="936.42 361.8 936.42 480.88 936.41 480.89 936.41 361.81 936.42 361.8"/><polygon class="cls-1" points="936.41 360.8 936.41 360.81 936.18 360.67 936.41 360.8"/><polygon class="cls-1" points="624.44 301.74 624.44 301.77 624.41 301.75 624.44 301.74"/><polygon class="cls-1" points="624.44 301.73 624.44 301.74 624.41 301.75 624.44 301.73"/><polygon class="cls-1" points="766.5 218.76 728.44 240.73 728.44 240.72 766.5 218.76"/><polygon class="cls-1" points="624.45 180.71 624.45 181.69 624.44 181.69 624.44 181.68 624.44 180.7 624.45 180.71"/><polygon class="cls-1" points="729 241.06 728.44 240.74 728.44 240.73 729 241.06"/><polygon class="cls-1" points="832.43 661 832.43 661.01 832.42 661.01 832.42 541.9 832.42 541.89 832.43 541.89 832.43 661"/><polygon class="cls-1" points="417.29 781.57 416.46 782.05 416.46 781.09 417.29 781.57"/><polygon class="cls-1" points="728.43 360.8 728.43 360.81 728.07 360.6 728.43 360.8"/><polygon class="cls-1" points="832.43 181.68 832.43 181.69 832.42 181.69 831.86 181.37 831.56 181.2 831.99 180.95 832.43 180.7 832.43 181.68"/><polygon class="cls-1" points="624.46 541.88 624.45 541.89 624.45 541.88 624.46 541.88"/><polygon class="cls-1" points="313.34 241.23 312.47 241.73 312.47 240.73 313.34 241.23"/><polygon class="cls-1" points="519.62 481.37 519.58 481.39 416.46 421.85 416.49 421.83 519.62 481.37"/><polygon class="cls-1" points="521.32 241.23 520.48 241.71 520.45 241.69 520.45 240.73 521.32 241.23"/><polygon class="cls-1" points="208.48 661.01 208.48 661.97 104.49 601.93 105.32 601.45 208.48 661.01"/><polygon class="cls-1" points="728.97 601.62 728.44 601.93 728.44 601.92 728.97 601.62"/><polygon class="cls-1" points="936.42 360.82 936.42 361.8 936.41 361.81 936.41 360.82 936.41 360.81 936.42 360.81 936.42 360.82"/><polygon class="cls-1" points="313.34 481.39 312.5 481.87 312.47 481.85 313.3 481.37 313.34 481.39"/><polygon class="cls-1" points="520.45 240.73 520.45 241.69 520.42 241.71 519.58 241.23 520.45 240.73"/><polygon class="cls-1" points="312.47 480.89 312.47 481.85 311.64 481.37 312.47 480.89"/><polygon class="cls-2" points="415.59 181.19 415.59 181.2 312.47 240.73 209.35 181.2 209.35 181.19 312.47 121.66 415.59 181.19"/><polygon class="cls-1" points="728.43 241.72 728.43 241.73 727.89 241.43 727.57 241.24 727.57 241.23 727.58 241.23 728.43 241.72"/><polygon class="cls-1" points="624.44 301.73 624.41 301.75 623.57 301.27 623.61 301.25 624.44 301.73"/><polygon class="cls-2" points="623.57 181.19 623.57 181.2 520.45 240.73 417.33 181.2 417.33 181.19 520.45 121.66 623.57 181.19"/><polygon class="cls-3" points="728.43 601.93 728.43 721.05 625.28 661.49 625.27 661.49 624.45 661.02 624.45 661.01 624.45 661 624.45 541.92 624.47 541.91 624.48 541.91 727.6 601.45 728.02 601.69 728.43 601.93"/><polygon class="cls-1" points="312.47 361.81 209.35 421.35 209.31 421.33 312.44 361.79 312.47 361.81"/><polygon class="cls-1" points="520.45 600.97 520.45 601.93 519.62 601.45 520.45 600.97"/><polygon class="cls-1" points="312.5 361.79 312.47 361.81 312.47 361.77 312.5 361.79"/><polygon class="cls-1" points="520.45 481.89 417.33 541.43 417.29 541.41 520.42 481.87 520.45 481.89"/><polygon class="cls-3" points="312.47 722.01 312.47 842.09 208.48 782.05 208.48 661.97 312.47 722.01"/><polygon class="cls-1" points="313.34 361.31 312.5 361.79 312.47 361.77 313.3 361.29 313.34 361.31"/><polygon class="cls-1" points="208.48 180.69 208.48 181.69 207.61 181.19 208.48 180.69"/><polygon class="cls-2" points="623.57 61.12 520.45 120.66 417.33 61.12 520.45 1.58 623.57 61.12"/><polygon class="cls-1" points="919.36 490.73 832.43 540.93 832.43 540.92 919.36 490.73"/><polygon class="cls-1" points="728.43 481.86 728.43 481.89 728.42 481.89 728.41 481.87 728.42 481.86 728.43 481.86"/><polygon class="cls-3" points="416.46 782.05 416.46 902.12 312.47 842.09 312.47 722.01 416.46 782.05"/><polygon class="cls-2" points="623.57 421.35 520.45 480.89 417.33 421.35 520.45 361.81 623.57 421.35"/><polygon class="cls-1" points="624.45 661.96 624.45 661.97 624.44 661.97 624.44 661.96 624.44 661.02 624.45 661.02 624.45 661.96"/><polygon class="cls-1" points="832.43 540.92 832.43 540.93 832.42 540.93 832.42 540.92 832.42 421.85 832.43 421.84 832.43 540.92"/><polygon class="cls-1" points="728.42 241.74 625.31 301.27 625.01 301.1 624.76 300.95 624.67 300.9 624.62 300.87 624.45 300.77 638.88 292.44 642.54 290.32 652.29 284.69 727.56 241.24 727.57 241.24 727.89 241.43 728.42 241.74"/><polygon class="cls-1" points="624.44 420.85 623.61 421.33 520.48 361.79 521.32 361.31 550.31 378.05 624.03 420.61 624.44 420.85"/><polygon class="cls-1" points="417.29 421.33 416.46 421.81 416.46 420.85 417.29 421.33"/><polygon class="cls-1" points="729.27 241.24 728.44 241.73 728.44 241.72 729.27 241.24"/><polygon class="cls-1" points="728.44 240.75 729.27 241.24 728.44 241.72 728.44 240.75"/><polygon class="cls-1" points="521.28 721.53 520.45 722.01 520.45 721.05 521.28 721.53"/><polygon class="cls-1" points="624.44 541.89 624.44 541.93 624.42 541.91 624.43 541.89 624.44 541.89"/><polygon class="cls-1" points="416.46 61.62 313.34 121.16 312.47 120.66 415.59 61.12 416.46 61.62"/><polygon class="cls-2" points="519.58 121.16 490.15 138.15 459.53 155.83 416.46 180.69 342.77 138.15 313.34 121.16 416.46 61.62 519.58 121.16"/><polygon class="cls-1" points="417.33 61.12 416.46 61.62 416.46 60.62 417.33 61.12"/><polygon class="cls-1" points="832.43 541.88 832.43 541.89 832.42 541.89 832.42 541.88 832.42 540.93 832.43 540.93 832.43 540.94 832.43 541.88"/><polygon class="cls-1" points="417.33 181.19 417.33 181.2 417.31 181.2 417.3 181.2 417.09 181.06 417.33 181.19"/><polygon class="cls-1" points="832.43 661.96 832.43 661.97 832.42 661.97 832.42 661.96 832.42 661.01 832.43 661.01 832.43 661.96"/><polygon class="cls-1" points="415.61 181.2 416.02 181.44 415.92 181.39 415.61 181.2"/><polygon class="cls-1" points="624.44 781.09 623.61 781.57 520.45 722.01 521.28 721.53 624.44 781.09"/><polygon class="cls-1" points="415.63 541.41 415.59 541.43 312.47 481.89 312.5 481.87 415.63 541.41"/><polygon class="cls-1" points="625.31 301.27 624.48 301.75 624.47 301.75 624.45 301.73 624.45 300.78 624.62 300.87 624.67 300.9 624.76 300.95 625.01 301.1 625.31 301.27"/><polygon class="cls-1" points="832.42 661.98 832.42 782.05 728.43 842.08 728.43 722.01 728.44 722.01 832.42 661.98"/><polygon class="cls-1" points="936.41 481.84 936.41 481.85 849.48 532.05 833.26 541.41 833.25 541.41 832.43 540.94 832.43 540.93 919.36 490.73 935.58 481.37 935.59 481.37 936.41 481.84"/><polygon class="cls-1" points="624.41 421.83 521.28 481.37 520.45 480.89 623.57 421.35 624.41 421.83"/><polygon class="cls-1" points="520.45 481.89 520.45 600.97 519.62 601.45 519.58 601.47 416.46 661.01 416.46 541.93 416.49 541.91 417.33 541.43 520.45 481.89"/><polygon class="cls-3" points="208.48 541.89 208.48 661.01 105.32 601.45 104.49 600.97 104.49 481.85 207.65 541.41 208.48 541.89"/><polygon class="cls-1" points="625.31 541.43 624.48 541.91 624.47 541.91 624.46 541.9 624.45 541.9 624.45 541.89 624.46 541.88 624.7 541.74 624.76 541.71 624.82 541.67 624.98 541.58 625.27 541.41 625.28 541.41 625.31 541.43"/><polygon class="cls-1" points="728.44 360.82 728.44 361.77 728.43 361.76 728.43 360.82 728.43 360.81 728.44 360.81 728.44 360.82"/><polygon class="cls-1" points="728.43 842.08 728.43 842.09 624.44 902.12 624.44 782.05 728.43 722.01 728.43 842.08"/><polygon class="cls-1" points="624.44 180.7 624.44 181.68 623.59 181.19 624.17 180.85 624.43 180.7 624.44 180.7"/><polygon class="cls-1" points="832.42 661.96 832.42 661.97 832.01 661.73 832.42 661.96"/><polygon class="cls-1" points="832.46 421.83 832.43 421.84 832.43 421.82 832.43 421.81 832.46 421.83"/><polygon class="cls-1" points="520.42 481.87 417.29 541.41 416.46 540.93 519.58 481.39 520.42 481.87"/><polygon class="cls-1" points="520.45 120.66 519.58 121.16 416.46 61.62 417.33 61.12 520.45 120.66"/><polygon class="cls-1" points="624.46 421.83 624.45 421.84 624.45 421.82 624.46 421.83"/><polygon class="cls-1" points="209.31 661.49 208.48 661.97 208.48 661.01 209.31 661.49"/><polygon class="cls-1" points="624.62 300.87 624.45 300.78 624.45 300.77 624.62 300.87"/><polygon class="cls-2" points="727.57 121.16 624.46 180.69 624.45 180.69 624.44 180.69 624.44 180.68 596.91 164.79 573.44 151.25 549.53 137.45 521.32 121.16 624.44 61.62 624.45 61.62 624.45 61.63 727.57 121.16"/><polygon class="cls-1" points="728.43 361.78 728.43 361.81 728.41 361.79 728.43 361.78"/><polygon class="cls-1" points="520.49 241.72 520.46 241.74 520.45 241.74 520.45 241.73 520.48 241.71 520.49 241.72"/><polygon class="cls-1" points="728.46 361.79 728.44 361.8 728.44 361.77 728.46 361.79"/><polygon class="cls-1" points="208.48 301.77 105.36 361.31 104.49 360.81 207.61 301.27 208.48 301.77"/><polygon class="cls-1" points="624.44 781.09 624.44 782.05 623.61 781.57 624.44 781.09"/><polygon class="cls-1" points="520.45 721.05 520.45 722.01 519.62 721.53 520.45 721.05"/><polygon class="cls-1" points="312.5 481.87 312.47 481.89 312.47 481.85 312.5 481.87"/><polygon class="cls-1" points="728.43 721.05 728.43 722 728.02 721.77 727.6 721.53 728.43 721.05"/><polygon class="cls-1" points="624.45 300.78 624.45 301.73 624.44 301.73 624.44 300.77 624.45 300.77 624.45 300.78"/><polygon class="cls-1" points="624.44 180.69 624.44 180.7 624.43 180.7 573.44 151.25 596.91 164.79 624.44 180.69"/><polygon class="cls-1" points="520.45 120.66 520.45 121.66 519.58 121.16 520.45 120.66"/><polygon class="cls-2" points="623.61 661.49 520.45 721.05 417.29 661.49 520.42 601.95 520.45 601.97 520.48 601.95 623.61 661.49"/><polygon class="cls-1" points="520.45 121.66 417.33 181.19 417.09 181.06 417.05 181.04 417.03 181.02 417.02 181.02 417 181.01 416.47 180.7 459.53 155.83 490.15 138.15 519.58 121.16 520.45 121.66"/><polygon class="cls-1" points="832.43 180.69 831.99 180.95 831.56 181.2 831.55 181.2 728.44 121.67 728.44 121.66 729.3 121.16 729.31 121.16 832.43 180.69"/><polygon class="cls-1" points="208.48 300.77 208.48 301.77 207.61 301.27 208.48 300.77"/><polygon class="cls-1" points="520.45 241.74 520.45 360.81 519.62 361.29 519.58 361.31 416.46 420.85 416.46 301.77 416.49 301.75 417.33 301.27 436.08 290.44 450.92 281.88 520.44 241.74 520.45 241.74"/><polygon class="cls-1" points="417.29 301.25 416.46 301.73 416.46 300.77 417.29 301.25"/><polygon class="cls-1" points="625.27 541.41 624.98 541.58 624.82 541.67 624.76 541.71 624.7 541.74 624.46 541.88 624.45 541.88 624.45 540.94 625.27 541.41"/><polygon class="cls-1" points="521.28 601.45 520.45 601.93 520.45 600.97 521.28 601.45"/><polygon class="cls-2" points="727.56 241.23 727.56 241.24 652.29 284.69 642.54 290.32 638.88 292.44 624.45 300.76 624.45 300.77 624.44 300.77 624.44 300.76 624.03 300.53 596.68 284.74 521.32 241.24 521.32 241.23 624.43 181.7 624.44 181.7 624.45 181.71 727.56 241.23"/><polygon class="cls-1" points="417.03 181.02 417.03 181.03 417.02 181.02 417.03 181.02"/><polygon class="cls-1" points="624.44 661.96 624.44 661.97 624.03 661.73 624.44 661.96"/><polygon class="cls-1" points="728.43 842.09 728.43 962.16 624.44 1022.2 624.44 902.13 624.45 902.13 728.43 842.09"/><polygon class="cls-1" points="728.43 480.89 728.43 481.84 728.02 481.61 727.6 481.37 728.43 480.89"/><polygon class="cls-1" points="832.42 540.93 831.59 541.41 728.47 481.87 729.3 481.39 758.29 498.13 832.01 540.69 832.42 540.93"/><polygon class="cls-1" points="417.29 541.41 416.46 541.89 416.46 540.93 417.29 541.41"/><rect class="cls-1" x="728.43" y="241.73" width="0.01" height="0.01"/><polygon class="cls-1" points="832.43 180.69 832.43 180.7 831.99 180.95 832.43 180.69"/><polygon class="cls-1" points="728.43 722.01 624.44 782.05 624.44 781.09 727.6 721.53 728.02 721.77 728.43 722.01"/><polygon class="cls-1" points="520.45 601.93 520.45 601.97 520.42 601.95 520.45 601.93"/><polygon class="cls-1" points="208.48 420.85 207.61 421.35 104.49 361.81 105.36 361.31 208.48 420.85"/><polygon class="cls-1" points="624.44 540.93 623.61 541.41 520.48 481.87 521.32 481.39 624.44 540.93"/><path class="cls-1" d="M624.7,541.74l-.24.14Z"/><polygon class="cls-1" points="624.44 181.68 624.44 181.69 623.9 181.39 623.58 181.2 623.58 181.19 623.59 181.19 624.44 181.68"/><polygon class="cls-1" points="624.03 541.65 624.43 541.89 624.42 541.91 624.41 541.91 623.57 541.43 623.61 541.41 624.03 541.65"/><polygon class="cls-1" points="728.44 481.86 728.44 481.88 728.43 481.89 728.43 481.86 728.43 481.85 728.44 481.85 728.44 481.86"/><polygon class="cls-1" points="624.03 421.57 624.43 421.81 624.41 421.83 623.57 421.35 623.61 421.33 624.03 421.57"/><polygon class="cls-2" points="415.59 301.27 312.47 360.81 209.35 301.27 312.47 241.73 415.59 301.27"/><polygon class="cls-1" points="624.44 300.77 623.61 301.25 520.49 241.72 521.32 241.24 596.68 284.74 624.03 300.53 624.44 300.77"/><polygon class="cls-1" points="728.43 121.66 728.43 121.67 713.39 130.35 728.43 121.66"/><polygon class="cls-1" points="727.57 121.16 624.45 61.63 624.45 61.62 727.57 121.16"/><polygon class="cls-1" points="728.43 240.74 728.43 241.72 727.58 241.23 727.9 241.04 728.06 240.95 728.43 240.74"/><polygon class="cls-1" points="520.45 1.58 417.33 61.12 416.46 60.62 519.58 1.08 520.45 1.58"/><polygon class="cls-1" points="520.48 241.71 520.45 241.73 520.45 241.69 520.48 241.71"/><polygon class="cls-1" points="832.42 181.69 832.42 181.7 831.86 181.37 832.42 181.69"/><polygon class="cls-1" points="520.45 722.01 520.45 842.09 520.44 842.09 492.58 858.18 416.46 902.12 416.46 782.05 417.29 781.57 520.45 722.01"/><polygon class="cls-1" points="416.46 301.73 416.46 301.77 416.43 301.75 416.46 301.73"/><polygon class="cls-1" points="832.42 661.01 832.42 661.96 832.01 661.73 831.59 661.49 832.42 661.01"/><polygon class="cls-1" points="831.59 421.33 831.56 421.35 831.55 421.35 728.44 361.82 728.44 361.81 728.44 361.8 728.46 361.79 728.47 361.79 831.59 421.33"/><polygon class="cls-1" points="624.43 180.7 624.17 180.85 623.59 181.19 623.58 181.19 623.57 181.19 520.45 121.66 521.32 121.16 549.53 137.45 573.44 151.25 624.43 180.7"/><polygon class="cls-3" points="520.45 962.16 520.45 1082.24 416.46 1022.2 416.46 902.13 416.47 902.13 520.45 962.16"/><polygon class="cls-1" points="728.41 481.87 728.42 481.89 625.31 541.43 625.28 541.41 728.4 481.87 728.41 481.87"/><polygon class="cls-1" points="875.49 395.98 832.43 420.85 832.43 420.84 875.49 395.98"/><polygon class="cls-1" points="520.48 481.87 520.45 481.89 520.45 481.85 520.48 481.87"/><polygon class="cls-1" points="729.26 601.45 728.97 601.62 728.44 601.92 728.44 600.98 729.26 601.45"/><polygon class="cls-1" points="520.45 721.05 519.62 721.53 416.46 661.97 417.29 661.49 520.45 721.05"/><polygon class="cls-1" points="417.33 421.35 416.49 421.83 416.46 421.81 417.29 421.33 417.33 421.35"/><polygon class="cls-2" points="831.55 181.2 793.6 203.12 766.5 218.76 728.44 240.72 728.44 240.73 728.43 240.73 728.43 240.72 625.32 181.19 713.39 130.35 728.43 121.67 728.43 121.66 728.44 121.66 728.44 121.67 831.55 181.2"/><polygon class="cls-1" points="832.43 661.97 832.43 782.05 832.42 782.05 832.42 661.98 832.42 661.97 832.43 661.97"/><polygon class="cls-1" points="416.46 541.89 416.46 541.93 416.43 541.91 416.46 541.89"/><polygon class="cls-1" points="728.44 481.84 728.44 481.85 728.43 481.85 728.43 481.84 728.43 480.89 728.44 480.89 728.44 480.9 728.44 481.84"/><polygon class="cls-1" points="832.42 181.7 772.04 216.56 729.31 241.23 729.3 241.23 729 241.06 728.44 240.73 766.5 218.76 793.6 203.12 831.55 181.2 831.56 181.2 831.86 181.37 832.42 181.7"/><polygon class="cls-1" points="624.45 541.88 624.45 541.89 624.44 541.89 624.44 541.88 624.44 540.94 624.45 540.94 624.45 541.88"/><polygon class="cls-3" points="624.44 782.05 624.44 902.12 555.2 862.15 520.46 842.09 520.45 842.09 520.45 722.01 623.61 781.57 624.44 782.05"/><rect class="cls-1" x="727.56" y="241.23" width="0.01" height="0.01"/><polygon class="cls-2" points="519.58 481.39 416.46 540.93 313.34 481.39 416.46 421.85 519.58 481.39"/><polygon class="cls-1" points="313.3 601.45 312.47 601.93 312.47 600.97 313.3 601.45"/><polygon class="cls-1" points="624.44 541.88 624.44 541.89 624.43 541.89 624.03 541.65 624.44 541.88"/><polygon class="cls-2" points="207.61 301.27 104.49 360.81 0.5 300.77 103.62 241.23 104.49 241.73 207.61 301.27"/><polygon class="cls-1" points="728.45 481.87 728.44 481.88 728.44 481.86 728.45 481.87"/><polygon class="cls-1" points="728.45 481.84 728.44 481.85 728.44 481.84 728.45 481.84"/><polygon class="cls-1" points="624.45 180.69 624.45 180.71 624.44 180.7 624.44 180.69 624.45 180.69"/><polygon class="cls-1" points="416.46 902.12 416.46 902.13 416.45 902.13 312.47 842.09 416.46 902.12"/><polygon class="cls-1" points="105.32 481.37 104.49 481.85 104.49 480.89 105.32 481.37"/><polygon class="cls-1" points="416.46 300.77 416.46 301.73 416.43 301.75 415.59 301.27 416.46 300.77"/><polygon class="cls-1" points="625.3 181.2 624.45 181.69 624.45 180.71 625.3 181.2"/><polygon class="cls-1" points="624.44 902.12 624.44 902.13 624.43 902.13 555.2 862.15 624.44 902.12"/><polygon class="cls-1" points="728.43 842.09 624.45 902.13 624.44 902.13 624.44 902.12 728.43 842.09"/><polygon class="cls-1" points="312.47 240.73 312.47 241.73 311.6 241.23 312.47 240.73"/><polygon class="cls-2" points="311.6 241.23 208.48 300.77 105.36 241.23 208.48 181.69 208.48 181.7 208.49 181.7 311.6 241.23"/><polygon class="cls-1" points="1040.41 300.77 1040.41 301.77 937.28 361.31 936.42 360.82 936.42 360.81 936.42 360.8 1040.41 300.77"/><polygon class="cls-1" points="728.43 360.82 728.43 361.76 727.61 361.29 727.71 361.23 728.43 360.82"/><polygon class="cls-1" points="416.46 60.62 416.46 61.62 415.59 61.12 416.46 60.62"/><polygon class="cls-1" points="416.46 661.01 416.46 661.97 415.63 661.49 416.46 661.01"/><polygon class="cls-1" points="104.49 360.81 103.62 361.31 0.5 301.77 0.5 300.77 104.49 360.81"/><polygon class="cls-1" points="521.32 601.47 520.48 601.95 520.45 601.93 521.28 601.45 521.32 601.47"/><polygon class="cls-1" points="832.42 541.89 832.01 542.13 790.62 566.03 776.83 573.99 729.27 601.45 729.26 601.45 728.44 600.98 728.44 600.97 728.44 600.96 831.59 541.41 832.01 541.65 832.42 541.89"/><polygon class="cls-1" points="416.43 541.91 313.3 601.45 312.47 600.97 415.59 541.43 416.43 541.91"/><polygon class="cls-2" points="519.58 241.23 416.46 300.77 313.34 241.23 416.45 181.7 416.46 181.7 519.58 241.23"/><polygon class="cls-2" points="311.6 361.31 208.48 420.85 105.36 361.31 208.48 301.77 311.6 361.31"/><polygon class="cls-1" points="521.32 481.39 520.48 481.87 520.45 481.85 521.28 481.37 521.32 481.39"/><polygon class="cls-1" points="520.42 241.71 417.29 301.25 416.46 300.77 519.58 241.23 520.42 241.71"/><polygon class="cls-1" points="936.42 241.72 936.42 241.73 936.41 241.73 935.55 241.23 936.41 240.73 936.42 240.73 936.42 240.74 936.42 241.72"/><polygon class="cls-1" points="416.46 301.77 313.34 361.31 313.3 361.29 416.43 301.75 416.46 301.77"/><polygon class="cls-1" points="624.44 540.94 624.44 541.88 624.03 541.65 623.61 541.41 624.44 540.93 624.44 540.94"/><polygon class="cls-1" points="624.44 902.13 624.44 1022.2 520.45 1082.24 520.45 962.16 624.43 902.13 624.44 902.13"/><polygon class="cls-1" points="832.42 300.77 832.42 300.78 831.94 301.05 832.42 300.77"/><polygon class="cls-1" points="832.42 300.76 832.42 300.77 804.66 284.74 832.42 300.76"/><polygon class="cls-1" points="728.43 241.73 728.43 241.74 728.42 241.74 727.89 241.43 728.43 241.73"/><polygon class="cls-1" points="416.46 421.85 313.34 481.39 313.3 481.37 416.43 421.83 416.46 421.85"/><polygon class="cls-1" points="728.43 361.76 728.43 361.78 728.41 361.79 728.4 361.79 727.57 361.31 727.6 361.29 727.61 361.29 728.43 361.76"/><polygon class="cls-1" points="521.32 121.16 520.45 121.66 520.45 120.66 521.32 121.16"/><polygon class="cls-1" points="623.61 421.33 623.57 421.35 520.45 361.81 520.48 361.79 623.61 421.33"/><polygon class="cls-1" points="520.45 722.01 417.29 781.57 416.46 781.09 519.62 721.53 520.45 722.01"/><polygon class="cls-1" points="832.43 421.82 832.43 421.84 832.42 421.85 832.42 421.82 832.43 421.82"/><polygon class="cls-1" points="728.43 600.98 728.43 601.92 728.02 601.69 727.6 601.45 728.43 600.97 728.43 600.98"/><polygon class="cls-1" points="416.46 421.81 416.46 421.85 416.43 421.83 416.46 421.81"/><polygon class="cls-1" points="521.32 361.31 520.48 361.79 520.45 361.77 521.28 361.29 521.32 361.31"/><polygon class="cls-1" points="727.6 481.37 727.56 481.39 624.45 421.86 624.45 421.85 624.45 421.84 624.46 421.83 624.47 421.83 624.48 421.83 727.6 481.37"/><polygon class="cls-1" points="832.99 301.44 832.43 301.77 832.43 301.76 832.99 301.44"/><polygon class="cls-1" points="832.43 421.81 832.43 421.82 832.42 421.82 832.42 421.8 832.43 421.81"/><polygon class="cls-1" points="520.48 361.79 520.45 361.81 520.45 361.77 520.48 361.79"/><polygon class="cls-2" points="935.54 361.31 897.92 383.03 875.49 395.98 832.43 420.84 832.43 420.85 832.42 420.85 832.42 420.84 832.06 420.64 804.04 404.46 758.29 378.05 729.3 361.31 832.42 301.77 832.43 301.77 832.43 301.78 935.54 361.31"/><polygon class="cls-2" points="1040.41 300.77 936.42 360.8 936.42 360.81 936.41 360.81 936.41 360.8 936.18 360.67 833.3 301.27 862.73 284.28 936.41 241.74 936.41 241.73 936.42 241.73 936.42 241.72 937.28 241.23 1040.41 300.77"/><polygon class="cls-2" points="727.56 481.39 624.45 540.92 624.45 540.93 624.44 540.93 521.32 481.39 624.44 421.85 624.45 421.86 727.56 481.39"/><polygon class="cls-1" points="936.41 360.82 936.41 361.81 935.55 361.31 935.85 361.14 935.9 361.11 935.93 361.1 936.12 360.99 936.16 360.96 936.28 360.89 936.41 360.82"/><polygon class="cls-1" points="624.44 60.62 623.89 60.94 623.58 61.12 623.57 61.12 520.45 1.58 521.32 1.08 624.44 60.62"/><polygon class="cls-1" points="459.53 155.83 416.47 180.7 416.46 180.7 416.46 180.69 459.53 155.83"/><polygon class="cls-1" points="416.46 421.81 416.43 421.83 415.59 421.35 415.63 421.33 416.46 421.81"/><polygon class="cls-1" points="1040.41 301.77 1040.41 420.85 936.42 480.88 936.42 361.8 937.28 361.31 1040.41 301.77"/><polygon class="cls-1" points="313.3 721.53 312.47 722.01 312.47 721.05 313.3 721.53"/><polygon class="cls-2" points="624.43 902.13 520.45 962.16 416.47 902.13 492.58 858.18 520.44 842.09 520.45 842.09 520.46 842.09 555.2 862.15 624.43 902.13"/><polygon class="cls-1" points="312.47 240.73 311.6 241.23 208.49 181.7 209.35 181.2 312.47 240.73"/><polygon class="cls-1" points="759.98 342.6 728.44 360.81 728.44 360.8 759.98 342.6"/><polygon class="cls-1" points="312.47 721.05 312.47 722.01 208.48 661.97 209.31 661.49 312.47 721.05"/><polygon class="cls-1" points="312.44 481.87 209.31 541.41 208.48 540.93 311.6 481.39 312.44 481.87"/><polygon class="cls-1" points="416.46 300.77 415.59 301.27 312.47 241.73 313.34 241.23 416.46 300.77"/><polygon class="cls-1" points="312.47 241.73 209.35 301.27 208.48 300.77 311.6 241.23 312.47 241.73"/><polygon class="cls-1" points="936.42 600.96 936.42 600.97 936.41 600.97 936.41 481.86 936.42 481.86 936.42 600.96"/><polygon class="cls-3" points="208.48 421.85 208.48 540.93 105.32 481.37 104.49 480.89 104.49 361.81 207.61 421.35 208.45 421.83 208.48 421.85"/><polygon class="cls-1" points="832.42 300.77 831.94 301.05 831.91 301.07 831.86 301.1 831.77 301.15 831.56 301.27 831.55 301.27 728.44 241.74 728.44 241.73 729.27 241.24 729.28 241.24 729.3 241.24 796 279.74 804.66 284.74 832.42 300.77"/><polygon class="cls-1" points="728.43 480.88 728.43 480.89 728.02 480.65 728.43 480.88"/><polygon class="cls-1" points="728.43 481.84 728.43 481.85 728.02 481.61 728.43 481.84"/><polygon class="cls-1" points="312.47 481.85 312.44 481.87 311.6 481.39 311.64 481.37 312.47 481.85"/><rect class="cls-1" x="624.44" y="661.01" width="0.01" height="0.01"/><polygon class="cls-1" points="416.46 540.93 415.63 541.41 312.5 481.87 313.34 481.39 416.46 540.93"/><polygon class="cls-1" points="832.42 541.9 832.42 661.01 831.59 661.49 728.44 721.04 728.44 601.93 728.97 601.62 729.26 601.45 729.27 601.45 776.83 573.99 790.62 566.03 832.01 542.13 832.42 541.9"/><polygon class="cls-1" points="520.45 480.89 519.62 481.37 416.49 421.83 417.33 421.35 520.45 480.89"/><polygon class="cls-3" points="312.47 601.93 312.47 721.05 209.31 661.49 208.48 661.01 208.48 541.89 311.64 601.45 312.47 601.93"/><polygon class="cls-1" points="624.47 541.91 624.45 541.92 624.45 541.9 624.46 541.9 624.47 541.91"/><polygon class="cls-1" points="521.32 241.23 521.32 241.24 520.49 241.72 520.48 241.71 521.32 241.23"/><polygon class="cls-1" points="416.46 180.7 416.46 181.69 416.02 181.44 415.61 181.2 416.16 180.87 416.45 180.7 416.46 180.7"/><polygon class="cls-1" points="832.42 421.8 832.42 421.82 832.39 421.83 831.56 421.35 831.59 421.33 831.6 421.33 832.42 421.8"/><polygon class="cls-1" points="312.47 481.85 312.47 481.89 312.44 481.87 312.47 481.85"/><polygon class="cls-3" points="624.44 301.78 624.44 420.84 624.03 420.61 550.31 378.05 521.32 361.31 521.28 361.29 520.45 360.81 520.45 241.74 520.46 241.74 623.57 301.27 624.41 301.75 624.44 301.77 624.44 301.78"/><polygon class="cls-1" points="624.44 60.62 624.44 60.63 623.89 60.94 624.44 60.62"/><polygon class="cls-1" points="104.49 240.73 104.49 241.73 103.62 241.23 104.49 240.73"/><polygon class="cls-1" points="624.43 181.7 521.32 241.23 520.45 240.73 623.57 181.2 623.58 181.2 623.9 181.39 624.43 181.7"/><polygon class="cls-1" points="416.49 301.75 416.46 301.77 416.46 301.73 416.49 301.75"/><polygon class="cls-1" points="312.47 360.81 311.6 361.31 208.48 301.77 209.35 301.27 312.47 360.81"/><polygon class="cls-1" points="728.44 241.72 728.44 241.73 728.43 241.73 728.43 241.72 728.43 240.74 728.44 240.74 728.44 240.75 728.44 241.72"/><polygon class="cls-1" points="208.51 421.83 208.48 421.85 208.48 421.81 208.51 421.83"/><polygon class="cls-1" points="624.44 661.01 623.61 661.49 520.48 601.95 521.32 601.47 624.44 661.01"/><polygon class="cls-1" points="209.35 301.27 208.48 301.77 208.48 300.77 209.35 301.27"/><polygon class="cls-1" points="417.33 541.43 416.49 541.91 416.46 541.89 417.29 541.41 417.33 541.43"/><polygon class="cls-1" points="416.49 541.91 416.46 541.93 416.46 541.89 416.49 541.91"/><polygon class="cls-1" points="728.44 361.82 728.44 480.89 728.43 480.89 728.43 480.88 728.43 361.82 728.44 361.82"/><polygon class="cls-1" points="728.44 722 728.44 722.01 728.43 722.01 728.43 722 728.43 721.05 728.44 721.04 728.44 722"/><polygon class="cls-1" points="833.29 301.27 832.99 301.44 832.43 301.76 832.43 300.78 832.86 301.03 832.91 301.06 833.29 301.27"/><polygon class="cls-1" points="936.41 480.9 936.41 481.84 935.59 481.37 935.69 481.31 936.41 480.9"/><polygon class="cls-1" points="624.45 301.78 624.45 420.85 624.44 420.85 624.44 420.84 624.44 301.78 624.45 301.78"/><polygon class="cls-1" points="937.28 361.31 936.42 361.8 936.42 360.82 937.28 361.31"/><polygon class="cls-1" points="520.45 361.77 520.42 361.79 519.58 361.31 519.62 361.29 520.45 361.77"/><polygon class="cls-1" points="832.86 301.03 832.43 300.78 832.6 300.87 832.65 300.9 832.86 301.03"/><polygon class="cls-1" points="936.41 480.89 936.41 480.9 935.69 481.31 936.41 480.89"/><polygon class="cls-1" points="416.9 181.44 416.46 181.7 416.46 181.69 416.9 181.44"/><polygon class="cls-1" points="832.42 420.86 832.42 421.8 831.6 421.33 831.7 421.27 832.42 420.86"/><polygon class="cls-1" points="832.42 540.93 832.42 541.88 832.01 541.65 831.59 541.41 832.42 540.93"/><polygon class="cls-1" points="624.86 661.73 624.45 661.97 624.45 661.96 624.86 661.73"/><polygon class="cls-1" points="625.28 421.33 624.45 421.81 624.44 421.81 624.44 421.8 624.44 420.85 624.45 420.85 625.28 421.33"/><polygon class="cls-1" points="728.44 121.65 728.44 121.66 728.43 121.66 727.57 121.16 728.44 120.66 728.44 121.65"/><polygon class="cls-1" points="312.47 600.97 311.64 601.45 208.48 541.89 209.31 541.41 312.47 600.97"/><polygon class="cls-1" points="624.45 541.9 624.45 541.92 624.44 541.93 624.44 541.89 624.45 541.89 624.45 541.9"/><polygon class="cls-1" points="313.3 361.29 312.47 361.77 312.47 360.81 313.3 361.29"/><polygon class="cls-1" points="728.43 121.66 713.39 130.35 625.32 181.19 624.46 180.69 727.57 121.16 728.43 121.66"/><polygon class="cls-1" points="638.88 292.44 624.45 300.77 624.45 300.76 638.88 292.44"/><polygon class="cls-2" points="519.62 721.53 416.46 781.09 313.3 721.53 416.46 661.97 519.62 721.53"/><polygon class="cls-1" points="832.42 782.05 728.43 842.09 728.43 842.08 832.42 782.05"/><polygon class="cls-1" points="728.43 240.73 728.43 240.74 728.06 240.95 728.42 240.73 728.43 240.73"/><polygon class="cls-1" points="832.43 420.86 832.43 421.81 832.42 421.8 832.42 420.86 832.42 420.85 832.43 420.85 832.43 420.86"/><polygon class="cls-1" points="417.09 181.06 417.3 181.2 416.9 181.44 416.46 181.69 416.46 180.7 416.47 180.7 417 181.01 417.02 181.02 417.03 181.03 417.05 181.04 417.09 181.06"/><polygon class="cls-1" points="832.42 420.85 832.42 420.86 831.7 421.27 832.42 420.85"/><polygon class="cls-1" points="624.44 421.8 624.44 421.81 624.43 421.81 624.03 421.57 624.44 421.8"/><polygon class="cls-1" points="520.42 601.95 417.29 661.49 416.46 661.01 519.58 601.47 520.42 601.95"/><polygon class="cls-1" points="209.35 181.19 209.35 181.2 208.49 181.7 208.48 181.7 208.48 181.69 209.35 181.19"/><polygon class="cls-1" points="936.41 360.81 936.41 360.82 936.28 360.89 936.41 360.81"/><polygon class="cls-1" points="624.45 301.76 624.45 301.77 624.44 301.77 624.44 301.74 624.44 301.73 624.45 301.73 624.45 301.76"/><polygon class="cls-1" points="520.45 241.73 520.45 241.74 520.44 241.74 520.45 241.73"/><polygon class="cls-1" points="729.26 481.37 729.16 481.43 729.07 481.48 728.45 481.84 728.44 481.84 728.44 480.9 729.26 481.37"/><polygon class="cls-1" points="520.45 481.85 520.42 481.87 519.58 481.39 519.62 481.37 520.45 481.85"/><polygon class="cls-1" points="312.47 120.66 312.47 121.66 311.6 121.16 312.47 120.66"/><polygon class="cls-1" points="728.43 480.89 727.6 481.37 624.48 421.83 625.31 421.35 728.02 480.65 728.43 480.89"/><polygon class="cls-1" points="105.36 241.23 104.49 241.73 104.49 240.73 105.36 241.23"/><polygon class="cls-1" points="833.28 181.19 832.43 181.68 832.43 180.7 833.28 181.19"/><polygon class="cls-1" points="416.46 420.85 416.46 421.81 415.63 421.33 416.46 420.85"/><polygon class="cls-1" points="728.43 601.92 728.43 601.93 728.02 601.69 728.43 601.92"/><polygon class="cls-2" points="727.6 721.53 624.44 781.09 521.28 721.53 624.44 661.97 624.45 661.97 727.6 721.53"/><polygon class="cls-1" points="832.43 301.76 832.43 301.77 832.42 301.77 832.42 301.76 832.42 300.78 832.42 300.77 832.43 300.77 832.43 300.78 832.43 301.76"/><polygon class="cls-2" points="831.55 301.27 823.21 306.09 808.83 314.39 802.57 318.01 728.44 360.8 728.44 360.81 728.43 360.81 728.43 360.8 728.07 360.6 671.79 328.1 652.9 317.2 625.31 301.27 728.42 241.74 728.43 241.74 728.44 241.74 831.55 301.27"/><polygon class="cls-1" points="416.46 541.93 416.46 661.01 415.63 661.49 312.47 721.05 312.47 601.93 313.3 601.45 416.43 541.91 416.46 541.93"/><polygon class="cls-3" points="624.44 541.93 624.44 661.01 521.32 601.47 521.28 601.45 520.45 600.97 520.45 481.89 623.57 541.43 624.41 541.91 624.42 541.91 624.44 541.93"/><path class="cls-1" d="M642.54,290.32l-3.66,2.12Z"/><polygon class="cls-1" points="728.43 600.97 727.6 601.45 624.48 541.91 625.31 541.43 728.43 600.97"/><polygon class="cls-1" points="624.44 181.69 624.44 181.7 624.43 181.7 623.9 181.39 624.44 181.69"/><polygon class="cls-1" points="312.47 361.81 312.47 480.89 311.64 481.37 311.6 481.39 208.48 540.93 208.48 421.85 208.51 421.83 209.35 421.35 312.47 361.81"/><polygon class="cls-1" points="936.41 240.73 935.55 241.23 935.54 241.23 832.43 181.7 833.29 181.2 833.3 181.2 936.41 240.73"/><polygon class="cls-1" points="312.47 361.77 312.47 361.81 312.44 361.79 312.47 361.77"/><polygon class="cls-1" points="416.46 181.69 416.46 181.7 416.45 181.7 415.92 181.39 416.02 181.44 416.46 181.69"/><polygon class="cls-1" points="936.41 241.73 862.73 284.28 833.3 301.27 833.29 301.27 832.91 301.06 832.86 301.03 832.65 300.9 832.6 300.87 832.43 300.77 832.66 300.63 935.54 241.23 935.55 241.23 936.41 241.73"/><rect class="cls-1" x="832.42" y="181.69" width="0.01" height="0.01"/><polygon class="cls-3" points="728.43 361.82 728.43 480.88 728.02 480.65 625.31 421.35 625.28 421.33 624.45 420.85 624.45 301.78 727.56 361.31 727.57 361.31 728.4 361.79 728.41 361.79 728.43 361.81 728.43 361.82"/><polygon class="cls-1" points="520.45 601.93 520.42 601.95 519.58 601.47 519.62 601.45 520.45 601.93"/><polygon class="cls-1" points="624.45 421.85 624.45 421.86 624.44 421.85 624.45 421.85"/><polygon class="cls-1" points="624.44 421.81 624.44 421.82 624.41 421.83 624.43 421.81 624.44 421.81"/><rect class="cls-1" x="728.43" y="600.97" width="0.01" height="0.01"/><polygon class="cls-1" points="729.3 121.16 728.44 121.66 728.44 121.65 729.3 121.16"/><polygon class="cls-1" points="729.3 121.16 728.44 121.65 728.44 120.66 729.3 121.16"/><polygon class="cls-1" points="936.41 601.93 936.41 601.94 832.43 661.97 832.43 661.96 936.41 601.93"/><polygon class="cls-1" points="832.42 420.85 831.7 421.27 831.6 421.33 831.59 421.33 728.47 361.79 729.3 361.31 758.29 378.05 804.04 404.46 832.06 420.64 832.42 420.85"/><polygon class="cls-1" points="796 279.74 729.3 241.24 729.3 241.23 729.31 241.23 796 279.74"/><polygon class="cls-1" points="104.49 360.81 104.49 361.81 103.62 361.31 104.49 360.81"/><polygon class="cls-1" points="416.49 421.83 416.46 421.85 416.46 421.81 416.49 421.83"/><polygon class="cls-1" points="624.44 60.63 624.44 61.61 623.88 61.29 623.58 61.12 623.89 60.94 624.44 60.63"/><polygon class="cls-1" points="936.42 600.97 936.42 601.93 936.41 601.93 935.58 601.45 936.41 600.97 936.42 600.97"/><polygon class="cls-1" points="832.42 420.84 832.42 420.85 832.06 420.64 832.42 420.84"/><polygon class="cls-1" points="520.48 601.95 520.45 601.97 520.45 601.93 520.48 601.95"/><polygon class="cls-2" points="831.59 541.41 728.44 600.96 728.44 600.97 728.43 600.97 625.31 541.43 728.42 481.89 728.43 481.89 728.44 481.88 728.45 481.87 728.46 481.87 728.47 481.87 831.59 541.41"/><polygon class="cls-1" points="728.44 601.93 728.44 721.04 728.43 721.05 728.43 601.93 728.44 601.93"/><polygon class="cls-1" points="728.43 360.81 728.43 360.82 727.71 361.23 728.43 360.81"/><rect class="cls-1" x="728.43" y="240.73" width="0.01" height="0.01"/><polygon class="cls-1" points="729.3 241.23 729.3 241.24 729.28 241.24 729.27 241.24 728.44 240.75 728.44 240.74 729 241.06 729.3 241.23"/><polygon class="cls-1" points="105.36 361.31 104.49 361.81 104.49 360.81 105.36 361.31"/><rect class="cls-1" x="624.44" y="301.77" width="0.01" height="0.01"/><polygon class="cls-1" points="416.46 541.89 416.43 541.91 415.59 541.43 415.63 541.41 416.46 541.89"/><polygon class="cls-1" points="728.43 360.81 727.71 361.23 727.61 361.29 727.6 361.29 624.48 301.75 625.31 301.27 652.9 317.2 671.79 328.1 728.07 360.6 728.43 360.81"/><polygon class="cls-1" points="209.35 181.19 208.48 181.69 208.48 180.69 209.35 181.19"/><polygon class="cls-1" points="416.46 301.77 416.46 420.85 415.63 421.33 415.59 421.35 312.47 480.89 312.47 361.81 312.5 361.79 313.34 361.31 416.46 301.77"/><polygon class="cls-1" points="521.32 1.08 520.45 1.58 519.58 1.08 520.45 0.58 521.32 1.08"/><polygon class="cls-1" points="313.3 481.37 312.47 481.85 312.47 480.89 313.3 481.37"/><polygon class="cls-1" points="728.43 481.85 728.43 481.86 728.42 481.86 728.41 481.87 728.4 481.87 727.56 481.39 727.6 481.37 728.02 481.61 728.43 481.85"/><polygon class="cls-1" points="832.42 661.97 728.44 722 728.44 721.04 831.59 661.49 832.01 661.73 832.42 661.97"/><polygon class="cls-1" points="833.25 541.41 832.84 541.65 832.43 541.88 832.43 540.94 833.25 541.41"/><polygon class="cls-1" points="208.48 300.77 207.61 301.27 104.49 241.73 105.36 241.23 208.48 300.77"/><polygon class="cls-1" points="728.44 120.66 727.57 121.16 624.45 61.62 625.32 61.12 728.44 120.66"/><polygon class="cls-1" points="625.31 421.35 624.48 421.83 624.47 421.83 624.46 421.83 624.45 421.82 624.45 421.81 625.28 421.33 625.31 421.35"/><polygon class="cls-1" points="728.44 361.77 728.43 361.78 728.43 361.76 728.44 361.77"/><polygon class="cls-1" points="832.42 301.76 832.42 301.77 831.75 301.38 832.42 301.76"/><polygon class="cls-1" points="728.44 601.92 728.44 601.93 728.43 601.93 728.43 601.92 728.43 600.98 728.44 600.98 728.44 601.92"/><polygon class="cls-1" points="416.46 540.93 416.46 541.89 415.63 541.41 416.46 540.93"/><polygon class="cls-1" points="520.45 361.81 417.33 421.35 417.29 421.33 520.42 361.79 520.45 361.81"/><polygon class="cls-1" points="105.32 601.45 104.49 601.93 104.49 600.97 105.32 601.45"/><polygon class="cls-1" points="416.46 781.09 416.46 782.05 312.47 722.01 313.3 721.53 416.46 781.09"/><polygon class="cls-1" points="624.45 181.7 624.45 181.71 624.44 181.7 624.45 181.7"/><polygon class="cls-3" points="832.42 421.85 832.42 540.92 832.01 540.69 758.29 498.13 729.3 481.39 729.27 481.37 729.26 481.37 728.44 480.9 728.44 480.89 728.44 361.82 831.55 421.35 831.56 421.35 832.39 421.83 832.42 421.85"/><polygon class="cls-1" points="624.44 61.61 624.44 61.62 623.88 61.29 624.44 61.61"/><polygon class="cls-1" points="416.16 180.87 415.61 181.2 415.59 181.2 415.59 181.19 416.16 180.87"/><polygon class="cls-1" points="936.42 121.66 936.42 121.67 936.41 121.66 936.42 121.66"/><polygon class="cls-1" points="833.29 421.35 832.46 421.83 832.43 421.81 832.43 420.86 833.29 421.35"/><polygon class="cls-1" points="624.44 421.85 521.32 481.39 521.28 481.37 624.41 421.83 624.44 421.85"/><polygon class="cls-1" points="937.28 241.23 936.42 241.72 936.42 240.74 937.28 241.23"/><polygon class="cls-1" points="312.44 361.79 209.31 421.33 208.48 420.85 311.6 361.31 312.44 361.79"/><rect class="cls-1" x="624.44" y="540.93" width="0.01" height="0.01"/><polygon class="cls-1" points="728.43 722 728.43 722.01 728.02 721.77 728.43 722"/><polygon class="cls-1" points="832.84 541.65 832.43 541.89 832.43 541.88 832.84 541.65"/><polygon class="cls-1" points="492.58 858.18 416.47 902.13 416.46 902.13 416.46 902.12 492.58 858.18"/><line class="cls-4" x1="728.43" y1="722" x2="728.02" y2="721.77"/><line class="cls-4" x1="728.44" y1="722" x2="728.44" y2="721.04"/><polyline class="cls-5" points="416.46 1022.2 312.47 962.16 312.47 842.09"/><line class="cls-5" x1="416.47" y1="902.13" x2="520.45" y2="962.16"/><polyline class="cls-5" points="520.45 1082.24 416.46 1022.2 416.46 902.13"/><line class="cls-4" x1="520.45" y1="962.16" x2="624.43" y2="902.13"/><line class="cls-5" x1="520.45" y1="1082.24" x2="520.45" y2="962.16"/><line class="cls-4" x1="624.44" y1="1022.2" x2="520.45" y2="1082.24"/><polyline class="cls-4" points="728.43 842.09 728.43 962.16 624.44 1022.2 624.44 902.13"/><polyline class="cls-4" points="728.43 842.09 624.45 902.13 624.44 902.13"/><line class="cls-4" x1="832.42" y1="782.05" x2="728.43" y2="842.09"/><line class="cls-4" x1="624.44" y1="421.82" x2="624.41" y2="421.83"/><line class="cls-4" x1="624.44" y1="661.96" x2="624.03" y2="661.73"/><line class="cls-4" x1="624.45" y1="661.96" x2="624.45" y2="661.02"/><line class="cls-4" x1="624.86" y1="661.73" x2="624.45" y2="661.97"/><line class="cls-4" x1="624.45" y1="541.92" x2="624.45" y2="541.9"/><polyline class="cls-5" points="312.47 842.09 208.48 782.05 208.48 661.97"/><line class="cls-4" x1="104.49" y1="601.93" x2="105.32" y2="601.45"/><line class="cls-5" x1="312.47" y1="722.01" x2="208.48" y2="661.97"/><line class="cls-4" x1="312.47" y1="722.01" x2="312.47" y2="721.05"/><line class="cls-4" x1="208.45" y1="421.83" x2="208.48" y2="421.81"/><line class="cls-4" x1="104.49" y1="481.85" x2="105.32" y2="481.37"/><polyline class="cls-4" points="208.48 661.97 104.49 601.93 104.49 600.97"/><polyline class="cls-4" points="209.31 661.49 208.48 661.97 208.48 661.01"/><line class="cls-4" x1="208.48" y1="541.89" x2="209.31" y2="541.41"/><line class="cls-4" x1="312.44" y1="481.87" x2="312.47" y2="481.85"/><line class="cls-4" x1="416.46" y1="661.97" x2="415.63" y2="661.49"/><polyline class="cls-4" points="208.48 421.81 209.31 421.33 312.44 361.79 312.47 361.77"/><line class="cls-4" x1="208.48" y1="421.81" x2="208.51" y2="421.83"/><line class="cls-4" x1="311.64" y1="481.37" x2="312.47" y2="481.85"/><polyline class="cls-4" points="312.47 481.85 313.3 481.37 416.43 421.83 416.46 421.81"/><line class="cls-4" x1="416.46" y1="541.89" x2="416.43" y2="541.91"/><line class="cls-4" x1="728.43" y1="481.85" x2="728.02" y2="481.61"/><line class="cls-4" x1="624.03" y1="541.65" x2="624.43" y2="541.89"/><line class="cls-4" x1="624.43" y1="421.81" x2="624.03" y2="421.57"/><line class="cls-4" x1="416.49" y1="541.91" x2="416.46" y2="541.89"/><line class="cls-4" x1="520.45" y1="601.93" x2="519.62" y2="601.45"/><polyline class="cls-4" points="312.47 361.77 313.3 361.29 416.43 301.75 416.46 301.73"/><line class="cls-4" x1="312.47" y1="361.77" x2="312.5" y2="361.79"/><line class="cls-4" x1="415.63" y1="421.33" x2="416.46" y2="421.81"/><polyline class="cls-4" points="416.46 541.89 415.63 541.41 312.5 481.87 312.47 481.85"/><polyline class="cls-4" points="416.46 421.81 417.29 421.33 520.42 361.79 520.45 361.77"/><polyline class="cls-4" points="520.45 481.85 520.42 481.87 417.29 541.41 416.46 541.89"/><polyline class="cls-4" points="831.6 421.33 832.42 421.8 832.43 421.81"/><line class="cls-4" x1="728.47" y1="361.79" x2="831.59" y2="421.33"/><line class="cls-4" x1="728.44" y1="361.77" x2="728.46" y2="361.79"/><polyline class="cls-4" points="624.48 421.83 727.6 481.37 728.02 481.61 728.43 481.84"/><line class="cls-4" x1="624.45" y1="421.82" x2="624.46" y2="421.83"/><line class="cls-4" x1="728.43" y1="601.92" x2="728.02" y2="601.69"/><line class="cls-4" x1="728.44" y1="481.85" x2="728.45" y2="481.84"/><line class="cls-4" x1="728.44" y1="481.88" x2="728.44" y2="481.86"/><polyline class="cls-4" points="728.44 601.92 728.44 600.98 728.44 600.97"/><line class="cls-4" x1="832.43" y1="540.94" x2="832.43" y2="541.88"/><line class="cls-4" x1="312.47" y1="722.01" x2="313.3" y2="721.53"/><polyline class="cls-5" points="312.47 842.09 312.47 722.01 416.46 782.05"/><polyline class="cls-5" points="416.46 902.13 416.45 902.13 312.47 842.09 416.46 902.12"/><line class="cls-4" x1="520.42" y1="601.95" x2="520.45" y2="601.93"/><line class="cls-4" x1="416.46" y1="661.97" x2="417.29" y2="661.49"/><line class="cls-4" x1="519.62" y1="721.53" x2="520.45" y2="722.01"/><line class="cls-4" x1="416.46" y1="782.05" x2="416.46" y2="781.09"/><polyline class="cls-4" points="624.42 541.91 624.43 541.89 624.44 541.89"/><line class="cls-4" x1="520.45" y1="601.93" x2="521.28" y2="601.45"/><line class="cls-4" x1="520.45" y1="601.93" x2="520.48" y2="601.95"/><polyline class="cls-4" points="623.61 661.49 624.03 661.73 624.44 661.97"/><line class="cls-4" x1="832.01" y1="541.65" x2="832.42" y2="541.89"/><polyline class="cls-4" points="624.45 541.88 624.46 541.88 624.7 541.74"/><polyline class="cls-4" points="624.45 541.89 624.45 541.9 624.46 541.9 624.47 541.91"/><line class="cls-4" x1="935.59" y1="481.37" x2="936.41" y2="481.84"/><line class="cls-4" x1="832.43" y1="421.81" x2="832.46" y2="421.83"/><polyline class="cls-4" points="832.39 421.83 832.42 421.82 832.43 421.82"/><polyline class="cls-4" points="728.44 481.84 728.45 481.84 729.07 481.48 729.16 481.43 729.26 481.37"/><polyline class="cls-4" points="728.44 481.85 728.44 481.86 728.45 481.87"/><polyline class="cls-4" points="831.59 541.41 832.01 541.65 832.42 541.88"/><line class="cls-4" x1="832.42" y1="661.96" x2="832.01" y2="661.73"/><line class="cls-4" x1="832.43" y1="661.96" x2="832.43" y2="661.01"/><line class="cls-4" x1="416.46" y1="902.13" x2="416.46" y2="902.12"/><line class="cls-5" x1="416.47" y1="902.13" x2="416.46" y2="902.13"/><line class="cls-4" x1="492.58" y1="858.18" x2="416.47" y2="902.13"/><polyline class="cls-4" points="624.44 902.12 624.44 902.13 624.43 902.13 555.2 862.15"/><line class="cls-4" x1="520.45" y1="722.01" x2="521.28" y2="721.53"/><polyline class="cls-4" points="624.45 661.97 624.45 661.96 624.86 661.73 625.27 661.49"/><polyline class="cls-4" points="728.43 842.08 728.43 842.09 624.44 902.12"/><polyline class="cls-4" points="727.6 721.53 728.02 721.77 728.43 722.01 624.44 782.05 624.44 781.09"/><polyline class="cls-4" points="832.42 782.05 728.43 842.08 728.43 722.01"/><polyline class="cls-4" points="728.44 722.01 728.44 722 832.42 661.97"/><polyline class="cls-4" points="728.44 601.93 728.44 601.92 728.97 601.62"/><line class="cls-4" x1="832.01" y1="542.13" x2="832.42" y2="541.89"/><polyline class="cls-4" points="831.59 661.49 832.01 661.73 832.42 661.97"/><line class="cls-4" x1="728.43" y1="601.93" x2="728.44" y2="601.93"/><polyline class="cls-4" points="832.42 661.98 728.44 722.01 728.43 722.01 728.43 722 728.43 721.05"/><polyline class="cls-4" points="832.43 661.97 832.43 782.05 832.42 782.05 832.42 661.98 832.42 661.97"/><polyline class="cls-4" points="832.43 661.97 832.43 661.96 936.41 601.93"/><polyline class="cls-4" points="832.43 541.89 832.43 541.88 832.84 541.65"/><line class="cls-4" x1="849.48" y1="532.05" x2="936.41" y2="481.85"/><polyline class="cls-4" points="936.42 600.97 936.42 601.93 936.41 601.93"/><polyline class="cls-4" points="935.58 601.45 936.41 601.93 936.41 601.94 832.43 661.97 832.42 661.97 832.42 661.96 832.42 661.01"/><line class="cls-4" x1="832.42" y1="541.89" x2="832.43" y2="541.89"/><polyline class="cls-4" points="727.61 361.29 728.43 361.76 728.44 361.77"/><line class="cls-4" x1="624.48" y1="301.75" x2="727.6" y2="361.29"/><polyline class="cls-4" points="624.44 301.73 624.45 301.73 624.47 301.75"/><line class="cls-4" x1="624.41" y1="301.75" x2="624.44" y2="301.74"/><line class="cls-4" x1="624.44" y1="421.81" x2="624.45" y2="421.81"/><polyline class="cls-4" points="520.45 361.77 520.48 361.79 623.61 421.33 624.03 421.57 624.44 421.8"/><polyline class="cls-4" points="624.44 541.88 624.03 541.65 623.61 541.41 520.48 481.87 520.45 481.85"/><line class="cls-4" x1="624.45" y1="541.89" x2="624.44" y2="541.89"/><polyline class="cls-4" points="728.41 361.79 728.43 361.78 728.44 361.77"/><polyline class="cls-4" points="624.45 421.84 624.45 421.82 624.45 421.81 625.28 421.33"/><line class="cls-4" x1="624.45" y1="421.86" x2="624.45" y2="421.85"/><polyline class="cls-4" points="625.27 541.41 624.98 541.58 624.82 541.67 624.76 541.71 624.7 541.74 624.46 541.88 624.45 541.89 624.45 541.88 624.45 540.94 624.45 540.93"/><line class="cls-4" x1="728.4" y1="481.87" x2="625.28" y2="541.41"/><polyline class="cls-4" points="728.43 481.86 728.42 481.86 728.41 481.87"/><polyline class="cls-4" points="728.44 480.9 728.44 481.84 728.44 481.85 728.43 481.85"/><polyline class="cls-4" points="416.46 301.73 417.29 301.25 520.42 241.71 520.45 241.69 520.48 241.71 520.49 241.72 623.61 301.25 624.44 301.73"/><line class="cls-4" x1="416.46" y1="301.73" x2="416.49" y2="301.75"/><line class="cls-4" x1="519.62" y1="361.29" x2="520.45" y2="361.77"/><polyline class="cls-4" points="520.45 481.85 519.62 481.37 416.49 421.83 416.46 421.81"/><line class="cls-4" x1="520.45" y1="361.77" x2="521.28" y2="361.29"/><polyline class="cls-4" points="624.44 421.81 624.43 421.81 624.41 421.83 521.28 481.37 520.45 481.85"/><line class="cls-4" x1="624.41" y1="301.75" x2="624.44" y2="301.73"/><line class="cls-5" x1="311.64" y1="601.45" x2="312.47" y2="601.93"/><polyline class="cls-5" points="312.47 721.05 209.31 661.49 208.48 661.01"/><line class="cls-4" x1="208.48" y1="541.89" x2="208.48" y2="540.93"/><line class="cls-5" x1="311.64" y1="601.45" x2="208.48" y2="541.89"/><line class="cls-4" x1="312.47" y1="600.97" x2="311.64" y2="601.45"/><line class="cls-4" x1="103.62" y1="361.31" x2="104.49" y2="360.81"/><polyline class="cls-5" points="207.65 541.41 208.48 541.89 208.48 661.01 105.32 601.45 104.49 600.97 104.49 481.85"/><line class="cls-4" x1="104.49" y1="481.85" x2="104.49" y2="480.89"/><line class="cls-5" x1="207.65" y1="541.41" x2="104.49" y2="481.85"/><line class="cls-4" x1="208.48" y1="540.93" x2="207.65" y2="541.41"/><line class="cls-4" x1="728.44" y1="240.73" x2="729" y2="241.06"/><polyline class="cls-4" points="728.44 361.8 728.44 361.77 728.44 360.82"/><line class="cls-4" x1="728.44" y1="361.82" x2="728.44" y2="361.81"/><line class="cls-4" x1="832.42" y1="420.86" x2="831.7" y2="421.27"/><line class="cls-4" x1="416.46" y1="781.09" x2="313.3" y2="721.53"/><line class="cls-4" x1="312.47" y1="601.93" x2="312.47" y2="600.97"/><polyline class="cls-4" points="416.46 661.97 313.3 721.53 312.47 721.05"/><line class="cls-4" x1="520.45" y1="721.05" x2="519.62" y2="721.53"/><line class="cls-4" x1="832.43" y1="300.77" x2="832.6" y2="300.87"/><line class="cls-4" x1="919.36" y1="490.73" x2="832.43" y2="540.93"/><line class="cls-4" x1="936.41" y1="480.9" x2="935.69" y2="481.31"/><polyline class="cls-4" points="832.43 421.84 832.43 421.82 832.43 421.81 832.43 420.86"/><line class="cls-4" x1="936.42" y1="360.82" x2="936.42" y2="361.8"/><line class="cls-4" x1="416.46" y1="782.05" x2="417.29" y2="781.57"/><line class="cls-5" x1="416.46" y1="902.12" x2="416.46" y2="782.05"/><polyline class="cls-4" points="520.45 842.09 520.44 842.09 492.58 858.18 416.46 902.12"/><polyline class="cls-4" points="520.45 722.01 417.29 781.57 416.46 781.09 519.62 721.53 416.46 661.97 416.46 661.01"/><polyline class="cls-4" points="623.61 781.57 624.44 782.05 624.44 902.12 555.2 862.15 520.46 842.09 520.45 842.09 520.45 722.01"/><polyline class="cls-4" points="624.44 781.09 623.61 781.57 520.45 722.01 520.45 721.05"/><polyline class="cls-4" points="727.6 721.53 624.44 781.09 521.28 721.53"/><polyline class="cls-4" points="624.44 661.97 521.28 721.53 520.45 721.05"/><polyline class="cls-4" points="728.43 721.05 727.6 721.53 624.45 661.97 624.44 661.97 624.44 661.96 624.44 661.02"/><polyline class="cls-4" points="624.45 661.02 624.44 661.02 624.44 661.01"/><polyline class="cls-4" points="728.43 601.93 728.43 601.92 728.43 600.98"/><line class="cls-4" x1="728.44" y1="721.04" x2="728.43" y2="721.05"/><polyline class="cls-4" points="832.42 661.01 831.59 661.49 728.44 721.04 728.44 601.93 728.97 601.62 729.26 601.45"/><polyline class="cls-4" points="832.42 541.9 832.01 542.13 790.62 566.03 776.83 573.99 729.27 601.45 729.26 601.45 728.44 600.98 728.43 600.98 728.43 600.97"/><polyline class="cls-4" points="832.43 661 832.43 661.01 832.42 661.01 832.42 541.9 832.42 541.89 832.42 541.88 832.42 540.93"/><polyline class="cls-4" points="936.42 360.81 936.42 360.82 937.28 361.31"/><polyline class="cls-4" points="936.41 600.97 935.58 601.45 832.43 661 832.43 541.89 832.84 541.65 833.25 541.41"/><polyline class="cls-4" points="936.41 480.89 936.41 480.9 936.41 481.84 936.41 481.85 936.41 481.86 849.48 532.05 833.26 541.41 833.25 541.41 832.43 540.94 832.43 540.93"/><polygon class="cls-4" points="936.41 481.86 936.42 481.86 936.42 600.96 936.42 600.97 936.41 600.97 936.41 481.86"/><polyline class="cls-4" points="624.45 301.76 624.45 301.73 624.45 300.78"/><line class="cls-4" x1="624.45" y1="301.78" x2="624.45" y2="301.77"/><line class="cls-4" x1="728.43" y1="360.82" x2="727.71" y2="361.23"/><line class="cls-4" x1="596.91" y1="164.79" x2="624.44" y2="180.69"/><line class="cls-4" x1="417.03" y1="181.02" x2="417.05" y2="181.04"/><line class="cls-4" x1="209.31" y1="541.41" x2="208.48" y2="540.93"/><polyline class="cls-4" points="416.46 540.93 415.63 541.41 415.59 541.43"/><polyline class="cls-5" points="104.49 480.89 0.5 420.85 0.5 301.77"/><polyline class="cls-5" points="208.48 540.93 105.32 481.37 104.49 480.89 104.49 361.81"/><line class="cls-4" x1="207.61" y1="301.27" x2="208.48" y2="300.77"/><line class="cls-4" x1="208.48" y1="420.85" x2="207.61" y2="421.35"/><polyline class="cls-4" points="209.35 421.35 209.31 421.33 208.48 420.85"/><line class="cls-4" x1="104.49" y1="240.73" x2="105.36" y2="241.23"/><line class="cls-4" x1="105.36" y1="361.31" x2="104.49" y2="360.81"/><line class="cls-4" x1="311.6" y1="241.23" x2="312.47" y2="240.73"/><line class="cls-4" x1="312.47" y1="360.81" x2="311.6" y2="361.31"/><line class="cls-4" x1="415.61" y1="181.2" x2="416.16" y2="180.87"/><polyline class="cls-4" points="313.34 361.31 313.3 361.29 312.47 360.81"/><line class="cls-4" x1="311.6" y1="121.16" x2="312.47" y2="120.66"/><polyline class="cls-4" points="208.48 181.69 208.48 180.69 209.35 181.19"/><line class="cls-4" x1="209.35" y1="301.27" x2="208.48" y2="300.77"/><polyline class="cls-4" points="415.59 181.19 416.16 180.87 416.45 180.7"/><line class="cls-4" x1="416.46" y1="300.77" x2="415.59" y2="301.27"/><line class="cls-4" x1="625.31" y1="181.2" x2="728.42" y2="240.73"/><polyline class="cls-4" points="624.44 180.7 624.45 180.71 625.3 181.2"/><line class="cls-4" x1="624.03" y1="300.53" x2="624.44" y2="300.77"/><polyline class="cls-4" points="728.06 240.95 728.42 240.73 728.43 240.73"/><line class="cls-4" x1="573.44" y1="151.25" x2="624.43" y2="180.7"/><line class="cls-4" x1="417.09" y1="181.06" x2="417.3" y2="181.2"/><line class="cls-4" x1="417.02" y1="181.02" x2="417.03" y2="181.03"/><polyline class="cls-4" points="417.33 301.27 417.29 301.25 416.46 300.77"/><polyline class="cls-4" points="342.77 138.15 416.45 180.7 416.46 180.7"/><line class="cls-4" x1="312.47" y1="120.66" x2="313.34" y2="121.16"/><line class="cls-4" x1="313.34" y1="241.23" x2="312.47" y2="240.73"/><line class="cls-4" x1="519.58" y1="121.16" x2="520.45" y2="120.66"/><line class="cls-4" x1="416.47" y1="180.7" x2="459.53" y2="155.83"/><line class="cls-4" x1="520.45" y1="240.73" x2="519.58" y2="241.23"/><line class="cls-4" x1="624.46" y1="180.69" x2="625.32" y2="181.19"/><line class="cls-4" x1="624.62" y1="300.87" x2="624.45" y2="300.77"/><line class="cls-4" x1="759.98" y1="342.6" x2="728.44" y2="360.81"/><line class="cls-4" x1="831.99" y1="180.95" x2="832.43" y2="180.69"/><line class="cls-4" x1="728.44" y1="240.73" x2="766.5" y2="218.76"/><line class="cls-4" x1="832.42" y1="300.78" x2="831.94" y2="301.05"/><line class="cls-4" x1="312.47" y1="601.93" x2="313.3" y2="601.45"/><line class="cls-5" x1="312.47" y1="721.05" x2="312.47" y2="601.93"/><polyline class="cls-4" points="416.46 661.01 415.63 661.49 312.47 721.05"/><polyline class="cls-4" points="312.47 600.97 209.31 541.41 312.44 481.87"/><polyline class="cls-4" points="312.47 480.89 313.3 481.37 313.34 481.39"/><polyline class="cls-4" points="416.43 541.91 313.3 601.45 312.47 600.97 415.59 541.43"/><polyline class="cls-4" points="416.46 420.85 417.29 421.33 417.33 421.35"/><polyline class="cls-4" points="623.57 301.27 623.61 301.25 624.44 300.77"/><line class="cls-4" x1="624.03" y1="420.61" x2="624.44" y2="420.85"/><line class="cls-4" x1="804.66" y1="284.74" x2="832.42" y2="300.77"/><line class="cls-4" x1="728.44" y1="240.75" x2="729.27" y2="241.24"/><line class="cls-4" x1="728.43" y1="240.74" x2="728.44" y2="240.74"/><line class="cls-4" x1="728.07" y1="360.6" x2="728.43" y2="360.81"/><polyline class="cls-4" points="624.45 300.77 624.45 300.78 624.62 300.87 624.67 300.9 624.76 300.95 625.01 301.1 625.31 301.27"/><polyline class="cls-4" points="831.56 181.2 831.99 180.95 832.43 180.7"/><line class="cls-4" x1="729.3" y1="241.24" x2="796" y2="279.74"/><polyline class="cls-4" points="728.44 240.74 729 241.06 729.3 241.23"/><line class="cls-4" x1="875.49" y1="395.98" x2="832.43" y2="420.85"/><line class="cls-4" x1="832.43" y1="300.77" x2="832.66" y2="300.63"/><line class="cls-4" x1="936.41" y1="360.82" x2="936.28" y2="360.89"/><polyline class="cls-4" points="519.58 481.39 519.62 481.37 520.45 480.89"/><polyline class="cls-4" points="623.61 661.49 520.45 721.05 417.29 661.49"/><polyline class="cls-4" points="416.46 540.93 417.29 541.41 417.33 541.43"/><polyline class="cls-4" points="520.42 601.95 417.29 661.49 416.46 661.01"/><polyline class="cls-4" points="624.44 661.01 623.61 661.49 520.48 601.95"/><polyline class="cls-4" points="623.57 541.43 623.61 541.41 624.44 540.93"/><polyline class="cls-4" points="623.57 421.35 623.61 421.33 624.44 420.85"/><polyline class="cls-4" points="520.45 480.89 521.28 481.37 521.32 481.39"/><polyline class="cls-5" points="727.6 601.45 728.02 601.69 728.43 601.93 728.43 721.05 625.28 661.49 625.27 661.49 624.45 661.02 624.45 661.01"/><polyline class="cls-4" points="727.56 481.39 727.6 481.37 728.43 480.89"/><line class="cls-4" x1="624.45" y1="661.01" x2="624.44" y2="661.01"/><polyline class="cls-5" points="624.45 541.92 624.45 661 624.45 661.01"/><line class="cls-5" x1="727.6" y1="601.45" x2="624.48" y2="541.91"/><line class="cls-4" x1="728.43" y1="600.97" x2="727.6" y2="601.45"/><polyline class="cls-4" points="727.57 361.31 727.6 361.29 727.61 361.29 727.71 361.23 728.43 360.81"/><polyline class="cls-4" points="831.59 541.41 728.44 600.96 728.44 600.97 728.43 600.97 625.31 541.43"/><line class="cls-4" x1="728.02" y1="480.65" x2="728.43" y2="480.89"/><line class="cls-4" x1="624.44" y1="420.85" x2="624.45" y2="420.85"/><polyline class="cls-4" points="625.31 541.43 625.28 541.41 625.27 541.41 624.45 540.94 624.44 540.94"/><polyline class="cls-4" points="832.42 540.93 831.59 541.41 728.47 481.87"/><polyline class="cls-4" points="831.56 421.35 831.59 421.33 831.6 421.33 831.7 421.27 832.42 420.85"/><polyline class="cls-4" points="831.56 301.27 831.77 301.15 831.86 301.1 831.91 301.07 831.94 301.05 832.42 300.77"/><line class="cls-4" x1="832.06" y1="420.64" x2="832.42" y2="420.85"/><polyline class="cls-4" points="728.44 360.81 728.44 360.82 729.3 361.31"/><line class="cls-4" x1="728.44" y1="480.89" x2="728.43" y2="480.89"/><line class="cls-4" x1="832.42" y1="540.93" x2="832.01" y2="540.69"/><polyline class="cls-4" points="935.55 361.31 935.85 361.14 935.9 361.11 935.93 361.1 936.12 360.99 936.16 360.96 936.28 360.89 936.41 360.81"/><polyline class="cls-4" points="832.43 540.92 832.43 540.93 832.42 540.93 832.42 540.92"/><line class="cls-4" x1="935.55" y1="241.23" x2="936.41" y2="240.73"/><polyline class="cls-4" points="832.86 301.03 832.65 300.9 832.6 300.87 832.43 300.78"/><polyline class="cls-4" points="936.41 480.89 935.69 481.31 935.59 481.37 935.58 481.37 919.36 490.73 832.43 540.92 832.43 421.84"/><line class="cls-4" x1="936.18" y1="360.67" x2="936.41" y2="360.81"/><polyline class="cls-4" points="832.43 300.78 832.86 301.03 832.91 301.06 833.29 301.27"/><polyline class="cls-4" points="833.29 421.35 832.43 420.86 832.43 420.85"/><polyline class="cls-4" points="1040.41 301.77 1040.41 420.85 936.42 480.88"/><polyline class="cls-4" points="936.42 361.8 936.42 480.88 936.41 480.89 936.41 361.81"/><line class="cls-4" x1="623.89" y1="60.94" x2="624.44" y2="60.63"/><line class="cls-4" x1="520.45" y1="120.66" x2="521.32" y2="121.16"/><line class="cls-4" x1="521.32" y1="241.23" x2="520.45" y2="240.73"/><line class="cls-4" x1="638.88" y1="292.44" x2="624.45" y2="300.77"/><line class="cls-4" x1="727.57" y1="121.16" x2="728.44" y2="120.66"/><line class="cls-4" x1="624.45" y1="181.71" x2="624.45" y2="181.7"/><polyline class="cls-4" points="728.43 240.74 728.06 240.95 727.9 241.04 727.58 241.23"/><polyline class="cls-4" points="519.58 1.08 520.45 0.58 521.32 1.08"/><polyline class="cls-4" points="416.46 61.62 416.46 60.62 417.33 61.12"/><polyline class="cls-4" points="417.33 181.19 417.09 181.06 417.05 181.04 417.03 181.03 417.03 181.02 417.02 181.02 417 181.01 416.47 180.7 416.46 180.7"/><polyline class="cls-4" points="623.58 61.12 623.89 60.94 624.44 60.62 624.44 60.63 624.44 61.61"/><polyline class="cls-4" points="624.44 180.7 624.43 180.7 624.17 180.85 623.59 181.19"/><line class="cls-5" x1="208.48" y1="540.93" x2="208.48" y2="421.85"/><line class="cls-4" x1="311.6" y1="481.39" x2="208.48" y2="540.93"/><polyline class="cls-4" points="312.47 481.89 312.44 481.87 311.6 481.39 311.64 481.37 312.47 480.89"/><polyline class="cls-4" points="313.34 481.39 312.5 481.87 312.47 481.89"/><polyline class="cls-5" points="208.48 421.85 208.45 421.83 207.61 421.35 104.49 361.81"/><line class="cls-4" x1="105.36" y1="361.31" x2="208.48" y2="420.85"/><polyline class="cls-4" points="312.47 361.81 209.35 421.35 208.51 421.83 208.48 421.85 208.48 421.81 208.48 420.85 311.6 361.31"/><line class="cls-4" x1="103.62" y1="241.23" x2="104.49" y2="240.73"/><polyline class="cls-4" points="0.5 300.77 103.62 241.23 104.49 241.73"/><polyline class="cls-4" points="0.5 301.77 0.5 300.77 104.49 360.81"/><polyline class="cls-5" points="104.49 361.81 103.62 361.31 0.5 301.77"/><line class="cls-4" x1="104.49" y1="241.73" x2="105.36" y2="241.23"/><polyline class="cls-4" points="208.48 301.77 105.36 361.31 104.49 361.81 104.49 360.81 207.61 301.27"/><line class="cls-4" x1="208.49" y1="181.7" x2="209.35" y2="181.2"/><line class="cls-4" x1="311.6" y1="241.23" x2="312.47" y2="241.73"/><polyline class="cls-4" points="312.47 361.81 312.44 361.79 311.6 361.31 208.48 301.77"/><line class="cls-4" x1="209.35" y1="301.27" x2="312.47" y2="360.81"/><line class="cls-4" x1="312.47" y1="241.73" x2="313.34" y2="241.23"/><polyline class="cls-4" points="312.47 361.81 312.47 361.77 312.47 360.81 415.59 301.27"/><polyline class="cls-4" points="207.61 181.19 208.48 180.69 311.6 121.16 312.47 121.66"/><polyline class="cls-4" points="208.48 301.77 207.61 301.27 104.49 241.73 104.49 240.73 207.61 181.19 208.48 181.69 105.36 241.23 208.48 300.77"/><line class="cls-4" x1="209.35" y1="181.19" x2="312.47" y2="121.66"/><polyline class="cls-4" points="312.47 241.73 209.35 301.27 208.48 301.77 208.48 300.77 311.6 241.23 208.49 181.7 208.48 181.7 208.48 181.69 209.35 181.19 209.35 181.2 312.47 240.73"/><line class="cls-4" x1="623.9" y1="181.39" x2="624.44" y2="181.69"/><line class="cls-4" x1="623.58" y1="181.19" x2="623.58" y2="181.2"/><line class="cls-4" x1="312.47" y1="121.66" x2="313.34" y2="121.16"/><line class="cls-4" x1="416.02" y1="181.44" x2="415.61" y2="181.2"/><polyline class="cls-4" points="415.92 181.39 416.02 181.44 416.46 181.69"/><polyline class="cls-4" points="416.46 301.77 416.43 301.75 415.59 301.27 312.47 241.73 312.47 240.73 415.59 181.2"/><polyline class="cls-4" points="416.45 181.7 313.34 241.23 416.46 300.77"/><line class="cls-4" x1="416.46" y1="181.69" x2="416.9" y2="181.44"/><polyline class="cls-4" points="416.46 301.77 416.46 301.73 416.46 300.77 519.58 241.23"/><line class="cls-4" x1="520.45" y1="241.73" x2="520.44" y2="241.74"/><polyline class="cls-4" points="623.57 181.2 623.58 181.2 623.9 181.39 624.43 181.7"/><line class="cls-4" x1="520.45" y1="241.74" x2="520.45" y2="241.73"/><line class="cls-4" x1="623.88" y1="61.29" x2="624.44" y2="61.62"/><line class="cls-4" x1="519.58" y1="121.16" x2="520.45" y2="121.66"/><polyline class="cls-4" points="520.45 241.73 520.42 241.71 519.58 241.23 416.46 181.7"/><line class="cls-4" x1="417.33" y1="181.2" x2="520.45" y2="240.73"/><line class="cls-4" x1="520.45" y1="121.66" x2="521.32" y2="121.16"/><polyline class="cls-4" points="521.32 241.23 520.48 241.71 520.45 241.73 520.45 241.69 520.45 240.73 623.57 181.2 623.57 181.19"/><line class="cls-4" x1="624.44" y1="181.69" x2="624.44" y2="181.7"/><polyline class="cls-4" points="624.44 180.69 624.44 180.7 624.44 181.68"/><polyline class="cls-4" points="415.59 61.12 416.46 60.62 519.58 1.08 520.45 1.58"/><polyline class="cls-4" points="416.46 181.7 416.45 181.7 415.92 181.39 415.61 181.2 415.59 181.2 415.59 181.19 312.47 121.66 312.47 120.66 415.59 61.12 416.46 61.62 313.34 121.16 342.77 138.15 416.46 180.69"/><line class="cls-4" x1="417.33" y1="61.12" x2="520.45" y2="1.58"/><polyline class="cls-4" points="520.45 121.66 417.33 181.19 417.33 181.2 417.31 181.2 417.3 181.2 416.9 181.44 416.46 181.7 416.46 181.69 416.46 180.7 416.46 180.69 459.53 155.83 490.15 138.15 519.58 121.16 416.46 61.62 417.33 61.12 520.45 120.66"/><line class="cls-4" x1="728.44" y1="120.66" x2="729.3" y2="121.16"/><line class="cls-4" x1="624.45" y1="61.62" x2="727.57" y2="121.16"/><line class="cls-4" x1="727.57" y1="121.16" x2="728.43" y2="121.66"/><line class="cls-4" x1="727.56" y1="241.23" x2="624.45" y2="181.69"/><polyline class="cls-4" points="728.43 241.72 727.58 241.23 727.57 241.23"/><line class="cls-4" x1="728.44" y1="121.66" x2="729.3" y2="121.16"/><polyline class="cls-4" points="728.44 241.72 728.44 240.75 728.44 240.74 728.44 240.73"/><line class="cls-4" x1="832.43" y1="180.7" x2="832.43" y2="181.68"/><polyline class="cls-4" points="312.47 480.89 312.47 361.81 312.5 361.79 313.34 361.31 416.46 301.77"/><polyline class="cls-4" points="415.59 421.35 415.63 421.33 416.46 420.85"/><polyline class="cls-4" points="416.46 541.93 416.43 541.91 415.59 541.43 312.47 481.89 312.47 481.85 312.47 480.89 415.59 421.35 416.43 421.83 416.46 421.85"/><polyline class="cls-4" points="416.46 420.85 416.46 301.77 416.49 301.75 417.33 301.27 436.08 290.44 450.92 281.88 520.44 241.74 520.45 241.74"/><polyline class="cls-4" points="519.58 361.31 519.62 361.29 520.45 360.81"/><polyline class="cls-4" points="416.46 421.85 416.46 421.81 416.46 420.85 519.58 361.31 520.42 361.79 520.45 361.81"/><polyline class="cls-4" points="521.32 241.24 521.32 241.23 624.43 181.7 624.44 181.7"/><line class="cls-4" x1="642.54" y1="290.32" x2="638.88" y2="292.44"/><line class="cls-4" x1="727.89" y1="241.43" x2="728.43" y2="241.73"/><polyline class="cls-4" points="727.56 241.23 727.57 241.23 727.57 241.24"/><polyline class="cls-4" points="520.46 241.74 520.49 241.72 521.32 241.24 596.68 284.74 624.03 300.53 624.44 300.76 624.44 300.77"/><polyline class="cls-5" points="520.45 360.81 520.45 241.74 520.46 241.74 623.57 301.27 624.41 301.75 624.44 301.77"/><polyline class="cls-5" points="520.45 360.81 521.28 361.29 521.32 361.31"/><polyline class="cls-4" points="520.45 361.81 520.45 361.77 520.45 360.81"/><line class="cls-4" x1="713.39" y1="130.35" x2="728.43" y2="121.66"/><line class="cls-4" x1="831.86" y1="181.37" x2="832.42" y2="181.7"/><polyline class="cls-4" points="625.32 181.19 728.43 240.72 728.43 240.73"/><polyline class="cls-4" points="727.56 241.24 727.56 241.23 624.45 181.71 624.44 181.7 624.45 181.7 624.45 181.69"/><polyline class="cls-4" points="624.44 301.77 624.44 301.74 624.44 301.73 624.44 300.77 624.45 300.77 624.45 300.76 638.88 292.44 642.54 290.32 652.29 284.69 727.56 241.24 727.57 241.24 727.89 241.43 728.42 241.74"/><line class="cls-4" x1="728.44" y1="241.73" x2="729.27" y2="241.24"/><polyline class="cls-4" points="728.44 121.65 729.3 121.16 729.31 121.16 832.43 180.69 832.43 180.7 833.28 181.19"/><polyline class="cls-4" points="831.55 181.2 728.44 121.67 728.44 121.66"/><polyline class="cls-4" points="728.43 241.73 728.43 241.72 728.43 240.74 728.43 240.73 728.44 240.73 728.44 240.72 766.5 218.76 793.6 203.12 831.55 181.2 831.56 181.2 831.86 181.37 832.42 181.69"/><line class="cls-4" x1="832.42" y1="301.76" x2="831.75" y2="301.38"/><line class="cls-4" x1="832.43" y1="181.7" x2="833.29" y2="181.2"/><polyline class="cls-4" points="832.43 301.76 832.43 300.78 832.43 300.77"/><line class="cls-4" x1="832.99" y1="301.44" x2="832.43" y2="301.77"/><line class="cls-4" x1="936.42" y1="240.74" x2="936.42" y2="241.72"/><polygon class="cls-4" points="936.42 121.66 936.42 121.67 936.41 121.66 936.42 121.66"/><line class="cls-4" x1="417.33" y1="421.35" x2="520.45" y2="361.81"/><polyline class="cls-4" points="416.46 421.85 416.49 421.83 417.33 421.35 520.45 480.89"/><polyline class="cls-4" points="519.58 601.47 416.46 661.01 416.46 541.93"/><polyline class="cls-4" points="520.45 601.97 520.42 601.95 519.58 601.47 519.62 601.45 520.45 600.97"/><polyline class="cls-4" points="416.46 540.93 313.34 481.39 416.46 421.85 519.58 481.39"/><polygon class="cls-4" points="520.45 481.89 417.33 541.43 416.49 541.91 416.46 541.93 416.46 541.89 416.46 540.93 519.58 481.39 520.42 481.87 520.45 481.89"/><line class="cls-5" x1="520.45" y1="600.97" x2="520.45" y2="481.89"/><polyline class="cls-5" points="624.44 541.93 624.44 661.01 521.32 601.47"/><polyline class="cls-5" points="520.45 600.97 521.28 601.45 521.32 601.47"/><polyline class="cls-4" points="521.32 601.47 520.48 601.95 520.45 601.97 520.45 601.93 520.45 600.97"/><polyline class="cls-4" points="520.45 481.89 520.48 481.87 521.32 481.39"/><polyline class="cls-5" points="521.32 361.31 550.31 378.05 624.03 420.61 624.44 420.84"/><polyline class="cls-4" points="623.57 421.35 520.45 361.81 520.48 361.79 521.32 361.31"/><polyline class="cls-4" points="520.45 481.89 520.45 481.85 520.45 480.89 623.57 421.35 624.41 421.83 624.44 421.85 521.32 481.39 624.44 540.93"/><polyline class="cls-5" points="624.44 541.93 624.42 541.91 624.41 541.91 623.57 541.43 520.45 481.89"/><polyline class="cls-4" points="624.44 421.85 624.45 421.85 624.45 421.84 624.46 421.83 624.47 421.83 624.48 421.83 625.31 421.35"/><polyline class="cls-4" points="624.45 541.92 624.44 541.93 624.44 541.89 624.44 541.88 624.44 540.94 624.44 540.93 624.45 540.93 624.45 540.92 727.56 481.39"/><polyline class="cls-5" points="624.48 541.91 624.47 541.91 624.45 541.92"/><polyline class="cls-4" points="728.42 481.89 625.31 541.43 624.48 541.91"/><polyline class="cls-4" points="625.31 301.27 728.42 241.74 728.43 241.74"/><line class="cls-4" x1="802.57" y1="318.01" x2="728.44" y2="360.8"/><polyline class="cls-4" points="624.44 301.77 624.45 301.77 624.45 301.76 624.47 301.75 624.48 301.75 625.31 301.27 652.9 317.2 671.79 328.1 728.07 360.6 728.43 360.8 728.43 360.81"/><polyline class="cls-5" points="624.45 301.78 727.56 361.31 727.57 361.31"/><polyline class="cls-5" points="624.45 301.78 624.45 420.85 625.28 421.33 625.31 421.35 728.02 480.65 728.43 480.88"/><line class="cls-4" x1="624.44" y1="301.78" x2="624.45" y2="301.78"/><line class="cls-5" x1="624.44" y1="301.77" x2="624.44" y2="301.78"/><line class="cls-5" x1="624.44" y1="420.84" x2="624.44" y2="301.78"/><polyline class="cls-4" points="728.43 481.89 728.42 481.89 728.41 481.87 728.4 481.87 727.56 481.39 624.45 421.86 624.44 421.85 624.44 421.82 624.44 421.81 624.44 421.8 624.44 420.85 624.44 420.84"/><polyline class="cls-5" points="727.57 361.31 728.4 361.79 728.41 361.79 728.43 361.81"/><polyline class="cls-5" points="832.42 421.85 832.42 540.92 832.01 540.69 758.29 498.13 729.3 481.39"/><polyline class="cls-4" points="728.43 361.81 728.44 361.81 728.44 361.8 728.46 361.79 728.47 361.79 729.3 361.31"/><line class="cls-5" x1="728.43" y1="480.88" x2="728.43" y2="361.82"/><polyline class="cls-4" points="729.3 481.39 728.47 481.87 728.46 481.87 728.45 481.87 728.44 481.88 728.43 481.89 728.43 481.86 728.43 481.85 728.43 481.84 728.43 480.89 728.43 480.88"/><polyline class="cls-5" points="728.44 361.82 728.44 480.89 728.44 480.9 729.26 481.37 729.27 481.37 729.3 481.39"/><polyline class="cls-4" points="729.31 241.23 772.04 216.56 832.42 181.7"/><polyline class="cls-4" points="728.44 241.73 728.44 241.72 729.27 241.24 729.28 241.24 729.3 241.24 729.3 241.23 729.31 241.23 796 279.74 804.66 284.74 832.42 300.76 832.42 300.77"/><line class="cls-4" x1="831.55" y1="301.27" x2="728.44" y2="241.74"/><rect class="cls-4" x="728.43" y="241.73" width="0.01" height="0.01"/><polyline class="cls-4" points="728.43 361.81 728.43 361.78 728.43 361.76 728.43 360.82 728.43 360.81 728.44 360.81 728.44 360.8 759.98 342.6 802.57 318.01 808.83 314.39 823.21 306.09 831.55 301.27 831.56 301.27 831.75 301.38 832.42 301.77 729.3 361.31 758.29 378.05 804.04 404.46 832.06 420.64 832.42 420.84 832.42 420.85"/><line class="cls-5" x1="728.43" y1="361.82" x2="728.43" y2="361.81"/><line class="cls-4" x1="728.44" y1="361.82" x2="728.43" y2="361.82"/><polyline class="cls-5" points="832.42 421.85 832.39 421.83 831.56 421.35 831.55 421.35 728.44 361.82"/><polyline class="cls-4" points="832.43 301.77 832.43 301.76 832.99 301.44 833.29 301.27 833.3 301.27"/><polyline class="cls-4" points="936.41 361.81 833.29 421.35 832.46 421.83 832.43 421.84 832.42 421.85 832.42 421.82 832.42 421.8 832.42 420.86 832.42 420.85 832.43 420.85 832.43 420.84 875.49 395.98 897.92 383.03 935.54 361.31"/><line class="cls-4" x1="862.73" y1="284.28" x2="936.41" y2="241.73"/><polyline class="cls-4" points="832.43 181.69 832.43 181.68 833.28 181.19 833.29 181.2 833.3 181.2 936.41 240.73 936.42 240.73 936.42 240.74 937.28 241.23"/><rect class="cls-4" x="832.42" y="181.69" width="0.01" height="0.01"/><polygon class="cls-4" points="832.43 181.7 935.54 241.23 832.43 181.71 832.43 181.7"/><polyline class="cls-4" points="936.41 241.73 936.42 241.73 936.42 241.72 937.28 241.23 1040.41 300.77"/><polyline class="cls-4" points="936.41 361.81 935.55 361.31 935.54 361.31 832.43 301.78 832.43 301.77 832.42 301.77 832.42 301.76 832.42 300.78 832.42 300.77 832.43 300.77 832.43 300.76 832.66 300.63 935.54 241.23 935.55 241.23 936.41 241.73 936.41 241.74 862.73 284.28 833.3 301.27 936.18 360.67 936.41 360.8 936.41 360.81"/><polygon class="cls-4" points="936.42 360.81 936.42 360.8 1040.41 300.77 1040.41 301.77 937.28 361.31 936.42 361.8 936.41 361.81 936.41 360.82 936.41 360.81 936.42 360.81"/><polyline class="cls-4" points="623.57 61.12 520.45 1.58 521.32 1.08 624.44 60.62 624.45 60.62 625.32 61.12"/><line class="cls-4" x1="624.44" y1="61.62" x2="624.45" y2="61.62"/><polyline class="cls-4" points="624.45 181.69 624.44 181.69 624.44 181.68 623.59 181.19 623.58 181.19 623.57 181.19 520.45 121.66 520.45 120.66 623.57 61.12 623.58 61.12 623.88 61.29 624.44 61.61 624.44 61.62 521.32 121.16 549.53 137.45 573.44 151.25 596.91 164.79 624.44 180.68 624.44 180.69 624.45 180.69"/><polygon class="cls-4" points="728.44 120.66 728.44 121.65 728.44 121.66 728.43 121.66 728.43 121.67 713.39 130.35 625.32 181.19 625.31 181.2 625.3 181.2 624.45 181.69 624.45 180.71 624.45 180.69 624.46 180.69 727.57 121.16 624.45 61.63 624.45 61.62 625.32 61.12 728.44 120.66"/></g></g></g></svg>