<?xml version="1.0" encoding="UTF-8"?>
<svg width="1280px" height="687px" viewBox="0 0 1280 687" version="1.1" xmlns="http://www.w3.org/2000/svg" xmlns:xlink="http://www.w3.org/1999/xlink">
    <title>Artboard</title>
    <defs>
        <rect id="path-1" x="0" y="0" width="1440" height="687"></rect>
    </defs>
    <g id="Artboard" stroke="none" stroke-width="1" fill="none" fill-rule="evenodd">
        <g id="Asset-126">
            <mask id="mask-2" fill="white">
                <use xlink:href="#path-1"></use>
            </mask>
            <use id="Mask" fill="#EF2B55" xlink:href="#path-1"></use>
            <g mask="url(#mask-2)" id="Path">
                <g transform="translate(-212.000000, -985.000000)">
                    <path d="M1738,884 L1738,884.649524 C1738,885.338412 1738,886.027301 1738,886.735872 L1738,887.34603 C1738,887.838094 1738,888.310474 1738,888.802538 C1735.40183,1092.04436 1569.82734,1256 1365.98884,1256 C1326.94647,1256.0351 1288.1419,1249.92433 1251,1237.89192 C1383.32199,1020.51629 1383.32199,747.483706 1251,530.108081 C1288.1419,518.075672 1326.94647,511.964903 1365.98884,512 C1569.82734,512 1735.40183,675.935958 1738,879.197462 C1738,879.610795 1738,880.024129 1738,880.437462 L1738,881.04762 C1738,882.031747 1738,883.015873 1738,884 Z" fill="#FED533" fill-rule="nonzero"></path>
                    <path d="M1746,879.53087 C1740.84851,1357.27413 1351.95061,1743 873,1743 C394.049392,1743 4.85655405,1356.99886 0,879 C4.85655405,1250.01882 307.142635,1549.33093 679.327703,1549.33093 C721.850691,1549.36174 764.283213,1545.41214 806.07,1537.53383 C880.995544,1563.66303 959.794245,1576.95768 1039.14527,1576.8575 C1426.37189,1576.8575 1740.84851,1265.51235 1746,879.53087 Z" fill="#001E3C" fill-rule="nonzero"></path>
                    <path d="M1744.98502,876.5106 C1744.98502,877.001562 1744.98502,877.472885 1744.98502,877.944209 L1744.98502,878.729747 C1744.98502,878.94577 1744.98502,879.181432 1744.98502,879.417094 L1744.98502,879.417094 C1745,879.49438 1745,879.575469 1744.98502,879.652755 C1740.7785,1169.94862 1503.91621,1404 1212.29057,1404 C1178.29746,1404.02027 1144.38004,1400.79803 1111,1394.37705 C1169.3178,1346.24152 1219.21272,1288.74711 1258.64089,1224.24899 C1295.72956,1236.27445 1334.48194,1242.39144 1373.47487,1242.3753 C1577.03884,1242.3753 1742.39035,1078.78684 1744.98502,876 C1744.97521,876.170059 1744.97521,876.340541 1744.98502,876.5106 Z" fill="none"></path>
                    <path d="M1745,874 L1745,875.965583 C1745,876.456979 1745,876.928719 1745,877.400459 L1745,878.186693 C1745,878.402907 1745,878.638777 1745,878.874647 L1745,879.18914 C1740.79338,1169.74168 1503.9255,1404 1212.29296,1404 C1178.29905,1404.02029 1144.38083,1400.7952 1111,1394.36855 C1169.31918,1346.19045 1219.21528,1288.6452 1258.64437,1224.09006 C1295.7382,1236.09947 1334.4914,1242.19532 1373.48107,1242.15377 C1577.04986,1242.15377 1742.40526,1078.42067 1745,875.454532 C1745,874.963136 1745,874.589675 1745,874 Z" fill="none"></path>
                    <path d="M1746,879 L1746,879.982655 C1740.84813,1265.79263 1426.34809,1577 1039.09263,1577 C959.735694,1577.09958 880.931124,1563.81084 806,1537.69324 C918.442096,1516.45806 1023.65465,1467.05471 1111.78906,1394.10771 C1145.18099,1400.53347 1179.11049,1403.7581 1213.11572,1403.73772 C1504.78629,1403.71807 1741.73299,1169.5121 1746,879 Z" fill="#EF2B55" fill-rule="nonzero"></path>
                    <path d="M1744.18575,876 C1744.18575,876.629598 1744.18575,877.298546 1744.18575,877.967493 L1744.18575,878.754491 C1744.18575,878.970915 1744.18575,879.207014 1744.18575,879.443113 L1744.18575,879.443113 C1744.20076,879.520543 1744.20076,879.601782 1744.18575,879.679212 C1739.97126,1170.51406 1502.66037,1405 1210.48241,1405 C1176.42491,1405.02031 1142.44326,1401.79209 1109,1395.35919 C1167.42825,1347.13428 1217.41767,1289.53312 1256.92051,1224.91525 C1294.0805,1236.95636 1332.90625,1243.07806 1371.97198,1243.05554 C1575.92149,1243.05554 1741.58616,1079.16335 1744.18575,876 Z" fill="#3A6EFF" fill-rule="nonzero"></path>
                    <path d="M332.197278,871 C332.081552,964.855338 350.713906,1057.78764 387,1144.33869 C298.931638,1175.54838 201.229028,1162.42259 124.511227,1109.07482 C47.7934258,1055.72704 1.44831314,968.685402 0,875.227901 C0,873.812046 0,872.415855 0,871 C0,869.584145 0,868.187954 0,866.772099 C1.44831314,773.314598 47.7934258,686.272955 124.511227,632.925182 C201.229028,579.577409 298.931638,566.451619 387,597.661308 C350.713906,684.212356 332.081552,777.144662 332.197278,871 L332.197278,871 Z" fill="#FDC22D" fill-rule="nonzero"></path>
                    <path d="M579,872.058908 C578.974115,994.633776 501.638553,1103.93127 385.875234,1145 C312.708255,970.318908 312.708255,773.681092 385.875234,599 C501.683106,640.078306 579.029963,749.438953 579,872.058908 L579,872.058908 Z" fill="#FED533" fill-rule="nonzero"></path>
                    <path d="M679.01207,871.67946 C678.847779,976.181834 709.433767,1078.41239 766.9432,1165.58031 C693.747078,1247.56254 592.565452,1299.08799 483.3432,1310 C443.548412,1259.62209 410.798557,1204.03696 386,1144.78293 C501.586716,1103.58271 578.794112,993.930257 578.794112,870.970458 C578.794112,748.010659 501.586716,638.358202 386,597.157982 C410.803325,537.924612 443.553018,482.359629 483.3432,432 C592.830457,442.956143 694.220512,494.72338 767.434436,577.049909 C709.597189,664.361797 678.831386,766.875621 679.01207,871.67946 Z" fill="#EF2B55" fill-rule="nonzero"></path>
                    <path d="M1258.53461,1225.45121 C1219.15034,1290.10883 1169.31098,1347.74542 1111.05811,1396 C970.505708,1368.66822 846.852346,1285.73632 768,1165.91761 C917.660495,998.59348 917.871932,745.184874 768.490868,577.609904 C847.60517,457.783861 971.56606,375.005945 1112.33436,348 C1170.03992,396.048857 1220.37197,450.691438 1259.46896,514.876004 C1106.58332,564.758575 1002.16027,710.273526 1002.16027,871.478294 C1002.16027,1032.68306 1105.64897,1175.56863 1258.53461,1225.45121 Z" fill="#000814" fill-rule="nonzero"></path>
                    <path d="M881,871.714687 C881.1564,980.369165 840.962072,1085.22253 768.188607,1166 C650.425025,987.584759 650.618863,756.218233 768.681231,578 C841.156936,658.696442 881.165303,763.319194 881,871.714687 Z" fill="#043666" fill-rule="nonzero"></path>
                    <path d="M806,1539.19563 C764.220918,1547.07868 721.796221,1551.03065 679.281073,1551 C307.086,1551.01949 4.85565854,1251.52741 0,880.285501 C0,879.183776 0,878.082051 0,877 C3.08639024,1117.76622 199.062341,1311.98456 440.35122,1311.98456 C455.226179,1311.98456 469.917659,1311.25663 484.425659,1309.80078 C567.7098,1415.23864 679.239539,1494.79831 806,1539.19563 L806,1539.19563 Z" fill="#FED533" fill-rule="nonzero"></path>
                    <path d="M484,1309.81853 C469.530936,1311.27284 454.852366,1312 439.964289,1312 C198.887428,1312 3.08367827,1117.98639 0,877.473969 C0,876.982646 0,876.491323 0,876 C1.44717988,969.401728 47.7560288,1056.39143 124.413801,1109.70736 C201.071572,1163.0233 298.697732,1176.14126 386.697184,1144.95019 C411.485453,1204.07915 444.221721,1259.54695 484,1309.81853 L484,1309.81853 Z" fill="#3A6EFF" fill-rule="nonzero"></path>
                    <path d="M1111,1395.13415 C1022.92868,1468.21161 917.79313,1517.71072 805.430613,1539 C678.724431,1494.54934 567.246004,1414.91871 484,1309.39751 C593.250833,1298.48718 694.458936,1246.96964 767.674211,1165 C846.587909,1284.82821 970.334563,1367.77663 1111,1395.13415 L1111,1395.13415 Z" fill="#001E3C" fill-rule="nonzero"></path>
                    <path d="M1358,871.5 C1358.20346,996.222386 1323.87957,1118.56934 1258.82625,1225 C1105.67111,1175.18407 1002,1032.4894 1002,871.5 C1002,710.510604 1105.67111,567.815928 1258.82625,518 C1323.87483,624.432727 1358.19833,746.778314 1358,871.5 Z" fill="#FDC22D" fill-rule="nonzero"></path>
                </g>
            </g>
        </g>
    </g>
</svg>