<svg id="Layer_1" data-name="Layer 1" xmlns="http://www.w3.org/2000/svg" viewBox="0 0 1920 1080"><defs><style>.cls-1{fill:#fff;}.cls-2{fill:#f14820;}.cls-3{fill:none;}.cls-4{fill:#467cdc;}.cls-5{fill:#e6dfce;}.cls-6{fill:#f1ac29;}.cls-7{fill:#b35215;}.cls-8{fill:#eb9df1;}</style></defs><rect class="cls-1" x="-1" y="-5" width="1924" height="1085"/><path class="cls-2" d="M1024,376.87q-17.06,2.44-34.53,3.52h0q-15.76-8-30.61-17.17a425.43,425.43,0,0,0,39.31-26.58A425.31,425.31,0,0,0,1024,376.87Z"/><path class="cls-3" d="M1311.23-300.84a427.71,427.71,0,0,0-199.15,83.48,431.61,431.61,0,0,0-43.7,38.25A428.1,428.1,0,0,0,961.25-.83,428.14,428.14,0,0,0,851.39-185.62a433.13,433.13,0,0,0-38.14-33.7,433.55,433.55,0,0,0-25.74,52.06,428.08,428.08,0,0,0-30.8,205.7A428.07,428.07,0,0,0,584.53-90.28a433.22,433.22,0,0,0-48.13-16.55A427.61,427.61,0,0,1,617.14-305.1a431.73,431.73,0,0,1,154.8-129.4h0A428,428,0,0,1,962.63-479a428.2,428.2,0,0,1,195.44,46.87h0A432,432,0,0,1,1311.23-300.84Z"/><path class="cls-3" d="M1045.5,404.13q-12.62-4.32-25.09-9.49-15.87-6.57-30.92-14.25h0q-15.76-8-30.61-17.17a425.43,425.43,0,0,0,39.31-26.58A425.31,425.31,0,0,0,1024,376.87Q1034.13,390.84,1045.5,404.13Z"/><path class="cls-3" d="M1599.57,111.61a432.79,432.79,0,0,0-60.07-4.11,428.16,428.16,0,0,0-198.78,48.81,428.21,428.21,0,0,0,52-205.2,433.86,433.86,0,0,0-3.23-52.91,427.57,427.57,0,0,0-78.27-199,427.71,427.71,0,0,0-199.15,83.48,431.61,431.61,0,0,0-43.7,38.25A428.1,428.1,0,0,0,961.25-.83,428.14,428.14,0,0,0,851.39-185.62a433.13,433.13,0,0,0-38.14-33.7,427.6,427.6,0,0,1,150.44-152.3,431.73,431.73,0,0,1,194.38-60.5h0a428.3,428.3,0,0,1,191.33,32,428.4,428.4,0,0,1,162.67,118.07,432,432,0,0,1,91.3,179.88A427.67,427.67,0,0,1,1599.57,111.61Z"/><path class="cls-4" d="M1088.22,447.52q-10-8.81-19.56-18.37-12.17-12.15-23.16-25,16.56,5.7,33.29,10Q1082.8,430.87,1088.22,447.52Z"/><path class="cls-5" d="M1078.79,414.1q-16.71-4.28-33.29-10-11.37-13.29-21.48-27.26a429.19,429.19,0,0,0,46.34-9.25A424.8,424.8,0,0,0,1078.79,414.1Z"/><path class="cls-6" d="M1070.36,367.62a429.19,429.19,0,0,1-46.34,9.25,425.31,425.31,0,0,1-25.85-40.23,426.68,426.68,0,0,0,71.49-68.8A427.2,427.2,0,0,0,1070.36,367.62Z"/><path class="cls-3" d="M1223.13,425.72a426.41,426.41,0,0,0-68.63,69.95,425.11,425.11,0,0,1-39.33-26.21,420.18,420.18,0,0,1,10-46.19A426.27,426.27,0,0,0,1223.13,425.72Z"/><path class="cls-6" d="M1389.5-101.8a432.89,432.89,0,0,0-57.07,19.17A428.23,428.23,0,0,0,1165.27,41.08a428.31,428.31,0,0,0-30.84-212.72,431.06,431.06,0,0,0-22.35-45.72,427.71,427.71,0,0,1,199.15-83.48A427.57,427.57,0,0,1,1389.5-101.8Z"/><path class="cls-3" d="M1603.38-102.21a427.67,427.67,0,0,1-3.81,213.82,432.79,432.79,0,0,0-60.07-4.11,428.16,428.16,0,0,0-198.78,48.81,428.21,428.21,0,0,0,52-205.2,433.86,433.86,0,0,0-3.23-52.91,427.57,427.57,0,0,0-78.27-199,431.93,431.93,0,0,1,200.85,18.75,431,431,0,0,1,269.7,274A431.79,431.79,0,0,0,1603.38-102.21Z"/><path class="cls-5" d="M1115.17,469.46q-2.73,17-4.08,34.49-5.86-12-11-24.47-6.58-15.87-11.82-32Q1101.35,459.13,1115.17,469.46Z"/><path d="M1125.16,423.27a420.18,420.18,0,0,0-10,46.19q-13.82-10.33-27-21.93h0q-5.43-16.63-9.43-33.42A427.83,427.83,0,0,0,1125.16,423.27Z"/><path class="cls-5" d="M1161.8,332.41a426.81,426.81,0,0,0-36.64,90.86,427.83,427.83,0,0,1-46.37-9.17,424.8,424.8,0,0,1-8.43-46.48A426.68,426.68,0,0,0,1161.8,332.41Z"/><path class="cls-4" d="M1392.73-48.89a428.21,428.21,0,0,1-52,205.2,431.87,431.87,0,0,0-178.92,176.1,426.68,426.68,0,0,1-91.44,35.21,427.2,427.2,0,0,1-.7-99.78,432.13,432.13,0,0,0,95.61-226.76A428.23,428.23,0,0,1,1332.43-82.63a432.89,432.89,0,0,1,57.07-19.17A433.86,433.86,0,0,1,1392.73-48.89Z"/><path class="cls-3" d="M1223.13,425.72a426.41,426.41,0,0,0-68.63,69.95,425.11,425.11,0,0,1-39.33-26.21,420.18,420.18,0,0,1,10-46.19A426.27,426.27,0,0,0,1223.13,425.72Z"/><path d="M1797.34,193a427.91,427.91,0,0,0-197.77-81.42,427.67,427.67,0,0,0,3.81-213.82,431.79,431.79,0,0,1,178.4,94.13A432.07,432.07,0,0,1,1797.34,193Z"/><path class="cls-7" d="M1599.57,111.61a432.79,432.79,0,0,0-60.07-4.11,428.16,428.16,0,0,0-198.78,48.81,428.21,428.21,0,0,0,52-205.2,433.86,433.86,0,0,0-3.23-52.91,427.69,427.69,0,0,1,213.88-.41A427.67,427.67,0,0,1,1599.57,111.61Z"/><path class="cls-8" d="M1926.16,348.23A431.69,431.69,0,0,0,1797.34,193,432.07,432.07,0,0,0,1781.78-8.08a430.93,430.93,0,0,1,144.38,356.31Z"/><path class="cls-8" d="M1127.6,534.52q-9,14.7-16.95,30.31-.86-13.32-.86-26.84,0-17.18,1.3-34Q1118.79,519.69,1127.6,534.52Z"/><path d="M1154.5,495.67a423.8,423.8,0,0,0-26.9,38.85q-8.82-14.84-16.51-30.57,1.35-17.44,4.08-34.49A425.11,425.11,0,0,0,1154.5,495.67Z"/><path class="cls-3" d="M1709.8,688.6A427.88,427.88,0,0,1,1792.17,886a427.64,427.64,0,0,1-199,78.44,434,434,0,0,0-19.23-57,428.29,428.29,0,0,0-121.27-164.89,428.15,428.15,0,0,0,209.45-30.61A433.2,433.2,0,0,0,1709.8,688.6Z"/><path class="cls-7" d="M1970,537.21a428.06,428.06,0,0,1-46.69,195.47A431.88,431.88,0,0,0,1863.63,540a431.88,431.88,0,0,0,62.53-191.79A428.34,428.34,0,0,1,1970,537.21Z"/><path class="cls-4" d="M1926.16,348.23A431.88,431.88,0,0,1,1863.63,540,427.84,427.84,0,0,0,1712,389.15,427.58,427.58,0,0,0,1797.34,193,431.69,431.69,0,0,1,1926.16,348.23Z"/><path class="cls-5" d="M1797.34,193A427.58,427.58,0,0,1,1712,389.15a432.94,432.94,0,0,0-53.92-26.77,428.07,428.07,0,0,0-202.36-30.93,428.13,428.13,0,0,0,126.56-169.71,433.15,433.15,0,0,0,17.26-50.13A427.91,427.91,0,0,1,1797.34,193Z"/><path class="cls-6" d="M1599.57,111.61a433.15,433.15,0,0,1-17.26,50.13,428.13,428.13,0,0,1-126.56,169.71,431.89,431.89,0,0,0-232.62,94.27,426.27,426.27,0,0,1-98-2.45,426.81,426.81,0,0,1,36.64-90.86,432,432,0,0,0,178.92-176.1A428.16,428.16,0,0,1,1539.5,107.5,432.79,432.79,0,0,1,1599.57,111.61Z"/><path class="cls-5" d="M1223.13,425.72a426.41,426.41,0,0,0-68.63,69.95,425.11,425.11,0,0,1-39.33-26.21,420.18,420.18,0,0,1,10-46.19A426.27,426.27,0,0,0,1223.13,425.72Z"/><path class="cls-2" d="M1340.72,156.31a432,432,0,0,1-178.92,176.1A431.87,431.87,0,0,1,1340.72,156.31Z"/><path class="cls-6" d="M1114.2,599.39q-14,10.11-27.26,21.52,4.32-12.63,9.48-25.12,6.55-15.88,14.23-30.95Q1111.73,582.32,1114.2,599.39Z"/><path class="cls-5" d="M1153.91,573.78a423.9,423.9,0,0,0-39.71,25.61q-2.46-17.07-3.55-34.55h0q7.9-15.62,16.95-30.31A423.58,423.58,0,0,0,1153.91,573.78Z"/><path class="cls-6" d="M1891.52,924.06a428.18,428.18,0,0,1-117.92,162.77A431.87,431.87,0,0,0,1792.17,886,431.93,431.93,0,0,0,1923.3,732.69,428.22,428.22,0,0,1,1891.52,924.06Z"/><path class="cls-3" d="M1923.3,732.68h0A431.93,431.93,0,0,1,1792.17,886,427.88,427.88,0,0,0,1709.8,688.6,427.74,427.74,0,0,0,1863.63,540,431.88,431.88,0,0,1,1923.3,732.68Z"/><path class="cls-2" d="M1863.63,540A427.74,427.74,0,0,1,1709.8,688.6a433.89,433.89,0,0,0-39.59-45.36,427.94,427.94,0,0,0-175.13-106,428.16,428.16,0,0,0,181.83-108.4A432.62,432.62,0,0,0,1712,389.15,427.84,427.84,0,0,1,1863.63,540Z"/><path class="cls-8" d="M1712,389.15a432.62,432.62,0,0,1-35.12,39.72,428.16,428.16,0,0,1-181.83,108.4h0a431.79,431.79,0,0,0-251-1.87h0a426.78,426.78,0,0,1-89.56-39.73,426.41,426.41,0,0,1,68.63-69.95,431.92,431.92,0,0,0,232.62-94.27,428.07,428.07,0,0,1,202.36,30.93A432.94,432.94,0,0,1,1712,389.15Z"/><path class="cls-4" d="M1244.06,535.4a426.7,426.7,0,0,0-90.15,38.38,423.58,423.58,0,0,1-26.31-39.26,423.8,423.8,0,0,1,26.9-38.85A426.78,426.78,0,0,0,1244.06,535.4Z"/><path class="cls-4" d="M1455.75,331.45a431.92,431.92,0,0,1-232.62,94.27A431.89,431.89,0,0,1,1455.75,331.45Z"/><path class="cls-3" d="M1792.17,886a427.64,427.64,0,0,1-199,78.44,434,434,0,0,0-19.23-57,428.29,428.29,0,0,0-121.27-164.89,428.15,428.15,0,0,0,209.45-30.61,433.2,433.2,0,0,0,47.64-23.27A427.88,427.88,0,0,1,1792.17,886Z"/><path class="cls-4" d="M1086.94,620.91q-5.67,16.56-9.92,33.28-16.79,4-33.43,9.47,8.82-10,18.37-19.59Q1074.09,631.91,1086.94,620.91Z"/><path d="M1123.49,645.72a426.77,426.77,0,0,0-46.47,8.47q4.24-16.71,9.92-33.28,13.29-11.4,27.26-21.52A429.1,429.1,0,0,0,1123.49,645.72Z"/><path class="cls-2" d="M1773.6,1086.83a431.86,431.86,0,0,1-179.8,91.48,427.76,427.76,0,0,0-.59-213.89,427.64,427.64,0,0,0,199-78.44A431.87,431.87,0,0,1,1773.6,1086.83Z"/><path class="cls-6" d="M1709.8,688.6a433.2,433.2,0,0,1-47.64,23.27,428.15,428.15,0,0,1-209.45,30.61,432,432,0,0,0-231.24-97.74h0a426.71,426.71,0,0,1-67.55-71,426.7,426.7,0,0,1,90.15-38.38h0a432,432,0,0,0,251,1.87h0a427.94,427.94,0,0,1,175.13,106A433.89,433.89,0,0,1,1709.8,688.6Z"/><path class="cls-2" d="M1221.46,644.74a426.69,426.69,0,0,0-98,1,429.1,429.1,0,0,1-9.29-46.33,423.9,423.9,0,0,1,39.71-25.61A426.71,426.71,0,0,0,1221.46,644.74Z"/><path class="cls-7" d="M1495.07,537.27a432,432,0,0,1-251-1.87A431.79,431.79,0,0,1,1495.07,537.27Z"/><path class="cls-8" d="M1792.17,886a427.64,427.64,0,0,1-199,78.44,434,434,0,0,0-19.23-57,428.29,428.29,0,0,0-121.27-164.89,428.15,428.15,0,0,0,209.45-30.61,433.2,433.2,0,0,0,47.64-23.27A427.88,427.88,0,0,1,1792.17,886Z"/><path class="cls-6" d="M1043.59,663.66q-11.58,13.13-21.9,27-17-2.7-34.48-4,12-5.88,24.44-11.07Q1027.52,668.9,1043.59,663.66Z"/><path class="cls-5" d="M1077,654.19a423.05,423.05,0,0,0-9.13,46.38,422.6,422.6,0,0,0-46.2-10q10.32-13.82,21.9-27Q1060.23,658.2,1077,654.19Z"/><path class="cls-4" d="M1593.21,964.42a434,434,0,0,1-52.93,3.28A428.1,428.1,0,0,1,1335,915.87h0a432,432,0,0,0-176.26-178.74,427.6,427.6,0,0,1-35.28-91.4,426.69,426.69,0,0,1,98-1h0a432,432,0,0,0,231.24,97.74A428.29,428.29,0,0,1,1574,907.37,434,434,0,0,1,1593.21,964.42Z"/><path class="cls-8" d="M1158.77,737.12a426.5,426.5,0,0,0-90.88-36.55,423.05,423.05,0,0,1,9.13-46.38,426.77,426.77,0,0,1,46.47-8.47A427.6,427.6,0,0,0,1158.77,737.12Z"/><path d="M1452.71,742.48a432,432,0,0,1-231.24-97.74A432,432,0,0,1,1452.71,742.48Z"/><path class="cls-6" d="M1593.8,1178.31a427.63,427.63,0,0,1-213.82-3.62,432.92,432.92,0,0,0,4-60.07,428.09,428.09,0,0,0-49-198.75,428.1,428.1,0,0,0,205.25,51.83,434,434,0,0,0,52.93-3.28A427.76,427.76,0,0,1,1593.8,1178.31Z"/><path class="cls-3" d="M1593.8,1178.31a430.14,430.14,0,0,1-790.71,107.15,434.12,434.12,0,0,0,45.33-39.64,428.2,428.2,0,0,0,105.81-175.21,428.15,428.15,0,0,0,108.56,181.71,432.88,432.88,0,0,0,39.76,35.09,427.58,427.58,0,0,0,196.19,85.12A427.85,427.85,0,0,0,1380,1174.69,427.63,427.63,0,0,0,1593.8,1178.31Z"/><path d="M987.21,686.57q-15.72,7.7-30.56,16.54h0q-14.71-9-30.32-16.93,13.3-.85,26.83-.88Q970.34,685.27,987.21,686.57Z"/><path class="cls-2" d="M1021.69,690.61A426.44,426.44,0,0,0,995.52,730a425.12,425.12,0,0,0-38.87-26.86q14.83-8.83,30.56-16.54Q1004.66,687.91,1021.69,690.61Z"/><path class="cls-3" d="M917.41,729.46a426.45,426.45,0,0,0-70.91,67.63,427.38,427.38,0,0,0-1.07-98,424,424,0,0,1,46.33-9.34A422.74,422.74,0,0,1,917.41,729.46Z"/><path d="M1384,1114.62a432.92,432.92,0,0,1-4,60.07,431.58,431.58,0,0,1-220-143.59,432,432,0,0,0-94.5-232.58,426.07,426.07,0,0,1,2.37-97.95,426.5,426.5,0,0,1,90.88,36.55A431.93,431.93,0,0,0,1335,915.86h0A428.09,428.09,0,0,1,1384,1114.62Z"/><path class="cls-4" d="M1065.52,798.52a427.06,427.06,0,0,0-70-68.55,426.44,426.44,0,0,1,26.17-39.36,422.6,422.6,0,0,1,46.2,10A426.07,426.07,0,0,0,1065.52,798.52Z"/><path class="cls-5" d="M1335,915.86a431.93,431.93,0,0,1-176.26-178.74A432,432,0,0,1,1335,915.86Z"/><path class="cls-7" d="M1380,1174.69a427.85,427.85,0,0,1-81.24,197.84,427.58,427.58,0,0,1-196.19-85.12,433.09,433.09,0,0,0,26.72-54A428.21,428.21,0,0,0,1160,1031.1a431.58,431.58,0,0,0,220,143.59Z"/><path class="cls-3" d="M1298.74,1372.53A430,430,0,0,1,605.8,1368a428,428,0,0,0,197.29-82.54,434.12,434.12,0,0,0,45.33-39.64,428.2,428.2,0,0,0,105.81-175.21,428.15,428.15,0,0,0,108.56,181.71,432.88,432.88,0,0,0,39.76,35.09A427.58,427.58,0,0,0,1298.74,1372.53Z"/><path class="cls-6" d="M926.3,686.18q-17.47,1.1-34.54,3.59-10.12-13.95-21.55-27.24,12.62,4.31,25.13,9.45Q911.24,678.54,926.3,686.18Z"/><path class="cls-5" d="M956.64,703.11a425.48,425.48,0,0,0-39.23,26.35,422.74,422.74,0,0,0-25.65-39.69q17.06-2.47,34.54-3.59h0Q941.94,694.09,956.64,703.11Z"/><path class="cls-7" d="M995.52,730a426.5,426.5,0,0,0-39.65,89.6,426.24,426.24,0,0,0-38.46-90.11,425.48,425.48,0,0,1,39.23-26.35h0A425.12,425.12,0,0,1,995.52,730Z"/><path class="cls-3" d="M917.41,729.46a426.45,426.45,0,0,0-70.91,67.63,427.38,427.38,0,0,0-1.07-98,424,424,0,0,1,46.33-9.34A422.74,422.74,0,0,1,917.41,729.46Z"/><path class="cls-5" d="M1129.27,1233.46a433.09,433.09,0,0,1-26.72,54,432.88,432.88,0,0,1-39.76-35.09,428.15,428.15,0,0,1-108.56-181.71,432,432,0,0,0,1.64-251A426.5,426.5,0,0,1,995.52,730a427.06,427.06,0,0,1,70,68.55A432,432,0,0,0,1160,1031.1,428.21,428.21,0,0,1,1129.27,1233.46Z"/><path class="cls-3" d="M1102.55,1287.41a430.08,430.08,0,0,1-789.27-117.5,427.64,427.64,0,0,0,213.88-.81A427.54,427.54,0,0,0,605.8,1368a428,428,0,0,0,197.29-82.54,434.12,434.12,0,0,0,45.33-39.64,428.2,428.2,0,0,0,105.81-175.21,428.15,428.15,0,0,0,108.56,181.71A432.88,432.88,0,0,0,1102.55,1287.41Z"/><path class="cls-3" d="M1160,1031.1a432,432,0,0,1-94.5-232.58A432,432,0,0,1,1160,1031.1Z"/><path d="M891.76,689.77a424,424,0,0,0-46.33,9.34,427.39,427.39,0,0,0-8.51-46.47q16.71,4.23,33.29,9.89Q881.63,675.81,891.76,689.77Z"/><path class="cls-4" d="M870.21,662.53q-16.58-5.67-33.29-9.89-4-16.77-9.5-33.41,10,8.79,19.61,18.34Q859.21,649.69,870.21,662.53Z"/><path class="cls-4" d="M954.23,1070.61a428.2,428.2,0,0,1-105.81,175.21,434.12,434.12,0,0,1-45.33,39.64,433.28,433.28,0,0,1-23.31-47.63A428.1,428.1,0,0,1,749,1028.39h0A432,432,0,0,0,846.5,797.09a426.45,426.45,0,0,1,70.91-67.63,426.24,426.24,0,0,1,38.46,90.11A432,432,0,0,0,954.23,1070.61Z"/><path class="cls-2" d="M803.09,1285.46A428,428,0,0,1,605.8,1368a427.54,427.54,0,0,1-78.64-198.9,433.94,433.94,0,0,0,57-19.27A428.12,428.12,0,0,0,749,1028.39a428.1,428.1,0,0,0,30.8,209.44A433.28,433.28,0,0,0,803.09,1285.46Z"/><path class="cls-3" d="M605.8,1368a430.43,430.43,0,0,1-471.09-291.89,430.54,430.54,0,0,0,392.45,93A427.54,427.54,0,0,0,605.8,1368Z"/><path class="cls-3" d="M917.41,729.46a426.45,426.45,0,0,0-70.91,67.63,427.38,427.38,0,0,0-1.07-98,424,424,0,0,1,46.33-9.34A422.74,422.74,0,0,1,917.41,729.46Z"/><path class="cls-6" d="M954.23,1070.61a432,432,0,0,1,1.64-251A432,432,0,0,1,954.23,1070.61Z"/><path class="cls-5" d="M827.42,619.23q-13.14-11.6-27-21.89,2.68-17,4-34.5,5.89,12,11.1,24.45Q822.17,603.16,827.42,619.23Z"/><path class="cls-5" d="M836.92,652.64a420.69,420.69,0,0,0-46.39-9.09,427.91,427.91,0,0,0,9.91-46.21q13.83,10.3,27,21.89Q832.88,635.87,836.92,652.64Z"/><path class="cls-8" d="M845.43,699.11A427,427,0,0,0,754,734.48a426.42,426.42,0,0,0,36.49-90.93,420.69,420.69,0,0,1,46.39,9.09A427.39,427.39,0,0,1,845.43,699.11Z"/><path class="cls-7" d="M846.5,797.09A431.87,431.87,0,0,0,749,1028.38h0a428.12,428.12,0,0,1-164.79,121.44,433.94,433.94,0,0,1-57,19.27,431.53,431.53,0,0,1,48.3-258.19A431.85,431.85,0,0,0,754,734.49h0a427,427,0,0,1,91.39-35.37A427.38,427.38,0,0,1,846.5,797.09Z"/><path class="cls-2" d="M523.83,1116.19a431.68,431.68,0,0,0,3.33,52.91,427.64,427.64,0,0,1-213.88.81,427.78,427.78,0,0,1,3.42-213.84,434.49,434.49,0,0,0,60.07,4,428.14,428.14,0,0,0,198.69-49.16A428.31,428.31,0,0,0,523.83,1116.19Z"/><path d="M313.28,1169.91a431.84,431.84,0,0,1-178.57-93.8A432,432,0,0,1,118.77,875,428,428,0,0,0,316.7,956.07,427.78,427.78,0,0,0,313.28,1169.91Z"/><path class="cls-7" d="M134.71,1076.11A431,431,0,0,1-10.33,720a431.86,431.86,0,0,0,129.1,155A432,432,0,0,0,134.71,1076.11Z"/><path class="cls-8" d="M846.5,797.09A432,432,0,0,1,749,1028.38,431.87,431.87,0,0,1,846.5,797.09Z"/><path class="cls-7" d="M804.45,562.84q-1.31,17.45-4,34.5a422.12,422.12,0,0,0-39.37-26.13A426.09,426.09,0,0,0,787.9,532.3Q796.72,547.12,804.45,562.84Z"/><path class="cls-4" d="M800.44,597.34a427.91,427.91,0,0,1-9.91,46.21,426.11,426.11,0,0,0-98-2.28,426.76,426.76,0,0,0,68.5-70.06A422.12,422.12,0,0,1,800.44,597.34Z"/><path class="cls-5" d="M790.53,643.55A426.42,426.42,0,0,1,754,734.48h0A432.08,432.08,0,0,0,575.46,910.91a428.14,428.14,0,0,1-198.69,49.16,434.49,434.49,0,0,1-60.07-4,435.53,435.53,0,0,1,17.17-50.16A428.32,428.32,0,0,1,460.08,736h0a431.9,431.9,0,0,0,232.48-94.71A426.11,426.11,0,0,1,790.53,643.55Z"/><path class="cls-4" d="M460.08,736A428.32,428.32,0,0,0,333.87,905.91a435.53,435.53,0,0,0-17.17,50.16A428,428,0,0,1,118.77,875a427.67,427.67,0,0,1,85-196.27,435.19,435.19,0,0,0,54,26.67A428.19,428.19,0,0,0,460.08,736Z"/><path class="cls-8" d="M203.73,678.74a427.67,427.67,0,0,0-85,196.27A431.86,431.86,0,0,1-10.33,720,431.93,431.93,0,0,1,51.86,528.13,427.69,427.69,0,0,0,203.73,678.74Z"/><path class="cls-4" d="M51.86,528.13A431.93,431.93,0,0,0-10.33,720,431,431,0,0,1-8.17,335.57,431.77,431.77,0,0,0,51.86,528.13Z"/><path class="cls-4" d="M754,734.49A431.85,431.85,0,0,1,575.46,910.91,432.08,432.08,0,0,1,754,734.49Z"/><path class="cls-4" d="M805.69,528.79q0,17.19-1.24,34.05-7.71-15.72-16.55-30.54,9-14.7,16.89-30.31Q805.65,515.28,805.69,528.79Z"/><path class="cls-5" d="M122.69,182.06A431.93,431.93,0,0,0-8.17,335.56a431,431,0,0,1,149-354.38A431.91,431.91,0,0,0,122.69,182.06Z"/><path class="cls-8" d="M205.4,379.28A427.69,427.69,0,0,0,51.86,528.13a431.77,431.77,0,0,1-60-192.56h0a431.93,431.93,0,0,1,130.86-153.5A427.87,427.87,0,0,0,205.4,379.28Z"/><path class="cls-2" d="M420.4,530.23A428.25,428.25,0,0,0,238.77,639a433.82,433.82,0,0,0-35,39.78A427.69,427.69,0,0,1,51.86,528.13,427.69,427.69,0,0,1,205.4,379.28a433.22,433.22,0,0,0,39.68,45.3A428.22,428.22,0,0,0,420.4,530.23Z"/><path class="cls-6" d="M761.07,571.21a426.76,426.76,0,0,1-68.5,70.06A432,432,0,0,0,460.09,736h0A428.19,428.19,0,0,1,257.7,705.41a435.19,435.19,0,0,1-54-26.67,433.82,433.82,0,0,1,35-39.78A428.25,428.25,0,0,1,420.4,530.23a432.09,432.09,0,0,0,251,1.41A426.13,426.13,0,0,1,761.07,571.21Z"/><path class="cls-7" d="M692.57,641.27A431.9,431.9,0,0,1,460.09,736,432,432,0,0,1,692.57,641.27Z"/><path class="cls-5" d="M787.9,532.3a426.09,426.09,0,0,1-26.83,38.91,426.13,426.13,0,0,0-89.63-39.57,426.71,426.71,0,0,0,90.06-38.55A427.63,427.63,0,0,1,787.9,532.3Z"/><path d="M804.79,502h0q-7.89,15.62-16.89,30.31a427.63,427.63,0,0,0-26.4-39.21,420.63,420.63,0,0,0,39.66-25.68Q803.67,484.5,804.79,502Z"/><path class="cls-5" d="M828.39,445.84Q824.1,458.47,819,471q-6.54,15.9-14.17,31-1.12-17.49-3.63-34.57Q815.11,457.27,828.39,445.84Z"/><path class="cls-7" d="M761.5,493.09a426.71,426.71,0,0,1-90.06,38.55,432,432,0,0,0-251-1.41A428.22,428.22,0,0,1,245.08,424.58a433.22,433.22,0,0,1-39.68-45.3A435,435,0,0,1,253,355.93a428.14,428.14,0,0,1,209.39-31,432,432,0,0,0,231.42,97.33A426.21,426.21,0,0,1,761.5,493.09Z"/><path class="cls-8" d="M462.4,324.93a428.14,428.14,0,0,0-209.39,31,435,435,0,0,0-47.61,23.35,427.87,427.87,0,0,1-82.71-197.22,427.71,427.71,0,0,1,198.82-78.82,434.16,434.16,0,0,0,19.33,57A428.12,428.12,0,0,0,462.4,324.93Z"/><path class="cls-4" d="M321.51,103.24a427.71,427.71,0,0,0-198.82,78.82A431.91,431.91,0,0,1,140.87-18.82h0A432,432,0,0,1,320.5-110.63,427.75,427.75,0,0,0,321.51,103.24Z"/><path class="cls-2" d="M787.51-167.26a428.08,428.08,0,0,0-30.8,205.7A428.07,428.07,0,0,0,584.53-90.28a433.22,433.22,0,0,0-48.13-16.55,427.68,427.68,0,0,0-215.9-3.8A432,432,0,0,0,140.88-18.82,430.94,430.94,0,0,1,414.15-289.28h0a432.15,432.15,0,0,1,203-15.81,427.61,427.61,0,0,1,196.11,85.78A433.55,433.55,0,0,0,787.51-167.26Z"/><path d="M671.44,531.64a432.09,432.09,0,0,1-251-1.41A432,432,0,0,1,671.44,531.64Z"/><path class="cls-2" d="M801.16,467.41a420.63,420.63,0,0,1-39.66,25.68,426.21,426.21,0,0,0-67.68-70.83,427.24,427.24,0,0,0,98-1.16A426.53,426.53,0,0,1,801.16,467.41Z"/><path class="cls-6" d="M838.25,412.54q-4.21,16.71-9.86,33.29h0q-13.27,11.43-27.23,21.57a426.53,426.53,0,0,0-9.38-46.31A424.78,424.78,0,0,0,838.25,412.54Z"/><path d="M871.64,403q-8.77,10-18.31,19.61-12.12,12.19-24.94,23.2,5.64-16.56,9.86-33.29Q855,408.51,871.64,403Z"/><path class="cls-8" d="M1165.27,41.08a432.13,432.13,0,0,1-95.61,226.76A432.15,432.15,0,0,1,1165.27,41.08Z"/><path d="M1165.27,41.08a432.15,432.15,0,0,0-95.61,226.76,426.68,426.68,0,0,1-71.49,68.8,426.65,426.65,0,0,1-38.53-91.46,432,432,0,0,0,1.61-246h0a428.1,428.1,0,0,1,107.13-178.28,431.61,431.61,0,0,1,43.7-38.25,431.06,431.06,0,0,1,22.35,45.72A428.31,428.31,0,0,1,1165.27,41.08Z"/><path class="cls-6" d="M959.64,245.18a431.85,431.85,0,0,1,1.61-246A432,432,0,0,1,959.64,245.18Z"/><path class="cls-8" d="M961.25-.82a431.85,431.85,0,0,0-1.61,246,426.14,426.14,0,0,1-39.74,90.94,426.06,426.06,0,0,1-70.59-69.76,432,432,0,0,0-92.6-227.92,428.08,428.08,0,0,1,30.8-205.7,433.55,433.55,0,0,1,25.74-52.06,433.13,433.13,0,0,1,38.14,33.7A428.14,428.14,0,0,1,961.25-.83Z"/><path class="cls-4" d="M849.31,266.36a432,432,0,0,1-92.6-227.92A432,432,0,0,1,849.31,266.36Z"/><path class="cls-5" d="M847.37,365.59a426.77,426.77,0,0,1-91.89-37.45h0A431.94,431.94,0,0,0,582.74,153,428.08,428.08,0,0,1,532.52-48.89a432.61,432.61,0,0,1,3.88-57.94,433.22,433.22,0,0,1,48.13,16.55A428.07,428.07,0,0,1,756.71,38.44a432,432,0,0,0,92.6,227.92A426.35,426.35,0,0,1,847.37,365.59Z"/><path class="cls-1" d="M755.48,328.13A432,432,0,0,1,582.74,153,431.94,431.94,0,0,1,755.48,328.13Z"/><path class="cls-6" d="M919.9,336.12c-.24.4-.47.81-.72,1.21q-3.61,6.19-7.5,12.28-8.43,13.31-17.95,26.11a423,423,0,0,1-46.36-10.13,426.35,426.35,0,0,0,1.94-99.23A426.06,426.06,0,0,0,919.9,336.12Z"/><path d="M791.78,421.1a427.24,427.24,0,0,1-98,1.16A432,432,0,0,0,462.4,324.93,428.12,428.12,0,0,1,340.84,160.26a434.16,434.16,0,0,1-19.33-57,433.64,433.64,0,0,1,52.91-3.37A428,428,0,0,1,582.74,153,432,432,0,0,0,755.48,328.13h0A426.2,426.2,0,0,1,791.78,421.1Z"/><path class="cls-8" d="M693.82,422.26A432,432,0,0,1,462.4,324.93,432,432,0,0,1,693.82,422.26Z"/><path class="cls-5" d="M998.17,336.64a425.43,425.43,0,0,1-39.31,26.58,425.36,425.36,0,0,1-39-27.1,426.14,426.14,0,0,0,39.74-90.94A426.65,426.65,0,0,0,998.17,336.64Z"/><path class="cls-5" d="M989.47,380.39q-13.31.83-26.84.83-17.36,0-34.36-1.35,15.75-7.77,30.59-16.65Q973.7,372.37,989.47,380.39Z"/><path class="cls-7" d="M959.17,360.65c-.69.49-1.38,1-2.08,1.46q-10.1,7.08-20.71,13.65-3.18,2-6.4,3.89h-4.73q-15.13-.17-30-1.4c.43-.69.86-1.38,1.28-2.07q8.13-13.06,15.18-26.54s0,0,0,0q3.38-6.39,6.49-12.88c.32.22.65.43,1,.64q7.22,4.77,14.68,9.25Q946.21,354,959.17,360.65Z"/><path d="M893.73,375.72q-10.4,14-22.08,27.3h0q-16.62,5.49-33.39,9.52a425.82,425.82,0,0,0,9.12-47A423,423,0,0,0,893.73,375.72Z"/><path class="cls-4" d="M847.37,365.59a425.82,425.82,0,0,1-9.12,47,424.78,424.78,0,0,1-46.47,8.56,426.2,426.2,0,0,0-36.3-93A426.77,426.77,0,0,0,847.37,365.59Z"/><path d="M928.26,379.87q-12.07,6-24.68,11.24-15.87,6.63-31.93,11.91,11.69-13.29,22.08-27.3c.92.15,1.84.3,2.77.43-.42.69-.85,1.38-1.28,2.07q14.89,1.21,30,1.4h.15C926.35,379.72,927.3,379.79,928.26,379.87Z"/><path class="cls-3" d="M925.25,379.62q-15.13-.17-30-1.4c.43-.69.86-1.38,1.28-2.07Q910.72,378.39,925.25,379.62Z"/><path class="cls-6" d="M582.74,153A428,428,0,0,0,374.42,99.87a433.64,433.64,0,0,0-52.91,3.37,427.75,427.75,0,0,1-1-213.87,427.68,427.68,0,0,1,215.9,3.8,432.61,432.61,0,0,0-3.88,57.94A428.08,428.08,0,0,0,582.74,153Z"/><path class="cls-3" d="M1112.08-217.36a431.61,431.61,0,0,0-43.7,38.25A428.1,428.1,0,0,0,961.25-.83,428.14,428.14,0,0,0,851.39-185.62a433.13,433.13,0,0,0-38.14-33.7,433.55,433.55,0,0,0-25.74,52.06,428.08,428.08,0,0,0-30.8,205.7A428.07,428.07,0,0,0,584.53-90.28a433.22,433.22,0,0,0-48.13-16.55,427.68,427.68,0,0,0-215.9-3.8,431.9,431.9,0,0,1,93.65-178.65h0A428.24,428.24,0,0,1,571.68-402.48a428.21,428.21,0,0,1,200.26-32h0a432,432,0,0,1,191.73,62.88A427.63,427.63,0,0,1,1112.08-217.36Z"/></svg>