<?xml version="1.0" encoding="UTF-8"?>
<svg width="24px" height="24px" viewBox="0 0 24 24" version="1.1" xmlns="http://www.w3.org/2000/svg" xmlns:xlink="http://www.w3.org/1999/xlink">
    <title>icon-asset-manager</title>
    <g id="icon-asset-manager" stroke="none" stroke-width="1" fill="none" fill-rule="evenodd">
        <path d="M20.8055556,1.84722222 C22.5007629,1.84722222 23.875,3.22145931 23.875,4.91666667 C23.875,6.39767176 22.826112,7.63369593 21.4306634,7.92241186 L21.4305556,13.4722222 C21.4305556,17.1133194 18.5416651,20.07968 14.9309284,20.2042598 L14.6944444,20.2083333 L12.536,20.208 L15.1363862,22.8080583 C15.3804639,23.0521359 15.3804639,23.4478641 15.1363862,23.6919417 C14.9194282,23.9088997 14.5826477,23.9330061 14.3390626,23.7642611 L14.2525027,23.6919417 L10.585836,20.0252751 C10.5494243,19.9886311 10.5197377,19.9506466 10.4952823,19.910827 L10.4499489,19.8219603 L10.4203757,19.7309835 C10.3884216,19.6025055 10.3961143,19.4637764 10.4520635,19.3357343 L10.5232561,19.2135803 L10.585836,19.1413916 L14.2525027,15.4747249 C14.4965804,15.2306472 14.8923085,15.2306472 15.1363862,15.4747249 C15.3533441,15.6916829 15.3774506,16.0284634 15.2087055,16.2720485 L15.1363862,16.3586084 L12.536,18.958 L14.6944444,18.9583333 C17.6504401,18.9583333 20.0603989,16.620472 20.1761994,13.6928708 L20.1805556,13.4722222 L20.1799881,7.92231672 C18.7847688,7.63342449 17.7361111,6.39750914 17.7361111,4.91666667 C17.7361111,3.22145931 19.1103482,1.84722222 20.8055556,1.84722222 Z M10.1609374,0.735738948 L10.2474973,0.808058262 L13.914164,4.47472493 C14.0838144,4.64437539 14.1285935,4.86591505 14.0800699,5.06313039 L14.0612961,5.12557389 L14.0378625,5.18291642 C14.0179176,5.22520389 13.9934779,5.26532897 13.9648681,5.30238801 L13.914164,5.3586084 L10.2474973,9.02527507 C10.0034196,9.26935275 9.6076915,9.26935275 9.36361382,9.02527507 C9.14665588,8.80831713 9.12254944,8.47153663 9.2912945,8.22795145 L9.36361382,8.1413916 L11.963,5.541 L9.80555556,5.54166667 C6.84955994,5.54166667 4.43960111,7.87952804 4.32380062,10.8071292 L4.31944444,11.0277778 L4.32001192,16.5776833 C5.71523123,16.8665755 6.76388889,18.1024909 6.76388889,19.5833333 C6.76388889,21.2785407 5.3896518,22.6527778 3.69444444,22.6527778 C1.99923709,22.6527778 0.625,21.2785407 0.625,19.5833333 C0.625,18.1023282 1.67388799,16.8663041 3.06933662,16.5775881 L3.06944444,11.0277778 C3.06944444,7.38668062 5.95833492,4.42031999 9.56907158,4.29574018 L9.80555556,4.29166667 L11.963,4.291 L9.36361382,1.69194174 C9.14665588,1.4749838 9.12254944,1.1382033 9.2912945,0.894618121 L9.36361382,0.808058262 C9.58057176,0.591100322 9.91735226,0.566993884 10.1609374,0.735738948 Z M3.69444444,17.7638889 C2.68959302,17.7638889 1.875,18.5784819 1.875,19.5833333 C1.875,20.5881848 2.68959302,21.4027778 3.69444444,21.4027778 C4.69929586,21.4027778 5.51388889,20.5881848 5.51388889,19.5833333 C5.51388889,18.5784819 4.69929586,17.7638889 3.69444444,17.7638889 Z M20.8055556,3.09722222 C19.8007041,3.09722222 18.9861111,3.91181525 18.9861111,4.91666667 C18.9861111,5.92151809 19.8007041,6.73611111 20.8055556,6.73611111 C21.810407,6.73611111 22.625,5.92151809 22.625,4.91666667 C22.625,3.91181525 21.810407,3.09722222 20.8055556,3.09722222 Z" id="Shape" fill="#000000" fill-rule="nonzero"></path>
    </g>
</svg>