<?xml version="1.0" encoding="UTF-8"?>
<svg width="24px" height="22px" viewBox="0 0 24 22" version="1.1" xmlns="http://www.w3.org/2000/svg" xmlns:xlink="http://www.w3.org/1999/xlink">
    <title>Group</title>
    <g id="Homepage" stroke="none" stroke-width="1.25" fill="none" fill-rule="evenodd">
        <g id="Artboard-Copy-4" transform="translate(-80.000000, -1871.000000)" fill="#000000" fill-rule="nonzero">
            <g id="Group-38" transform="translate(-1.000000, 1507.000000)">
                <g id="Group-33" transform="translate(81.000000, 148.000000)">
                    <g id="Group" transform="translate(0.000000, 216.000000)">
                        <rect id="Rectangle" x="11.508448" y="5.5" width="1.00860556" height="11"></rect>
                        <path d="M11.99982,22 C10.3446724,22 8.99986497,20.657277 8.99986497,19.0046948 C8.99986497,17.3521127 10.3446724,16.0093897 11.99982,16.0093897 C13.6549675,16.0093897 14.999775,17.3521127 14.999775,19.0046948 C14.999775,20.657277 13.6549675,22 11.99982,22 Z M11.99982,16.9906103 C10.8877677,16.9906103 10.0084705,17.8943662 10.0084705,18.9788732 C10.0084705,20.0633803 10.9136294,20.9929577 11.99982,20.9929577 C13.0860106,20.9929577 13.9911694,20.0892019 13.9911694,19.0046948 C13.9911694,17.8943662 13.1118722,16.9906103 11.99982,16.9906103 Z" id="Shape"></path>
                        <path d="M2.99995499,22 C1.34480741,22 0,20.657277 0,19.0046948 C0,17.3521127 1.34480741,16.0093897 2.99995499,16.0093897 C4.65510257,16.0093897 5.99990998,17.3521127 5.99990998,19.0046948 C5.99990998,20.657277 4.65510257,22 2.99995499,22 Z M2.99995499,16.9906103 C1.88790271,16.9906103 1.00860556,17.8943662 1.00860556,18.9788732 C1.00860556,20.0633803 1.91376439,20.9929577 2.99995499,20.9929577 C4.08614559,20.9929577 4.99130442,20.0892019 4.99130442,19.0046948 C4.99130442,17.8943662 4.08614559,16.9906103 2.99995499,16.9906103 Z" id="Shape"></path>
                        <path d="M11.99982,5.99061033 C10.3446724,5.99061033 8.99986497,4.64788732 8.99986497,2.99530516 C8.99986497,1.342723 10.3446724,0 11.99982,0 C13.6549675,0 14.999775,1.342723 14.999775,2.99530516 C14.999775,4.64788732 13.6549675,5.99061033 11.99982,5.99061033 Z M11.99982,1.00704225 C10.8877677,1.00704225 10.0084705,1.91079812 10.0084705,2.99530516 C10.0084705,4.07981221 10.9136294,4.98356808 11.99982,4.98356808 C13.0860106,4.98356808 13.9911694,4.07981221 13.9911694,2.99530516 C13.9911694,1.91079812 13.1118722,1.00704225 11.99982,1.00704225 Z" id="Shape"></path>
                        <path d="M3.49132693,16.5 L2.50858305,16.5 L2.50858305,13.9953052 C2.50858305,12.0586854 4.08614559,10.5093897 5.99990998,10.5093897 L11.99982,10.5093897 L11.99982,11.4906103 L5.99990998,11.4906103 C4.62924089,11.4906103 3.49132693,12.600939 3.49132693,13.9953052 L3.49132693,16.5 Z" id="Path"></path>
                        <path d="M20.9996849,22 C19.3445374,22 17.9997299,20.657277 17.9997299,19.0046948 C17.9997299,17.3521127 19.3445374,16.0093897 20.9996849,16.0093897 C22.6548325,16.0093897 23.9996399,17.3521127 23.9996399,19.0046948 C24.0255016,20.657277 22.6548325,22 20.9996849,22 Z M20.9996849,16.9906103 C19.8876327,16.9906103 19.0083355,17.8943662 19.0083355,18.9788732 C19.0083355,20.0633803 19.9134943,20.9929577 20.9996849,20.9929577 C22.1117372,20.9929577 22.9910344,20.0892019 22.9910344,19.0046948 C23.016896,17.8943662 22.1117372,16.9906103 20.9996849,16.9906103 Z" id="Shape"></path>
                        <path d="M21.5169186,16.5 L20.508313,16.5 L20.508313,13.9953052 C20.508313,12.6267606 19.3962607,11.4906103 17.9997299,11.4906103 L11.99982,11.4906103 L11.99982,10.4835681 L17.9997299,10.4835681 C19.939356,10.4835681 21.4910569,12.0586854 21.4910569,13.9694836 L21.5169186,16.5 L21.5169186,16.5 Z" id="Path"></path>
                    </g>
                </g>
            </g>
        </g>
    </g>
</svg>