<?xml version="1.0" encoding="UTF-8"?>
<svg width="24px" height="24px" viewBox="0 0 24 24" version="1.1" xmlns="http://www.w3.org/2000/svg" xmlns:xlink="http://www.w3.org/1999/xlink">
    <title>icon-asset-manager</title>
    <g id="icon-asset-manager" stroke="none" stroke-width="1" fill="none" fill-rule="evenodd">
        <g id="noun_Artificial-Intelligence_1967272" transform="translate(12.000000, 12.000000) rotate(90.000000) translate(-12.000000, -12.000000) translate(1.000000, 1.000000)" fill="#000000" fill-rule="nonzero" stroke="#000000" stroke-width="0.5">
            <path d="M3.577417,12.7924683 C2.53639832,12.7924683 1.67641908,13.5750031 1.55048371,14.5823349 C0.675415042,14.7079681 0,15.4605087 0,16.3698853 C0,17.3668945 0.81103517,18.1779297 1.80791017,18.1779297 C2.80505374,18.1779297 3.61608888,17.3668945 3.61608888,16.3698853 C3.61608888,15.4743561 2.96111756,14.7309296 2.10530092,14.5884445 C2.22413637,13.8824646 2.83803559,13.3424683 3.577417,13.3424683 L5.98957521,13.3424683 L5.98957521,18.4070908 C5.12308352,18.5402603 4.45666504,19.2886886 4.45666504,20.1919556 C4.45666504,21.1889649 5.26770021,22 6.26457521,22 C7.26171878,22 8.07275392,21.1889648 8.07275392,20.1919556 C8.07275392,19.2886551 7.4063019,18.54021 6.53957521,18.4070908 L6.53957521,13.3424683 L15.4601563,13.3424683 L15.4601563,18.4070908 C14.5936646,18.5402603 13.9272461,19.2886887 13.9272461,20.1919556 C13.9272461,21.1889649 14.7382813,22 15.7351563,22 C16.7322998,22 17.543335,21.1889648 17.543335,20.1919556 C17.543335,19.2886551 16.876883,18.54021 16.0101563,18.4070908 L16.0101563,13.3424683 L18.4223145,13.3424683 C19.1617127,13.3424683 19.7755951,13.8824982 19.8944306,14.5884613 C19.0388657,14.7309799 18.3839112,15.4743896 18.3839112,16.3698853 C18.3839112,17.3668945 19.1949463,18.1779297 20.1918213,18.1779297 C21.1889649,18.1779297 22,17.3668945 22,16.3698853 C22,15.4604752 21.3245346,14.7079178 20.449231,14.5823181 C20.3233124,13.5750031 19.4633331,12.7924683 18.4223145,12.7924683 L11.275,12.7924683 L11.275,9.20753174 L12.5871582,9.20753174 C13.6281769,9.20753174 14.4881561,8.42499694 14.6140915,7.41766509 C15.4891602,7.29203186 16.1645752,6.53949125 16.1645752,5.63011474 C16.1645752,4.63310545 15.35354,3.82207031 14.356665,3.82207031 C13.3595215,3.82207031 12.5484863,4.63310548 12.5484863,5.63011474 C12.5484863,6.5256439 13.2034577,7.26907043 14.0592743,7.41155547 C13.9404388,8.11753539 13.3265396,8.65753174 12.5871582,8.65753174 L11.275,8.65753174 L11.275,3.59290924 C12.1414917,3.45973969 12.8079102,2.71131135 12.8079102,1.80804442 C12.8079102,0.811035142 11.996875,0 11,0 C10.0028564,0 9.19182129,0.81103517 9.19182129,1.80804442 C9.19182129,2.7113449 9.85827332,3.45979004 10.725,3.59290924 L10.725,8.65753174 L9.41284179,8.65753174 C8.6734436,8.65753174 8.05956115,8.11750184 7.94072571,7.41153869 C8.79629058,7.26902008 9.45124513,6.52561036 9.45124513,5.63011474 C9.45124513,4.63310545 8.64020996,3.82207031 7.64333496,3.82207031 C6.64619139,3.82207031 5.83515625,4.63310548 5.83515625,5.63011474 C5.83515625,6.53952483 6.51062165,7.29208222 7.38592531,7.41768186 C7.51184387,8.42499694 8.37182313,9.20753171 9.41284182,9.20753171 L10.725,9.20753171 L10.725,12.7924682 L3.577417,12.7924682 L3.577417,12.7924683 Z M3.06608888,16.3698853 C3.06608888,17.063562 2.50158692,17.6279297 1.80791017,17.6279297 C1.11423342,17.6279297 0.55,17.063562 0.55,16.3698853 C0.55,15.6762085 1.11423339,15.1118408 1.80791017,15.1118408 C2.50158694,15.1118408 3.06608888,15.6762085 3.06608888,16.3698853 Z M7.52275392,20.1919556 C7.52275392,20.8856323 6.95825196,21.45 6.26457521,21.45 C5.57089847,21.45 5.00666504,20.8856323 5.00666504,20.1919556 C5.00666504,19.4982788 5.57089844,18.9339112 6.26457521,18.9339112 C6.95825199,18.9339112 7.52275392,19.4982788 7.52275392,20.1919556 Z M16.993335,20.1919556 C16.993335,20.8856323 16.428833,21.45 15.7351563,21.45 C15.0414795,21.45 14.4772461,20.8856323 14.4772461,20.1919556 C14.4772461,19.4982788 15.0414795,18.9339112 15.7351563,18.9339112 C16.4288331,18.9339112 16.993335,19.4982788 16.993335,20.1919556 Z M21.45,16.3698853 C21.45,17.063562 20.885498,17.6279297 20.1918213,17.6279297 C19.4981445,17.6279297 18.9339111,17.063562 18.9339111,16.3698853 C18.9339111,15.6762085 19.4981445,15.1118408 20.1918213,15.1118408 C20.8854981,15.1118408 21.45,15.6762085 21.45,16.3698853 Z M13.0984863,5.63011474 C13.0984863,4.93643799 13.6629883,4.37207031 14.356665,4.37207031 C15.0503418,4.37207031 15.6145752,4.93643799 15.6145752,5.63011474 C15.6145752,6.32379149 15.0503418,6.88815916 14.356665,6.88815916 C13.6629883,6.88815916 13.0984863,6.32379151 13.0984863,5.63011474 Z M9.74182129,1.80804443 C9.74182129,1.11436768 10.3063233,0.55 11,0.55 C11.6936767,0.55 12.2579102,1.11436768 12.2579102,1.80804443 C12.2579102,2.50172117 11.6936768,3.06608885 11,3.06608885 C10.3063232,3.06608885 9.74182129,2.5017212 9.74182129,1.80804443 Z M6.38515625,5.63011474 C6.38515625,4.93643799 6.94965821,4.37207031 7.64333496,4.37207031 C8.3370117,4.37207031 8.90124513,4.93643799 8.90124513,5.63011474 C8.90124513,6.32379149 8.33701173,6.88815916 7.64333496,6.88815916 C6.94965818,6.88815916 6.38515625,6.32379151 6.38515625,5.63011474 Z" id="Shape"></path>
        </g>
    </g>
</svg>