<?xml version="1.0" encoding="UTF-8"?>
<svg width="24px" height="26px" viewBox="0 0 24 26" version="1.1" xmlns="http://www.w3.org/2000/svg" xmlns:xlink="http://www.w3.org/1999/xlink">
    <title>noun_magic ball_3310004</title>
    <g id="Homepage" stroke="none" stroke-width="1.25" fill="none" fill-rule="evenodd">
        <g id="Artboard-Copy-4" transform="translate(-81.000000, -1917.000000)" fill="#000000" fill-rule="nonzero" stroke="#000000">
            <g id="Group-38" transform="translate(-1.000000, 1507.000000)">
                <g id="Group-33" transform="translate(81.000000, 148.000000)">
                    <g id="noun_magic-ball_3310004" transform="translate(2.000000, 263.000000)">
                        <g id="Group" transform="translate(0.000000, 0.000000)">
                            <path d="M22,10.7624764 C22,4.82795894 17.0654141,1.32443669e-15 11.0001862,1.32443669e-15 C4.9345859,1.32443669e-15 0,4.82795894 0,10.7624764 C0,14.2763899 1.73783636,17.5299129 4.66366378,19.5509805 C4.21262104,19.9387254 3.9416533,20.5013339 3.9416533,21.1039173 L3.9416533,21.2380716 L3.66883069,21.2380716 C2.50663685,21.2380716 1.56122024,22.1653265 1.56122024,23.3051944 L1.56122024,23.7204032 C1.56122024,23.874763 1.68891021,24 1.84629339,24 L20.1533341,24 C20.3107173,24 20.4384073,23.874763 20.4384073,23.7204032 L20.4384073,23.3051944 C20.4384073,22.1653265 19.4929907,21.2380716 18.3307968,21.2380716 L18.0583429,21.2380716 L18.0583429,21.1039173 C18.0583429,20.501196 17.7876298,19.9385204 17.3370774,19.5510961 C20.2624411,17.5337117 22,14.2801439 22,10.7624764 Z M19.868261,23.3051981 L19.868261,23.44081 L2.13136655,23.44081 L2.13136655,23.3051981 C2.13136655,22.4736883 2.82103453,21.797269 3.66883069,21.797269 C6.62467061,21.797269 15.3688373,21.797269 18.3307968,21.797269 C19.178593,21.797269 19.868261,22.4736883 19.868261,23.3051981 Z M17.4881966,21.1039173 L17.4881966,21.2380716 L4.51180341,21.2380716 L4.51180341,21.1039173 C4.51180341,20.2612311 5.21252463,19.5939862 6.04741268,19.5939862 L15.9525911,19.5939862 C16.7921544,19.5939862 17.4881966,20.2639786 17.4881966,21.1039173 Z M16.8274806,19.2226481 C16.5792009,19.1112903 16.2513478,19.0347926 15.9525873,19.0347926 L6.04740888,19.0347926 C5.67991157,19.0347926 5.40791377,19.1354661 5.17326055,19.2226481 C2.28763605,17.3171658 0.57014631,14.1667879 0.57014631,10.7624764 C0.57014631,5.13631697 5.24898358,0.55919368 11.0001862,0.55919368 C16.7510164,0.55919368 21.4298537,5.13631697 21.4298537,10.7624764 C21.4298537,14.1707917 19.712364,17.3211696 16.8274806,19.2226481 Z" id="Shape" stroke-width="0.5"></path>
                            <path d="M8.29933345,3.18555833 C8.62824642,4.16482548 8.90152109,4.77574028 9.3503747,5.21658156 C9.79038896,5.64874127 10.3979197,5.91626135 11.0677725,5.91626135 C10.4605827,6.84189816 9.81661079,7.12527817 9.35035818,7.58324728 C8.91134489,8.014461 8.63911207,8.60972269 8.63910994,9.26637083 C7.70080335,8.67382165 7.41222866,8.0412503 6.94594151,7.58324728 C6.50592623,7.15104937 5.898387,6.88352068 5.22852384,6.88352068 C5.83570497,5.95788243 6.47966941,5.67451083 6.9459216,5.21658156 C7.38494451,4.78539549 7.65718636,4.1901818 7.65718636,3.53362966 C7.99173127,3.23931196 8.17670992,3.18555833 8.29933345,3.18555833 Z M8.14817928,5.10887698 C7.82724991,5.63892934 7.37502275,6.08384331 6.83568241,6.39995511 C7.37496203,6.71608098 7.82721733,7.16101925 8.14811699,7.69112304 C8.46901795,7.16108826 8.92125032,6.71616946 9.46060115,6.40005139 C8.92133262,6.08391985 8.46907875,5.63898085 8.14817928,5.10887698 Z" id="Shape" stroke-width="0.3"></path>
                        </g>
                    </g>
                </g>
            </g>
        </g>
    </g>
</svg>