<svg width="26px" height="25px" viewBox="0 0 26 25" version="1.1" xmlns="http://www.w3.org/2000/svg" xmlns:xlink="http://www.w3.org/1999/xlink">
    <title>Path 2</title>
    <g id="Homepage" stroke="none" stroke-width="1.25" fill="none" fill-rule="evenodd">
        <g id="Artboard-Copy-4" transform="translate(-80.000000, -1338.000000)" fill-rule="nonzero" stroke="#000000" stroke-width="1.11897745">
            <g id="Group-7" transform="translate(80.000000, 977.000000)">
                <path d="M18.7388556,375.965371 C18.767342,375.965371 18.7924287,375.98453 18.8004901,376.012444 L19.4024572,377.782166 C19.7249137,378.730725 20.4545878,379.476328 21.382991,379.805936 L23.1158098,380.420648 C23.141672,380.429812 23.1590128,380.454708 23.1590128,380.482675 C23.1590128,380.510641 23.141672,380.535537 23.1158098,380.544702 L21.382991,381.159434 C20.4545878,381.489042 19.7249137,382.234646 19.4024572,383.183204 L18.8004901,384.952927 C18.7924287,384.98084 18.767342,385 18.7388556,385 C18.7103691,385 18.6852825,384.98084 18.6772211,384.952927 L18.0767216,383.183204 C17.7539551,382.234318 17.0236834,381.488656 16.094721,381.159434 L14.3633687,380.544702 C14.3375065,380.535537 14.3201657,380.510641 14.3201657,380.482675 C14.3201657,380.454708 14.3375065,380.429812 14.3633687,380.420648 L16.094721,379.805936 C17.0236834,379.476714 17.7539551,378.731052 18.0767216,377.782166 L18.6772211,376.012444 C18.6852825,375.98453 18.7103691,375.965371 18.7388556,375.965371 Z M8.67183026,366.379207 C8.7196435,366.379207 8.76214095,366.410334 8.77749003,366.456597 L9.82264095,369.529037 C10.3825043,371.175889 11.6493856,372.470351 13.2612783,373.042533 L16.2687654,374.109758 C16.3136088,374.125702 16.3436613,374.168896 16.3436613,374.217405 C16.3436613,374.265914 16.3136088,374.309109 16.2687654,374.325052 L13.2612783,375.392299 C11.6493901,375.964477 10.3825096,377.258929 9.82264095,378.905774 L8.77749003,381.978214 C8.76214095,382.024476 8.7196435,382.055603 8.67183026,382.055603 C8.62401702,382.055603 8.58151957,382.024476 8.56617048,381.978214 L7.52101956,378.905774 C6.96115093,377.258929 5.69427058,375.964477 4.08238241,375.392299 L1.07489593,374.325052 C1.03005255,374.309109 1,374.265914 1,374.217405 C1,374.168896 1.03005255,374.125702 1.07489593,374.109758 L4.08238241,373.042533 C5.69427509,372.470351 6.96115624,371.175889 7.52101956,369.529037 L8.56617048,366.456597 C8.58151957,366.410334 8.62401702,366.379207 8.67183026,366.379207 Z M19.476419,362 C19.5111173,362 19.5418934,362.022762 19.5527287,362.056439 L20.3049674,364.268607 C20.7081093,365.454357 21.6203198,366.386358 22.7809277,366.798283 L24.9460704,367.566704 C24.97836,367.578182 25,367.609283 25,367.644211 C25,367.67914 24.97836,367.710241 24.9460704,367.721719 L22.7809277,368.49014 C21.6203198,368.902065 20.7081093,369.834066 20.3049674,371.019816 L19.5527287,373.231984 C19.5418934,373.265661 19.5111173,373.288423 19.476419,373.288423 C19.4417208,373.288423 19.4109446,373.265661 19.4001093,373.231984 L18.6478706,371.019816 C18.2446668,369.834001 17.332337,368.901988 16.1716174,368.49014 L14.0064733,367.721719 C13.9741837,367.710241 13.9525436,367.67914 13.9525436,367.644211 C13.9525436,367.609283 13.9741837,367.578182 14.0064733,367.566704 L16.1716174,366.798283 C17.332337,366.386435 18.2446668,365.454422 18.6478706,364.268607 L19.4001093,362.056439 C19.4109446,362.022762 19.4417208,362 19.476419,362 Z" id="Path-2"></path>
            </g>
        </g>
    </g>
</svg>