<?xml version="1.0" encoding="UTF-8"?>
<svg width="67px" height="48px" viewBox="0 0 67 48" version="1.1" xmlns="http://www.w3.org/2000/svg" xmlns:xlink="http://www.w3.org/1999/xlink">
    <title>“”</title>
    <g id="Homepage" stroke="none" stroke-width="1" fill="none" fill-rule="evenodd">
        <g id="Artboard" transform="translate(-110.000000, -6146.000000)" fill="#E9EDEF" fill-rule="nonzero">
            <g id="Group-2" transform="translate(93.000000, 6114.000000)">
                <path d="M68.602,79.15 C72.6966667,79.15 76.155,77.905 78.977,75.415 C81.799,72.925 83.21,69.5773333 83.21,65.372 C83.21,61.4986667 82.1863333,58.5106667 80.139,56.408 C78.0916667,54.3053333 75.4633333,52.922 72.254,52.258 L72.254,52.258 L65.78,52.258 C66.2226667,48.0526667 67.9656667,44.9263333 71.009,42.879 C74.0523333,40.8316667 78.23,39.4206667 83.542,38.646 L83.542,38.646 L83.542,32.67 C73.4713333,33.1126667 65.8076667,35.7686667 60.551,40.638 C55.2943333,45.5073333 52.666,52.0366667 52.666,60.226 C52.666,65.87 54.077,70.435 56.899,73.921 C59.721,77.407 63.622,79.15 68.602,79.15 Z M33.576,79.15 C37.6706667,79.15 41.129,77.905 43.951,75.415 C46.773,72.925 48.184,69.5773333 48.184,65.372 C48.184,61.4986667 47.1603333,58.5106667 45.113,56.408 C43.0656667,54.3053333 40.4373333,52.922 37.228,52.258 L37.228,52.258 L30.588,52.258 C31.1413333,48.0526667 32.9396667,44.9263333 35.983,42.879 C39.0263333,40.8316667 43.204,39.4206667 48.516,38.646 L48.516,38.646 L48.516,32.67 C38.4453333,33.1126667 30.7816667,35.7686667 25.525,40.638 C20.2683333,45.5073333 17.64,52.0366667 17.64,60.226 C17.64,65.87 19.051,70.435 21.873,73.921 C24.695,77.407 28.596,79.15 33.576,79.15 Z" id="“”"></path>
            </g>
        </g>
    </g>
</svg>