<?xml version="1.0" encoding="UTF-8"?>
<svg width="32px" height="32px" viewBox="0 0 32 32" version="1.1" xmlns="http://www.w3.org/2000/svg" xmlns:xlink="http://www.w3.org/1999/xlink">
    <title>icon-github</title>
    <g id="Protocol" stroke="none" stroke-width="1" fill="none" fill-rule="evenodd">
        <g id="Artboard-Copy-2" transform="translate(-197.000000, -5685.000000)" fill-rule="nonzero">
            <g id="icon-github" transform="translate(197.056604, 5685.000000)">
                <path d="M15.9622642,0 C7.14710377,0 0,7.164 0,16 C0,24.836 7.14710377,32 15.9622642,32 C24.7774245,32 31.9245283,24.836 31.9245283,16 C31.9245283,7.164 24.7774245,0 15.9622642,0 Z" id="logo-container" fill="#FFFFFF"></path>
                <path d="M18.9126226,24.8213333 C18.4417358,24.9133333 18.2900943,24.6226667 18.2900943,24.3733333 L18.2900943,21.812 C18.2900943,20.9413333 17.9854811,20.3733333 17.6502736,20.084 C19.7253679,19.8533333 21.904217,19.064 21.904217,15.4786667 C21.904217,14.4586667 21.5410755,13.6266667 20.9451509,12.9733333 C21.0409245,12.7373333 21.3601698,11.788 20.8533679,10.5026667 C20.8533679,10.5026667 20.0725472,10.252 18.2954151,11.4586667 C17.5491792,11.2533333 16.7537264,11.1506667 15.9622642,11.1466667 C15.1708019,11.1506667 14.3753491,11.2533333 13.6304434,11.46 C11.8519811,10.2533333 11.0698302,10.504 11.0698302,10.504 C10.5656887,11.7893333 10.8836038,12.7386667 10.9807075,12.9733333 C10.384783,13.6266667 10.0203113,14.4586667 10.0203113,15.4786667 C10.0203113,19.0546667 12.1938396,19.8546667 14.262283,20.0906667 C13.9962453,20.324 13.7554811,20.7346667 13.6716792,21.3386667 C13.1396038,21.5773333 11.7921226,21.9893333 10.9620849,20.5626667 C10.9620849,20.5626667 10.4699151,19.6666667 9.53479245,19.6 C9.53479245,19.6 8.62627358,19.588 9.4709434,20.168 C9.4709434,20.168 10.0828302,20.4546667 10.5045,21.5333333 C10.5045,21.5333333 11.0432264,23.2 13.634434,22.6346667 L13.634434,24.372 C13.634434,24.6186667 13.4841226,24.908 13.0198868,24.8213333 C9.31930189,23.588 6.6509434,20.0893333 6.6509434,15.9666667 C6.6509434,10.8106667 10.8210849,6.63333333 15.9622642,6.63333333 C21.1034434,6.63333333 25.2735849,10.8106667 25.2735849,15.9666667 C25.2735849,20.088 22.609217,23.5866667 18.9126226,24.8213333 L18.9126226,24.8213333 Z" id="logo" fill="#000000"></path>
            </g>
        </g>
    </g>
</svg>