<?xml version="1.0" encoding="UTF-8"?>
<svg width="44px" height="44px" viewBox="0 0 44 44" version="1.1" xmlns="http://www.w3.org/2000/svg" xmlns:xlink="http://www.w3.org/1999/xlink">
    <title>icon-lego</title>
    <g id="icon-lego" stroke="none" stroke-width="1" fill="none" fill-rule="evenodd">
        <path d="M11,2.5 C12.6568542,2.5 14,3.84314575 14,5.5 L14,9.25 L16,9.25 L16,5.5 C16,3.84314575 17.3431458,2.5 19,2.5 L25,2.5 C26.6568542,2.5 28,3.84314575 28,5.5 L28,9.25 L30,9.25 L30,5.5 C30,3.84314575 31.3431458,2.5 33,2.5 L39,2.5 C40.6568542,2.5 42,3.84314575 42,5.5 L42.0008825,10.0146837 C42.6141196,10.5639794 43,11.3619261 43,12.25 L43,23.25 C43,24.2171006 42.5423876,25.0773201 41.8318834,25.6259377 C42.5423876,26.1726799 43,27.0328994 43,28 L43,39 C43,40.6568542 41.6568542,42 40,42 L4,42 C2.34314575,42 1,40.6568542 1,39 L1,28 C1,27.0328994 1.45761244,26.1726799 2.16811656,25.6240623 C1.45761244,25.0773201 1,24.2171006 1,23.25 L1,12.25 C1,11.3614527 1.3862919,10.5631288 2.00009834,10.0138055 L2,5.5 C2,3.84314575 3.34314575,2.5 5,2.5 L11,2.5 Z M40,26.25 L4,26.25 C3.0818266,26.25 2.32880766,26.9571103 2.2558012,27.8564728 L2.25,28 L2.25,39 C2.25,39.9181734 2.95711027,40.6711923 3.85647279,40.7441988 L4,40.75 L40,40.75 C40.9181734,40.75 41.6711923,40.0428897 41.7441988,39.1435272 L41.75,39 L41.75,28 C41.75,27.0818266 41.0428897,26.3288077 40.1435272,26.2558012 L40,26.25 Z M40,10.5 L4,10.5 C3.0818266,10.5 2.32880766,11.2071103 2.2558012,12.1064728 L2.25,12.25 L2.25,23.25 C2.25,24.1681734 2.95711027,24.9211923 3.85647279,24.9941988 L4,25 L40,25 C40.9181734,25 41.6711923,24.2928897 41.7441988,23.3935272 L41.75,23.25 L41.75,12.25 C41.75,11.3318266 41.0428897,10.5788077 40.1435272,10.5058012 L40,10.5 Z M11,3.75 L5,3.75 C4.0818266,3.75 3.32880766,4.45711027 3.2558012,5.35647279 L3.25,5.5 L3.25,9.25 L12.75,9.25 L12.75,5.5 C12.75,4.5818266 12.0428897,3.82880766 11.1435272,3.7558012 L11,3.75 Z M25,3.75 L19,3.75 C18.0818266,3.75 17.3288077,4.45711027 17.2558012,5.35647279 L17.25,5.5 L17.25,9.25 L26.75,9.25 L26.75,5.5 C26.75,4.5818266 26.0428897,3.82880766 25.1435272,3.7558012 L25,3.75 Z M39,3.75 L33,3.75 C32.0818266,3.75 31.3288077,4.45711027 31.2558012,5.35647279 L31.25,5.5 L31.25,9.25 L40.75,9.25 L40.75,5.5 C40.75,4.5818266 40.0428897,3.82880766 39.1435272,3.7558012 L39,3.75 Z" id="lego" fill="#000000" fill-rule="nonzero"></path>
    </g>
</svg>