<?xml version="1.0" encoding="UTF-8"?>
<svg width="32px" height="32px" viewBox="0 0 32 32" version="1.1" xmlns="http://www.w3.org/2000/svg" xmlns:xlink="http://www.w3.org/1999/xlink">
    <title>icon-medium</title>
    <g id="Protocol" stroke="none" stroke-width="1" fill="none" fill-rule="evenodd">
        <g id="Artboard-Copy-2" transform="translate(-158.000000, -5685.000000)">
            <g id="icon-medium" transform="translate(158.037736, 5685.000000)">
                <g id="iconmonstr-twitter-4-copy"></g>
                <g id="Medium-Logo-Black-RGB" fill-rule="nonzero">
                    <path d="M15.9622642,0 C7.14710377,0 0,7.164 0,16 C0,24.836 7.14710377,32 15.9622642,32 C24.7774245,32 31.9245283,24.836 31.9245283,16 C31.9245283,7.164 24.7774245,0 15.9622642,0 Z" id="logo-container" fill="#FFFFFF"></path>
                    <path d="M11.7881495,10.4 C14.7722359,10.4 17.1915769,12.9071244 17.1915769,15.9999056 C17.1915769,19.0926867 14.7724194,21.6 11.7881495,21.6 C8.80387973,21.6 6.38490566,19.0934422 6.38490566,15.9999056 C6.38490566,12.906369 8.80406321,10.4 11.7881495,10.4 Z M20.4120642,10.7284286 C21.9041073,10.7284286 23.1137778,13.089186 23.1137778,15.9999056 C23.1137778,18.9113805 21.9041073,21.2713826 20.4120642,21.2713826 C18.920021,21.2713826 17.7103505,18.9106251 17.7103505,15.9999056 C17.7103505,13.089186 18.920021,10.7284286 20.4120642,10.7284286 Z M24.5829675,11.2768798 C25.1078981,11.2768798 25.5330166,13.3915519 25.5330166,15.9999056 C25.5330166,18.6084481 25.1075311,20.7229314 24.582784,20.7229314 C24.0580369,20.7229314 23.6325514,18.6076927 23.6325514,15.9999056 C23.6325514,13.3921184 24.0580369,11.2768798 24.5829675,11.2768798 Z" id="logo" fill="#000000"></path>
                </g>
            </g>
        </g>
    </g>
</svg>