<?xml version="1.0" encoding="UTF-8"?>
<svg width="32px" height="32px" viewBox="0 0 32 32" version="1.1" xmlns="http://www.w3.org/2000/svg" xmlns:xlink="http://www.w3.org/1999/xlink">
    <title>icon-twitter</title>
    <g id="Protocol" stroke="none" stroke-width="1" fill="none" fill-rule="evenodd">
        <g id="Artboard-Copy-2" transform="translate(-80.000000, -5685.000000)" fill-rule="nonzero">
            <g id="icon-twitter" transform="translate(80.000000, 5685.000000)">
                <path d="M15.9622642,0 C7.14710377,0 0,7.164 0,16 C0,24.836 7.14710377,32 15.9622642,32 C24.7774245,32 31.9245283,24.836 31.9245283,16 C31.9245283,7.164 24.7774245,0 15.9622642,0 Z" id="logo-container" fill="#FFFFFF"></path>
                <path d="M24.0311887,12.86 C24.2746132,18.2466667 20.2667547,24.252 13.1715283,24.252 C11.0139623,24.252 9.00670755,23.6173333 7.31603774,22.5306667 C9.34324528,22.7706667 11.3664623,22.2053333 12.972,20.9453333 C11.301283,20.9146667 9.88995283,19.8066667 9.40177358,18.2853333 C10.0016887,18.4 10.5922925,18.3666667 11.1283585,18.22 C9.29136792,17.8493333 8.02236792,16.1906667 8.06360377,14.416 C8.57971698,14.7026667 9.16766038,14.8746667 9.79417925,14.8946667 C8.09286792,13.7546667 7.61133962,11.5026667 8.61164151,9.78133333 C10.4951887,12.0986667 13.3111981,13.6226667 16.4863585,13.7826667 C15.9290094,11.388 17.7420566,9.08 20.2095566,9.08 C21.3069623,9.08 22.3006132,9.54533333 22.9976321,10.2893333 C23.8675755,10.1186667 24.6869717,9.79866667 25.4238962,9.36 C25.1379057,10.2546667 24.5326698,11.004 23.7438679,11.4786667 C24.5167075,11.3853333 25.2536321,11.18 25.9373491,10.8746667 C25.4265566,11.6453333 24.7800849,12.32 24.0311887,12.86 L24.0311887,12.86 Z" id="logo" fill="#000000"></path>
            </g>
        </g>
    </g>
</svg>