<svg width="27" height="23" xmlns="http://www.w3.org/2000/svg" xmlns:xlink="http://www.w3.org/1999/xlink"><defs><path d="M19.373 13.866c4.147.728 6.968 2.162 6.968 3.813 0 2.386-5.897 4.321-13.17 4.321C5.896 22 0 20.065 0 17.679c0-1.65 2.821-3.085 6.967-3.813 1.801.445 3.927.702 6.203.702 2.205 0 4.268-.24 6.032-.66l.171-.042zm-1.6-7.075c3.513.56 5.934 1.743 5.934 3.11 0 1.91-4.718 3.457-10.537 3.457-5.819 0-10.536-1.548-10.536-3.457 0-1.367 2.42-2.55 5.932-3.11 1.349.33 2.923.518 4.604.518 1.665 0 3.225-.185 4.565-.508l.039-.01h-.001zM13.17 1c4.365 0 7.903 1.16 7.903 2.593 0 1.431-3.538 2.592-7.903 2.592-4.364 0-7.902-1.16-7.902-2.592C5.268 2.16 8.806 1 13.17 1z" id="a"/></defs><use fill="#000" xlink:href="#a" fill-rule="evenodd"/></svg>