<?xml version="1.0" encoding="UTF-8"?>
<svg width="100px" height="100px" viewBox="0 0 100 100" version="1.1" xmlns="http://www.w3.org/2000/svg" xmlns:xlink="http://www.w3.org/1999/xlink">
    <title>Group 21</title>
    <g id="Protocol" stroke="none" stroke-width="1" fill="none" fill-rule="evenodd">
        <g id="Artboard-Copy" transform="translate(-150.000000, -2093.000000)">
            <g id="Group-21" transform="translate(150.000000, 2093.000000)">
                <rect id="Rectangle" stroke="#EEEEEE" fill="#FCFCFC" x="0.5" y="0.5" width="99" height="99"></rect>
                <path d="M34.921875,58.2159091 L34.921875,57.171875 L32.9616477,57.171875 L32.9616477,45.6235795 L34.921875,45.6235795 L34.921875,44.5795455 L31.7684659,44.5795455 L31.7684659,58.2159091 L34.921875,58.2159091 Z M37.2230114,46.4545455 C37.4680398,46.4545455 37.6784446,46.3710937 37.8542259,46.2041903 C38.0300071,46.0372869 38.1178977,45.8366477 38.1178977,45.6022727 C38.1178977,45.3678977 38.0300071,45.1672585 37.8542259,45.0003551 C37.6784446,44.8334517 37.4680398,44.75 37.2230114,44.75 C36.977983,44.75 36.7675781,44.8334517 36.5917969,45.0003551 C36.4160156,45.1672585 36.328125,45.3678977 36.328125,45.6022727 C36.328125,45.8366477 36.4160156,46.0372869 36.5917969,46.2041903 C36.7675781,46.3710937 36.977983,46.4545455 37.2230114,46.4545455 Z M37.8409091,56 L37.8409091,47.8181818 L36.5838068,47.8181818 L36.5838068,56 L37.8409091,56 Z M43.4659091,56.1704545 C44.0696023,56.1704545 44.5996094,56.057706 45.0559304,55.8322088 C45.5122514,55.6067116 45.879794,55.3013139 46.1585582,54.9160156 C46.4373224,54.5307173 46.6122159,54.0965909 46.6832386,53.6136364 L46.6832386,53.6136364 L45.4261364,53.6136364 C45.3480114,53.9119318 45.2166193,54.1676136 45.0319602,54.3806818 C44.8473011,54.59375 44.621804,54.7571023 44.3554687,54.8707386 C44.0891335,54.984375 43.7926136,55.0411932 43.4659091,55.0411932 C42.96875,55.0411932 42.5363991,54.9115767 42.1688565,54.6523437 C41.8013139,54.3931108 41.517223,54.0291193 41.3165838,53.5603693 C41.1159446,53.0916193 41.015625,52.5411932 41.015625,51.9090909 C41.015625,51.2911932 41.1177202,50.7523082 41.3219105,50.2924361 C41.5261009,49.8325639 41.8119673,49.4756747 42.1795099,49.2217685 C42.5470526,48.9678622 42.9758523,48.8409091 43.4659091,48.8409091 C44.0198864,48.8409091 44.4611151,48.9856179 44.7895952,49.2750355 C45.1180753,49.5644531 45.3302557,49.8955966 45.4261364,50.2684659 L45.4261364,50.2684659 L46.6832386,50.2684659 C46.6122159,49.7571023 46.4293324,49.3096591 46.1345881,48.9261364 C45.8398437,48.5426136 45.4616477,48.2443182 45,48.03125 C44.5383523,47.8181818 44.0198864,47.7116477 43.4446023,47.7116477 C42.7059659,47.7116477 42.0605469,47.8918679 41.5083452,48.2523082 C40.9561435,48.6127486 40.526456,49.1116832 40.2192827,49.7491122 C39.9121094,50.3865412 39.7585227,51.1207386 39.7585227,51.9517045 C39.7585227,52.7684659 39.9076705,53.4946733 40.2059659,54.1303267 C40.5042614,54.7659801 40.9303977,55.2649148 41.484375,55.6271307 C42.0383523,55.9893466 42.6988636,56.1704545 43.4659091,56.1704545 Z M51.8394886,56.1704545 C52.578125,56.1704545 53.2253196,55.9946733 53.7810724,55.6431108 C54.3368253,55.2915483 54.7700639,54.7997159 55.0807884,54.1676136 C55.3915128,53.5355114 55.546875,52.796875 55.546875,51.9517045 C55.546875,51.0994318 55.3915128,50.3554687 55.0807884,49.7198153 C54.7700639,49.0841619 54.3368253,48.590554 53.7810724,48.2389915 C53.2253196,47.887429 52.578125,47.7116477 51.8394886,47.7116477 C51.1008523,47.7116477 50.4536577,47.887429 49.8979048,48.2389915 C49.342152,48.590554 48.9089134,49.0841619 48.5981889,49.7198153 C48.2874645,50.3554687 48.1321023,51.0994318 48.1321023,51.9517045 C48.1321023,52.796875 48.2874645,53.5355114 48.5981889,54.1676136 C48.9089134,54.7997159 49.342152,55.2915483 49.8979048,55.6431108 C50.4536577,55.9946733 51.1008523,56.1704545 51.8394886,56.1704545 Z M51.8394886,55.0411932 C51.2784091,55.0411932 50.8167614,54.8973722 50.4545455,54.6097301 C50.0923295,54.3220881 49.8242187,53.943892 49.6502131,53.475142 C49.4762074,53.006392 49.3892045,52.4985795 49.3892045,51.9517045 C49.3892045,51.4048295 49.4762074,50.8952415 49.6502131,50.4229403 C49.8242187,49.9506392 50.0923295,49.568892 50.4545455,49.2776989 C50.8167614,48.9865057 51.2784091,48.8409091 51.8394886,48.8409091 C52.4005682,48.8409091 52.8622159,48.9865057 53.2244318,49.2776989 C53.5866477,49.568892 53.8547585,49.9506392 54.0287642,50.4229403 C54.2027699,50.8952415 54.2897727,51.4048295 54.2897727,51.9517045 C54.2897727,52.4985795 54.2027699,53.006392 54.0287642,53.475142 C53.8547585,53.943892 53.5866477,54.3220881 53.2244318,54.6097301 C52.8622159,54.8973722 52.4005682,55.0411932 51.8394886,55.0411932 Z M58.7215909,56 L58.7215909,51.078125 C58.7215909,50.6022727 58.8121449,50.1974432 58.9932528,49.8636364 C59.1743608,49.5298295 59.4220526,49.2759233 59.7363281,49.1019176 C60.0506037,48.9279119 60.4083807,48.8409091 60.8096591,48.8409091 C61.3920455,48.8409091 61.850142,49.0211293 62.1839489,49.3815696 C62.5177557,49.7420099 62.6846591,50.243608 62.6846591,50.8863636 L62.6846591,50.8863636 L62.6846591,56 L63.9417614,56 L63.9417614,50.8011364 C63.9417614,50.1051136 63.8263494,49.5289418 63.5955256,49.0726207 C63.3647017,48.6162997 63.0415483,48.2753906 62.6260653,48.0498935 C62.2105824,47.8243963 61.7258523,47.7116477 61.171875,47.7116477 C60.5539773,47.7116477 60.0497159,47.8386009 59.6590909,48.0925071 C59.2684659,48.3464134 58.9772727,48.681108 58.7855114,49.0965909 L58.7855114,49.0965909 L58.6789773,49.0965909 L58.6789773,47.8181818 L57.4644886,47.8181818 L57.4644886,56 L58.7215909,56 Z M68.7571023,58.2159091 L68.7571023,44.5795455 L65.6036932,44.5795455 L65.6036932,45.6235795 L67.5639205,45.6235795 L67.5639205,57.171875 L65.6036932,57.171875 L65.6036932,58.2159091 L68.7571023,58.2159091 Z" id="[icon]" fill="#000000" fill-rule="nonzero"></path>
            </g>
        </g>
    </g>
</svg>