<?xml version="1.0" encoding="UTF-8"?>
<svg width="1007px" height="606px" viewBox="0 0 1007 606" version="1.1" xmlns="http://www.w3.org/2000/svg" xmlns:xlink="http://www.w3.org/1999/xlink">
    <title>Group 28</title>
    <g id="Protocol" stroke="none" stroke-width="1" fill="none" fill-rule="evenodd">
        <g id="Group-22" transform="translate(0.000000, 0.000000)">
            <g id="Group-18">
                <g id="Group-17" fill="#FAFAFA" stroke="#EEEEEE">
                    <rect id="Rectangle-Copy-2" x="277.5" y="0.5" width="728.378854" height="539.819767" rx="20"></rect>
                    <rect id="Rectangle" x="0.5" y="93.5" width="312.236184" height="511.633721" rx="10"></rect>
                </g>
                <path d="M124.68075,356.272727 L124.68075,355.298295 L122.851205,355.298295 L122.851205,344.519886 L124.68075,344.519886 L124.68075,343.545455 L121.737569,343.545455 L121.737569,356.272727 L124.68075,356.272727 Z M127.544387,355 L127.544387,347.264205 L127.643819,347.264205 L130.825637,355 L131.939273,355 L135.121091,347.264205 L135.220523,347.264205 L135.220523,355 L136.373932,355 L136.373932,344.818182 L134.902341,344.818182 L131.442114,353.269886 L131.322796,353.269886 L127.862569,344.818182 L126.390978,344.818182 L126.390978,355 L127.544387,355 Z M141.783023,355.159091 C142.472417,355.159091 143.076465,354.995028 143.595168,354.666903 C144.113871,354.338778 144.518227,353.879735 144.808236,353.289773 C145.098246,352.699811 145.24325,352.010417 145.24325,351.221591 C145.24325,350.426136 145.098246,349.731771 144.808236,349.138494 C144.518227,348.545218 144.113871,348.084517 143.595168,347.756392 C143.076465,347.428267 142.472417,347.264205 141.783023,347.264205 C141.093629,347.264205 140.489581,347.428267 139.970878,347.756392 C139.452176,348.084517 139.047819,348.545218 138.75781,349.138494 C138.467801,349.731771 138.322796,350.426136 138.322796,351.221591 C138.322796,352.010417 138.467801,352.699811 138.75781,353.289773 C139.047819,353.879735 139.452176,354.338778 139.970878,354.666903 C140.489581,354.995028 141.093629,355.159091 141.783023,355.159091 Z M141.783023,354.105114 C141.259349,354.105114 140.828478,353.970881 140.490409,353.702415 C140.152341,353.433949 139.902105,353.080966 139.739699,352.643466 C139.577294,352.205966 139.496091,351.732008 139.496091,351.221591 C139.496091,350.711174 139.577294,350.235559 139.739699,349.794744 C139.902105,349.35393 140.152341,348.997633 140.490409,348.725852 C140.828478,348.454072 141.259349,348.318182 141.783023,348.318182 C142.306697,348.318182 142.737569,348.454072 143.075637,348.725852 C143.413705,348.997633 143.663942,349.35393 143.826347,349.794744 C143.988752,350.235559 144.069955,350.711174 144.069955,351.221591 C144.069955,351.732008 143.988752,352.205966 143.826347,352.643466 C143.663942,353.080966 143.413705,353.433949 143.075637,353.702415 C142.737569,353.970881 142.306697,354.105114 141.783023,354.105114 Z M150.692114,355.159091 C151.328478,355.159091 151.890267,354.997514 152.377483,354.674361 C152.864699,354.351207 153.245855,353.893821 153.520949,353.302202 C153.796044,352.710582 153.933591,352.010417 153.933591,351.201705 C153.933591,350.399621 153.796044,349.703598 153.520949,349.113636 C153.245855,348.523674 152.863042,348.067945 152.372512,347.746449 C151.881981,347.424953 151.31522,347.264205 150.672228,347.264205 C150.175069,347.264205 149.781484,347.346236 149.491475,347.510298 C149.201465,347.674361 148.979401,347.859967 148.825282,348.067116 C148.671162,348.274266 148.551016,348.444129 148.464841,348.576705 L148.464841,348.576705 L148.365409,348.576705 L148.365409,344.818182 L147.192114,344.818182 L147.192114,355 L148.325637,355 L148.325637,353.826705 L148.464841,353.826705 C148.551016,353.965909 148.673648,354.140743 148.832739,354.351207 C148.99183,354.561671 149.218866,354.748935 149.513847,354.912997 C149.808828,355.07706 150.201584,355.159091 150.692114,355.159091 Z M150.533023,354.105114 C150.062379,354.105114 149.664652,353.981652 149.339841,353.73473 C149.015031,353.487808 148.768108,353.144768 148.599074,352.705611 C148.43004,352.266454 148.345523,351.758523 148.345523,351.181818 C148.345523,350.611742 148.428383,350.112098 148.594103,349.682884 C148.759822,349.25367 149.005087,348.918916 149.329898,348.678622 C149.654709,348.438329 150.05575,348.318182 150.533023,348.318182 C151.030182,348.318182 151.443653,348.444957 151.773435,348.698509 C152.103217,348.95206 152.35014,349.295099 152.514202,349.727628 C152.678265,350.160156 152.760296,350.644886 152.760296,351.181818 C152.760296,351.725379 152.676607,352.218395 152.50923,352.660866 C152.341854,353.103338 152.093274,353.454664 151.763492,353.714844 C151.43371,353.975024 151.023553,354.105114 150.533023,354.105114 Z M156.319955,346.090909 C156.548648,346.090909 156.745026,346.013021 156.909088,345.857244 C157.073151,345.701468 157.155182,345.514205 157.155182,345.295455 C157.155182,345.076705 157.073151,344.889441 156.909088,344.733665 C156.745026,344.577888 156.548648,344.5 156.319955,344.5 C156.091262,344.5 155.894884,344.577888 155.730821,344.733665 C155.566759,344.889441 155.484728,345.076705 155.484728,345.295455 C155.484728,345.514205 155.566759,345.701468 155.730821,345.857244 C155.894884,346.013021 156.091262,346.090909 156.319955,346.090909 Z M156.896659,355 L156.896659,347.363636 L155.723364,347.363636 L155.723364,355 L156.896659,355 Z M160.217682,355 L160.217682,344.818182 L159.044387,344.818182 L159.044387,355 L160.217682,355 Z M165.567114,355.159091 C166.084159,355.159091 166.549832,355.078717 166.964131,354.917969 C167.37843,354.757221 167.726442,354.531842 168.008165,354.241832 C168.289889,353.951823 168.490409,353.614583 168.609728,353.230114 L168.609728,353.230114 L167.476205,352.911932 C167.376773,353.177083 167.235911,353.398319 167.05362,353.575639 C166.871328,353.752959 166.655064,353.885535 166.404827,353.973366 C166.15459,354.061198 165.875353,354.105114 165.567114,354.105114 C165.093156,354.105114 164.677199,354.001539 164.319245,353.794389 C163.96129,353.58724 163.682052,353.283973 163.481532,352.884588 C163.281011,352.485204 163.18075,351.997159 163.18075,351.420455 L163.184,351.58 L168.729046,351.579545 L168.729046,351.082386 C168.729046,350.369792 168.634586,349.769886 168.445665,349.28267 C168.256745,348.795455 168.003194,348.403527 167.685012,348.106889 C167.36683,347.810251 167.013847,347.595644 166.626063,347.463068 C166.238279,347.330492 165.845523,347.264205 165.447796,347.264205 C164.758402,347.264205 164.156011,347.43241 163.640623,347.768821 C163.125234,348.105232 162.724193,348.572562 162.437498,349.17081 C162.150802,349.769058 162.007455,350.45928 162.007455,351.241477 C162.007455,352.023674 162.150802,352.708925 162.437498,353.29723 C162.724193,353.885535 163.13352,354.342921 163.66548,354.669389 C164.197441,354.995857 164.831319,355.159091 165.567114,355.159091 Z M163.188346,350.536064 C163.213664,350.192656 163.302278,349.867661 163.454188,349.56108 C163.63648,349.193182 163.897488,348.894058 164.237213,348.663707 C164.576939,348.433357 164.980466,348.318182 165.447796,348.318182 C165.872038,348.318182 166.240765,348.415956 166.553975,348.611506 C166.867185,348.807055 167.109136,349.073864 167.279827,349.411932 C167.450518,349.75 167.535864,350.13447 167.535864,350.565341 L167.535864,350.565341 L163.187,350.566 L163.188346,350.536064 Z M178.572796,355.178977 C179.371565,355.178977 180.067587,355.022372 180.660864,354.709162 C181.254141,354.395952 181.714013,353.966738 182.04048,353.42152 C182.366948,352.876302 182.530182,352.255682 182.530182,351.559659 L182.530182,351.559659 L182.530182,344.818182 L181.297228,344.818182 L181.297228,351.460227 C181.297228,351.957386 181.188681,352.399029 180.971588,352.785156 C180.754496,353.171283 180.442114,353.47455 180.034444,353.694957 C179.626773,353.915365 179.139557,354.025568 178.572796,354.025568 C178.006034,354.025568 177.519647,353.915365 177.113634,353.694957 C176.707621,353.47455 176.395239,353.171283 176.176489,352.785156 C175.957739,352.399029 175.848364,351.957386 175.848364,351.460227 L175.848364,351.460227 L175.848364,344.818182 L174.615409,344.818182 L174.615409,351.559659 C174.615409,352.255682 174.778643,352.876302 175.105111,353.42152 C175.431579,353.966738 175.891451,354.395952 176.484728,354.709162 C177.078004,355.022372 177.774027,355.178977 178.572796,355.178977 Z M186.229046,355 L186.229046,344.818182 L184.996091,344.818182 L184.996091,355 L186.229046,355 Z M190.882455,356.272727 L190.882455,343.545455 L187.939273,343.545455 L187.939273,344.519886 L189.768819,344.519886 L189.768819,355.298295 L187.939273,355.298295 L187.939273,356.272727 L190.882455,356.272727 Z" id="[MobileUI]" fill="#000000" fill-rule="nonzero"></path>
            </g>
            <path d="M604.951705,277.272727 L604.951705,276.298295 L603.122159,276.298295 L603.122159,265.519886 L604.951705,265.519886 L604.951705,264.545455 L602.008523,264.545455 L602.008523,277.272727 L604.951705,277.272727 Z M609.803977,276 C610.838068,276 611.716383,275.795336 612.43892,275.386009 C613.161458,274.976681 613.711648,274.390033 614.089489,273.626065 C614.46733,272.862098 614.65625,271.949811 614.65625,270.889205 C614.65625,269.835227 614.468987,268.929569 614.09446,268.17223 C613.719934,267.414891 613.181345,266.833215 612.478693,266.427202 C611.776042,266.021188 610.930871,265.818182 609.943182,265.818182 L609.943182,265.818182 L606.661932,265.818182 L606.661932,276 L609.803977,276 Z M609.724432,274.90625 L607.894886,274.90625 L607.894886,266.911932 L609.863636,266.911932 C610.659091,266.911932 611.323627,267.071851 611.857244,267.39169 C612.390862,267.711529 612.791903,268.168916 613.060369,268.763849 C613.328835,269.358783 613.463068,270.067235 613.463068,270.889205 C613.463068,271.717803 613.327178,272.432055 613.055398,273.03196 C612.783617,273.631866 612.370975,274.094223 611.817472,274.419034 C611.263968,274.743845 610.566288,274.90625 609.724432,274.90625 L609.724432,274.90625 Z M619.767045,276.159091 C620.284091,276.159091 620.749763,276.078717 621.164062,275.917969 C621.578362,275.757221 621.926373,275.531842 622.208097,275.241832 C622.48982,274.951823 622.690341,274.614583 622.809659,274.230114 L622.809659,274.230114 L621.676136,273.911932 C621.576705,274.177083 621.435843,274.398319 621.253551,274.575639 C621.071259,274.752959 620.854995,274.885535 620.604759,274.973366 C620.354522,275.061198 620.075284,275.105114 619.767045,275.105114 C619.293087,275.105114 618.877131,275.001539 618.519176,274.794389 C618.161222,274.58724 617.881984,274.283973 617.681463,273.884588 C617.480942,273.485204 617.380682,272.997159 617.380682,272.420455 L617.384,272.58 L622.928977,272.579545 L622.928977,272.082386 C622.928977,271.369792 622.834517,270.769886 622.645597,270.28267 C622.456676,269.795455 622.203125,269.403527 621.884943,269.106889 C621.566761,268.810251 621.213778,268.595644 620.825994,268.463068 C620.43821,268.330492 620.045455,268.264205 619.647727,268.264205 C618.958333,268.264205 618.355942,268.43241 617.840554,268.768821 C617.325166,269.105232 616.924124,269.572562 616.637429,270.17081 C616.350734,270.769058 616.207386,271.45928 616.207386,272.241477 C616.207386,273.023674 616.350734,273.708925 616.637429,274.29723 C616.924124,274.885535 617.333452,275.342921 617.865412,275.669389 C618.397372,275.995857 619.03125,276.159091 619.767045,276.159091 Z M617.388277,271.536064 C617.413596,271.192656 617.50221,270.867661 617.654119,270.56108 C617.836411,270.193182 618.09742,269.894058 618.437145,269.663707 C618.77687,269.433357 619.180398,269.318182 619.647727,269.318182 C620.07197,269.318182 620.440696,269.415956 620.753906,269.611506 C621.067116,269.807055 621.309067,270.073864 621.479759,270.411932 C621.65045,270.75 621.735795,271.13447 621.735795,271.565341 L621.735795,271.565341 L617.387,271.566 L617.388277,271.536064 Z M627.284091,276.159091 C627.877367,276.159091 628.397727,276.059659 628.84517,275.860795 C629.292614,275.661932 629.641454,275.390152 629.89169,275.045455 C630.141927,274.700758 630.267045,274.309659 630.267045,273.872159 C630.267045,273.338542 630.099669,272.90187 629.764915,272.562145 C629.430161,272.22242 628.921402,271.969697 628.238636,271.803977 L628.238636,271.803977 L627.105114,271.525568 C626.654356,271.412879 626.322917,271.272017 626.110795,271.102983 C625.898674,270.933949 625.792614,270.703598 625.792614,270.411932 C625.792614,270.083807 625.947562,269.812855 626.257457,269.599077 C626.567353,269.385298 626.955966,269.278409 627.423295,269.278409 C627.764678,269.278409 628.044744,269.333097 628.263494,269.442472 C628.482244,269.551847 628.655421,269.690223 628.783026,269.857599 C628.91063,270.024976 629.007576,270.196496 629.073864,270.372159 L629.073864,270.372159 L630.127841,270.073864 C629.945549,269.530303 629.638139,269.092803 629.205611,268.761364 C628.773082,268.429924 628.178977,268.264205 627.423295,268.264205 C626.886364,268.264205 626.406605,268.358665 625.98402,268.547585 C625.561435,268.736506 625.228338,268.996686 624.98473,269.328125 C624.741122,269.659564 624.619318,270.04072 624.619318,270.471591 C624.619318,270.99858 624.782552,271.436908 625.10902,271.786577 C625.435488,272.136245 625.94839,272.393939 626.647727,272.559659 L626.647727,272.559659 L627.920455,272.857955 C628.304924,272.947443 628.589962,273.082505 628.775568,273.263139 C628.961174,273.443774 629.053977,273.666667 629.053977,273.931818 C629.053977,274.259943 628.892401,274.540838 628.569247,274.774503 C628.246094,275.008168 627.81108,275.125 627.264205,275.125 C626.783617,275.125 626.395005,275.022254 626.098366,274.816761 C625.801728,274.611269 625.600379,274.30303 625.494318,273.892045 L625.494318,273.892045 L624.380682,274.170455 C624.516572,274.820076 624.839725,275.31392 625.350142,275.651989 C625.860559,275.990057 626.505208,276.159091 627.284091,276.159091 Z M633.210227,265.818182 L632.036932,265.818182 L632.036932,276 L633.210227,276 L633.21,273.142 L634.032,272.381 L636.889205,276 L638.380682,276 L634.915,271.627 L638.142045,268.363636 L636.690341,268.363636 L633.349432,271.764205 L633.21,271.765 L633.210227,265.818182 Z M642.238636,276.099432 C642.457386,276.099432 642.638021,276.083688 642.78054,276.052202 C642.923059,276.020715 643.034091,275.990057 643.113636,275.960227 L643.113636,275.960227 L642.875,274.90625 C642.858428,274.909564 642.840015,274.913155 642.81976,274.917022 L642.676136,274.943537 C642.593277,274.958452 642.487216,274.965909 642.357955,274.965909 C642.185606,274.965909 642.022372,274.938565 641.868253,274.883878 C641.714134,274.82919 641.588187,274.719815 641.490412,274.555753 C641.392637,274.39169 641.34375,274.143939 641.34375,273.8125 L641.34375,273.8125 L641.343,269.358 L642.974432,269.357955 L642.974432,268.363636 L641.343,268.364 L641.34375,266.534091 L640.170455,266.534091 L640.17,268.364 L639.017045,268.363636 L639.017045,269.357955 L640.17,269.358 L640.170455,274.130682 C640.170455,274.511364 640.24655,274.836039 640.398742,275.104708 L640.481179,275.234375 C640.688329,275.526042 640.950166,275.743134 641.26669,275.885653 C641.583215,276.028172 641.907197,276.099432 642.238636,276.099432 Z M647.846591,276.159091 C648.535985,276.159091 649.140033,275.995028 649.658736,275.666903 C650.177438,275.338778 650.581795,274.879735 650.871804,274.289773 C651.161813,273.699811 651.306818,273.010417 651.306818,272.221591 C651.306818,271.426136 651.161813,270.731771 650.871804,270.138494 C650.581795,269.545218 650.177438,269.084517 649.658736,268.756392 C649.140033,268.428267 648.535985,268.264205 647.846591,268.264205 C647.157197,268.264205 646.553149,268.428267 646.034446,268.756392 C645.515743,269.084517 645.111387,269.545218 644.821378,270.138494 C644.531368,270.731771 644.386364,271.426136 644.386364,272.221591 C644.386364,273.010417 644.531368,273.699811 644.821378,274.289773 C645.111387,274.879735 645.515743,275.338778 646.034446,275.666903 C646.553149,275.995028 647.157197,276.159091 647.846591,276.159091 Z M647.846591,275.105114 C647.322917,275.105114 646.892045,274.970881 646.553977,274.702415 C646.215909,274.433949 645.965672,274.080966 645.803267,273.643466 C645.640862,273.205966 645.559659,272.732008 645.559659,272.221591 C645.559659,271.711174 645.640862,271.235559 645.803267,270.794744 C645.965672,270.35393 646.215909,269.997633 646.553977,269.725852 C646.892045,269.454072 647.322917,269.318182 647.846591,269.318182 C648.370265,269.318182 648.801136,269.454072 649.139205,269.725852 C649.477273,269.997633 649.727509,270.35393 649.889915,270.794744 C650.05232,271.235559 650.133523,271.711174 650.133523,272.221591 C650.133523,272.732008 650.05232,273.205966 649.889915,273.643466 C649.727509,274.080966 649.477273,274.433949 649.139205,274.702415 C648.801136,274.970881 648.370265,275.105114 647.846591,275.105114 Z M654.269886,278.863636 L654.269886,274.826705 L654.369318,274.826705 C654.455492,274.965909 654.578125,275.140743 654.737216,275.351207 C654.896307,275.561671 655.123343,275.748935 655.418324,275.912997 C655.713305,276.07706 656.106061,276.159091 656.596591,276.159091 C657.232955,276.159091 657.794744,275.997514 658.28196,275.674361 C658.769176,275.351207 659.150331,274.893821 659.425426,274.302202 C659.700521,273.710582 659.838068,273.010417 659.838068,272.201705 C659.838068,271.399621 659.700521,270.703598 659.425426,270.113636 C659.150331,269.523674 658.767519,269.067945 658.276989,268.746449 C657.786458,268.424953 657.219697,268.264205 656.576705,268.264205 C656.079545,268.264205 655.685961,268.346236 655.395952,268.510298 C655.105942,268.674361 654.883878,268.859967 654.729759,269.067116 C654.575639,269.274266 654.455492,269.444129 654.369318,269.576705 L654.369318,269.576705 L654.230114,269.576705 L654.230114,268.363636 L653.096591,268.363636 L653.096591,278.863636 L654.269886,278.863636 Z M656.4375,275.105114 C655.966856,275.105114 655.569129,274.981652 655.244318,274.73473 C654.919508,274.487808 654.672585,274.144768 654.503551,273.705611 C654.334517,273.266454 654.25,272.758523 654.25,272.181818 C654.25,271.611742 654.33286,271.112098 654.49858,270.682884 C654.664299,270.25367 654.909564,269.918916 655.234375,269.678622 C655.559186,269.438329 655.960227,269.318182 656.4375,269.318182 C656.934659,269.318182 657.34813,269.444957 657.677912,269.698509 C658.007694,269.95206 658.254616,270.295099 658.418679,270.727628 C658.582741,271.160156 658.664773,271.644886 658.664773,272.181818 C658.664773,272.725379 658.581084,273.218395 658.413707,273.660866 C658.24633,274.103338 657.997751,274.454664 657.667969,274.714844 C657.338187,274.975024 656.92803,275.105114 656.4375,275.105114 Z M669.681818,276.178977 C670.480587,276.178977 671.17661,276.022372 671.769886,275.709162 C672.363163,275.395952 672.823035,274.966738 673.149503,274.42152 C673.475971,273.876302 673.639205,273.255682 673.639205,272.559659 L673.639205,272.559659 L673.639205,265.818182 L672.40625,265.818182 L672.40625,272.460227 C672.40625,272.957386 672.297704,273.399029 672.080611,273.785156 C671.863518,274.171283 671.551136,274.47455 671.143466,274.694957 C670.735795,274.915365 670.24858,275.025568 669.681818,275.025568 C669.115057,275.025568 668.62867,274.915365 668.222656,274.694957 C667.816643,274.47455 667.504261,274.171283 667.285511,273.785156 C667.066761,273.399029 666.957386,272.957386 666.957386,272.460227 L666.957386,272.460227 L666.957386,265.818182 L665.724432,265.818182 L665.724432,272.559659 C665.724432,273.255682 665.887666,273.876302 666.214134,274.42152 C666.540601,274.966738 667.000473,275.395952 667.59375,275.709162 C668.187027,276.022372 668.883049,276.178977 669.681818,276.178977 Z M677.338068,276 L677.338068,265.818182 L676.105114,265.818182 L676.105114,276 L677.338068,276 Z M681.991477,277.272727 L681.991477,264.545455 L679.048295,264.545455 L679.048295,265.519886 L680.877841,265.519886 L680.877841,276.298295 L679.048295,276.298295 L679.048295,277.272727 L681.991477,277.272727 Z" id="[DesktopUI]" fill="#000000" fill-rule="nonzero"></path>
        </g>
    </g>
</svg>