<?xml version="1.0" encoding="UTF-8"?>
<svg width="22px" height="18px" viewBox="0 0 22 18" version="1.1" xmlns="http://www.w3.org/2000/svg" xmlns:xlink="http://www.w3.org/1999/xlink">
    <title>Logo</title>
    <defs>
        <path d="M16.1814351,10.7461941 C19.6442235,11.3539705 22,12.5519668 22,13.9304823 C22,15.9236411 17.0751322,17.5394155 11,17.5394155 C4.92486775,17.5394155 0,15.9236411 0,13.9304823 C0,12.5519668 2.3557765,11.3539705 5.81856489,10.7461941 C7.32358262,11.117884 9.09873508,11.3320504 11,11.3320504 C12.8090394,11.3320504 14.5039044,11.1381574 15.9597068,10.7999072 Z M14.8429725,4.83637591 C17.7774302,5.30446668 19.8,6.29194151 19.8,7.43440247 C19.8,9.0289295 15.8601058,10.3215491 11,10.3215491 C6.1398942,10.3215491 2.2,9.0289295 2.2,7.43440247 C2.2,6.29194151 4.22256983,5.30446668 7.15702745,4.83637591 C8.28262568,5.11177904 9.59661748,5.26904253 11,5.26904253 C12.3581924,5.26904253 13.6326582,5.12174402 14.7339444,4.86390355 L14.8429725,4.83637591 Z M11,0 C14.6450793,0 17.6,0.969464669 17.6,2.16535994 C17.6,3.36125522 14.6450793,4.33071989 11,4.33071989 C7.35492065,4.33071989 4.4,3.36125522 4.4,2.16535994 C4.4,0.969464669 7.35492065,0 11,0 Z" id="path-1"></path>
    </defs>
    <g id="Protocol" stroke="none" stroke-width="1" fill="none" fill-rule="evenodd">
        <g id="Mobile-home-Copy-2" transform="translate(-18.000000, -1351.000000)">
            <rect fill="#FFFFFF" x="0" y="0" width="375" height="4251"></rect>
            <g id="Logo" transform="translate(18.000000, 1351.000000)">
                <mask id="mask-2" fill="white">
                    <use xlink:href="#path-1"></use>
                </mask>
                <use id="Mask" fill="#000000" xlink:href="#path-1"></use>
                <g id="logo" mask="url(#mask-2)" fill="#21222C">
                    <g transform="translate(-3.771429, -4.632324)" id="Rectangle">
                        <rect x="0" y="0" width="51.4624506" height="51.4624506"></rect>
                    </g>
                </g>
            </g>
        </g>
    </g>
</svg>