<?xml version="1.0" encoding="UTF-8"?>
<svg width="60px" height="60px" viewBox="0 0 60 60" version="1.1" xmlns="http://www.w3.org/2000/svg" xmlns:xlink="http://www.w3.org/1999/xlink">
    <title>aave-aave-logo</title>
    <defs>
        <linearGradient x1="87.2792784%" y1="18.632268%" x2="12.8792784%" y2="81.232268%" id="linearGradient-1">
            <stop stop-color="#B6509E" offset="0%"></stop>
            <stop stop-color="#2EBAC6" offset="100%"></stop>
        </linearGradient>
    </defs>
    <g id="Protocol" stroke="none" stroke-width="1" fill="none" fill-rule="evenodd">
        <g id="Mobile-home-Copy-5" transform="translate(-16.000000, -2132.000000)" fill-rule="nonzero">
            <g id="aave-aave-logo" transform="translate(16.000000, 2132.000000)">
                <circle id="Oval" fill="url(#linearGradient-1)" cx="30" cy="30" r="30"></circle>
                <path d="M43.128866,41.9536082 L32.9845361,17.4278351 C32.4123711,16.1597938 31.5618557,15.5412371 30.4407216,15.5412371 L29.5438144,15.5412371 C28.4226804,15.5412371 27.5721649,16.1597938 27,17.4278351 L22.5850515,28.1134021 L19.2448454,28.1134021 C18.2474227,28.121134 17.435567,28.9252577 17.4278351,29.9304124 L17.4278351,29.9536082 C17.435567,30.9510309 18.2474227,31.7628866 19.2448454,31.7706186 L21.0386598,31.7706186 L16.8247423,41.9536082 C16.7474227,42.1778351 16.7010309,42.4097938 16.7010309,42.6494845 C16.7010309,43.2216495 16.878866,43.6701031 17.1958763,44.0180412 C17.5128866,44.3659794 17.9690722,44.5360825 18.5412371,44.5360825 C18.9201031,44.5283505 19.2835052,44.4123711 19.5850515,44.1881443 C19.9097938,43.9639175 20.1340206,43.6391753 20.3118557,43.2680412 L24.9510309,31.7628866 L28.1675258,31.7628866 C29.1649485,31.7551546 29.9768041,30.9510309 29.9845361,29.9458763 L29.9845361,29.8994845 C29.9768041,28.9020619 29.1649485,28.0902062 28.1675258,28.0824742 L26.4510309,28.0824742 L29.992268,19.2603093 L39.6417526,43.2603093 C39.8195876,43.6314433 40.0438144,43.9561856 40.3685567,44.1804124 C40.6701031,44.4046392 41.0412371,44.5206186 41.4123711,44.5283505 C41.9845361,44.5283505 42.4329897,44.3582474 42.757732,44.0103093 C43.0824742,43.6623711 43.2525773,43.2139175 43.2525773,42.6417526 C43.2603093,42.4097938 43.2216495,42.1701031 43.128866,41.9536082 Z" id="Path" fill="#FFFFFF"></path>
            </g>
        </g>
    </g>
</svg>