<?xml version="1.0" encoding="UTF-8"?>
<svg width="100px" height="100px" viewBox="0 0 100 100" version="1.1" xmlns="http://www.w3.org/2000/svg" xmlns:xlink="http://www.w3.org/1999/xlink">
    <title>hydra</title>
    <g id="hydra" stroke="none" stroke-width="1" fill="none" fill-rule="evenodd">
        <circle id="Oval" fill="#F654A2" cx="50" cy="50" r="50"></circle>
        <path d="M0,50.0017491 L50.0178163,0 L100,50.0148001 L50.0178163,100 L0,50.0017491 Z M18.404305,35.0825711 C16.2923003,37.4596024 11.8717065,43.2469815 11.8717065,50.0017491 C11.8717065,56.7830224 16.3269916,62.5892379 18.4290461,64.9487782 L29.2419938,75.7702109 L29.2928206,75.7205633 C33.6215764,71.4875989 40.8176135,65.9242396 49.0213137,65.500553 C46.9559675,67.8031801 42.4013145,73.6579669 42.4013145,80.5093389 C42.4013145,87.3608454 46.9559675,93.2154976 49.0213137,95.5182593 L50.0178163,96.5626085 L51.0144534,95.5182593 C53.0796651,93.2154976 57.6343181,87.3608454 57.6343181,80.5093389 C57.6343181,73.6579669 53.0796651,67.8031801 51.0144534,65.500553 C59.2502901,65.9258542 66.470396,71.5311919 70.7937733,75.7702109 L81.8616621,64.6935437 L81.8873445,64.664078 C84.075724,62.1494057 88.2010378,56.5269806 88.2010378,50.0017491 C88.2010378,43.4510883 84.0434529,37.8100958 81.8616621,35.3100891 L70.8452725,24.2849531 L70.7945801,24.3347353 C66.4701271,28.5733507 59.2500212,34.1784193 51.0144534,34.603855 C53.0796651,32.3010933 57.6343181,26.4464411 57.6343181,19.5949346 C57.6343181,12.7435626 53.0796651,6.88877587 51.0144534,4.58614872 L50.0178163,3.44102427 L49.0213137,4.58614872 C46.9559675,6.88877587 42.4013145,12.7435626 42.4013145,19.5949346 C42.4013145,26.4464411 46.9559675,32.3010933 49.0213137,34.603855 C40.7533404,34.1768047 33.5090312,28.529354 29.1903601,24.2849531 L18.404305,35.0825711 L18.404305,35.0825711 Z M20.5196712,34.9941741 C33.8689877,35.7005428 44.5426321,50.0017491 44.5426321,50.0017491 C44.5426321,50.0017491 33.8689877,64.3029554 20.5196712,65.0094586 C22.5976569,62.6875913 27.1287789,56.8404737 27.1287789,50.0017491 C27.1287789,43.163159 22.5976569,37.3160414 20.5196712,34.9941741 L20.5196712,34.9941741 Z M79.553342,34.9941741 C77.4753564,37.3160414 72.9442343,43.163159 72.9442343,50.0017491 C72.9442343,56.8404737 77.4753564,62.6875913 79.553342,65.0094586 C66.2040255,64.3029554 55.5303812,50.0017491 55.5303812,50.0017491 C55.5303812,50.0017491 66.2040255,35.7005428 79.553342,34.9941741 L79.553342,34.9941741 Z" id="logo" fill="#0C116F"></path>
    </g>
</svg>