<?xml version="1.0" encoding="UTF-8"?>
<svg width="120px" height="33px" viewBox="0 0 120 33" version="1.1" xmlns="http://www.w3.org/2000/svg" xmlns:xlink="http://www.w3.org/1999/xlink">
    <title>whiteLogo.d156e83e</title>
    <g id="Homepage" stroke="none" stroke-width="1" fill="none" fill-rule="evenodd">
        <g id="Artboard" transform="translate(-140.000000, -3754.000000)" fill="#FFFFFF" fill-rule="nonzero">
            <g id="Group-25" transform="translate(74.000000, 3653.000000)">
                <g id="Group-23" transform="translate(55.000000, 60.000000)">
                    <g id="whiteLogo.d156e83e" transform="translate(11.000000, 41.000000)">
                        <path d="M74.0070304,30.851667 L62.3839712,2.93954941 C62.292101,2.68527624 62.2432926,2.41773178 62.2395163,2.14771629 C62.2169153,1.57746705 62.4202682,1.02103566 62.8062238,0.597043088 C63.2101181,0.1873963 63.7733914,-0.029179792 64.3507795,0.00316824608 C64.7825373,0.00921585716 65.2017934,0.147531254 65.5508659,0.399084807 C65.9142259,0.668505671 66.1981361,1.0292382 66.3731473,1.44386462 L77.4294991,28.7511097 L88.4858509,1.44386462 C88.6639464,1.02793259 88.9517993,0.667067173 89.3192442,0.399084807 C89.6683167,0.147531254 90.0875728,0.00921585716 90.5193307,0.00316824608 C91.0929226,-0.025957956 91.6514864,0.190363652 92.0527744,0.597043088 C92.4427606,1.01931972 92.6501737,1.57594675 92.6305938,2.14771629 C92.6268175,2.41773178 92.5780091,2.68527624 92.486139,2.93954941 L80.8630797,30.851667 C80.4550952,32.1085987 79.2854112,32.9702157 77.9517589,32.996215 L76.9183512,32.996215 C75.584699,32.9702157 74.4150149,32.1085987 74.0070304,30.851667 L74.0070304,30.851667 Z" id="Path"></path>
                        <path d="M97.5753943,32.1383958 C97.1773092,31.7419122 96.9604937,31.2014716 96.9753511,30.642711 L96.9753511,2.37866761 C96.961091,1.80698468 97.1769425,1.25312256 97.5753943,0.838992097 C97.9667184,0.428897931 98.5169872,0.204645857 99.0866143,0.223121891 L117.976864,0.223121891 C118.515064,0.210148405 119.033008,0.426409648 119.399188,0.816996733 C119.789141,1.18264708 120.006725,1.69310087 119.999231,2.22470006 C120.014727,2.75143896 119.795268,3.25824553 119.399188,3.61040803 C119.018095,3.98342001 118.501683,4.18944617 117.965752,4.1822875 L101.264549,4.1822875 L101.264549,14.4761181 L116.287853,14.4761181 C116.826054,14.4631446 117.343997,14.6794059 117.710178,15.0699929 C118.095669,15.4386856 118.3124,15.9471366 118.310221,16.4776963 C118.325717,17.0044352 118.106258,17.5112417 117.710178,17.8634042 C117.331805,18.2336918 116.819947,18.4394964 116.287853,18.4352837 L101.264549,18.4352837 L101.264549,28.773105 L117.965752,28.773105 C118.507789,28.7569395 119.030425,28.9734684 119.399188,29.3669799 C119.792018,29.7352309 120.009858,30.2502774 119.999231,30.7856809 C120.014727,31.3124198 119.795268,31.8192263 119.399188,32.1713888 C119.016276,32.5403774 118.500086,32.7423544 117.965752,32.7322706 L99.0866143,32.7322706 C98.5176524,32.7732397 97.9609922,32.554485 97.5753943,32.1383958 L97.5753943,32.1383958 Z" id="Path"></path>
                        <path d="M65.0174941,30.0598338 L53.383323,2.14771629 C52.9766703,0.89453967 51.8126451,0.0338058164 50.4831141,0.00316824608 L49.4608183,0.00316824608 C48.1271661,0.0291675469 46.957482,0.890784605 46.5494975,2.14771629 L41.4935779,14.3111529 L37.6599685,14.3111529 C36.5130914,14.3231495 35.5880455,15.243582 35.582041,16.3787171 L35.582041,16.4007125 C35.5880455,17.5358476 36.5130914,18.4562801 37.6599685,18.4682768 L39.7156721,18.4682768 L34.8931025,30.0598338 C34.8012324,30.314107 34.752424,30.5816515 34.7486477,30.851667 C34.7260467,31.4219162 34.9293996,31.9783476 35.3153552,32.4023402 C35.7192495,32.811987 36.2825228,33.028563 36.8599108,32.996215 C37.2916687,32.9901674 37.7109248,32.851852 38.0599973,32.6002984 C38.4233572,32.3308776 38.7072675,31.9701451 38.8822787,31.5555186 L44.2048842,18.4682768 L47.8607031,18.4682768 C49.0075801,18.4562801 49.9326261,17.5358476 49.9386305,16.4007125 L49.9386305,16.3457241 C49.9326261,15.210589 49.0075801,14.2901564 47.8607031,14.2781598 L45.8827828,14.2781598 L49.9719662,4.2482736 L61.028318,31.5555186 C61.2033292,31.9701451 61.4872394,32.3308776 61.8505994,32.6002984 C62.1996719,32.851852 62.618928,32.9901674 63.0506858,32.996215 C63.6318637,33.0318123 64.1998625,32.8149792 64.6063534,32.4023402 C64.9882853,31.9766439 65.1875822,31.4204042 65.161949,30.851667 C65.1759547,30.5812805 65.1304584,30.3111092 65.0286061,30.0598338 L65.0174941,30.0598338 Z" id="Path"></path>
                        <path d="M30.2816593,30.0598338 L18.6586001,2.14771629 C18.2492965,0.887012204 17.073937,0.0245064559 15.7361674,0.00316824608 L14.7138716,0.00316824608 C13.3802193,0.0291675469 12.2105353,0.890784605 11.8025508,2.14771629 L6.74663113,14.3111529 L2.91302172,14.3111529 C1.76614472,14.3231495 0.841098725,15.243582 0.835094306,16.3787171 L0.835094306,16.4007125 C0.841098725,17.5358476 1.76614472,18.4562801 2.91302172,18.4682768 L4.96872532,18.4682768 L0.146155803,30.0598338 C0.0542856546,30.314107 0.005477271,30.5816515 0.0017009561,30.851667 C-0.0209000272,31.4219162 0.182452832,31.9783476 0.568408434,32.4023402 C0.972302773,32.811987 1.53557606,33.028563 2.11296411,32.996215 C2.54472193,32.9901674 2.96397802,32.851852 3.31305053,32.6002984 C3.67641051,32.3308776 3.96032073,31.9701451 4.13533197,31.5555186 L9.4579375,18.4682768 L13.1359801,18.4682768 C14.2871989,18.462264 15.2189443,17.5400969 15.2250195,16.4007125 L15.2250195,16.3457241 C15.2189443,15.2063397 14.2871989,14.2841725 13.1359801,14.2781598 L11.1691718,14.2781598 L15.2250195,4.2482736 L26.2813713,31.5555186 C26.4563825,31.9701451 26.7402927,32.3308776 27.1036527,32.6002984 C27.4527252,32.851852 27.8719813,32.9901674 28.3037391,32.996215 C28.884917,33.0318123 29.4529157,32.8149792 29.8594067,32.4023402 C30.2413386,31.9766439 30.4406354,31.4204042 30.4150023,30.851667 C30.4290079,30.5812805 30.3835117,30.3111092 30.2816593,30.0598338 L30.2816593,30.0598338 Z" id="Path"></path>
                    </g>
                </g>
            </g>
        </g>
    </g>
</svg>