<?xml version="1.0" encoding="UTF-8"?>
<svg width="100px" height="100px" viewBox="0 0 100 100" version="1.1" xmlns="http://www.w3.org/2000/svg" xmlns:xlink="http://www.w3.org/1999/xlink">
    <title>mask</title>
    <g id="mask" stroke="none" stroke-width="1" fill="none" fill-rule="evenodd">
        <circle id="Oval" fill="#1C68F3" fill-rule="nonzero" cx="50" cy="50" r="50"></circle>
        <path d="M80,38.3333333 L80,55 L30,55 L30,55.0001667 L27.8487728,55.0002155 C30.1256395,65.1128715 39.1617238,72.6666667 49.9620913,72.6666667 C58.8911232,72.6666667 66.6142863,67.5037292 70.3091243,60.0003107 L70.3091243,60.0003107 L80,60.0001667 L80,74 C80,77.3137085 77.3137085,80 74,80 L26,80 C22.6862915,80 20,77.3137085 20,74 L20,38.3333333 L80,38.3333333 Z M64.5544155,60.0002783 C61.372456,64.6523828 56.0237933,67.7052672 49.9620913,67.7052672 C43.9003893,67.7052672 38.5517267,64.6523828 35.3697672,60.0002783 L35.3697672,60.0002783 L64.5544155,60.0002783 Z M37.1666667,42.3333333 C32.4646848,42.3333333 28.5747927,45.810303 27.9278438,50.3334238 L27.9278438,50.3334238 L33.0423037,50.3334238 C33.6046477,48.5925343 35.238606,47.3333333 37.1666667,47.3333333 C39.0947273,47.3333333 40.7286857,48.5925343 41.2910297,50.3334238 L41.2910297,50.3334238 L46.4054895,50.3334238 C45.7585407,45.810303 41.8686485,42.3333333 37.1666667,42.3333333 Z M62.8333333,42.3333333 C58.1313515,42.3333333 54.2414593,45.810303 53.5945105,50.3334238 L53.5945105,50.3334238 L58.7089703,50.3334238 C59.2713143,48.5925343 60.9052727,47.3333333 62.8333333,47.3333333 C64.761394,47.3333333 66.3953523,48.5925343 66.9576963,50.3334238 L66.9576963,50.3334238 L72.0721562,50.3334238 C71.4252073,45.810303 67.5353152,42.3333333 62.8333333,42.3333333 Z M74,20 C77.3137085,20 80,22.6862915 80,26 L80,33.3333333 L20,33.3333333 L20,26 C20,22.6862915 22.6862915,20 26,20 L74,20 Z" id="maskbook-icon--book--black" fill="#FFFFFF" fill-rule="nonzero"></path>
    </g>
</svg>