<svg width="60" height="60" viewBox="0 0 60 60" fill="none" xmlns="http://www.w3.org/2000/svg">
<g clip-path="url(#clip0_38_259)">
<path fill-rule="evenodd" clip-rule="evenodd" d="M47.4255 10.3852C45.6609 9.24011 44.4042 8.74414 44.4042 8.74414C44.4042 8.74414 45.2293 8.77713 46.4108 8.86267C46.8648 8.89553 47.3713 8.93614 47.9038 8.98561C48.3283 9.02503 48.7693 9.07009 49.2133 9.12133C48.432 8.5069 47.6562 7.95395 46.8882 7.45742C42.2341 4.44848 37.8622 3.51055 34.2199 3.51055C31.0055 3.51055 28.3611 4.23743 26.5925 4.9154C25.1672 5.46177 24.3107 5.97637 24.1826 6.05325L24.177 6.05661L26.0159 3.13336L26.1534 1.70302C26.6496 1.75074 27.0857 2.05224 27.3055 2.49966C27.3988 2.68932 27.4474 2.89371 27.4524 3.09841C29.2391 2.54496 31.5451 2.07362 34.2199 2.07362C38.775 2.07362 44.3237 3.44851 50.1016 7.99177C50.607 8.38919 50.7869 9.07394 50.542 9.66844C50.4141 9.97909 50.1865 10.2256 49.9072 10.3796C50.9478 11.1765 52.0645 12.152 53.1626 13.3263C57.1429 17.5829 60.8257 24.4033 59.8377 34.5794C59.7814 35.1595 59.3802 35.6481 58.8222 35.8163C58.5669 35.8933 58.3019 35.8962 58.0543 35.8334C57.732 40.1833 55.8355 47.3752 47.6716 53.5063C47.1822 53.8738 46.5137 53.8911 46.0061 53.5491C45.8004 53.4106 45.6395 53.2255 45.5311 53.015C45.449 53.0917 45.3653 53.1686 45.28 53.2457C42.9585 55.3471 39.4256 57.6433 34.6534 58.3069C34.5879 58.316 34.5218 58.3206 34.4556 58.3206H34.4084C33.8151 58.3206 33.2829 57.956 33.0686 57.4028C33.0333 57.3115 33.0077 57.2183 32.9918 57.1243C31.8142 57.3585 30.4291 57.519 28.8448 57.519C26.1787 57.519 22.9535 57.0655 19.1752 55.7407C18.4532 55.4875 18.0561 54.7129 18.2722 53.9787C18.4885 53.2447 19.242 52.8089 19.9861 52.9874C21.0559 53.2442 22.1221 53.3721 23.2341 53.3721C30.4656 53.3721 36.1306 47.9744 36.1306 41.5129C36.1306 38.3279 34.7797 35.4067 32.5049 33.2505C32.4986 33.2586 32.4923 33.2668 32.486 33.2748C31.9666 33.9459 31.3409 34.7572 30.8977 35.34C30.1807 36.3461 29.9292 36.9025 29.986 37.4064C30.2305 39.0455 29.7255 40.6575 28.7939 41.8375C28.782 41.8527 28.7696 41.8677 28.7571 41.8823C28.3884 42.3124 27.6876 42.9235 27.0633 43.4679C27.0348 43.4927 27.0065 43.5174 26.9782 43.542C26.3497 44.0905 25.7344 44.628 25.2874 45.0751C25.2757 45.0867 25.2638 45.0982 25.2517 45.1095C24.1384 46.1486 22.6854 46.2975 21.8196 46.2975C21.5798 46.2975 21.3641 46.2794 21.2181 46.267L21.2102 46.2664C21.2082 46.2663 21.2062 46.2661 21.2042 46.2658C21.061 46.2539 21.0069 46.2503 20.971 46.2503H20.8294C20.8057 46.2503 20.7877 46.2508 20.7745 46.2513C20.7477 46.2681 20.6998 46.3009 20.6225 46.3615C20.517 46.4443 20.3838 46.5574 20.199 46.7202C19.8454 47.0521 19.4219 47.1974 19.1387 47.2682C18.8101 47.3504 18.4649 47.3819 18.1419 47.3819C17.3029 47.3819 16.341 47.194 15.5504 46.9978C14.7372 46.7961 13.997 46.5578 13.5617 46.4042C13.5465 46.3988 13.5313 46.3932 13.5163 46.3873C13.102 46.2252 12.7919 45.9514 12.5804 45.7256C12.358 45.488 12.1651 45.2173 12.0003 44.9528C11.6708 44.4237 11.3774 43.7952 11.1346 43.196C10.666 42.0397 10.2748 40.7115 10.2063 40.0603C10.1608 39.6279 10.2662 39.218 10.3446 38.9616C10.4348 38.6666 10.5603 38.3588 10.691 38.0677C10.9484 37.4945 11.2864 36.8554 11.5774 36.305L11.5898 36.2816C11.7961 35.8915 11.9771 35.5489 12.1166 35.2624C12.1858 35.1203 12.2374 35.0069 12.273 34.9203C12.2977 34.86 12.3077 34.8296 12.31 34.8228C12.3889 34.4501 12.6346 32.624 12.8857 30.6576C13.1328 28.7216 13.3679 26.7934 13.4144 26.3987C13.4533 26.0676 13.4476 25.9068 13.4141 25.7539C13.3779 25.5881 13.2847 25.3279 13.0011 24.862C12.9984 24.8574 12.9957 24.853 12.993 24.8485C12.992 24.8468 12.991 24.8451 12.99 24.8433C12.3619 23.7757 12.3303 22.7259 12.5947 21.4415C9.38661 19.2131 1.23424 13.1923 0.729728 12.7795C0.726389 12.7768 0.723061 12.774 0.719746 12.7713C0.421242 12.5225 0.117627 12.1541 0.0255086 11.6474C-0.0201406 11.3964 -0.00349564 11.1596 0.0503357 10.9533C0.0765441 10.8528 0.110345 10.764 0.146135 10.6876C0.164026 10.6493 0.182472 10.6141 0.200838 10.5818C0.210026 10.5656 0.219215 10.5501 0.228332 10.5354C0.232891 10.528 0.237436 10.5208 0.241959 10.5137C0.244219 10.5102 0.246473 10.5068 0.248722 10.5033L0.25209 10.4982L0.253772 10.4957C0.254609 10.4944 0.25545 10.4931 1.45105 11.2902C1.45105 11.2902 1.35675 11.4316 1.63965 11.6674C1.66258 11.6862 1.70385 11.7184 1.76199 11.7629C1.77129 11.7701 1.78103 11.7775 1.7912 11.7853C1.93692 11.8966 2.17022 12.072 2.4732 12.2982C2.88212 12.6036 3.41797 13.0014 4.0368 13.4588C7.24636 15.8316 12.688 19.8096 14.2285 20.8143C13.757 22.5118 13.757 23.3133 14.2285 24.1148C14.8886 25.1993 14.9358 25.765 14.8414 26.5666C14.7472 27.3682 13.8985 34.2991 13.7099 35.1477C13.6338 35.4903 13.2657 36.1862 12.8601 36.9534C12.2607 38.0867 11.5791 39.3756 11.6353 39.9099C11.7296 40.8056 12.9555 44.6247 14.0399 45.0492C14.8414 45.332 16.8218 45.945 18.1419 45.945C18.6134 45.945 19.0377 45.8507 19.2264 45.662C20.0279 44.9548 20.2637 44.8134 20.8294 44.8134H20.971C21.0789 44.8134 21.1967 44.8233 21.3243 44.8339H21.3244C21.4757 44.8467 21.6407 44.8605 21.8196 44.8605C22.574 44.8605 23.564 44.7191 24.2713 44.059C24.7603 43.57 25.4168 42.9973 26.0337 42.4593C26.7253 41.8559 27.367 41.2961 27.6661 40.9472C28.3733 40.0513 28.7505 38.8254 28.562 37.5996C28.4204 36.468 29.0334 35.4778 29.7407 34.4877C30.6365 33.3089 32.2868 31.1872 32.2868 31.1872C32.4018 31.2739 32.5151 31.3621 32.6269 31.4519C32.8899 31.6629 33.1442 31.8824 33.3894 32.1102C35.9916 34.5268 37.5675 37.855 37.5675 41.5129C37.5675 47.8804 32.7618 53.1878 26.3319 54.4986C25.3343 54.7019 24.2979 54.809 23.2341 54.809C22.0081 54.809 20.8294 54.6676 19.6507 54.3847C20.9136 54.8275 22.1081 55.1676 23.2341 55.423C24.3532 55.6768 25.4048 55.8467 26.3886 55.9503C27.2604 56.0423 28.0792 56.0821 28.8448 56.0821C30.8798 56.0821 32.55 55.8 33.8375 55.4516C35.9209 54.8874 37.0017 54.149 37.0017 54.149C37.0017 54.149 36.7223 54.5082 36.2201 55.064C35.8081 55.52 35.2463 56.1083 34.5656 56.7391C34.5293 56.7728 34.4926 56.8066 34.4556 56.8405C34.4538 56.8421 34.4521 56.8438 34.4502 56.8454C34.4364 56.8582 34.4225 56.8708 34.4084 56.8836H34.4556C35.3509 56.7592 36.1996 56.5724 37.0017 56.3374C41.0961 55.1379 43.9811 52.68 45.6896 50.8147C46.9429 49.4464 47.5631 48.3967 47.5631 48.3967C47.5631 48.3967 47.4539 49.1771 47.2803 50.1451C47.2035 50.5733 47.1141 51.0382 47.0161 51.4885C46.9504 51.7897 46.881 52.0844 46.8087 52.3573C47.4457 51.8789 48.0423 51.394 48.6012 50.9046C55.5078 44.8551 56.6241 38.1227 56.6734 34.5915C56.6757 34.4295 56.6757 34.2742 56.674 34.1259C56.674 34.1252 56.6738 34.1245 56.6738 34.1238C56.6738 34.1238 56.6738 34.1236 56.6738 34.1235C56.6738 34.1235 56.6738 34.1233 56.6738 34.1232C56.6738 34.1229 56.6738 34.1228 56.6738 34.1225C56.6738 34.1217 56.6738 34.1209 56.6738 34.1202V34.12C56.6738 34.1199 56.6738 34.1197 56.6738 34.1196C56.6738 34.117 56.6738 34.1146 56.6737 34.1121C56.6737 34.112 56.6737 34.112 56.6737 34.1118C56.6603 33.0665 56.558 32.378 56.5286 32.1794L56.5248 32.1542C56.5234 32.1438 56.5222 32.1359 56.5215 32.1302C56.5251 32.1358 56.5304 32.1431 56.5373 32.1523C56.5424 32.1592 56.5483 32.1669 56.5549 32.1756C56.6365 32.2822 56.8372 32.5286 57.0864 32.8322C57.2298 33.0068 57.3892 33.2004 57.5511 33.397L57.5512 33.3971L57.5514 33.3972L57.5515 33.3974L57.5532 33.3995C57.7422 33.6289 57.9345 33.8624 58.1089 34.0751C58.217 34.2068 58.3183 34.3307 58.4075 34.4405C58.4686 33.8115 58.511 33.1964 58.536 32.5949C58.536 32.5947 58.536 32.5946 58.536 32.5946C58.536 32.593 58.5361 32.5916 58.5361 32.59C58.5361 32.5893 58.5361 32.5884 58.5363 32.5875C58.5363 32.5872 58.5363 32.5868 58.5363 32.5865C58.5363 32.5864 58.5363 32.5864 58.5363 32.5862C58.5363 32.586 58.5363 32.5858 58.5363 32.5855C58.5363 32.5849 58.5364 32.5844 58.5364 32.5838C58.5364 32.5832 58.5364 32.5826 58.5364 32.5821C58.5364 32.5821 58.5364 32.5819 58.5364 32.5818C58.5397 32.5022 58.5427 32.4229 58.5453 32.3438C58.9682 19.7536 51.7039 13.1615 47.4255 10.3852ZM15.2487 7.78128C15.2824 7.89497 15.3176 8.01179 15.354 8.13074C15.5628 8.81311 15.8115 9.56611 16.0674 10.2058C16.3072 9.48607 16.5879 8.839 16.8997 8.25729C18.9202 4.48814 22.2487 3.46269 24.2759 3.20082C25.3178 3.06623 26.0159 3.13336 26.0159 3.13336C26.1534 1.70302 26.1527 1.70295 26.1518 1.70286L26.1501 1.70271L26.1459 1.70232L26.1359 1.70141C26.1317 1.70105 26.1271 1.70067 26.1219 1.70023C26.1175 1.69986 26.1126 1.69947 26.1074 1.69906C26.0849 1.69729 26.0553 1.69516 26.0189 1.69298C25.9465 1.68861 25.847 1.684 25.7236 1.68153C25.4773 1.67657 25.1336 1.68009 24.7176 1.71157C23.8891 1.77428 22.7526 1.94948 21.518 2.40361C19.7606 3.05007 17.8419 4.2522 16.3495 6.40492C16.3268 6.32232 16.3061 6.24636 16.2877 6.17813C16.2549 6.05634 16.2292 5.95949 16.2121 5.89369C16.2035 5.8608 16.1969 5.8357 16.1927 5.81916L16.188 5.80087L16.1867 5.796C16.0633 5.31186 15.6971 4.92649 15.2201 4.77849C14.7427 4.63046 14.2229 4.74099 13.8472 5.07034L14.7943 6.15092C13.8472 5.07034 13.8466 5.07085 13.846 5.07137L13.8447 5.07246L13.842 5.0749L13.8354 5.08073C13.8305 5.08506 13.8248 5.09025 13.8181 5.09628C13.8048 5.10837 13.7879 5.12387 13.7678 5.14278C13.7276 5.18057 13.6743 5.23204 13.6103 5.29695C13.4825 5.4266 13.3113 5.61078 13.1164 5.84744C12.7278 6.31926 12.2372 7.00949 11.8118 7.90161C11.2037 9.17658 10.737 10.8512 10.8763 12.8472C9.2954 12.2767 7.65783 11.6918 6.24521 11.1911C5.17105 10.8105 4.22491 10.4778 3.53136 10.237C3.18507 10.1168 2.89876 10.0184 2.68989 9.94804C2.58607 9.91308 2.49676 9.88348 2.42692 9.86109C2.42503 9.86049 2.42266 9.85973 2.41982 9.85881C2.38211 9.84661 2.26259 9.80794 2.1572 9.78688C2.13114 9.78166 2.10493 9.77716 2.0786 9.77341C1.68928 9.71779 1.2993 9.75611 0.944851 9.91723C0.772823 9.99542 0.629279 10.0938 0.512805 10.198C0.455217 10.2495 0.405504 10.3013 0.362869 10.3513C0.341568 10.3762 0.322049 10.4007 0.304196 10.4244C0.295269 10.4363 0.286753 10.4479 0.278636 10.4594C0.274577 10.4651 0.270618 10.4708 0.266754 10.4764L0.261031 10.4848L0.258225 10.489L0.256834 10.4911C0.256142 10.4921 0.255451 10.4931 1.45105 11.2902C1.45105 11.2902 1.54534 11.1487 1.87539 11.1959C1.89074 11.199 1.93166 11.2112 1.99595 11.2319C1.99767 11.2325 1.99941 11.233 2.00115 11.2336C2.16051 11.2849 2.45769 11.386 2.86137 11.5256C3.34522 11.693 3.98202 11.9159 4.71776 12.1753C6.52097 12.811 8.91839 13.6661 11.1144 14.4612C11.6834 14.6671 12.2388 14.8691 12.7669 15.0621C12.5796 14.4805 12.4536 13.923 12.3781 13.391C12.0035 10.7493 12.8757 8.73689 13.6748 7.51218C14.2537 6.62476 14.7943 6.15092 14.7943 6.15092C14.7943 6.15092 14.9762 6.86466 15.2487 7.78128ZM1.50063 12.5825C1.50058 12.5825 1.50159 12.5828 1.50373 12.5834C1.50175 12.5829 1.50067 12.5826 1.50063 12.5825Z" fill="white"/>
<path d="M26.3459 39.7687C26.2006 39.9502 25.6918 40.4116 25.207 40.8509C25.0624 40.9821 24.9199 41.1111 24.79 41.2304C24.5934 41.4106 24.3911 41.5908 24.1911 41.7689L24.1909 41.7691C23.8152 42.1037 23.4473 42.4315 23.1397 42.7391C22.9511 42.9277 22.5739 43.0219 22.0081 43.0219H20.5936C20.8772 42.644 21.3804 42.069 21.9273 41.4851C22.2288 41.2061 22.5333 40.9392 22.8096 40.7116C23.2931 40.3116 23.7765 40.0412 24.1995 39.8045C24.9729 39.372 25.5444 39.0523 25.5444 38.2598C25.5741 36.653 24.496 36.3419 23.6963 36.3311C23.9349 36.2758 24.2036 36.2324 24.4599 36.2324C23.564 35.9968 22.4324 36.2324 21.9138 36.7512C21.5366 37.0969 21.4528 38.0295 21.3689 38.9619C21.3271 39.4282 21.2852 39.8945 21.2066 40.2873C20.9955 41.3851 20.3306 41.9914 19.3135 42.9188L19.3121 42.9201L19.3091 42.9228C19.1918 43.0298 19.0698 43.1411 18.9434 43.2577C18.9138 43.2853 18.8845 43.3119 18.8556 43.3378L15.7373 42.6447C15.7373 42.6447 17.8118 41.5603 18.1419 40.3344C18.4374 39.2787 17.674 36.0292 17.4776 35.1932C17.4547 35.0958 17.4395 35.0312 17.4346 35.0066C17.4375 35.0095 17.4438 35.0152 17.4531 35.0238C17.596 35.1544 18.451 35.9366 18.8491 37.1755C19.6035 35.1008 20.5936 33.1206 20.8765 32.9319C21.1196 32.77 23.9731 31.2504 24.7719 30.8257C24.4227 31.7735 24.0882 32.7119 23.8469 33.4035C22.9983 33.6393 22.1496 34.1108 21.5366 35.0537C21.8667 34.8181 22.904 34.6765 23.6584 34.5823C24.3184 34.5351 26.3459 35.6196 26.8645 37.6469V37.7412C26.9587 38.4956 26.7231 39.2029 26.3459 39.7687Z" fill="white" fill-opacity="0.7"/>
<path d="M24.7451 33.3069C25.7126 33.2187 26.5143 33.4135 26.7232 33.497C28.562 30.008 30.0237 28.122 30.4009 28.122C30.4408 28.117 30.5272 28.12 30.6518 28.1243C31.6989 28.1602 35.4425 28.2891 37.0017 24.5386C38.6737 20.4517 36.3199 16.9594 36.1588 16.7205L36.1531 16.7119C38.1333 23.2185 33.7484 26.8489 30.7779 26.896C29.1278 26.896 26.9117 27.9805 26.9117 27.9805L24.7451 33.3069Z" fill="white" fill-opacity="0.7"/>
<path d="M36.1523 16.7119C36.1539 16.7126 36.1564 16.7138 36.1597 16.7155C36.3634 16.8144 39.8859 18.5232 40.9015 23.8262C43.2445 26.5605 44.7133 29.9754 45.1106 33.5913C45.1106 33.8271 45.4407 34.1571 45.7707 34.4399C46.1951 34.8643 46.6194 35.2887 46.6194 35.7131C46.6194 36.8446 46.5251 37.9762 46.3366 39.0607C46.2531 39.3945 45.8741 39.6175 45.4611 39.8606L45.4213 39.884C45.4052 39.8935 45.3892 39.903 45.3731 39.9125C45.3486 39.927 45.3239 39.9417 45.2993 39.9565C45.2352 39.9991 45.1638 40.0444 45.0912 40.0902L45.0911 40.0904C44.8433 40.2471 44.5814 40.4128 44.5449 40.5222C43.5849 43.9257 41.5752 46.9657 38.8891 49.2685C43.3231 46.7734 46.6662 42.5787 48.0468 37.5903C48.5049 35.625 48.5831 33.5661 48.2226 31.4695C46.5251 21.8511 36.7181 16.9477 36.1523 16.7119Z" fill="white" fill-opacity="0.7"/>
<path d="M24.8232 17.1866C25.6939 17.2306 27.5561 17.1415 29.3173 15.8638C29.4961 16.2815 29.6736 16.7021 29.8445 17.113C27.6784 17.6941 25.7363 17.3947 24.8232 17.1866Z" fill="white" fill-opacity="0.7"/>
<path d="M31.324 16.5788C32.4972 16.0388 33.6827 15.1936 34.7623 13.901C33.7188 13.6022 32.6393 13.3893 31.532 13.2705C31.2021 13.7891 30.8721 14.2606 30.542 14.6378C30.7373 15.1195 31.0188 15.8167 31.324 16.5788Z" fill="white" fill-opacity="0.7"/>
<path d="M40.7261 31.3289C41.1975 28.9243 41.2447 26.8498 41.1033 25.1523C42.9421 27.6042 44.0737 30.5745 44.4038 33.6393C44.4509 34.0165 44.8281 34.3937 45.2053 34.7709C45.5354 35.0537 45.9125 35.4309 45.9125 35.6667C45.9125 36.7511 45.8181 37.8356 45.6296 38.92C45.5849 39.0541 45.2013 39.2728 44.8804 39.4559L44.8281 39.4857C44.3565 39.7215 43.9322 39.9572 43.8379 40.3344C42.8006 43.965 40.5845 47.171 37.6143 49.4342C41.9991 44.8607 44.1208 37.3168 40.7261 31.3289Z" fill="white" fill-opacity="0.7"/>
<path fill-rule="evenodd" clip-rule="evenodd" d="M19.8399 13.4115C19.8399 13.4115 18.9913 7.32928 23.2347 4.7832C23.2197 4.78961 23.1908 4.80047 23.1497 4.81595C22.282 5.14215 15.9691 7.51513 19.8399 13.4115ZM28.987 7.84798C32.2402 6.6221 36.7666 5.96201 43.7919 7.28219C40.68 5.72626 37.4267 4.92473 34.1733 4.87757C32.9475 4.87757 31.8159 4.97187 30.7786 5.16047C27.101 5.82055 24.0835 8.46092 23.0461 11.9971C23.0461 11.9971 23.8005 10.8184 25.5922 9.5925L25.667 9.49101C26.329 8.59237 27.3262 7.23859 28.2797 6.10346C28.5625 6.7164 28.8926 7.47078 28.987 7.84798ZM45.3006 15.6747C51.9486 20.0595 54.9662 24.9159 57.0879 30.6209C56.9937 24.5858 54.9662 19.3995 51.0528 15.2504L50.9586 15.1559C47.5167 11.5255 42.4716 9.82813 37.4738 10.5354C35.5878 10.7711 33.7019 11.1483 32.2402 11.6198C32.0046 11.667 31.7688 11.7141 31.533 11.8084H31.6274C32.0046 11.7613 38.8883 11.4312 45.3006 15.6747ZM51.43 45.6616C50.7228 46.6047 49.9212 47.5948 48.9783 48.5378C55.0606 36.8447 49.2611 26.1419 49.0255 25.7175C49.4498 26.1419 49.8741 26.6133 50.2513 27.0377C54.919 32.2241 55.4849 40.0037 51.43 45.6616ZM14.2175 9.40181C14.0386 10.0848 12.4491 16.1515 17.8125 16.3348C14.6065 14.4017 14.2292 9.40391 14.2292 9.35676L14.2266 9.36702L14.2235 9.37903L14.2175 9.40181ZM23.5647 22.04L21.113 26.2363C21.113 26.2363 23.3762 25.199 24.272 23.8787C24.9793 22.7471 23.5647 22.04 23.5647 22.04ZM21.9281 41.4844C22.2295 41.2054 22.534 40.9385 22.8103 40.7109C23.2937 40.3109 23.7773 40.0405 24.2003 39.8038C24.9736 39.3713 25.545 39.0516 25.545 38.2592C25.5747 36.6525 24.4966 36.3414 23.6971 36.3304C23.7094 36.3276 23.7218 36.3248 23.7341 36.322C23.297 36.4197 22.9517 36.5619 22.9517 36.5619C22.9517 36.5619 24.3191 36.3261 24.8377 37.3163C25.3564 38.3064 24.9321 38.8722 24.0835 39.438C23.6597 39.7205 22.7453 40.6122 21.9281 41.4844ZM26.3938 26.9434C26.1762 27.1298 25.4471 28.9946 24.7726 30.8251C23.9738 31.2497 21.1204 32.7693 20.8772 32.9314C20.5943 33.1199 19.6043 35.1001 18.8499 37.1748C18.4516 35.9359 17.5967 35.1537 17.4539 35.0231C17.4445 35.0145 17.4382 35.0088 17.4354 35.0059C17.4402 35.0305 17.4555 35.0951 17.4783 35.1925C17.6747 36.0285 18.4382 39.278 18.1426 40.3337C17.8125 41.5596 15.7379 42.644 15.7379 42.644L18.8563 43.3371C18.2419 43.8866 17.7956 44.0586 17.4354 44.0586C16.6338 43.9172 15.6908 43.6814 15.0306 43.4457C14.5592 42.8327 13.852 40.8053 13.6634 39.9567C13.7652 39.6174 14.0866 39.0096 14.3643 38.4846H14.3644L14.3645 38.4844L14.3646 38.4841L14.3648 38.4837C14.4728 38.2794 14.5743 38.0877 14.6535 37.9292L14.7321 37.7786C15.2499 36.787 15.5538 36.2051 15.6436 35.666C15.8323 34.8645 16.4452 29.9138 16.681 27.8392C17.2938 28.6408 18.1426 29.961 17.9539 30.8096C19.3213 28.8765 18.3311 26.9905 17.8597 26.2361C17.4354 25.4817 16.8695 23.973 17.3411 22.3699C17.8125 20.7669 19.5099 16.3348 19.5099 16.3348C19.5099 16.3348 20.0757 17.325 20.8772 17.1363C21.6788 16.9478 28.1382 7.23497 28.1382 7.23497C28.1382 7.23497 29.8828 11.0541 28.0439 13.8359C26.158 16.6177 24.3191 17.1363 24.3191 17.1363C24.3191 17.1363 24.5049 17.1701 24.8229 17.1862C25.7361 17.3941 27.6782 17.6936 29.8443 17.1125C30.6188 18.9752 31.2586 20.6378 31.2973 20.9083C31.2733 20.964 31.1997 21.1393 31.093 21.3935L31.0925 21.395L31.0923 21.3954L31.0921 21.3958L31.092 21.3963C30.5655 22.6501 29.2379 25.8125 29.0813 26.0476C28.9869 26.1419 28.3269 26.3304 27.8554 26.4248C27.0538 26.6605 26.5823 26.802 26.3938 26.9434ZM27.6667 10.0639C27.6667 10.0639 28.0911 11.9498 27.0066 13.2229C25.6394 14.7788 24.4607 14.7316 24.5078 14.7316L27.6667 10.0639ZM16.7752 36.8449L16.398 38.7308C16.398 38.7308 17.1524 38.6364 17.1524 39.4852C17.1524 40.1452 16.398 41.0411 15.7852 41.0883C15.1722 41.1354 14.9364 40.381 15.0779 39.9567C15.2193 39.5795 16.7752 36.8449 16.7752 36.8449ZM23.9891 21.0968C25.6394 21.4269 26.1108 23.36 25.2151 24.3973C24.3191 25.3875 22.056 26.802 20.7358 27.1319C20.4529 28.2164 18.0483 27.7449 18.9441 24.303C18.9441 24.303 19.3685 25.9532 19.7928 25.8118C20.2171 25.6704 25.0264 18.1265 25.0264 18.1265C25.0264 18.1265 24.4134 20.1068 23.9891 21.0968ZM22.316 38.6498C22.2905 39.1063 22.2485 39.8515 21.9146 40.3339C21.9473 40.301 22.0489 40.1938 22.1811 40.054L22.1814 40.0538C22.4288 39.7925 22.7839 39.4173 22.999 39.2023C23.1457 39.0701 23.3108 38.9653 23.4686 38.8653C23.8175 38.644 24.1306 38.4456 24.1306 38.0234C24.1306 37.3635 23.2347 37.2219 22.8575 37.3163C22.4803 37.4106 22.386 38.0234 22.3389 38.3535C22.3288 38.4239 22.3231 38.5262 22.316 38.6498ZM44.2162 40.4753C43.1789 44.2001 40.8214 47.5006 37.7567 49.858C38.1418 49.6738 38.5199 49.4772 38.8905 49.2687C41.5764 46.9658 43.5862 43.9258 44.5463 40.5224C44.5826 40.4131 44.8446 40.2472 45.0923 40.0905L45.0926 40.0903C45.1651 40.0445 45.2366 39.9992 45.3006 39.9565C45.315 39.9479 45.3295 39.9393 45.344 39.9307L45.3745 39.9126C45.3906 39.9031 45.4065 39.8936 45.4226 39.8841L45.4624 39.8607C45.8754 39.6177 46.2545 39.3946 46.3378 39.0608C46.5265 37.9763 46.6208 36.8447 46.6208 35.7131C46.6208 35.2888 46.1964 34.8645 45.7721 34.4402C45.442 34.1572 45.112 33.8272 45.112 33.5914C44.7147 29.9756 43.2458 26.5606 40.9029 23.8264C40.924 23.9366 40.944 24.0483 40.9628 24.1616C43.0846 26.8491 44.4518 30.1023 44.829 33.5444C44.829 33.7205 45.0398 33.9494 45.2447 34.172C45.314 34.2472 45.3825 34.3216 45.442 34.393C45.8664 34.8174 46.2907 35.2417 46.2907 35.666C46.2907 36.7976 46.1964 37.9292 46.0079 39.0136C45.9135 39.3908 45.442 39.6738 44.9706 39.9094C44.9068 39.9519 44.8358 39.9969 44.7637 40.0426L44.7625 40.0433L44.7622 40.0435C44.5146 40.2001 44.2527 40.3659 44.2162 40.4753ZM36.1537 16.712L36.154 16.7121C36.7233 16.9497 46.5268 21.8532 48.2238 31.4697C48.5845 33.5662 48.5063 35.6251 48.0482 37.5902C48.5008 35.9548 48.7425 34.2341 48.7425 32.4599C48.7425 23.6511 42.828 16.2099 34.763 13.9006C33.6835 15.1932 32.4981 16.0384 31.3249 16.5784C32.1253 18.5766 33.0889 21.0205 33.0889 21.1912C33.0889 21.4741 32.1931 23.7844 32.0988 23.8787C32.0044 23.9258 30.9201 24.0201 30.4956 24.0201C30.0242 25.1517 29.5527 26.2361 29.4585 26.3777C29.3169 26.5662 28.8926 26.7076 27.9968 26.9434C27.901 26.9721 27.7955 27.0029 27.6873 27.0342C27.2633 27.1576 26.7988 27.2926 26.7237 27.3677C26.488 27.6507 25.2149 30.9983 24.3663 33.3557C24.4949 33.3343 24.6216 33.3183 24.7457 33.307L26.9124 27.9806C26.9124 27.9806 29.1284 26.8963 30.7786 26.8963C33.749 26.849 38.1338 23.2186 36.1537 16.712ZM16.4924 19.3052C16.8224 18.6922 16.5396 18.2679 16.2566 18.0321L16.1624 17.9378C15.5965 17.6549 12.0603 16.3348 8.57129 15.109C11.636 17.1363 15.0308 19.1166 15.5965 19.3995C16.0208 19.5882 16.3038 19.6353 16.4924 19.3052Z" fill="white"/>
</g>
<defs>
<clipPath id="clip0_38_259">
<rect width="60" height="60" fill="white"/>
</clipPath>
</defs>
</svg>
