<svg width="60" height="60" viewBox="0 0 60 60" fill="none" xmlns="http://www.w3.org/2000/svg">
<g clip-path="url(#clip0_38_24)">
<path d="M46.6102 57.5381C46.059 57.537 45.5307 57.3161 45.141 56.9239C44.7511 56.5316 44.5316 56 44.5304 55.4453V49.3488C44.5304 48.7938 44.3113 48.2615 43.9213 47.869C43.5313 47.4766 43.0022 47.256 42.4506 47.256C41.8991 47.256 41.3701 47.4766 40.9801 47.869C40.59 48.2615 40.371 48.7938 40.371 49.3488V52.2428C40.371 52.7979 40.1518 53.3303 39.7617 53.7227C39.3717 54.1152 38.8428 54.3357 38.2912 54.3357C37.7396 54.3357 37.2105 54.1152 36.8205 53.7227C36.4305 53.3303 36.2114 52.7979 36.2114 52.2428V49.3488C36.2114 48.7938 35.9923 48.2615 35.6023 47.869C35.2122 47.4766 34.6832 47.256 34.1316 47.256C33.58 47.256 33.051 47.4766 32.6609 47.869C32.2709 48.2615 32.0518 48.7938 32.0518 49.3488V50.1364C32.0518 50.6919 31.8326 51.2246 31.4422 51.6174C31.0519 52.0102 30.5224 52.2309 29.9705 52.2309C29.4184 52.2309 28.8891 52.0102 28.4988 51.6174C28.1084 51.2246 27.8892 50.6919 27.8892 50.1364V49.3488C27.8892 48.7938 27.67 48.2615 27.2799 47.869C26.89 47.4766 26.361 47.256 25.8094 47.256C25.2578 47.256 24.7288 47.4766 24.3387 47.869C23.9487 48.2615 23.7296 48.7938 23.7296 49.3488V52.2428C23.7296 52.7979 23.5105 53.3303 23.1205 53.7227C22.7304 54.1152 22.2014 54.3357 21.6498 54.3357C21.0982 54.3357 20.5692 54.1152 20.1792 53.7227C19.7892 53.3303 19.5701 52.7979 19.5701 52.2428V49.3488C19.5701 48.7938 19.3509 48.2615 18.9609 47.869C18.5709 47.4766 18.0419 47.256 17.4903 47.256C16.9387 47.256 16.4097 47.4766 16.0197 47.869C15.6296 48.2615 15.4105 48.7938 15.4105 49.3488V55.4453C15.4105 56.0003 15.1914 56.5327 14.8014 56.9252C14.4113 57.3176 13.8823 57.5381 13.3307 57.5381C12.7792 57.5381 12.2502 57.3176 11.8601 56.9252C11.4701 56.5327 11.251 56.0003 11.251 55.4453V20.8907C11.3513 16.6023 12.9004 12.4763 15.6429 9.19239C18.3855 5.9085 22.1579 3.66266 26.3386 2.8249C30.5193 1.98714 34.8588 2.60744 38.6424 4.58359C42.4258 6.55973 45.4275 9.77384 47.1528 13.6964C48.1521 15.9647 48.6946 18.41 48.7487 20.8907C48.7522 20.9163 48.7484 20.9426 48.7376 20.9663C48.7268 20.9898 48.7095 21.0099 48.6877 21.0239V55.4439C48.6872 55.9986 48.4683 56.5305 48.0789 56.9229C47.6895 57.3155 47.1613 57.5367 46.6102 57.5381ZM27.8661 26.3821C27.3379 26.3821 27.1237 26.5876 27.1237 27.0958C27.1237 28.3311 28.48 29.3356 30.1498 29.3356C31.8194 29.3356 33.1713 28.3311 33.1713 27.0958C33.1713 26.5885 32.9569 26.3829 32.4303 26.3829C32.1485 26.393 31.8677 26.4217 31.5898 26.4689L31.5635 26.4735C31.0962 26.5506 30.6238 26.5939 30.1503 26.6031C29.6754 26.5939 29.2019 26.5507 28.7333 26.4735C28.4466 26.423 28.1568 26.3925 27.8661 26.3821ZM36.9194 16.2131C35.0783 16.2131 33.5818 17.938 33.5818 20.059C33.5818 22.1799 35.0783 23.9016 36.9194 23.9016C38.7604 23.9016 40.2516 22.1777 40.2516 20.059C40.2516 17.9402 38.7572 16.2131 36.9194 16.2131ZM23.0822 16.2131C21.2456 16.2131 19.75 17.938 19.75 20.059C19.75 22.1799 21.2456 23.9016 23.0822 23.9016C24.9187 23.9016 26.4152 22.1777 26.4152 20.059C26.4152 17.9402 24.9201 16.2131 23.0822 16.2131Z" fill="white"/>
</g>
<defs>
<clipPath id="clip0_38_24">
<rect width="37.499" height="55.0767" fill="white" transform="translate(11.251 2.46143)"/>
</clipPath>
</defs>
</svg>
