<svg width="60" height="60" fill="none" xmlns="http://www.w3.org/2000/svg"><g clip-path="url(#a)"><path d="M47.275 58.64a2.16 2.16 0 0 1-1.528-.64 2.188 2.188 0 0 1-.635-1.537v-6.34c0-.577-.228-1.131-.634-1.54a2.156 2.156 0 0 0-3.059 0 2.183 2.183 0 0 0-.633 1.54v3.01c0 .577-.228 1.13-.634 1.539a2.156 2.156 0 0 1-3.059 0 2.184 2.184 0 0 1-.633-1.54v-3.01c0-.576-.228-1.13-.634-1.538a2.156 2.156 0 0 0-3.059 0 2.183 2.183 0 0 0-.633 1.539v.819c0 .578-.228 1.132-.634 1.54a2.158 2.158 0 0 1-3.061 0 2.185 2.185 0 0 1-.634-1.54v-.82c0-.576-.228-1.13-.634-1.538a2.156 2.156 0 0 0-3.059 0 2.183 2.183 0 0 0-.633 1.539v3.01c0 .577-.228 1.13-.634 1.539a2.156 2.156 0 0 1-3.059 0 2.184 2.184 0 0 1-.633-1.54v-3.01c0-.576-.228-1.13-.634-1.538a2.156 2.156 0 0 0-3.059 0 2.183 2.183 0 0 0-.633 1.539v6.34c0 .577-.228 1.131-.634 1.54a2.156 2.156 0 0 1-3.059 0 2.183 2.183 0 0 1-.633-1.54V20.526A19.7 19.7 0 0 1 15.069 8.36a19.483 19.483 0 0 1 11.123-6.622 19.398 19.398 0 0 1 12.796 1.829 19.58 19.58 0 0 1 8.85 9.477 19.622 19.622 0 0 1 1.66 7.482.143.143 0 0 1-.063.139v35.797c0 .576-.228 1.13-.633 1.538a2.16 2.16 0 0 1-1.527.64ZM27.78 26.237c-.55 0-.772.214-.772.743 0 1.284 1.41 2.329 3.147 2.329 1.736 0 3.142-1.045 3.142-2.33 0-.527-.223-.74-.77-.74a6.64 6.64 0 0 0-.875.089l-.027.004c-.486.08-.977.126-1.47.135a10.28 10.28 0 0 1-1.473-.135 6.563 6.563 0 0 0-.902-.095Zm9.415-10.575c-1.915 0-3.471 1.793-3.471 4 0 2.205 1.556 3.996 3.471 3.996s3.466-1.793 3.466-3.997c0-2.203-1.554-4-3.466-4Zm-14.39 0c-1.91 0-3.466 1.793-3.466 4 0 2.205 1.555 3.996 3.465 3.996s3.467-1.793 3.467-3.997c0-2.203-1.555-4-3.467-4Z" fill="#fff"/></g><defs><clipPath id="a"><path fill="#fff" d="M10.501 1.36H49.5v57.28H10.501z"/></clipPath></defs></svg>