<svg width="60" height="60" viewBox="0 0 60 60" fill="none" xmlns="http://www.w3.org/2000/svg">
<g clip-path="url(#clip0_38_14)">
<path d="M50.052 27.5708C49.5452 27.4625 49.0171 27.3579 48.469 27.2578C48.3125 25.9968 48.0388 24.774 47.6595 23.6018C54.7832 24.7483 59.3895 26.5711 59.3895 28.624C59.3895 28.647 59.3889 28.6698 59.3878 28.6927C59.2179 32.1312 46.1254 34.9073 29.9994 34.9073C13.7677 34.9073 0.609375 32.0946 0.609375 28.6249C0.609375 28.6036 0.609865 28.5822 0.61086 28.5609C0.705229 26.51 5.39731 24.6941 12.5895 23.562C12.2079 24.7329 11.9318 25.9541 11.7726 27.2139C11.1373 27.3275 10.5282 27.4466 9.94686 27.5708C9.18532 27.7336 8.48836 27.9018 7.85615 28.0723V28.0732C7.18171 28.2552 6.58093 28.4401 6.05382 28.6244C7.07502 28.9816 8.37283 29.3408 9.94686 29.6773C10.4802 29.7913 11.0367 29.9009 11.6155 30.0059V30.0069C16.4793 30.8893 22.8979 31.4411 29.9994 31.4411C37.2172 31.4411 43.7297 30.8711 48.6211 29.9632V29.9623C49.1149 29.8706 49.5922 29.7756 50.052 29.6773C51.6267 29.3407 52.9249 28.9813 53.9464 28.624C52.9249 28.2669 51.6267 27.9075 50.052 27.5708Z" fill="white"/>
<path d="M52.1428 17.788C52.1436 17.7718 52.1439 17.7554 52.1439 17.7391C52.1439 15.8866 47.224 14.2821 40.0487 13.5C41.7564 14.6317 43.2735 16.0468 44.5391 17.6817C44.632 17.7006 44.7241 17.7198 44.8154 17.7391C44.7491 17.753 44.6824 17.7669 44.6152 17.7807L44.6158 17.7815C40.9599 18.5332 35.8586 19.0204 30.1349 19.0204C24.3972 19.0204 19.2849 18.5308 15.6272 17.7759L15.6278 17.7752C15.5697 17.7632 15.512 17.7511 15.4546 17.7391C15.5337 17.7222 15.6134 17.7057 15.694 17.6893C16.9591 16.0533 18.4762 14.6369 20.1839 13.504C13.0288 14.2876 8.12602 15.8898 8.12602 17.7391V17.7397L8.12598 17.7398C8.12598 20.0538 18.7814 21.893 25.9633 22.4015C27.5703 22.5152 30.0867 22.5232 30.0867 22.5232C30.9748 22.5618 32.5925 22.5165 34.193 22.4061C41.4139 21.9082 52.0368 20.0892 52.1428 17.788Z" fill="white"/>
<path d="M8.12598 41.7522C8.12598 40.542 10.2261 39.4376 13.6833 38.599C14.235 39.7053 14.8868 40.7486 15.6261 41.7164C15.5685 41.7283 15.5115 41.7402 15.4545 41.7522C15.5329 41.7687 15.6119 41.7852 15.6916 41.8015C15.6968 41.8082 15.702 41.8149 15.7072 41.8217H15.7861C19.4323 42.558 24.4799 43.0337 30.1348 43.0337C35.79 43.0337 40.8376 42.558 44.4838 41.8217H44.5315C44.5347 41.8175 44.538 41.8133 44.5412 41.8091C44.6335 41.7903 44.7249 41.7713 44.8153 41.7522C44.7497 41.7384 44.6834 41.7245 44.6168 41.7108C45.356 40.7428 46.0075 39.6989 46.5587 38.5923C50.0325 39.4316 52.1439 40.5388 52.1439 41.7522C52.1439 41.7754 52.1431 41.7986 52.1416 41.8217C51.9718 44.4115 42.184 46.4999 30.1348 46.4999C18.0857 46.4999 8.29806 44.4115 8.12818 41.8217C8.12665 41.7986 8.12598 41.7754 8.12598 41.7522Z" fill="white"/>
</g>
<defs>
<clipPath id="clip0_38_14">
<rect width="60" height="60" fill="white"/>
</clipPath>
</defs>
</svg>
