<svg width="60" height="60" viewBox="0 0 60 60" fill="none" xmlns="http://www.w3.org/2000/svg">
<path d="M40.7184 34.2031C47.879 35.5245 52.7494 38.1256 52.7494 41.1192C52.7494 45.4512 42.563 48.9585 29.9992 48.9585C17.4354 48.9585 7.24902 45.4493 7.24902 41.1192C7.24902 38.1256 12.1214 35.5245 19.2801 34.2031C22.3912 35.0107 26.0653 35.4752 29.9992 35.4752C33.9331 35.4752 37.6073 35.0107 40.7184 34.205V34.2031ZM37.977 21.5066C44.0588 22.519 48.2487 24.648 48.2487 27.1145C48.2487 30.5555 40.0776 33.3462 29.9992 33.3462C19.9209 33.3462 11.7498 30.5555 11.7498 27.1145C11.7498 24.6499 15.9396 22.519 22.0215 21.5066C24.3591 22.1 27.0853 22.4394 29.9992 22.4394C32.9131 22.4394 35.6394 22.0981 37.977 21.5066ZM30.0826 11.0415C37.63 11.0415 43.7498 13.1535 43.7498 15.7603C43.7498 18.3652 37.63 20.4771 30.0826 20.4771C22.5353 20.4771 16.4155 18.3652 16.4155 15.7603C16.4155 13.1535 22.5353 11.0415 30.0826 11.0415Z" fill="white"/>
</svg>
