<svg width="120" height="120" viewBox="0 0 120 120" fill="none" xmlns="http://www.w3.org/2000/svg">
<path d="M81.3915 13.0587C80.7055 13.534 80.0232 14.015 79.341 14.4829C79.0856 14.6581 78.7146 14.8073 79.0557 15.1726C79.3559 15.4933 79.3223 16.265 80.027 16.0637C86.0425 14.3449 90.5593 16.9734 94.3491 21.2311C98.4334 25.815 101.041 31.2825 102.948 37.0762C104.291 41.1493 106.322 44.8664 108.541 48.4996C111.624 53.5682 115.007 58.4317 118.551 63.1871C118.663 63.3362 118.756 63.4966 118.862 63.6513C118.969 63.806 119.071 63.9943 118.935 64.1583C118.749 64.3727 118.622 64.1099 118.465 64.0651C115.16 63.133 111.857 62.201 108.399 61.2223C109.421 65.5695 110.409 69.7694 111.46 74.2414L103.317 66.6768L103.112 66.7532C103.765 71.421 104.418 76.0875 105.072 80.7528L104.908 80.8498L96.7986 70.9866C95.6689 75.811 94.584 80.4415 93.4431 85.279L88.0726 76.6648C87.1405 80.3558 86.2588 83.8846 85.3733 87.4171C84.9371 87.3146 85.0005 86.9567 84.9501 86.7255C82.5585 76.4616 79.8666 66.2685 77.6539 55.9673C76.8747 52.3304 76.1514 48.6823 75.3834 45.0435C75.0226 43.404 74.4347 41.8228 73.6367 40.3459C72.0783 37.3856 69.3492 36.3026 66.2734 35.7489C62.5675 35.0816 58.8168 34.9007 55.0737 34.6454C51.2354 34.3825 47.3916 34.1626 43.5757 33.6704C41.1859 33.361 39.208 32.1083 37.5191 30.4417C34.3501 27.2839 32.4039 23.5258 32.3872 18.9549C32.3619 16.6626 33.2406 14.4526 34.8329 12.8033C36.9599 10.5216 39.1968 8.37413 41.6687 6.49322C41.9259 6.3068 42.1459 6.00481 42.6306 6.05515C42.3771 6.8008 42.1012 7.52222 41.8942 8.25669C41.4357 9.87475 41.0778 11.504 41.445 13.206C41.7153 14.4643 42.6045 15.2285 43.5384 15.9556C44.0082 16.3284 44.1983 15.7691 44.3959 15.5454C46.3178 13.3924 48.2043 11.2095 49.9081 8.87558C50.2624 8.35544 50.695 7.89326 51.1907 7.50544C50.9204 9.22976 50.6501 10.956 50.3481 12.8928L59.4823 5.91534C59.363 6.74115 58.9231 7.18295 58.6882 7.71236C58.2576 8.6873 57.525 9.51871 57.3032 10.5943L57.1988 10.6353C57.2193 10.6353 57.2491 10.6558 57.2547 10.6484C57.2698 10.6252 57.2817 10.6001 57.2901 10.5738C58.9678 10.0015 60.4461 9.03403 62.0381 8.29211C63.3858 7.66203 64.6945 6.95366 66.0217 6.28443C66.3125 6.13717 66.6145 6.01041 67.0955 5.78857C66.6499 7.65271 66.2529 9.33043 65.8167 11.1573L75.6593 7.61543L73.3403 14.9732L81.2573 12.9058L81.3915 13.0587Z" fill="white"/>
<path d="M40.5483 82.5536C41.4543 82.4809 42.2857 82.3802 43.119 82.3672C43.5887 82.3672 43.6782 82.1808 43.6782 81.7576C43.667 80.2663 43.6204 80.2383 42.1217 80.3371C39.305 80.5235 36.4883 80.71 33.6678 80.8367C28.6123 81.0492 25.1953 76.4579 26.8134 71.682C29.9824 62.324 33.1738 52.9717 36.3205 43.6025C37.0139 41.5296 37.9218 39.6487 39.7095 38.2935C41.2399 37.1358 42.9475 36.4293 44.8694 36.4293C50.089 36.448 55.3085 36.2075 60.5076 36.6773C62.2021 36.8301 63.8929 37.0799 65.5743 37.3595C67.6249 37.7007 69.0211 39.0969 70.3111 40.5808C71.3215 41.744 71.9534 43.129 72.4176 44.5886C73.7225 48.7158 75.4393 52.7163 76.2316 57.0094C77.1786 62.132 78.5748 67.1521 79.7734 72.2151C79.9099 72.6929 79.8551 73.205 79.6206 73.643C78.0211 76.6256 75.5978 78.4189 72.192 78.6762C68.6968 78.9316 65.1959 79.1236 61.6951 79.2746C60.407 79.3305 61.0669 80.1675 60.996 80.7118C60.8916 81.506 61.4229 81.4016 61.9281 81.3661C63.63 81.2506 65.3339 81.1685 67.0358 81.0474C67.4776 81.0175 67.6249 81.1443 67.651 81.6066C67.8206 84.6116 68.0052 87.6166 68.2251 90.6178C68.2661 91.1677 67.9623 91.1435 67.6174 91.1771C65.2388 91.397 62.8639 91.6319 60.4834 91.8351C56.4979 92.1762 52.5068 92.4782 48.5231 92.838C47.9191 92.8939 47.5761 92.8492 47.5426 92.1669C47.5027 91.9225 47.4403 91.6822 47.3562 91.4492C47.0598 90.2282 47.0691 90.2599 45.8015 90.5414C45.2217 90.67 45.026 90.8788 45.2087 91.4735C45.4715 92.3328 45.6971 93.2052 45.8779 94.0833C45.9823 94.594 46.2172 94.7786 46.7298 94.8643C48.3852 95.1439 50.0014 94.745 51.6306 94.6276C52.3763 94.5735 52.6503 94.7804 52.6298 95.4851C52.6326 95.6409 52.6438 95.7965 52.6633 95.9511C52.8498 98.0389 53.5842 98.5516 55.5975 97.9849C56.0784 97.8488 56.2201 97.5244 56.1754 97.0677C56.1045 96.3221 56.043 95.5764 55.9554 94.8438C55.9125 94.471 55.9927 94.3014 56.4196 94.2454C56.8465 94.1895 56.9509 94.4058 57.0012 94.7413C57.0851 95.3005 57.169 95.8467 57.2584 96.3966C57.4448 97.5412 57.5455 97.6139 58.718 97.4499C58.9939 97.4107 59.2773 97.3623 59.542 97.3007C60.3436 97.1237 60.6754 96.6054 60.6008 95.8094C60.5859 95.6566 60.53 95.5074 60.5076 95.3527C60.2839 93.908 60.2914 93.9528 61.7324 93.7496C62.5992 93.6265 63.0074 93.867 62.9832 94.7692C62.9645 95.5708 63.2703 95.9511 64.1706 95.802C65.4849 95.5857 65.8763 95.3266 65.7011 94.348C65.5501 93.5147 65.8707 93.3171 66.6071 93.3432C67.1849 93.3637 67.938 93.071 68.2997 93.3432C68.7061 93.6452 68.4488 94.4486 68.4861 95.0321C68.7247 98.4677 68.9577 101.903 69.1646 105.341C69.2672 107.045 68.7079 108.549 67.4552 109.701C64.8063 112.141 61.6485 113.53 58.0544 113.636C55.877 113.708 53.7349 113.072 51.9492 111.824C50.1636 110.576 48.8307 108.782 48.1503 106.713C46.083 100.447 44.1685 94.1317 42.185 87.8365C41.6519 86.0749 41.1076 84.3357 40.5483 82.5536ZM43.0705 72.4873C46.5714 72.4966 49.0525 70.4554 49.5614 67.3628C49.7572 66.1753 49.7758 64.9562 49.8783 63.7519C50.2251 59.6732 50.5811 55.5964 50.9166 51.5176C51.09 49.4168 49.9846 48.0932 47.8874 47.8304C47.2723 47.7521 46.6608 47.6589 46.0513 47.5582C42.1366 46.917 38.3188 48.7419 36.6486 52.2185C35.1722 55.2819 33.7846 58.3907 32.486 61.5448C30.7784 65.7093 33.131 70.461 37.4539 71.6913C39.4056 72.2449 41.4338 72.2915 43.0705 72.4835V72.4873ZM72.5909 63.8862C72.7228 61.8455 72.1876 59.8173 71.0661 58.1073C69.5872 55.8517 68.1077 53.5986 66.6276 51.348C65.6263 49.8411 64.1963 48.6691 62.5222 47.9832C60.8481 47.2973 59.0067 47.1292 57.2361 47.5004C54.3429 48.1156 52.5273 50.5483 52.8572 53.2792C53.2487 56.5098 53.6364 59.7403 53.9291 62.9727C54.3951 68.1364 57.9127 71.4284 63.1099 71.5571C65.5762 71.6167 67.7833 70.7182 70.0072 69.898C70.7697 69.6184 71.3121 68.9883 71.7185 68.2538C72.4604 66.8986 72.6543 65.4408 72.5909 63.8824V63.8862ZM52.352 81.0418C52.9001 81.5581 53.3531 82.0149 53.8433 82.438C54.8146 83.2862 56.0151 83.2825 56.8427 82.4492C57.6704 81.6159 57.6574 80.3092 56.7216 79.3697C55.3856 78.0374 54.0322 76.7176 52.6615 75.4102C51.543 74.3551 49.6789 74.7336 49.2371 76.1932C48.6424 78.1747 48.1782 80.2029 47.7719 82.233C47.5277 83.4521 48.2584 84.3748 49.4309 84.6265C50.5047 84.8558 51.5393 84.1754 51.8711 82.9991C52.037 82.4045 52.1675 81.7968 52.352 81.0418ZM61.2179 110.122C61.2296 109.851 61.1867 109.58 61.0916 109.326C60.9965 109.072 60.8513 108.839 60.6644 108.642C60.4776 108.446 60.2531 108.288 60.0042 108.18C59.7553 108.072 59.4872 108.015 59.2158 108.012C58.7996 107.994 58.3875 108.101 58.0324 108.319C57.6773 108.537 57.3954 108.856 57.2228 109.235C57.0502 109.614 56.9948 110.036 57.0636 110.447C57.1324 110.858 57.3223 111.239 57.6091 111.541C57.8958 111.844 58.2663 112.053 58.673 112.144C59.0797 112.234 59.5041 112.201 59.8918 112.048C60.2795 111.896 60.6128 111.631 60.8491 111.288C61.0854 110.945 61.2138 110.539 61.2179 110.122ZM33.0881 70.789C32.8625 70.5113 32.8346 70.0005 32.3424 70.3603C31.9696 70.6306 31.6098 70.9195 31.237 71.1861C31.0506 71.3203 31.0058 71.462 31.1662 71.6372C31.3265 71.8125 31.4066 72.3027 31.7254 72.079C32.2194 71.7267 32.7358 71.3334 33.0881 70.7965V70.789ZM58.2334 44.1897C58.4459 44.5178 57.9165 45.2691 58.7423 45.1964C59.5681 45.1237 59.1151 44.3239 59.281 43.8691C59.4469 43.4142 59.1692 43.1477 58.705 43.1831C57.9799 43.2353 58.3974 43.8374 58.2334 44.1897ZM60.9606 43.9903C61.1377 43.4571 60.8543 43.3154 60.5225 43.3378C59.57 43.4031 60.0658 44.2102 59.8962 44.6707C59.7862 44.9652 59.6762 45.435 60.2336 45.3902C61.2216 45.3082 60.6344 44.3389 60.9606 43.9884V43.9903ZM32.9464 73.3876C33.2708 73.3876 34.2252 71.9206 34.0761 71.6932C33.9269 71.4657 33.6846 71.1507 33.3453 71.5067C33.0694 71.7975 32.8029 72.0995 32.5475 72.4071C32.4412 72.5357 32.2063 72.6625 32.3611 72.8638C32.5418 73.0538 32.7376 73.229 32.9464 73.3876ZM74.1438 72.4891C74.1288 72.2766 72.9787 71.0221 72.8389 71.0482C72.6912 71.0743 72.5562 71.1483 72.4548 71.2588C72.2684 71.4881 73.1539 73.1341 73.4391 73.0707C73.5976 73.0433 73.7463 72.9754 73.8708 72.8734C73.9953 72.7715 74.0912 72.6391 74.1493 72.4891H74.1438ZM40.1681 74.3085C40.1103 74.0047 40.3899 73.5927 39.7635 73.5629C38.8725 73.5312 39.2304 74.2321 39.1428 74.6198C39.0552 75.0076 38.8352 75.6265 39.5566 75.5873C40.4365 75.5463 39.8773 74.7056 40.1737 74.3085H40.1681ZM34.4638 74.3868C34.9802 74.0662 35.0641 73.4827 35.3549 73.0372C35.5525 72.7352 35.4928 72.5581 35.1945 72.3698C34.8963 72.1816 34.7453 72.3176 34.6055 72.5562C34.3799 72.9291 34.1544 73.287 33.9418 73.6579C33.6044 74.2526 34.2215 74.165 34.4694 74.3887L34.4638 74.3868ZM71.355 71.8609C71.2208 71.8721 71.0344 71.9821 71.1257 72.3176C71.2487 72.765 71.3494 73.218 71.4855 73.6617C71.6216 74.1053 71.9143 73.8854 72.164 73.8071C72.4138 73.7288 72.6506 73.6356 72.4809 73.2888C72.3113 72.9421 72.1417 72.56 71.959 72.2021C71.8714 72.0194 71.8061 71.7789 71.3606 71.8609H71.355ZM75.0199 67.2006C74.5706 67.0906 74.2463 67.2267 74.3413 67.6144C74.5389 68.4085 75.3014 68.0227 75.7991 68.1979C76.1626 68.3265 76.4926 68.183 76.3975 67.7859C76.2148 66.9825 75.4281 67.4056 75.0255 67.1931L75.0199 67.2006ZM67.2744 46.7044C67.2373 46.6396 67.1908 46.5805 67.1365 46.5292C66.9091 46.3633 66.6276 45.97 66.4076 46.4267C66.1578 46.9449 65.1829 47.0586 65.5743 47.918C65.6356 48.0236 65.7339 48.1027 65.8502 48.1398C65.9863 48.179 67.2744 46.9058 67.2744 46.7044ZM65.8968 45.5748C65.8297 45.4506 65.7353 45.3433 65.6206 45.261C65.506 45.1786 65.3742 45.1234 65.2351 45.0994C65.0729 45.0621 64.1073 46.4341 64.152 46.6336C64.181 46.7541 64.2479 46.862 64.3428 46.9416C64.4378 47.0211 64.5559 47.068 64.6796 47.0754C64.8753 47.1034 65.9061 45.8824 65.8968 45.5748ZM71.5563 53.104C71.1667 53.3445 70.7175 53.6166 70.2719 53.8981C70.1154 53.9969 69.9196 54.12 70.106 54.325C70.257 54.4909 70.3633 54.8544 70.6653 54.6978C71.1226 54.4372 71.5657 54.1522 71.9925 53.8441C72.1603 53.7304 72.1081 53.5738 72.0336 53.4321C71.959 53.2904 71.8676 53.0891 71.5563 53.104ZM74.7869 57.673C74.703 57.5779 74.4607 57.2163 74.4141 57.2424C73.8701 57.5059 73.351 57.8178 72.8631 58.1744C72.6543 58.3292 72.9246 58.5603 73.0141 58.7337C73.0528 58.7748 73.1014 58.8053 73.1552 58.8223C73.2091 58.8393 73.2664 58.8421 73.3217 58.8306C73.7896 58.6051 74.2537 58.3515 74.7011 58.1036C74.813 58.0309 74.8577 57.9228 74.7869 57.673ZM74.5166 61.7443C74.9845 61.6268 75.402 61.5299 75.8215 61.418C76.0564 61.3547 76.3248 61.3118 76.1943 60.9427C76.0918 60.6687 75.9948 60.4133 75.6201 60.5139L74.3842 60.8532C74.0599 60.9427 74.0561 61.1776 74.1214 61.4348C74.1866 61.6921 74.2873 61.83 74.5166 61.7443ZM75.0124 63.2617C75.3405 62.8702 76.2465 63.6233 76.4292 62.6763C76.4944 62.3389 76.2912 62.1003 75.9426 62.2383C75.4393 62.4396 74.6676 62.0146 74.4401 62.8199C74.3656 63.0827 74.5147 63.3903 75.0124 63.2617ZM70.2869 50.8223C70.0799 50.6359 70.0427 50.1214 69.5505 50.4252C69.2094 50.6378 68.8813 50.8689 68.5439 51.087C68.2587 51.2734 68.186 51.4878 68.3966 51.7805C68.6073 52.0731 68.8049 51.9855 69.036 51.8401C69.3734 51.6239 69.7183 51.417 70.0538 51.1951C70.175 51.115 70.3279 51.0441 70.2869 50.8223ZM70.367 74.3384C70.5889 74.2396 70.9822 74.2657 70.8536 73.8406C70.7042 73.3674 70.5293 72.9025 70.3297 72.4481C70.2104 72.1666 69.9681 72.2822 69.7705 72.3456C69.5356 72.4183 69.3977 72.532 69.5077 72.8247C69.6792 73.2572 69.8283 73.6971 69.9905 74.1296C70.0146 74.2059 70.0671 74.2701 70.1372 74.3089C70.2072 74.3478 70.2895 74.3583 70.367 74.3384ZM69.1908 74.2619C68.9018 73.8723 69.2299 73.054 68.4619 72.8489C68.2587 72.7948 67.8132 72.9403 67.9716 73.3187C68.1953 73.8555 67.9586 74.672 68.7639 74.8678C69.023 74.9293 69.3119 74.7373 69.1908 74.2619ZM36.067 75.0262C36.3261 75.0784 36.4398 75.0001 36.4789 74.8249C36.6094 74.3495 36.7548 73.8798 36.8704 73.4026C36.9412 73.1155 36.7101 73.0521 36.4976 72.9794C36.2851 72.9067 36.1527 73.0111 36.0819 73.205C35.9365 73.6095 35.8134 74.0252 35.6494 74.4222C35.4313 74.9479 35.8134 74.9703 36.067 75.0262ZM67.9436 50.6061C68.3165 50.3563 68.7135 50.0729 69.1292 49.8064C69.3511 49.6647 69.4256 49.523 69.2635 49.2825C69.1013 49.0421 68.9782 48.878 68.6763 49.0719C68.2867 49.3217 67.8821 49.5491 67.4907 49.797C67.4472 49.8151 67.4089 49.8437 67.3793 49.8802C67.3496 49.9168 67.3296 49.9601 67.3209 50.0064C67.3122 50.0526 67.3151 50.1003 67.3295 50.1451C67.3438 50.1899 67.3691 50.2305 67.403 50.2631C67.5317 50.4122 67.6118 50.662 67.9492 50.6042L67.9436 50.6061ZM73.0551 55.0017C72.8445 54.7724 72.7811 54.3343 72.4474 54.4909C71.9576 54.7487 71.4943 55.054 71.0642 55.4025C70.8629 55.5535 71.0362 55.7362 71.1332 55.8834C71.2301 56.0307 71.3997 56.1537 71.6011 56.0382C72.0261 55.7884 72.4493 55.5348 72.8631 55.2664C72.9488 55.2049 72.9936 55.0837 73.0551 55.0017ZM41.8066 74.4092C41.8607 74.083 41.8831 73.7903 41.4152 73.7493C40.9473 73.7083 40.9417 74.0289 40.9025 74.3421C40.8634 74.6553 40.8242 74.9554 40.7739 75.2592C40.7329 75.5146 40.6676 75.7737 41.0535 75.7998C41.3425 75.8166 41.6128 75.8278 41.6612 75.427C41.6985 75.0821 41.7619 74.7466 41.8066 74.4092ZM75.5474 65.5844C75.1523 65.6552 74.4476 65.4334 74.5706 66.056C74.7105 66.7662 75.5419 66.3748 76.0433 66.55C76.4049 66.673 76.5354 66.4848 76.5373 66.1268C76.5373 65.2917 75.8942 65.7167 75.5474 65.5844ZM69.804 53.324C70.1582 53.0705 70.6205 52.7647 71.0493 52.4217C71.2189 52.2838 71.0996 52.0806 70.9934 51.924C70.9731 51.8819 70.9438 51.8447 70.9076 51.8151C70.8713 51.7855 70.829 51.7643 70.7837 51.7529C70.7383 51.7415 70.691 51.7403 70.6451 51.7492C70.5992 51.7582 70.5558 51.7771 70.518 51.8047C70.1284 52.0489 69.7425 52.3043 69.3623 52.5653C69.3223 52.5895 69.2882 52.6221 69.2621 52.6608C69.236 52.6995 69.2186 52.7435 69.2112 52.7895C69.2038 52.8356 69.2064 52.8828 69.219 52.9277C69.2315 52.9727 69.2537 53.0144 69.284 53.0499C69.379 53.1935 69.4312 53.406 69.804 53.324ZM74.7011 68.7683C74.2146 68.6639 74.0785 68.8075 73.9946 69.033C73.8902 69.3089 74.045 69.417 74.278 69.5009C74.6273 69.6209 74.9702 69.759 75.3051 69.9148C75.7115 70.1124 75.8345 69.8756 75.9892 69.568C76.2036 69.1412 75.9091 69.1169 75.6351 69.0424C75.2492 68.9305 74.867 68.8149 74.7011 68.7665V68.7683ZM56.7197 43.8355C57.0795 44.2251 56.276 45.1162 57.2584 45.3511C57.5716 45.4275 57.7338 45.1647 57.6052 44.8906C57.3591 44.3687 57.8307 43.5857 57.0571 43.2856C56.7383 43.17 56.6489 43.4683 56.7197 43.8355ZM73.7392 69.9931C73.6235 70.0226 73.5213 70.0904 73.4492 70.1856C73.377 70.2807 73.3393 70.3975 73.3422 70.5169C73.3291 70.7182 74.6098 71.723 74.8335 71.6913C75.1448 71.6465 75.1783 71.3613 75.2268 71.132C75.2753 70.9028 74.0561 69.9744 73.7299 69.9931H73.7392ZM75.6332 59.511C75.4915 58.7001 75.059 58.7654 74.621 59.0841C74.278 59.3339 73.4205 59.196 73.674 59.9044C73.976 60.7507 74.5259 59.9137 74.964 59.8951C75.2007 59.8857 75.581 59.8186 75.6239 59.511H75.6332ZM68.4004 47.9832C68.2885 47.8117 68.1729 47.4575 67.9436 47.5079C67.3154 47.6477 66.9743 48.2274 66.5399 48.6469C66.3405 48.8333 66.6015 49.0197 66.7581 49.1688C66.7814 49.1886 66.8098 49.2015 66.8401 49.2061C67.0507 49.2546 68.3929 48.2386 68.391 47.9832H68.4004ZM37.4054 74.8268C37.3625 75.1306 37.3159 75.4028 37.7055 75.386C38.7755 75.345 38.1082 74.426 38.3953 73.9786C38.5649 73.7139 38.4419 73.3317 38.0858 73.3914C37.1966 73.548 37.741 74.4334 37.3961 74.8324L37.4054 74.8268ZM75.5139 64.8126H75.8867C76.226 64.8126 76.5597 64.8686 76.5541 64.328C76.5485 63.7874 76.2129 63.8507 75.8774 63.8657C75.5698 63.8806 75.2641 63.8955 74.9602 63.9272C74.7608 63.9477 74.4718 63.9104 74.5222 64.2385C74.5613 64.4883 74.5576 64.8238 74.9677 64.8089C75.1373 64.8126 75.32 64.8182 75.5046 64.8182L75.5139 64.8126ZM73.4969 55.8461C73.1036 55.8629 71.9497 56.823 72.0056 57.0355C72.0615 57.248 72.1044 57.4735 72.3933 57.4773C72.6189 57.4773 73.9275 56.4837 73.8846 56.329C73.8082 56.1015 73.7262 55.8461 73.4969 55.8461ZM64.2601 44.9354C64.2788 44.5365 63.96 44.3128 63.7587 44.3612C63.013 44.5476 63.1491 45.3063 62.9198 45.8227C62.8978 45.8818 62.8911 45.9456 62.9004 46.008C62.9097 46.0705 62.9348 46.1295 62.9731 46.1796C63.0115 46.2297 63.062 46.2693 63.1198 46.2946C63.1777 46.3198 63.241 46.33 63.3038 46.3242C64.0476 46.1657 63.8966 45.3548 64.2601 44.9354ZM62.6514 44.2326C62.6621 44.1803 62.6619 44.1263 62.6508 44.0741C62.6398 44.0218 62.6181 43.9724 62.5872 43.9288C62.5563 43.8853 62.5167 43.8486 62.471 43.821C62.4253 43.7934 62.3743 43.7755 62.3214 43.7684C62.1108 43.6957 61.8815 43.664 61.792 43.9437C61.6503 44.378 61.5254 44.8198 61.3987 45.2616C61.3813 45.3041 61.3734 45.3499 61.3756 45.3957C61.3778 45.4416 61.3899 45.4864 61.4112 45.5271C61.4325 45.5677 61.4625 45.6033 61.4989 45.6311C61.5354 45.659 61.5775 45.6786 61.6224 45.6885C61.7696 45.7407 61.9561 45.8152 62.0343 45.6549C62.273 45.1609 62.4724 44.6502 62.6514 44.2307V44.2326ZM42.5187 75.0691C42.4961 75.1844 42.4793 75.3007 42.4684 75.4177C42.4684 75.6358 42.2932 75.9657 42.6809 75.9769C42.968 75.99 42.9251 75.688 42.9456 75.4829C42.9593 75.3929 42.9636 75.3017 42.9587 75.2108C42.9102 74.7913 43.421 74.1053 42.8878 74.0215C42.405 73.9525 42.6529 74.7503 42.5262 75.0672L42.5187 75.0691ZM32.1616 69.5419C32.1187 69.4338 32.0814 69.2623 31.9342 69.3257C31.3681 69.5425 30.8406 69.849 30.372 70.2335C30.236 70.3547 30.3329 70.5206 30.5044 70.5803C30.6759 70.6399 32.1448 69.7284 32.1616 69.5419Z" fill="white"/>
<path d="M18.5683 38.7558C17.5151 38.9422 16.7601 39.7121 15.8598 40.1949C14.43 40.9648 13.1232 41.9472 11.6431 42.6332L11.6543 42.6537C11.5145 41.8707 11.9693 41.2295 12.2005 40.5509C13.3916 37.0538 14.855 33.676 16.3948 30.315C18.2924 26.1729 21.674 24.2267 25.8422 23.2667C27.3549 22.9209 28.8962 22.7149 30.4466 22.6515C30.9406 22.631 31.1512 22.7429 31.2948 23.2313C32.5568 27.5188 34.9709 30.9898 38.6991 33.5082C38.9526 33.6797 39.2826 33.8289 38.8296 34.17C36.3037 36.064 35.079 38.8303 33.9642 41.6265C31.6191 47.5228 30.2639 53.7154 28.6048 59.8168C27.231 64.8741 25.7546 69.8831 23.8028 74.7727C22.2332 78.6762 19.7446 81.4724 15.8337 83.1128C12.6311 84.455 9.46578 85.8773 6.14016 86.8989C6.10218 86.855 6.06172 86.8133 6.01899 86.774C7.43946 84.0505 9.11346 81.4761 10.6402 78.816C10.9627 78.2568 11.2889 77.6975 11.7121 76.9705L3.13704 77.5782C3.15196 77.129 3.43903 76.9165 3.63104 76.6629C6.04323 73.4697 8.4927 70.3044 10.6141 66.9042C11.0226 66.245 11.3881 65.56 11.7083 64.8536C11.9581 64.3075 12.0942 63.6848 11.5853 63.2095C11.0428 62.7043 10.4221 62.8926 9.86097 63.2244C7.50657 64.6132 4.92475 65.1706 2.10059 65.1463L21.7094 48.7829L21.5789 48.5182L11.9227 52.0601C11.8894 52.0168 11.8519 51.9769 11.8109 51.9408C13.4476 48.7556 15.0843 45.5698 16.721 42.3834C17.3417 41.1754 17.9457 39.96 18.5553 38.7465L18.5683 38.6868V38.7558Z" fill="white"/>
<path d="M81.2573 12.9058C81.384 12.8387 81.5108 12.7809 81.645 12.8891L81.3915 13.0643L81.2573 12.9058Z" fill="white"/>
<path d="M11.9227 52.0564C11.8463 52.1197 11.7661 52.1552 11.7009 52.0564C11.7009 52.0452 11.7717 51.9818 11.8109 51.9427C11.8516 51.977 11.8891 52.015 11.9227 52.0564Z" fill="white"/>
<path d="M14.0161 43.3322L14.2025 43.2409C14.2025 43.3173 14.2025 43.3937 14.2025 43.472L14.0161 43.3322Z" fill="white"/>
<path d="M6.14016 86.8989C6.06373 86.9641 5.98171 87.0107 5.9146 86.8989C5.90528 86.884 5.98171 86.815 6.01899 86.7721C6.06178 86.812 6.10223 86.8543 6.14016 86.8989Z" fill="white"/>
<path d="M11.6431 42.6332C11.627 42.657 11.6083 42.6789 11.5872 42.6984C11.5872 42.6984 11.5555 42.6854 11.5406 42.676L11.6543 42.6537L11.6431 42.6332Z" fill="white"/>
<path d="M42.6623 5.90415L42.638 5.83704L42.694 5.84077L42.6623 5.90415Z" fill="white"/>
<path d="M57.2957 10.5738C57.2873 10.6001 57.2754 10.6252 57.2603 10.6484C57.2603 10.6484 57.2249 10.6484 57.2044 10.6353L57.3088 10.5943L57.2957 10.5738Z" fill="white"/>
<path d="M18.5683 38.7558V38.6831L18.5553 38.7427L18.5683 38.7558Z" fill="white"/>
<path d="M39.3492 64.0002C39.3008 63.5752 39.0081 63.359 38.7788 63.1204C37.1458 61.4128 37.1346 61.4184 38.6875 59.7873C39.7221 58.6968 39.8768 58.6986 40.8629 59.8059C42.3039 61.4109 42.302 61.4109 43.7225 59.8413C43.9294 59.6121 44.1606 59.4033 44.3749 59.1796C44.7906 58.7452 45.1747 58.8068 45.5643 59.2243C46.0713 59.7686 46.5802 60.3111 47.1096 60.8331C47.5924 61.3084 47.5533 61.7539 47.0891 62.1939C46.6666 62.5903 46.231 62.9849 45.7824 63.3776C45.2231 63.8604 45.2772 64.2985 45.814 64.7682C46.3025 65.197 46.7592 65.6649 47.2252 66.1179C47.6912 66.5709 47.7024 67.0201 47.2252 67.4806C46.748 67.941 46.2931 68.3865 45.8401 68.8563C45.348 69.3689 44.8615 69.3279 44.3917 68.8563C43.9721 68.4447 43.5768 68.009 43.208 67.5514C42.6637 66.8468 42.1678 66.9176 41.6086 67.5365C41.2618 67.9317 40.8927 68.3082 40.5311 68.6923C40.0241 69.231 39.5394 69.2515 39.0398 68.6624C38.7361 68.3099 38.4131 67.9745 38.0723 67.6577C37.0731 66.7032 37.0657 66.3397 38.0667 65.3983C38.3817 65.1001 38.7154 64.8204 39.0156 64.5091C39.1439 64.3514 39.2557 64.1808 39.3492 64.0002Z" fill="white"/>
<path d="M69.2784 64.2515C69.256 66.6749 67.6006 68.6192 65.1773 69.0591C64.1725 69.2455 63.1677 69.417 62.163 69.5941C61.6681 69.6923 61.1586 69.6919 60.6639 69.5929C60.1691 69.4939 59.6988 69.2983 59.2797 69.0172C58.8607 68.7362 58.5012 68.3753 58.2218 67.9551C57.9425 67.5349 57.7488 67.0638 57.6518 66.5686C57.3833 65.2638 57.1373 63.9589 56.9434 62.6428C56.3842 58.825 59.2195 56.0512 63.0391 56.6589C66.827 57.261 69.3156 60.2902 69.2784 64.2515ZM63.041 60.5009C62.0866 60.4898 61.1661 60.8544 60.4781 61.5159C59.7901 62.1774 59.3897 63.0828 59.3633 64.0369C59.3368 64.991 59.6865 65.9172 60.3369 66.6158C60.9872 67.3143 61.8861 67.7292 62.8396 67.771C63.3217 67.7921 63.8032 67.7171 64.256 67.5503C64.7087 67.3835 65.1238 67.1283 65.477 66.7995C65.8302 66.4707 66.1144 66.0749 66.3131 65.6352C66.5118 65.1955 66.621 64.7206 66.6343 64.2383C66.6477 63.7559 66.5649 63.2757 66.3909 62.8257C66.2168 62.3756 65.9549 61.9647 65.6205 61.6169C65.2861 61.269 64.8858 60.9912 64.4429 60.7996C64 60.608 63.5235 60.5065 63.041 60.5009Z" fill="white"/>
<path d="M40.8969 62.9466L40.8522 63.0771L40.7664 63.01L40.9025 62.9522L40.8969 62.9466Z" fill="white"/>
<path d="M64.605 64.136C64.605 65.1109 63.96 65.7633 62.985 65.7801C62.7682 65.7951 62.5507 65.7644 62.3464 65.6902C62.1421 65.6159 61.9557 65.4997 61.799 65.3491C61.6424 65.1984 61.5191 65.0166 61.4369 64.8154C61.3548 64.6141 61.3157 64.3979 61.3222 64.1807C61.3036 63.1741 62.0082 62.4508 62.9869 62.4713C63.2043 62.4678 63.4202 62.5088 63.6212 62.5918C63.8222 62.6748 64.0041 62.7981 64.1556 62.954C64.3072 63.1099 64.4253 63.2952 64.5025 63.4985C64.5798 63.7018 64.6147 63.9187 64.605 64.136Z" fill="white"/>
<path d="M60.3268 65.4986C59.9763 65.3849 59.6874 65.2041 59.7359 64.7828C59.7843 64.3615 60.0434 64.2049 60.4536 64.2441C60.5326 64.2436 60.6109 64.2598 60.6833 64.2918C60.7556 64.3238 60.8204 64.3708 60.8732 64.4296C60.9261 64.4884 60.9658 64.5578 60.9899 64.6332C61.014 64.7085 61.0218 64.7881 61.0128 64.8667C60.9867 65.2544 60.7201 65.4632 60.3268 65.4986Z" fill="white"/>
</svg>
