<svg width="60" height="60" fill="none" xmlns="http://www.w3.org/2000/svg"><g clip-path="url(#a)" fill-rule="evenodd" clip-rule="evenodd" fill="#fff"><path d="M43.699 6.218c3.313-.608 15.706-2.883 16.257.995.566 3.971-4.541 9.448-9.884 11.91-.282.13-.532.308-.783.487-.208.149-.416.298-.643.42-.84.45-1.342 1.573-1.219 2.586v14.19c-4.213-2.915-10.407-4.73-17.426-4.73-7.02 0-13.213 1.815-17.427 4.73v-14.19c.124-1.013-.378-2.137-1.219-2.587a5.955 5.955 0 0 1-.642-.418c-.25-.18-.501-.358-.783-.488C4.586 16.66-.52 11.184.045 7.213c.552-3.879 12.947-1.603 16.259-.994l.607.11c.096.015.186-.065.167-.16-.191-.937-.329-3.474 1.498-4.023 1.168-.352 1.938.297 2.395.95.205.294.817 1.563 1.198 2.443.205.476.683 1.17 1.207 1.158a22.539 22.539 0 0 1 6.625-1.01c2.211 0 4.422.336 6.624 1.01.525.013 1.002-.682 1.208-1.158.38-.88.993-2.149 1.197-2.442.457-.654 1.227-1.303 2.395-.951 1.827.549 1.69 3.086 1.5 4.024-.02.094.07.174.165.158.138-.023.345-.061.609-.11Zm-16.33 15.71c.061-.359-.526-1.27-2.358-2.506a15.282 15.282 0 0 0-4.203-1.95 3.448 3.448 0 0 0-1.08-.154 3.43 3.43 0 0 0-1.863.643c-.746.51-1.264 1.191-1.42 2.072-.16.88.09 1.694.614 2.425.388.56.91.985 1.527 1.232a3.43 3.43 0 0 0 1.069.217c1.55.095 3.119-.044 4.626-.417 2.153-.546 3.02-1.204 3.089-1.562Zm14.046 1.762a3.38 3.38 0 0 0 1.527-1.232c.525-.73.774-1.544.614-2.424-.156-.881-.673-1.562-1.42-2.073a3.428 3.428 0 0 0-1.863-.643 3.449 3.449 0 0 0-1.08.155 15.28 15.28 0 0 0-4.202 1.949c-1.833 1.236-2.42 2.147-2.36 2.506.069.358.937 1.016 3.09 1.562a15.42 15.42 0 0 0 4.626.417 3.43 3.43 0 0 0 1.068-.217Z"/><path d="M9.24 46.196c0-6.494 9.294-11.758 20.76-11.758 11.465 0 20.76 5.264 20.76 11.758 0 6.494-9.295 11.758-20.76 11.758-11.466 0-20.76-5.264-20.76-11.758Zm7.185-.732c.318 1.933 1.972 2.786 3.748 1.933a5.102 5.102 0 0 0 2.973-4.358c-.008-.997-.544-.614-1.207-.142-.886.632-1.997 1.425-2.37-.705-.653-3.723-3.491 1.2-3.143 3.272Zm23.4 1.933c1.776.853 3.43 0 3.748-1.933.347-2.072-2.49-6.995-3.143-3.272-.374 2.13-1.485 1.337-2.37.705-.663-.472-1.2-.855-1.207.142a5.101 5.101 0 0 0 2.972 4.358Z"/></g><defs><clipPath id="a"><path fill="#fff" d="M0 0h60v60H0z"/></clipPath></defs></svg>