<svg width="60" height="60" viewBox="0 0 60 60" fill="none" xmlns="http://www.w3.org/2000/svg">
<path fill-rule="evenodd" clip-rule="evenodd" d="M40.959 10.9731C43.6096 10.4864 53.5243 8.66604 53.9657 11.7685C54.4185 14.9459 50.3324 19.3278 46.0578 21.2972C45.8324 21.4009 45.6321 21.544 45.4318 21.687C45.2654 21.806 45.0987 21.9253 44.917 22.0223C44.2444 22.3824 43.8431 23.2813 43.942 24.092V35.4443C40.5711 33.1121 35.6161 31.6609 30.0002 31.6609C24.3844 31.6609 19.4295 33.1121 16.0585 35.4443V24.092C16.1572 23.2813 15.7559 22.3824 15.083 22.0223C14.9018 21.9253 14.7354 21.8065 14.5692 21.6878C14.3686 21.5442 14.1681 21.4011 13.9425 21.2972C9.66762 19.3278 5.58204 14.9459 6.03438 11.7685C6.47598 8.66571 16.3928 10.4868 19.042 10.9732C19.2528 11.0119 19.4178 11.0422 19.528 11.0609C19.6047 11.0738 19.6765 11.0093 19.6613 10.9343C19.5084 10.1837 19.3985 8.15426 20.8602 7.71487C21.7947 7.43371 22.4106 7.95246 22.7761 8.47571C22.9399 8.71051 23.4297 9.7254 23.7342 10.4299C23.8982 10.8104 24.2807 11.3663 24.7004 11.3563C26.4618 10.817 28.2313 10.5473 30.0002 10.5473C31.7694 10.5473 33.5385 10.817 35.2997 11.3563C35.7198 11.3663 36.1018 10.8104 36.2661 10.4299C36.5704 9.7254 37.0604 8.71051 37.224 8.47571C37.5895 7.95244 38.2059 7.43371 39.1401 7.71487C40.6018 8.15426 40.4917 10.1837 40.3393 10.9343C40.3238 11.0093 40.3953 11.0738 40.4721 11.0609C40.5828 11.0422 40.7478 11.0119 40.959 10.9731ZM27.8951 23.5417C27.9438 23.2544 27.4743 22.5254 26.0078 21.5363C24.9784 20.8503 23.8382 20.3234 22.6454 19.9769C22.3655 19.8953 22.0739 19.8426 21.782 19.8529C21.2493 19.8724 20.7388 20.0513 20.2912 20.3679C19.6939 20.7762 19.2802 21.3208 19.1553 22.0254C19.0275 22.7293 19.227 23.3807 19.6465 23.9654C19.9567 24.4135 20.3742 24.7533 20.868 24.9507C21.1387 25.0592 21.431 25.1071 21.7229 25.125C22.9638 25.2003 24.2185 25.0892 25.4243 24.7909C27.1464 24.3543 27.8408 23.8278 27.8951 23.5417ZM39.1323 24.9507C39.6261 24.7533 40.0436 24.4135 40.3538 23.9654C40.7733 23.3807 40.9729 22.7298 40.845 22.0259C40.7203 21.321 40.3064 20.7762 39.7091 20.3679C39.2617 20.0513 38.7512 19.8724 38.2185 19.8529C37.9264 19.8426 37.6348 19.8953 37.3549 19.9769C36.1622 20.3234 35.0219 20.8503 33.9925 21.5363C32.526 22.5254 32.0565 23.2539 32.1049 23.5415C32.1593 23.8276 32.8539 24.3543 34.5762 24.7909C35.7816 25.0892 37.0365 25.2003 38.2777 25.125C38.5693 25.1071 38.8616 25.0592 39.1323 24.9507Z" fill="white"/>
<path fill-rule="evenodd" clip-rule="evenodd" d="M13.3906 42.9568C13.3906 37.7613 20.8264 33.5498 29.9995 33.5498C39.1724 33.5498 46.6089 37.7615 46.6089 42.9568C46.6089 48.1522 39.1727 52.3637 29.9995 52.3637C20.8264 52.3637 13.3906 48.1522 13.3906 42.9568ZM19.1399 42.3712C19.3936 43.918 20.717 44.6002 22.1384 43.918C23.5247 43.2764 24.4384 41.9358 24.5162 40.431C24.5102 39.6336 24.081 39.9398 23.5509 40.3177C22.8423 40.8234 21.9536 41.4575 21.6548 39.7538C21.1323 36.7753 18.8616 40.714 19.1399 42.3712ZM37.8605 43.918C39.2814 44.6002 40.6048 43.918 40.859 42.3712C41.1368 40.714 38.8665 36.7753 38.3441 39.7538C38.045 41.4577 37.1561 40.8232 36.4477 40.3177C35.9178 39.9398 35.4889 39.6336 35.4829 40.431C35.5602 41.9358 36.4741 43.2764 37.8605 43.918Z" fill="white"/>
</svg>
