<svg width="60" height="60" fill="none" xmlns="http://www.w3.org/2000/svg"><path fill-rule="evenodd" clip-rule="evenodd" d="M14.964 3.035c0-.999.81-1.808 1.809-1.808H46.27a5.425 5.425 0 0 1 5.426 5.425v.301a5.425 5.425 0 0 1-5.425 5.425H15.672a.301.301 0 0 0-.302.302v5.368a1.507 1.507 0 0 0 .674 1.256l9.184 6.09c.17.109.33.23.48.362l.006.004.005.005a5.854 5.854 0 0 1 .21 8.556c-.201.2-.423.377-.66.531l-.005.003-9.354 5.983a1.81 1.81 0 0 0-.54 1.278v1.056a1.808 1.808 0 0 1-3.617 0v-1.068a5.425 5.425 0 0 1 1.863-4.07l.1-.087 9.586-6.13a.51.51 0 0 0 .082-.066l.006-.006.005-.005a2.236 2.236 0 0 0-.072-3.266.488.488 0 0 0-.055-.04l-.014-.01-9.209-6.105a5.125 5.125 0 0 1-2.292-4.271V12.68a3.918 3.918 0 0 1 3.919-3.918H46.27a1.808 1.808 0 0 0 1.809-1.809v-.301a1.808 1.808 0 0 0-1.809-1.809H16.773c-1 0-1.809-.81-1.809-1.808Z" fill="#fff"/><path d="M9.76 4.636a1.745 1.745 0 1 0 0-3.49 1.745 1.745 0 0 0 0 3.49Z" fill="#fff"/><path fill-rule="evenodd" clip-rule="evenodd" d="M46.015 15.48c.998 0 1.808.81 1.808 1.809v1.572a3.922 3.922 0 0 1-1.617 3.174l-.042.03-10.072 6.475a1.81 1.81 0 0 0-.723 1.438v.35a1.809 1.809 0 0 0 .705 1.433l9.337 6.126.04.029a5.124 5.124 0 0 1 2.086 4.127v5.123a4.823 4.823 0 0 1-4.822 4.823H13.11a1.44 1.44 0 0 0-1.44 1.44 1.808 1.808 0 0 0 1.808 1.809h36.698a1.808 1.808 0 1 1 0 3.617H13.48a5.425 5.425 0 0 1-5.425-5.425 5.058 5.058 0 0 1 5.057-5.058h29.604a1.206 1.206 0 0 0 1.205-1.206v-5.123a1.506 1.506 0 0 0-.582-1.19l-9.336-6.126-.039-.028a5.423 5.423 0 0 1-2.21-4.372v-.358a5.426 5.426 0 0 1 2.26-4.39l.038-.027 10.053-6.462a.302.302 0 0 0 .102-.227V17.29c0-.999.81-1.809 1.809-1.809Z" fill="#fff"/></svg>