<svg width="60" height="60" fill="none" xmlns="http://www.w3.org/2000/svg"><g clip-path="url(#a)"><mask id="b" style="mask-type:alpha" maskUnits="userSpaceOnUse" x="1" y="4" width="58" height="49"><path d="M23.449 41.328c-7.928 3.543-17.226-.012-20.769-7.94-3.542-7.927.013-17.225 7.94-20.768 7.928-3.542 17.226.013 20.768 7.94 3.543 7.928-.012 17.226-7.94 20.768ZM52.006 25.16c-5.489 2.452-11.926-.01-14.379-5.497-2.452-5.489.009-11.926 5.497-14.378 5.488-2.453 11.926.008 14.378 5.496 2.453 5.489-.008 11.926-5.496 14.378ZM48.157 52.23a8.768 8.768 0 1 1-7.154-16.01 8.768 8.768 0 0 1 7.154 16.01Z" fill="#000"/></mask><g mask="url(#b)"><path d="M-5.303 47.738c9.47 21.191 34.325 30.693 55.515 21.224 21.19-9.47 30.693-34.324 21.224-55.515C61.966-7.743 37.11-17.246 15.92-7.776-5.27 1.694-14.772 26.548-5.303 47.738Z" fill="#fff"/><path d="M16.875 36.914c4.155 9.3 15.063 13.47 24.362 9.314 9.3-4.156 13.47-15.063 9.314-24.363-4.155-9.299-15.063-13.469-24.362-9.313-9.3 4.155-13.47 15.063-9.314 24.362Z" fill="#EEE"/></g></g><defs><clipPath id="a"><path fill="#fff" d="M0 0h60v60H0z"/></clipPath></defs></svg>