<svg width="60" height="60" viewBox="0 0 60 60" fill="none" xmlns="http://www.w3.org/2000/svg">
<g clip-path="url(#clip0_38_66)">
<mask id="mask0_38_66" style="mask-type:alpha" maskUnits="userSpaceOnUse" x="5" y="7" width="51" height="44">
<path d="M24.7027 40.037C17.7172 43.1583 9.52376 40.026 6.40222 33.0406C3.28065 26.0551 6.41301 17.8617 13.3985 14.7401C20.384 11.6185 28.5774 14.7509 31.699 21.7364C34.8205 28.7219 31.6882 36.9153 24.7027 40.037Z" fill="black"/>
<path d="M49.8669 25.789C45.0306 27.9501 39.3583 25.7816 37.1973 20.9454C35.0362 16.1093 37.2047 10.4369 42.0408 8.27586C46.8771 6.11478 52.5494 8.28335 54.7104 13.1195C56.8715 17.9556 54.7029 23.6279 49.8669 25.789Z" fill="black"/>
<path d="M46.4751 49.6437C42.5793 51.3845 38.0098 49.6376 36.2689 45.7422C34.528 41.8464 36.2749 37.2769 40.1708 35.536C44.0666 33.7951 48.6358 35.542 50.3769 39.4379C52.1177 43.3334 50.3709 47.9029 46.4751 49.6437Z" fill="black"/>
</mask>
<g mask="url(#mask0_38_66)">
<path d="M-0.632884 45.685C7.71131 64.358 29.6129 72.731 48.2858 64.3869C66.9584 56.0424 75.3314 34.141 66.9873 15.4682C58.6432 -3.20466 36.7416 -11.5777 18.0688 -3.23347C-0.604069 5.11072 -8.97707 27.0123 -0.632884 45.685Z" fill="white"/>
<path d="M18.9093 36.1472C22.5711 44.3419 32.1826 48.0161 40.3771 44.3544C48.5719 40.6923 52.2461 31.081 48.5844 22.8865C44.9223 14.692 35.311 11.0175 27.1165 14.6793C18.9219 18.3411 15.2475 27.9526 18.9093 36.1472Z" fill="#EEEEEE"/>
</g>
</g>
<defs>
<clipPath id="clip0_38_66">
<rect width="60" height="60" fill="white"/>
</clipPath>
</defs>
</svg>
