<svg width="60" height="60" viewBox="0 0 60 60" fill="none" xmlns="http://www.w3.org/2000/svg">
<path d="M48.8214 18.2986L43.6908 21.7153C38.5463 14.2015 29.6883 13.9523 24.5802 16.5959C21.7366 18.0472 19.4279 20.3649 17.9877 23.2141C16.5475 26.0633 16.0503 29.2965 16.5679 32.4468C20.5782 26.0252 25.7844 21.1412 32.8669 18.4975L33.0097 18.6487C32.2424 19.43 31.4694 20.2086 30.7077 20.9955C27.8876 23.8997 25.2831 26.9774 23.2835 30.5173C21.9505 32.8753 20.8359 35.3397 20.3486 38.0338C20.2642 38.5153 20.2397 39.0054 20.2758 39.4929C20.3486 40.4843 20.3986 41.0958 21.3703 40.9166C21.965 40.9866 22.513 41.4024 21.3703 40.9166C22.6218 41.0021 22.7617 40.6873 23.4535 40.6873C24.7593 41.348 22.6842 41.1928 23.2835 41.5597C24.6838 42.425 24.7671 42.3352 25.2335 42.4595C25.6558 42.5722 25.9564 42.652 27.2622 43.058C27.3964 43.0998 31.2314 44.0073 30.0215 44.8307C30.394 44.8727 30.7189 44.9399 31.0465 44.9427C35.5722 44.9903 39.3725 43.3828 42.3606 39.9466C42.4922 39.7925 42.6687 39.5965 42.6715 39.4201C42.6939 37.7398 42.6715 36.0763 42.6715 34.312H33.9899L33.8302 34.0627C34.3249 33.6879 34.7928 33.2789 35.2305 32.8389C36.5467 31.3266 37.8098 29.7583 39.112 28.2489C39.2837 28.0203 39.5342 27.8636 39.8149 27.8092C42.7779 27.7812 45.7408 27.8092 48.7037 27.8092C48.7996 27.8279 48.8934 27.8561 48.9838 27.8932V28.6857C48.9838 32.6765 48.9838 36.6644 48.9978 40.6551C49.0242 41.3011 48.8263 41.9363 48.4377 42.453C45.5252 46.3737 41.8145 49.2023 37.0564 50.4709C30.0552 52.3388 23.614 50.9666 17.9458 46.5306C13.0757 42.7219 10.53 37.5689 10.1435 31.4078C9.55823 21.9449 14.8624 13.633 23.6784 10.1128C32.5616 6.55611 43.5032 10.0147 48.7037 18.0242C48.751 18.112 48.7904 18.2038 48.8214 18.2986Z" fill="white"/>
<path d="M21.2615 40.9283C21.2615 40.9283 26.1429 39.6846 27.8219 38.814C29.5008 37.9435 29.9361 37.7569 29.9361 37.7569L31.3352 37.0729L38.9527 38.5653L30.0916 44.7525L21.2615 40.9283Z" fill="url(#paint0_linear_38_105)"/>
<defs>
<linearGradient id="paint0_linear_38_105" x1="31.8327" y1="36.8242" x2="28.8888" y2="41.8394" gradientUnits="userSpaceOnUse">
<stop stop-color="white" stop-opacity="0"/>
<stop offset="1" stop-color="white"/>
</linearGradient>
</defs>
</svg>
