<svg width="40" height="43" viewBox="0 0 40 43" fill="none" xmlns="http://www.w3.org/2000/svg">
<path d="M38.9189 9.63015L33.7623 13.0642C28.5915 5.51214 19.6884 5.26162 14.5543 7.91877C11.6962 9.37744 9.37584 11.7069 7.92829 14.5706C6.48075 17.4343 5.981 20.684 6.50123 23.8504C10.532 17.3961 15.7646 12.4871 22.8832 9.83L23.0267 9.98199C22.2555 10.7673 21.4786 11.5498 20.713 12.3408C17.8785 15.2597 15.2608 18.3531 13.251 21.911C11.9112 24.281 10.7909 26.758 10.3012 29.4658C10.2164 29.9498 10.1918 30.4423 10.228 30.9323C10.3012 31.9287 10.3514 32.5434 11.3281 32.3633C11.9258 32.4336 12.4766 32.8516 11.3281 32.3633C12.5859 32.4492 12.7266 32.1328 13.4219 32.1328C14.7344 32.7969 12.6487 32.6409 13.251 33.0096C14.6584 33.8794 14.7422 33.7891 15.2109 33.9141C15.6354 34.0273 15.9375 34.1075 17.25 34.5156C17.3849 34.5576 21.2394 35.4697 20.0234 36.2973C20.3977 36.3395 20.7243 36.407 21.0536 36.4099C25.6023 36.4577 29.4219 34.842 32.4253 31.3883C32.5576 31.2335 32.7349 31.0365 32.7377 30.8591C32.7602 29.1703 32.7377 27.4983 32.7377 25.725H24.0119L23.8515 25.4745C24.3487 25.0977 24.8189 24.6867 25.2589 24.2444C26.5818 22.7245 27.8513 21.1482 29.1601 19.631C29.3327 19.4013 29.5845 19.2438 29.8666 19.1891C32.8447 19.161 35.8227 19.1891 38.8007 19.1891C38.8971 19.208 38.9914 19.2362 39.0822 19.2735V20.0701C39.0822 24.0812 39.0822 28.0894 39.0963 32.1004C39.1228 32.7497 38.9239 33.3882 38.5333 33.9075C35.6059 37.8482 31.8764 40.6911 27.0941 41.9662C20.0572 43.8437 13.5832 42.4644 7.8861 38.0058C2.99121 34.1777 0.432585 28.9986 0.0441465 22.8061C-0.54414 13.295 4.78703 4.94074 13.6479 1.40257C22.5764 -2.17218 33.5737 1.30406 38.8007 9.3543C38.8482 9.44256 38.8878 9.53487 38.9189 9.63015Z" fill="white"/>
<path d="M11.2188 32.375C11.2188 32.375 16.125 31.125 17.8125 30.25C19.5 29.375 19.9375 29.1875 19.9375 29.1875L21.3438 28.5L29 30L20.0938 36.2188L11.2188 32.375Z" fill="url(#paint0_linear_38_146)"/>
<defs>
<linearGradient id="paint0_linear_38_146" x1="21.8438" y1="28.25" x2="18.8849" y2="33.2908" gradientUnits="userSpaceOnUse">
<stop stop-color="white" stop-opacity="0"/>
<stop offset="1" stop-color="white"/>
</linearGradient>
</defs>
</svg>
