<svg width="60" height="60" fill="none" xmlns="http://www.w3.org/2000/svg"><path d="m53.528 15.441-6.384 4.251c-6.4-9.348-17.422-9.659-23.777-6.37a18.732 18.732 0 0 0-9.97 19.723c4.99-7.99 11.468-14.067 20.28-17.356l.178.188c-.955.972-1.917 1.94-2.865 2.92-3.508 3.613-6.749 7.442-9.237 11.847-1.658 2.934-3.045 6-3.651 9.352a7.37 7.37 0 0 0-.091 1.815c.09 1.234.153 1.995 1.362 1.772.74.087 1.421.604 0 0 1.557.106 1.73-.285 2.592-.285 1.624.822-.957.628-.212 1.085 1.742 1.077 1.846.965 2.426 1.12.526.14.9.239 2.524.744.168.052 4.939 1.181 3.434 2.206.463.052.867.136 1.275.14 5.63.058 10.36-1.942 14.077-6.217.164-.192.383-.436.387-.655.028-2.09 0-4.16 0-6.356H35.074l-.198-.31a16.587 16.587 0 0 0 1.742-1.523c1.637-1.881 3.209-3.832 4.83-5.71.213-.285.524-.48.874-.548 3.686-.035 7.373 0 11.06 0 .119.024.235.059.348.105v.986c0 4.965 0 9.927.017 14.893a3.484 3.484 0 0 1-.697 2.236c-3.623 4.879-8.24 8.398-14.16 9.976-8.711 2.325-16.726.617-23.778-4.902-6.06-4.739-9.227-11.15-9.708-18.816-.728-11.774 5.871-22.116 16.84-26.496C33.297.831 46.912 5.134 53.382 15.1c.06.109.108.223.147.341Z" fill="#fff"/><path d="M19.237 43.597s6.074-1.547 8.163-2.63c2.089-1.083 2.63-1.316 2.63-1.316l1.741-.85 9.478 1.856-11.025 7.699-10.987-4.759Z" fill="url(#a)"/><defs><linearGradient id="a" x1="32.39" y1="38.491" x2="28.727" y2="44.731" gradientUnits="userSpaceOnUse"><stop stop-color="#fff" stop-opacity="0"/><stop offset="1" stop-color="#fff"/></linearGradient></defs></svg>