<svg width="60" height="60" viewBox="0 0 60 60" fill="none" xmlns="http://www.w3.org/2000/svg">
<path fill-rule="evenodd" clip-rule="evenodd" d="M55.25 29.9999C55.25 44.0028 43.9113 55.3359 29.9141 55.3359C15.9169 55.3359 4.57812 44.0028 4.57812 29.9999C4.57812 15.9971 15.9169 4.66406 29.9141 4.66406C43.9113 4.66406 55.25 15.9971 55.25 29.9999ZM48.4142 28.1474C48.4142 38.3364 40.1678 46.6182 29.9141 46.6182C19.6604 46.6182 11.3597 38.3908 11.4139 28.1474C11.4139 17.9041 19.6604 13.7087 29.9141 13.7087C40.1135 13.7087 48.4142 17.9586 48.4142 28.1474ZM21.782 30.0218C21.0224 30.6755 20.0459 31.1115 18.9608 31.1115C16.628 31.1115 14.7834 29.259 14.7834 27.025C14.7834 24.7367 16.6823 22.8842 18.9608 22.8842C20.8597 22.8842 22.4872 24.1918 22.9756 25.9898C22.992 26.0228 23.0084 26.0608 23.0264 26.1023C23.0677 26.1978 23.1169 26.3118 23.1925 26.4257C23.8436 27.6244 24.7116 29.2045 25.6339 30.7846C26.5562 32.3646 27.587 33.8903 28.4551 35.0344C28.889 35.6338 29.2688 36.0152 29.5944 36.2877C29.6151 36.3085 29.6279 36.3293 29.6388 36.3471C29.6565 36.3758 29.6693 36.3966 29.7029 36.3966C29.7029 36.363 29.7236 36.3501 29.7522 36.3323C29.7699 36.3214 29.7906 36.3085 29.8113 36.2877C30.1017 36.0446 30.4352 35.6715 30.8505 35.207C30.9008 35.1508 30.9522 35.0932 31.0049 35.0344C31.9272 33.9447 33.0123 32.3646 33.9888 30.7846C34.9653 29.2045 35.8876 27.6244 36.5387 26.4257C36.6471 26.2077 36.7556 25.9898 36.8641 25.8264C37.3525 24.1373 38.98 22.8842 40.8246 22.8842C43.1575 22.8842 45.002 24.7367 45.002 27.025C45.002 29.3135 43.1032 31.166 40.8246 31.166C39.7396 31.166 38.7088 30.6755 37.9492 29.9673C37.6808 30.4391 37.3917 30.9107 37.0946 31.3953C36.9113 31.6943 36.725 31.9983 36.5387 32.3101C35.5078 33.9447 34.3685 35.6338 33.3377 36.8869C32.8495 37.4863 32.3069 38.0857 31.7645 38.5215C31.3304 38.903 30.5709 39.4478 29.7029 39.4478C28.8348 39.4478 28.0752 38.903 27.6412 38.5215C27.153 38.0857 26.6104 37.4863 26.1222 36.8325C25.1457 35.5793 24.0606 33.8903 23.084 32.2557C22.903 31.9375 22.7125 31.6193 22.5244 31.3051C22.2616 30.866 22.0033 30.4347 21.782 30.0218Z" fill="white"/>
</svg>
