<svg width="60" height="60" fill="none" xmlns="http://www.w3.org/2000/svg"><path fill-rule="evenodd" clip-rule="evenodd" d="M56.75 30c0 14.832-12.01 26.836-26.836 26.836C15.088 56.836 3.078 44.832 3.078 30c0-14.832 12.01-26.836 26.836-26.836C44.74 3.164 56.75 15.168 56.75 30Zm-7.24-1.962c0 10.792-8.735 19.564-19.596 19.564-10.86 0-19.653-8.714-19.595-19.564 0-10.85 8.734-15.294 19.595-15.294 10.803 0 19.596 4.502 19.596 15.294ZM21.3 30.023c-.804.693-1.839 1.154-2.988 1.154-2.47 0-4.425-1.962-4.425-4.328 0-2.424 2.012-4.386 4.425-4.386 2.011 0 3.735 1.385 4.252 3.29.018.035.035.075.054.119.044.1.096.222.176.342.69 1.27 1.61 2.944 2.586 4.617a46.801 46.801 0 0 0 2.989 4.502c.46.635.861 1.038 1.206 1.327a.321.321 0 0 1 .047.063c.019.03.033.053.068.053 0-.036.022-.05.052-.069.02-.011.041-.025.063-.047.308-.257.66-.653 1.1-1.145l.164-.182c.977-1.155 2.127-2.828 3.16-4.502a101.48 101.48 0 0 0 2.702-4.617c.114-.23.23-.461.344-.635.518-1.789 2.242-3.116 4.195-3.116 2.471 0 4.425 1.962 4.425 4.386 0 2.424-2.011 4.386-4.425 4.386-1.149 0-2.24-.52-3.045-1.27-.285.5-.59 1-.905 1.513-.195.317-.392.639-.59.969-1.091 1.731-2.298 3.52-3.39 4.848-.517.635-1.092 1.27-1.666 1.731-.46.404-1.264.981-2.184.981-.92 0-1.724-.577-2.184-.98a12.492 12.492 0 0 1-1.608-1.79c-1.035-1.327-2.184-3.116-3.219-4.848-.191-.337-.393-.674-.592-1.007-.279-.465-.552-.922-.787-1.359Z" fill="#fff"/></svg>