<svg width="60" height="60" viewBox="0 0 60 60" fill="none" xmlns="http://www.w3.org/2000/svg">
<path d="M7.51774 32.0935H3.5C4.09838 40.2972 8.54354 47.4751 14.9548 51.9187L17.0064 48.4153C11.7064 44.7408 8.11611 38.8445 7.51774 32.0935ZM52.3965 32.0935C51.7982 38.8445 48.2081 44.7408 42.9935 48.4153L45.0451 51.9187C51.4563 47.4751 55.8159 40.2972 56.4998 32.0935H52.3965ZM45.0451 8.16629L42.9935 11.5845C48.2081 15.259 51.7982 21.1553 52.3965 27.9062H56.4998C55.8159 19.7026 51.4563 12.5244 45.0451 8.16629ZM14.9548 8.16629C8.45804 12.5244 4.09838 19.7026 3.5 27.9062H7.51774C8.11611 21.1553 11.7064 15.259 16.9209 11.5845L14.9548 8.16629ZM29.9999 3.46631C25.8967 3.46631 22.05 4.4063 18.5451 6.02993L20.5967 9.53355C23.5032 8.16629 26.6661 7.48266 29.9999 7.48266C33.3338 7.48266 36.582 8.25173 39.4031 9.53355L41.4547 6.02993C37.9498 4.4063 34.0177 3.46631 29.9999 3.46631ZM39.4031 50.466C36.4968 51.8335 33.3338 52.5171 29.9999 52.5171C26.6661 52.5171 23.4177 51.7479 20.5967 50.466L18.5451 53.9698C22.05 55.6788 25.8967 56.5332 29.9999 56.5332C34.1032 56.5332 37.9498 55.5933 41.4547 53.9698L39.4031 50.466ZM11.7064 27.9062H15.7242C16.6645 21.6681 21.6225 16.7117 27.8628 15.8572V11.8408C19.4 12.6954 12.6467 19.4462 11.7064 27.9062ZM44.1901 32.0935C43.2499 38.3317 38.2917 43.2878 32.0515 44.2281V48.2442C40.5144 47.3043 47.2675 40.5535 48.2081 32.0935H44.1901ZM32.0515 11.7554V15.8572C38.2917 16.7972 43.2499 21.7535 44.1901 27.9917H48.2081C47.2675 19.4462 40.5144 12.6954 32.0515 11.7554ZM15.7242 32.0935H11.7064C12.6467 40.5535 19.4 47.3043 27.8628 48.2442V44.2281C21.6225 43.2878 16.6645 38.3317 15.7242 32.0935ZM35.8129 32.0935C34.9579 34.4861 32.6499 36.1952 29.9999 36.1952C27.3499 36.1952 25.0419 34.4861 24.187 32.0935H19.9983C20.9387 36.7079 25.0419 40.2116 29.9999 40.2116C34.9579 40.2116 39.0611 36.7079 40.0014 32.0935H35.8129ZM29.9999 19.788C25.1274 19.788 20.9387 23.2917 19.9983 27.9062H24.187C25.0419 25.5135 27.3499 23.8044 29.9999 23.8044C32.6499 23.8044 34.9579 25.5135 35.8129 27.9062H40.0014C38.9756 23.2917 34.8724 19.788 29.9999 19.788Z" fill="white"/>
</svg>
