<svg width="120" height="121" viewBox="0 0 120 121" fill="none" xmlns="http://www.w3.org/2000/svg">
<g clip-path="url(#clip0_136_714)">
<path fill-rule="evenodd" clip-rule="evenodd" d="M50.059 4.56787H70.3772L86.9836 14.2286L103.795 24.9226L113.151 41.1884V79.7339L103.247 96.8226L86.4312 106.45L69.3509 116.61H49.2295L33.1865 106.431L16.6848 96.8305L6.5 80.2835V41.2261L15.5937 24.1084L33.2417 14.1961L50.059 4.56787ZM41.5093 106.736L50.45 112.409H61.44L52.3504 106.736H41.5093ZM56.9974 104.684L68.7996 112.05L81.1814 104.684L68.7985 97.7061L56.9974 104.684ZM71.7015 94.519L84.6217 101.801L91.8401 89.7466L79.3232 82.0605L71.7015 94.519ZM80.7299 77.9939L92.6092 85.2884V71.5419L80.7299 64.6311V77.9939ZM76.1765 60.9096L68.5576 47.439L51.7513 46.7564L43.4501 60.0187L51.0943 74.2096H67.6265L76.1765 60.9096ZM61.75 78.4112L52.3237 84.6044H41.2051L50.4768 78.4112H61.75ZM44.3585 70.5643L39.4576 61.4659L31.2427 56.7833L35.8588 65.4552L44.3585 70.5643ZM31.4729 66.1571L25.081 54.1495L11.5545 60.8245L18.9507 73.4421L31.4729 66.1571ZM20.2979 80.1697V94.072L32.1771 100.983V87.8486L20.2979 80.1697ZM36.3786 88.8054V102.535H50.8514V88.8054H36.3786ZM55.0528 87.8385V100.953L66.6725 94.0821V80.2045L55.0528 87.8385ZM70.8741 87.8206L76.5283 78.5776V68.1319L70.8741 76.9278V87.8206ZM34.2589 84.1915L22.2128 76.4051L34.2603 69.3963L45.9178 76.404L34.2589 84.1915ZM16.0965 87.8592V76.8807L10.7014 67.677V79.0941L16.0965 87.8592ZM10.7014 56.5603V42.9256L23.8774 34.8473V50.0583L10.7014 56.5603ZM28.0789 50.1437L38.9206 56.3239V41.8605L28.0789 34.9311V50.1437ZM24.4062 29.5949L28.8848 21.462L18.7258 27.168L14.0699 35.9322L24.4062 29.5949ZM35.1248 18.8404L47.6784 25.4286L40.3259 37.7724L28.7675 30.3849L35.1248 18.8404ZM43.122 41.2883V52.624L48.5171 44.0046V32.2307L43.122 41.2883ZM50.6099 22.2223L62.3837 15.9437L50.6094 9.09403L38.6458 15.9434L50.6099 22.2223ZM58.4065 8.76931L67.2652 13.9228H78.1025L69.2444 8.76931H58.4065ZM83.7909 18.1242H68.7991V32.8924H83.7909V18.1242ZM87.992 33.8397L100.131 41.5614V27.5712L87.992 19.8495V33.8397ZM104.332 34.2835L108.949 42.3105V52.7091L104.332 44.8181V34.2835ZM98.0864 45.2405L85.9007 37.4886L73.9071 45.2411L85.8996 51.8301L98.0864 45.2405ZM101.444 48.2014L88.7482 55.0663L95.4999 67.4019L108.191 59.7326L101.444 48.2014ZM108.949 64.1835L96.8108 71.5189V85.3198L108.949 77.9838V64.1835ZM105.124 85.2049L96.2439 90.5712L91.3051 98.8181L100.178 93.7381L105.124 85.2049ZM89.2446 64.7241L84.3427 55.7687L75.279 50.7889L80.1775 59.4494L89.2446 64.7241ZM69.2304 43.2615L78.772 37.0938H67.2786L57.7436 42.7949L69.2304 43.2615ZM52.7185 40.9043L64.5975 33.8016V19.5245L52.7185 25.8593V40.9043Z" fill="white"/>
</g>
<defs>
<clipPath id="clip0_136_714">
<rect width="107.001" height="112.043" fill="white" transform="translate(6.5 4.56787)"/>
</clipPath>
</defs>
</svg>
