<svg width="120" height="120" viewBox="0 0 120 120" fill="none" xmlns="http://www.w3.org/2000/svg">
<path d="M59.6703 38.6012C57.7411 36.8145 53.9157 34.3507 47.2795 34.3826C40.6429 34.4151 41.7269 37.8975 41.7269 37.8975C41.7269 37.8975 41.5917 40.7387 45.9262 40.8272C50.2608 40.9156 54.9078 41.0905 58.6782 42.5274C62.4481 43.9642 61.6015 40.3849 59.6703 38.6012Z" fill="white"/>
<path d="M43.9869 45.0908C43.5879 45.3355 43.4862 46.0244 43.9486 46.1109C46.5696 46.5974 50.7154 47.4814 55.3409 46.7217C55.7782 46.65 55.7133 46.0411 55.3959 45.7266C53.7556 44.0928 49.3489 41.8024 43.9869 45.0908Z" fill="white"/>
<path d="M98.5131 90.7861C98.4526 90.6991 98.3696 90.6304 98.2733 90.5881C98.177 90.5463 98.0713 90.5321 97.9676 90.5473C97.8635 90.5625 97.7662 90.6068 97.6856 90.6751C97.605 90.7434 97.5446 90.8333 97.5112 90.934C94.8134 99.0955 92.6052 97.096 91.5845 95.3413C91.2298 94.7216 90.9654 94.0524 90.7993 93.3556C88.2254 82.9293 90.5821 73.3257 90.5821 73.3257C91.9836 77.7639 95.6586 79.0798 97.5411 79.4641C97.6483 79.4862 97.7593 79.4774 97.861 79.4376C97.9632 79.3978 98.0522 79.3295 98.1175 79.24C98.1824 79.1511 98.2217 79.0444 98.2296 78.9339C98.2374 78.8228 98.2143 78.7118 98.1622 78.614C90.9497 64.2257 95.2139 58.1286 95.2139 58.1286C96.4552 59.533 98.5013 59.6588 99.7912 59.5861C99.8993 59.5797 100.004 59.5418 100.093 59.4779C100.181 59.4136 100.25 59.3256 100.292 59.2234C100.333 59.1207 100.345 59.0087 100.327 58.8996C100.309 58.7905 100.261 58.6888 100.189 58.6062C94.9618 52.7337 94.5643 50.7411 94.3604 40.794C94.2488 35.2816 92.3462 32.3829 90.5772 30.8729C88.5527 29.1471 86.9375 26.9487 86.0535 24.4117C79.0011 4.23603 65.8069 1.56997 53.5631 2.32488C38.3625 3.26348 30.2694 15.1043 26.4272 21.0044C22.3635 27.2425 19.1965 36.4668 19.4103 39.2893C19.624 42.1119 22.1831 41.6696 22.1831 44.9324C22.1831 48.1957 17.2285 50.9092 19.1764 60.0824C20.0363 64.124 23.5192 67.1539 21.9527 76.3865C19.1513 92.9797 31.6472 113.142 34.7612 116.15C35.1385 116.512 35.8019 116.219 35.7331 115.695C35.2471 111.992 35.9587 106.854 35.9587 106.854C42.2194 120.513 59.7349 117.979 65.2207 116.807C65.3367 116.783 65.4428 116.723 65.5239 116.635C65.6055 116.547 65.6575 116.435 65.6743 116.316C65.691 116.196 65.6708 116.074 65.6168 115.966C65.5627 115.859 65.4777 115.771 65.3725 115.714C59.8336 112.72 58.5673 106.636 58.5673 106.636C64.0797 109.292 67.6108 108.847 69.313 108.278C69.4166 108.242 69.508 108.178 69.5773 108.092C69.6461 108.006 69.6899 107.902 69.7026 107.792C69.7159 107.681 69.6982 107.569 69.651 107.469C69.6044 107.369 69.5307 107.284 69.4383 107.225C67.7779 106.164 65.2472 101.784 63.3333 97.4975C62.5471 95.7285 62.2685 93.7698 62.5289 91.847C62.7898 89.9237 63.579 88.1149 64.8065 86.629C67.0462 83.9087 69.9847 80.1117 73.3251 76.077C74.0234 75.2269 74.9958 76.0568 75.3634 76.9782C80.2438 89.4156 86.593 98.7913 90.9698 101.376C94.1432 103.37 97.6193 103.729 99.1814 102.474C103.487 99.0173 100.073 93.0544 98.5131 90.7861ZM45.6753 79.2105C40.4401 79.5319 41.6332 72.6068 37.7876 72.7768C33.6688 72.9636 34.9032 78.245 32.1401 78.5663C29.3775 78.8877 29.6999 70.8113 31.6389 69.8742C34.6943 68.402 38.2721 68.0482 41.1369 68.1504C44.5309 68.2693 47.7735 68.1347 49.2949 71.4574C51.0973 75.3763 50.9086 78.898 45.6753 79.2105ZM78.781 29.7216C71.8205 33.9318 71.4112 36.0128 70.4137 43.416C70.1935 45.043 69.9695 46.9476 70.7011 48.0237C72.3532 50.4536 75.4951 52.2526 74.6332 56.3552C72.5787 66.12 67.1617 77.5683 59.8955 81.1456C59.0199 81.5756 58.018 80.7053 57.814 79.7393C57.0037 75.8696 55.0765 68.8339 54.5552 66.5367C51.9675 53.3779 39.6367 53.1961 39.2912 55.7125C39.189 56.4608 41.7885 57.4471 43.4385 57.9945C44.954 58.5045 45.0056 60.7045 43.497 61.2248C43.1014 61.3526 42.6897 61.4204 42.2744 61.4253C39.2259 61.213 35.3592 61.4543 33.6152 61.5835C33.0315 61.6283 32.4526 61.4499 31.9912 61.0833C31.5293 60.7167 31.2188 60.1885 31.1195 59.6013C30.4379 55.5729 31.6423 54.1297 33.0988 50.3038C33.8241 48.3997 34.7543 44.5605 35.0766 42.5915C35.2437 41.5355 35.172 40.2672 35.0634 39.3164C34.9317 38.1931 34.8796 37.0609 34.9081 35.9297C35.0118 32.2792 35.3675 29.2985 38.0987 29.2985C43.0179 29.2985 53.4274 29.3137 55.0765 26.8519C56.8052 24.2741 47.1569 26.7733 36.7891 26.4332C36.5862 26.4263 36.3926 26.3448 36.2447 26.2032C36.0972 26.0617 36.0049 25.8706 35.9852 25.6647C35.9852 25.6003 35.9739 25.5374 35.967 25.4726C35.9513 25.2883 35.9734 25.103 36.0314 24.9276C36.0894 24.7527 36.1822 24.591 36.3041 24.4544C36.426 24.3173 36.5744 24.2072 36.74 24.1311C36.9056 24.0549 37.0849 24.0146 37.2667 24.0122C42.8042 23.9424 47.0168 23.5512 48.1239 21.909C49.2502 20.229 43.6543 20.9823 37.3119 21.0417C36.4997 21.0417 35.8284 21.0299 35.8702 20.2054V20.1779C35.8874 19.8506 36.0221 19.5415 36.2486 19.3086C36.4751 19.0762 36.7783 18.9366 37.0997 18.9165C40.8312 18.6664 42.4214 18.3774 42.5786 17.1632C42.7354 15.9495 42.1944 16.0719 38.0682 16.3131C37.1714 16.3642 37.4284 15.6724 37.938 14.9156C39.2259 12.9857 44.984 7.41898 57.7241 7.82536C79.549 8.53266 78.8591 24.2672 79.5274 28.0897C79.5815 28.4066 79.5387 28.7329 79.4055 29.0248C79.2719 29.3167 79.0542 29.5599 78.781 29.7216Z" fill="white"/>
</svg>
