<svg width="60" height="60" viewBox="0 0 60 60" fill="none" xmlns="http://www.w3.org/2000/svg">
<g clip-path="url(#clip0_38_322)">
<path fill-rule="evenodd" clip-rule="evenodd" d="M52.6873 0.691895L53.2663 1.16624C55.5646 3.04944 57.6024 5.23879 59.3174 7.67221L60 8.64078L42.7767 18.584C36.6608 22.115 29.1211 22.0954 23.0236 18.5328L14.9885 13.838L14.9817 13.8343L12.6078 12.4469L13.3798 11.4697C15.3048 9.03277 17.6853 6.97192 20.3934 5.41544L20.9372 5.10284L28.3424 9.42964C29.9334 10.3592 31.7361 10.7688 33.5139 10.6577C34.6858 10.5845 35.8469 10.285 36.9293 9.75909C37.056 9.69753 37.1817 9.63283 37.3061 9.56505C37.3729 9.52873 37.4392 9.49155 37.5052 9.45344L37.5054 9.45334L52.6873 0.691895ZM31.5476 12.7538C30.0553 12.5678 28.5919 12.0829 27.2502 11.2989L20.937 7.61008C19.0471 8.76793 17.3432 10.2005 15.8812 11.8523L16.0638 11.959C20.8458 14.6354 26.5753 14.9019 31.5476 12.7538ZM23.5329 16.3229L24.1158 16.6635C29.5421 19.834 36.2517 19.8514 41.6943 16.7091L56.8452 7.9623C55.5494 6.26681 54.0804 4.71054 52.4647 3.31996L38.5877 11.3283C38.5097 11.3733 38.4312 11.4175 38.3524 11.4604L34.4422 13.7179C31.0776 15.6603 27.2821 16.5284 23.5329 16.3229ZM3.20649 11.7336L20.4845 21.7099C26.6004 25.2409 30.3533 31.7802 30.3168 38.8421L30.2543 50.9054L29.0218 50.7254C25.9488 50.2768 22.974 49.2456 20.2719 47.6786L19.7293 47.3639L19.7739 38.7876C19.777 38.1676 19.7173 37.5564 19.5991 36.9616C19.1071 34.4866 17.6025 32.2972 15.4089 30.9569C15.3443 30.9174 15.279 30.8783 15.2131 30.8403L15.2128 30.8402L0 22.0532L0.117872 21.3174C0.596811 18.3275 1.47994 15.4724 2.70936 12.8101L3.20649 11.7336ZM21.8462 37.2956C21.7145 36.2736 21.4444 35.2834 21.0501 34.3498C25.3983 37.5833 28.0325 42.6814 28.1034 48.1636L28.1024 48.368C25.9409 47.9277 23.8484 47.1683 21.9008 46.1105L21.9387 38.7988C21.9414 38.2922 21.9101 37.7901 21.8462 37.2956ZM28.1483 39.5065L28.1518 38.831C28.1844 32.5464 24.8446 26.7269 19.4021 23.5848L4.19786 14.8059C3.3891 16.7535 2.7756 18.8026 2.38177 20.9288L16.2955 28.9655L16.2956 28.9656C16.3747 29.0112 16.4529 29.0576 16.5305 29.1049L20.4373 31.3607C23.8021 33.3033 26.4515 36.1565 28.1483 39.5065ZM54.7078 16.3063L55.1682 17.4636C56.316 20.3492 56.9106 23.4412 56.9045 26.5647L56.9033 27.192L49.4537 31.4415C48.1377 32.1922 47.0546 33.2427 46.2706 34.479C45.3591 35.9159 44.8515 37.6041 44.8515 39.3649L44.8482 56.9386L44.1507 57.2038C41.4186 58.2429 38.5122 58.9273 35.488 59.201L34.308 59.3078L34.3086 39.3649C34.3086 32.303 38.0954 25.7832 44.2294 22.2839L52.3151 17.6712L52.3192 17.6688L54.7078 16.3063ZM45.8885 23.8299L45.3022 24.1643C39.8435 27.2783 36.4735 33.0805 36.4735 39.365L36.4729 56.9151C38.6214 56.6366 40.6994 56.1356 42.6836 55.436L42.6867 39.3647C42.6867 39.2773 42.6877 39.1899 42.6897 39.1028L42.6899 34.5803C42.6899 30.6952 43.836 26.9741 45.8885 23.8299ZM45.0321 32.4771C45.9298 31.3113 47.0607 30.3142 48.3809 29.5611L54.7321 25.9382C54.6743 23.7225 54.2856 21.5306 53.5862 19.4386L53.4048 19.542C48.6944 22.345 45.598 27.1744 44.972 32.5556C44.9919 32.5293 45.0119 32.5031 45.0321 32.4771Z" fill="white"/>
</g>
<defs>
<clipPath id="clip0_38_322">
<rect width="60" height="60" fill="white"/>
</clipPath>
</defs>
</svg>
