<svg width="120" height="120" viewBox="0 0 120 120" fill="none" xmlns="http://www.w3.org/2000/svg">
<path fill-rule="evenodd" clip-rule="evenodd" d="M27.215 73.4826L28.8956 85.2799L20.4898 86.965L13.7646 85.2799L3.67676 68.4273L7.03938 38.0907L18.8078 22.9232L33.9387 21.2381L49.0698 12.811L69.247 22.9232L64.2023 27.9786C78.7731 30.2254 88.3008 31.912 92.7837 33.0354C99.509 34.7205 111.279 43.1476 112.959 44.8327C114.641 46.5178 113.839 54.2645 112.959 60.0002C112.372 63.8242 111.251 66.6326 109.597 68.4273L116.322 107.189H101.191L104.554 103.819L91.1032 75.1677L54.1144 80.2246L40.667 107.189H25.5361L30.5793 98.7623L40.667 63.3704L33.9417 56.63L18.8078 60.0002L17.1257 73.4826L22.1689 78.5395L27.2135 73.4826H27.215ZM50.866 93.3874L55.8894 83.0362L62.5872 81.3115L67.6105 107.189H50.866L54.2149 105.465L50.866 93.3874ZM83.1372 81.6693L88.1607 78.2671L96.533 92.7283L94.8585 107.189H79.7883L83.1372 102.085V81.6693Z" fill="white"/>
</svg>
