<svg width="120" height="120" viewBox="0 0 120 120" fill="none" xmlns="http://www.w3.org/2000/svg">
<path d="M91.2593 64.035C90.5131 62.8184 90.1178 61.4191 90.1178 59.9919C90.1178 58.5648 90.5131 57.1655 91.2593 55.9489L111.431 23.0343C112.148 21.862 112.541 20.5198 112.567 19.1458C112.593 17.7718 112.253 16.4156 111.581 15.2166C110.909 14.0176 109.931 13.0192 108.745 12.324C107.56 11.6289 106.211 11.262 104.836 11.2612H86.2161C84.8948 11.2605 83.5959 11.5985 82.4423 12.2429C81.2887 12.8873 80.3193 13.8167 79.6274 14.9423L63.0625 41.9977L72.8237 57.9183H77.1793C77.7489 57.9183 78.295 58.1448 78.698 58.5472C79.1005 58.9496 79.3269 59.4963 79.3269 60.0654C79.3269 60.6351 79.1005 61.1812 78.698 61.5842C78.295 61.9866 77.7489 62.2131 77.1793 62.2131H72.7189L63.0625 77.9676L79.6274 105.017C80.3193 106.142 81.2887 107.072 82.4423 107.717C83.5959 108.361 84.8948 108.699 86.2161 108.698H104.836C106.211 108.697 107.56 108.331 108.745 107.635C109.931 106.94 110.909 105.942 111.581 104.743C112.253 103.544 112.593 102.188 112.567 100.814C112.541 99.4396 112.148 98.0974 111.431 96.9251L91.2593 64.035Z" fill="white"/>
<path d="M66.3334 62.2288H53.3642C52.7945 62.2288 52.2484 62.0024 51.846 61.5999C51.443 61.1975 51.2171 60.6509 51.2171 60.0817C51.2171 59.5121 51.443 58.966 51.846 58.5635C52.2484 58.1605 52.7945 57.9341 53.3642 57.9341H66.3888C66.1952 57.2372 65.9063 56.5705 65.5302 55.9526L40.3764 14.9583C39.6833 13.8323 38.7129 12.9027 37.5582 12.2582C36.404 11.6138 35.1035 11.2761 33.781 11.2773H15.1612C13.7867 11.2772 12.4368 11.6437 11.2511 12.3388C10.0653 13.034 9.08636 14.0328 8.41509 15.2323C7.74377 16.4317 7.40459 17.7884 7.43223 19.1627C7.45981 20.5369 7.85315 21.8789 8.57207 23.0504L28.7439 55.9652C29.4874 57.1824 29.8805 58.5816 29.8805 60.0077C29.8805 61.4344 29.4874 62.8336 28.7439 64.0508L8.57207 96.9656C7.85315 98.1373 7.45981 99.4789 7.43223 100.854C7.40459 102.228 7.74377 103.585 8.41509 104.784C9.08636 105.983 10.0653 106.982 11.2511 107.677C12.4368 108.372 13.7867 108.739 15.1612 108.739H33.781C35.1035 108.74 36.404 108.402 37.5582 107.758C38.7129 107.113 39.6833 106.184 40.3764 105.058L65.5302 64.0634C65.8745 63.4883 66.1442 62.872 66.3334 62.2288Z" fill="white"/>
</svg>
