<?xml version="1.0" encoding="UTF-8"?>
<svg width="24px" height="24px" viewBox="0 0 24 24" version="1.1" xmlns="http://www.w3.org/2000/svg" xmlns:xlink="http://www.w3.org/1999/xlink">
    <title>icon-ticket copy</title>
    <g id="icon-ticket-copy" stroke="none" stroke-width="1.25" fill="none" fill-rule="evenodd" stroke-linecap="round" stroke-linejoin="round">
        <g id="Group" transform="translate(1.000000, 1.000000)" stroke="#000000">
            <line x1="14.6666667" y1="0" x2="14.6666667" y2="2.44444444" id="Path"></line>
            <line x1="14.6666667" y1="7.33333333" x2="14.6666667" y2="9.77777778" id="Path"></line>
            <line x1="14.6666667" y1="14.6666667" x2="14.6666667" y2="17.1111111" id="Path"></line>
            <path d="M2.44444444,0 L19.5555556,0 C20.9055849,0 22,1.09441506 22,2.44444444 L22,6.11111111 C20.6499706,6.11111111 19.5555556,7.20552617 19.5555556,8.55555556 C19.5555556,9.90558494 20.6499706,11 22,11 L22,14.6666667 C22,16.0166961 20.9055849,17.1111111 19.5555556,17.1111111 L2.44444444,17.1111111 C1.09441506,17.1111111 0,16.0166961 0,14.6666667 L0,11 C1.35002939,11 2.44444444,9.90558494 2.44444444,8.55555556 C2.44444444,7.20552617 1.35002939,6.11111111 0,6.11111111 L0,2.44444444 C0,1.09441506 1.09441506,0 2.44444444,0" id="Path"></path>
        </g>
    </g>
</svg>