<svg width="120" height="120" fill="none" xmlns="http://www.w3.org/2000/svg"><g clip-path="url(#a)" fill="#052B65"><path fill-rule="evenodd" clip-rule="evenodd" d="M74.797 7.375c3.474-.638 16.47-3.025 17.049 1.043.593 4.164-4.763 9.908-10.367 12.49-.295.135-.557.322-.82.51a6.162 6.162 0 0 1-.675.44c-.881.472-1.407 1.65-1.277 2.713v14.88c-4.42-3.057-10.914-4.959-18.275-4.959-7.361 0-13.856 1.902-18.275 4.96V24.57c.13-1.063-.396-2.241-1.279-2.713a6.223 6.223 0 0 1-.673-.44c-.263-.187-.526-.375-.822-.51-5.603-2.582-10.958-8.326-10.365-12.49.578-4.068 13.578-1.681 17.05-1.043.277.05.492.09.637.114.1.018.194-.067.174-.166-.2-.984-.344-3.644 1.572-4.219 1.225-.37 2.032.31 2.511.997.215.308.858 1.638 1.256 2.562.215.498.717 1.227 1.266 1.214a23.636 23.636 0 0 1 6.948-1.06c2.319 0 4.638.353 6.946 1.06.55.013 1.051-.717 1.267-1.215.399-.923 1.041-2.253 1.255-2.561.48-.686 1.288-1.366 2.513-.997 1.915.575 1.77 3.235 1.57 4.22-.02.097.075.183.174.165.146-.024.363-.064.64-.115v.001ZM57.672 23.848c.065-.376-.552-1.331-2.473-2.628a16.023 16.023 0 0 0-4.408-2.044 3.612 3.612 0 0 0-1.132-.163 3.605 3.605 0 0 0-1.954.675c-.783.535-1.325 1.249-1.488 2.172-.169.923.093 1.777.643 2.544a3.552 3.552 0 0 0 1.6 1.292c.356.14.739.204 1.121.228a16.186 16.186 0 0 0 4.853-.438c2.256-.572 3.167-1.263 3.238-1.638Zm14.73 1.848a3.547 3.547 0 0 0 1.601-1.292c.55-.767.811-1.62.644-2.543-.163-.923-.706-1.639-1.49-2.173a3.596 3.596 0 0 0-1.954-.675 3.612 3.612 0 0 0-1.131.163 16.017 16.017 0 0 0-4.408 2.043c-1.922 1.298-2.536 2.252-2.473 2.629.071.375.981 1.066 3.238 1.638 1.581.39 3.225.536 4.853.438a3.64 3.64 0 0 0 1.12-.228Z"/><path fill-rule="evenodd" clip-rule="evenodd" d="M38.66 49.298c0-6.81 9.747-12.33 21.77-12.33 12.024 0 21.772 5.52 21.772 12.33 0 6.81-9.747 12.33-21.771 12.33-12.024 0-21.77-5.52-21.77-12.33Zm7.535-.767c.333 2.028 2.068 2.921 3.93 2.028a5.352 5.352 0 0 0 3.118-4.571c-.008-1.046-.57-.644-1.266-.149-.928.662-2.093 1.494-2.486-.74-.684-3.903-3.66 1.26-3.295 3.432h-.001Zm24.54 2.028c1.862.893 3.597 0 3.93-2.028.364-2.172-2.612-7.335-3.297-3.431-.39 2.233-1.556 1.401-2.486.738-.694-.495-1.256-.896-1.264.15a5.35 5.35 0 0 0 3.116 4.57Z"/><path d="M12.186 77.29c.695-.59 1.885-.886 3.572-.886h14.647a3.05 3.05 0 0 0 3.058-3.044 3.05 3.05 0 0 0-3.058-3.046H16.007C8.002 70.314 4 73.554 4 80.031v.221c0 3.174.977 5.569 2.931 7.183 1.956 1.614 4.98 2.421 9.077 2.421h14.397a3.05 3.05 0 0 0 3.058-3.044 3.05 3.05 0 0 0-3.057-3.044H15.757c-1.668 0-2.853-.296-3.558-.886-.704-.591-1.056-1.477-1.056-2.658v-.222c0-1.217.347-2.121 1.042-2.712h.001Zm48.248-6.893-3.484 6.008h1.748c1.686 0 2.877.296 3.572.886.695.59 1.043 1.495 1.043 2.713v.222c0 1.181-.352 2.066-1.057 2.657-.703.59-1.889.886-3.557.886h-6.018l-3.528 6.088h9.297c4.095 0 7.12-.806 9.075-2.42 1.954-1.616 2.932-4.01 2.932-7.185v-.221c0-5.914-3.348-9.12-10.023-9.634Zm-6.224 6.007 3.53-6.09h-8.989c-8.005 0-12.008 3.24-12.008 9.717v.221c0 3.174.977 5.569 2.934 7.183 1.57 1.297 3.843 2.063 6.793 2.32l3.47-5.987h-1.439c-1.667 0-2.854-.296-3.558-.886-.704-.591-1.056-1.477-1.056-2.658v-.222c0-1.217.347-2.121 1.042-2.712.695-.59 1.885-.886 3.572-.886m64.9-6.09a3.512 3.512 0 0 0-2.91 1.542l-3.457 5.114c-1.318 1.949-4.153 2.073-5.637.245l-3.689-4.541a3.517 3.517 0 0 0-5.454 0l-3.689 4.541c-1.484 1.828-4.32 1.704-5.637-.245l-3.457-5.113a3.51 3.51 0 0 0-2.91-1.541c-2.82 0-4.488 3.148-2.894 5.466l8.632 12.556c1.33 1.934 4.158 2.041 5.631.213l4.316-5.356a3.517 3.517 0 0 1 5.472 0l4.314 5.356c1.474 1.828 4.301 1.721 5.631-.213l8.632-12.556c1.594-2.318-.073-5.466-2.894-5.466v-.002ZM10.514 116.82h2.345v-7.118h3.985c4.014 0 6.781-1.812 6.781-5.769 0-3.315-1.867-5.795-6.37-5.795h-6.74v18.682Zm2.357-9.225v-7.35h4.12c2.594 0 4.185 1.273 4.185 3.638 0 2.132-1.325 3.713-4.557 3.713h-3.748v-.001Zm20.582-3.727c-1.788 0-3.311.874-4.292 2.39h-.053v-2.235h-2.197v12.797h2.197v-6.167c0-2.57 1.51-4.446 4.014-4.446.225 0 .556.013.874.039v-2.351c-.16-.027-.344-.027-.543-.027Zm8.714 13.119c3.894 0 6.795-2.66 6.795-6.539 0-3.907-2.901-6.58-6.795-6.58-4.093 0-6.82 2.867-6.82 6.58 0 3.674 2.728 6.539 6.82 6.539Zm0-1.953c-2.728 0-4.609-2.055-4.609-4.586 0-2.558 1.855-4.613 4.61-4.613 2.555 0 4.568 1.876 4.568 4.613 0 2.698-2.026 4.586-4.569 4.586Zm13.774 1.953c1.563 0 2.476-.385 3.192-.784l-.584-1.863c-.622.348-1.444.656-2.224.656-1.245 0-1.616-.758-1.616-2.301v-6.822h4.37v-1.85h-4.37v-4.611l-2.198.23v4.382h-1.683v1.85h1.683v7.144c0 2.583 1.085 3.983 3.43 3.983V116.987Zm11.548 0c3.895 0 6.795-2.66 6.795-6.539 0-3.907-2.9-6.58-6.795-6.58-4.092 0-6.82 2.867-6.82 6.58 0 3.674 2.728 6.539 6.82 6.539Zm0-1.953c-2.727 0-4.609-2.055-4.609-4.586 0-2.558 1.855-4.613 4.61-4.613 2.556 0 4.57 1.876 4.57 4.613 0 2.698-2.028 4.586-4.57 4.586Zm15.893 1.953c2.371 0 4.344-.938 5.457-2.171l-1.523-1.324c-.808.887-2.186 1.53-3.735 1.53-2.65 0-4.49-1.863-4.49-4.6 0-2.711 1.815-4.613 4.49-4.613 1.576 0 2.874.655 3.695 1.606l1.524-1.285c-1.299-1.491-3.352-2.273-5.325-2.273-3.88 0-6.608 2.709-6.608 6.59 0 3.88 2.728 6.54 6.528 6.54h-.013Zm14.463 0c3.893 0 6.794-2.66 6.794-6.539 0-3.907-2.901-6.58-6.794-6.58-4.093 0-6.82 2.867-6.82 6.58 0 3.674 2.728 6.539 6.82 6.539Zm0-1.953c-2.729 0-4.61-2.055-4.61-4.586 0-2.558 1.855-4.613 4.61-4.613 2.556 0 4.568 1.876 4.568 4.613 0 2.698-2.025 4.586-4.568 4.586Zm10.369 1.786h2.186V97.457h-2.186v19.363Z"/></g><defs><clipPath id="a"><path fill="#fff" transform="translate(4 3)" d="M0 0h112.914v114H0z"/></clipPath></defs></svg>