<?xml version="1.0" encoding="UTF-8"?>
<svg width="120px" height="120px" viewBox="0 0 120 120" version="1.1" xmlns="http://www.w3.org/2000/svg" xmlns:xlink="http://www.w3.org/1999/xlink">
    <title>CoW</title>
    <g id="CoW" stroke="none" stroke-width="1" fill="none" fill-rule="evenodd">
        <g id="2021-cowProtocol-icon-black" transform="translate(1.000000, 12.000000)" fill="#000000" fill-rule="nonzero">
            <path d="M114.700237,34.549599 L95.8094746,31.4418324 L110.234909,25.372954 L113.490468,12.2761727 L109.682481,5.47237175 L91.0851448,0 L100.553475,13.6570361 L100.60921,13.7361309 L93.2178141,15.593211 L74.9778356,2.98912446 L59.5049178,4.84126112 L44.0270821,2.98912446 L25.7871036,15.593211 L18.4104609,13.7377788 L18.4661956,13.658684 L27.919773,0 L9.32243712,5.47237175 L5.51445023,12.2761727 L8.77164779,25.3762496 L23.1970824,31.445128 L4.30468083,34.549599 L0,46.2342085 L12.9501061,52.5354279 L25.1871367,48.1934527 L26.9460561,61.3363726 L34.994793,80.1988355 L38.9109706,90.4350214 L57.8656638,103.828408 L59.4770504,104.968692 L59.4770504,104.991761 L59.4901645,105 L59.506557,104.988465 L59.5229496,105 L59.5344243,104.991761 L59.5344243,104.965396 L61.1441717,103.828408 L80.0939472,90.4350214 L84.0101248,80.1988355 L92.0539439,61.3363726 L93.8128633,48.1934527 L106.049894,52.5354279 L119,46.2342085 L114.700237,34.549599 Z M10.6026944,7.08557618 L23.2626526,3.35988136 L16.3925393,13.2747446 L8.01595173,11.71427 L10.6026944,7.08557618 Z M7.81596275,13.6191365 L15.1926054,14.991761 L9.99944899,22.4101944 L7.81596275,13.6191365 Z M25.028129,46.2193782 L13.0779679,50.4558937 L2.38839298,45.266945 L5.70788219,36.2600242 L25.0199328,33.0830495 L25.028129,46.2193782 Z M25.028129,30.1268812 L11.0502108,24.2442052 L17.2351158,15.4103043 L25.028129,17.3695485 L25.028129,30.1268812 Z M78.2579828,35.2631001 L76.4548034,41.3418653 L42.5484751,41.3418653 L40.7452958,35.2631001 L59.5049178,8.02153136 L78.2579828,35.2631001 Z M60.249139,60.12029 L48.0301402,60.12029 L43.141885,43.2599143 L75.8630328,43.2599143 L70.9698598,60.12029 L60.249139,60.12029 Z M70.3928424,62.0366912 L64.3276028,78.2000439 L59.5049178,82.1860925 L54.6805934,78.2000439 L48.6153539,62.0366912 L70.3928424,62.0366912 L70.3928424,62.0366912 Z M26.9263851,27.927057 L26.9263851,17.1372075 L44.5139405,4.97638141 L58.1099127,6.60276832 L58.2000716,6.61430298 L58.1607295,6.65220257 L39.0453894,34.2595848 L26.9263851,27.927057 Z M36.7619087,79.4836867 L28.8049701,60.8206086 L27.0296581,47.6117763 L41.3288702,43.8481819 L46.3040058,60.9952763 L42.2779982,69.4567725 L36.8537069,79.7209711 L36.7619087,79.4836867 Z M37.7618536,82.095463 L43.4238367,71.3847083 L58.0131967,83.4483137 L57.5214205,83.8536746 L40.2748299,88.6619796 L37.7618536,82.095463 Z M59.5049178,102.64693 L41.8927735,90.1993848 L59.5049178,85.2823245 L77.1137835,90.1993848 L59.5049178,102.64693 Z M78.7317271,88.6619796 L61.4720225,83.8454356 L60.9802463,83.4400747 L75.5696063,71.3764693 L81.2315894,82.087224 L78.7317271,88.6619796 Z M90.2065047,60.8140174 L82.2446483,79.4787433 L82.1512108,79.7209711 L76.7269196,69.4567725 L72.7009119,60.9952763 L77.6760476,43.8481819 L91.9752597,47.6117763 L90.2065047,60.8140174 Z M92.0850897,27.9155224 L79.9660854,34.2529935 L60.8441882,6.65220257 L60.8048461,6.61430298 L60.8950051,6.60276832 L74.4909772,4.97638141 L92.0785327,17.1372075 L92.0850897,27.9155224 Z M109.010387,22.4101944 L103.815591,14.9950566 L111.192234,13.6224322 L109.010387,22.4101944 Z M95.7422652,3.36647259 L108.402223,7.08557618 L110.988966,11.7076788 L102.617296,13.2747446 L95.7422652,3.36647259 Z M93.984985,17.3728441 L101.777998,15.4135999 L107.962903,24.2475008 L93.984985,30.1301769 L93.984985,17.3728441 Z M105.936785,50.4591893 L93.984985,46.2226738 L93.984985,33.0830495 L113.297036,36.2600242 L116.616525,45.266945 L105.936785,50.4591893 Z" id="Shape"></path>
        </g>
    </g>
</svg>