<svg xmlns="http://www.w3.org/2000/svg" width="120" height="120" fill="none"><rect width="120" height="120" fill="#012F7A" rx="60"/><path fill="#65D9FF" fill-rule="evenodd" d="M50.637 87.595a8.707 8.707 0 0 1-8.302-6.057l-4.8-15.087a4.96 4.96 0 0 0-4.727-3.456 8.707 8.707 0 0 1-8.302-6.058l-1.82-5.72c-.835-2.622 1.122-5.298 3.874-5.298h1.331c2.677 0 4.274-2.982 2.79-5.21-1.482-2.227.115-5.209 2.791-5.209h53.199c2.676 0 4.273 2.982 2.79 5.21-1.483 2.227.114 5.209 2.79 5.209h1.332c2.752 0 4.708 2.676 3.874 5.298l-1.82 5.72a8.707 8.707 0 0 1-8.302 6.058 4.96 4.96 0 0 0-4.727 3.456l-4.8 15.087a8.707 8.707 0 0 1-8.302 6.057h-18.87ZM46.179 57.93c0 2.797 2.095 5.065 4.68 5.065 2.584 0 4.678-2.268 4.678-5.065 0-2.797-2.094-5.065-4.679-5.065-2.584 0-4.679 2.268-4.679 5.065Zm27.784 0c0 2.797-2.094 5.065-4.678 5.065-2.585 0-4.68-2.268-4.68-5.065 0-2.797 2.095-5.065 4.68-5.065 2.584 0 4.678 2.268 4.678 5.065Z" clip-rule="evenodd"/></svg>