<?xml version="1.0" encoding="UTF-8"?>
<svg width="172px" height="172px" viewBox="0 0 172 172" version="1.1" xmlns="http://www.w3.org/2000/svg" xmlns:xlink="http://www.w3.org/1999/xlink">
    <title>Artboard Copy 5</title>
    <g id="Homepage" stroke="none" stroke-width="1" fill="none" fill-rule="evenodd">
        <g id="Artboard-Copy-4" transform="translate(-911.000000, -1612.000000)">
            <rect fill="#FAFAFA" x="0" y="0" width="1200" height="4854"></rect>
            <g id="Group-32" transform="translate(-1.000000, 1507.000000)">
                <rect id="Rectangle-Copy-3" stroke="#EEEEEE" fill="#FFFFFF" x="-0.5" y="-0.5" width="1202" height="688"></rect>
                <g id="Group-15-Copy" transform="translate(888.577320, 102.000000)" fill="#FFFFFF" stroke="#EEEEEE">
                    <g id="Group-16" transform="translate(-0.000000, 0.000000)">
                        <rect id="Rectangle-Copy-2" x="0.5" y="0.5" width="231.57732" height="229" rx="10"></rect>
                    </g>
                </g>
                <g id="Group-6" transform="translate(712.000000, 277.000000)" fill="#000000">
                    <g id="Group-11">
                        <text id="DAI-$1.00">
                            <tspan x="279.817116" y="15">DAI</tspan>
                            <tspan x="272.317116" y="36">$1.00</tspan>
                        </text>
                    </g>
                </g>
            </g>
            <g id="multi-collateral-dai-dai-logo" transform="translate(947.000000, 1648.000000)" fill-rule="nonzero">
                <path d="M50,0 C77.6167762,0 100,22.3877239 100,50 C100,77.6167762 77.6167762,100 50,100 C22.3877239,100 0,77.6145261 0,50 C0,22.3877239 22.3877239,0 50,0 Z" id="Path" fill="#F5AC37"></path>
                <path d="M51.8427684,53.5302853 L70.8419584,53.5302853 C71.2469625,53.5302853 71.4382144,53.5302853 71.4674647,52.99928 C71.6227162,51.0665107 71.6227162,49.1224912 71.4674647,47.1874719 C71.4674647,46.8117181 71.2807128,46.6564666 70.8734587,46.6564666 L33.0618306,46.6564666 C32.5938259,46.6564666 32.4678247,46.8117181 32.4678247,47.2504725 L32.4678247,52.8125281 C32.4678247,53.5302853 32.4678247,53.5302853 33.2170822,53.5302853 L51.8427684,53.5302853 L51.8427684,53.5302853 Z M69.3456935,40.1561516 C69.399694,40.0144001 69.399694,39.8591486 69.3456935,39.7196472 C69.0284403,39.0288903 68.6526865,38.3696337 68.2161822,37.7508775 C67.5591756,36.6933669 66.7851679,35.7191072 65.903159,34.8438484 C65.4869049,34.3150932 65.0054001,33.8403384 64.4653947,33.4375844 C61.7608676,31.1358114 58.5455855,29.5067951 55.0895509,28.6877869 C53.3457835,28.296283 51.5637656,28.1095311 49.7772478,28.1252813 L32.99658,28.1252813 C32.5285753,28.1252813 32.4655747,28.3120331 32.4655747,28.7192872 L32.4655747,39.8118981 C32.4655747,40.2799028 32.4655747,40.4059041 33.0595806,40.4059041 L69.1206912,40.4059041 C69.1206912,40.4059041 69.4334443,40.3429034 69.496445,40.1561516 L69.3434434,40.1561516 L69.3456935,40.1561516 Z M69.3456935,60.0306003 C68.8146881,59.9720997 68.2791828,59.9720997 67.7481775,60.0306003 L33.0933309,60.0306003 C32.6253263,60.0306003 32.4678247,60.0306003 32.4678247,60.6561066 L32.4678247,71.501215 C32.4678247,72.00072 32.4678247,72.1267213 33.0933309,72.1267213 L49.0932409,72.1267213 C49.8582486,72.1852219 50.6232562,72.1312213 51.3725137,71.9714697 C53.6945369,71.804968 55.9783098,71.300963 58.1563316,70.4707047 C58.9483395,70.196202 59.7133471,69.8384484 60.4356044,69.4086941 L60.6538565,69.4086941 C64.404644,67.4579246 67.4511745,64.3933939 69.3726937,60.6313563 C69.3726937,60.6313563 69.5909459,60.1588516 69.3456935,60.0351004 L69.3456935,60.0306003 Z M26.1880119,77.7495275 L26.1880119,77.5627756 L26.1880119,70.2817028 L26.1880119,67.8134281 L26.1880119,60.4693547 C26.1880119,60.0621006 26.1880119,60.00135 25.6885069,60.00135 L18.9069391,60.00135 C18.5311853,60.00135 18.3759338,60.00135 18.3759338,59.501845 L18.3759338,53.5640356 L25.6255063,53.5640356 C26.0305103,53.5640356 26.1880119,53.5640356 26.1880119,53.0330303 L26.1880119,47.1582216 C26.1880119,46.7824678 26.1880119,46.6902169 25.6885069,46.6902169 L18.9069391,46.6902169 C18.5311853,46.6902169 18.3759338,46.6902169 18.3759338,46.1907119 L18.3759338,40.6916569 C18.3759338,40.3474035 18.3759338,40.2551526 18.8754388,40.2551526 L25.5940059,40.2551526 C26.0620106,40.2551526 26.1880119,40.2551526 26.1880119,39.6611466 L26.1880119,22.8174782 C26.1880119,22.3179732 26.1880119,22.1919719 26.8135181,22.1919719 L50.2497525,22.1919719 C51.9507695,22.2594726 53.6405364,22.4462245 55.3123031,22.7544775 C58.7570876,23.3912339 62.0668707,24.6219962 65.0931509,26.3792638 C67.100171,27.5605256 68.9474395,28.9870399 70.5922059,30.6295563 C71.8297183,31.9143191 72.9457295,33.304833 73.9357394,34.7853479 C74.9189992,36.2861129 75.7357574,37.8903789 76.3770138,39.5666457 C76.4557646,40.00315 76.8742687,40.297903 77.3107731,40.2236522 L82.904329,40.2236522 C83.6220862,40.2236522 83.6220862,40.2236522 83.6535865,40.9121591 L83.6535865,46.0377104 C83.6535865,46.5372154 83.4668347,46.6632166 82.9650797,46.6632166 L78.6517865,46.6632166 C78.2152822,46.6632166 78.0892809,46.6632166 78.1207812,47.2257223 C78.2917829,49.1292413 78.2917829,51.0395104 78.1207812,52.9430294 C78.1207812,53.4740347 78.1207812,53.5370354 78.7170372,53.5370354 L83.6513365,53.5370354 C83.8695887,53.8182882 83.6513365,54.099541 83.6513365,54.3830438 C83.6828368,54.7452975 83.6828368,55.1120511 83.6513365,55.4743047 L83.6513365,59.2565926 C83.6513365,59.7875979 83.496085,59.9450995 83.0258303,59.9450995 L77.1195212,59.9450995 C76.7077671,59.8663487 76.3072631,60.1296013 76.2127621,60.5391054 C74.8064981,64.195392 72.5564756,67.4736747 69.6494465,70.101701 C68.5874359,71.0579606 67.4714247,71.9579696 66.3059131,72.7882279 C65.0549005,73.5082351 63.8376384,74.2574926 62.5551256,74.8514985 C60.1948519,75.9135091 57.7198272,76.696517 55.1795518,77.1937719 C52.7675277,77.6257763 50.3217532,77.8215282 47.8669787,77.7877779 L26.1790118,77.7877779 L26.1790118,77.7562776 L26.1880119,77.7495275 Z" id="Shape" fill="#FEFEFD"></path>
            </g>
        </g>
    </g>
</svg>