<svg xmlns="http://www.w3.org/2000/svg" viewBox="0 0 500 427.95"><defs><style>.cls-1{fill:#1568ca;}.cls-2{fill:#8fd8e7;}</style></defs><g id="Layer_2" data-name="Layer 2"><g id="Layer_1-2" data-name="Layer 1"><path class="cls-1" d="M123.73,223.44a160.23,160.23,0,0,0,43,109.5A136.83,136.83,0,1,1,207.5,82.24,160.77,160.77,0,0,0,123.73,223.44Z"/><path class="cls-1" d="M500,95.71a95.66,95.66,0,0,1-59.4,88.55,161,161,0,0,0-127-119A95.72,95.72,0,0,1,500,95.71Z"/><path class="cls-1" d="M455.6,350.8a77.16,77.16,0,0,1-147.48,31.76A161,161,0,0,0,429.61,293,77,77,0,0,1,455.6,350.8Z"/><path class="cls-2" d="M273.65,199.42A136.86,136.86,0,0,1,166.77,332.94,160.86,160.86,0,0,1,207.5,82.24,136.72,136.72,0,0,1,273.65,199.42Z"/><path class="cls-2" d="M440.6,184.26v0a95.77,95.77,0,0,1-127-119.07A161,161,0,0,1,440.6,184.26Z"/><path class="cls-2" d="M429.61,293a161,161,0,0,1-121.49,89.52A77.17,77.17,0,0,1,429.61,293Z"/></g></g></svg>