<?xml version="1.0" encoding="UTF-8"?>
<svg width="59px" height="60px" viewBox="0 0 59 60" version="1.1" xmlns="http://www.w3.org/2000/svg" xmlns:xlink="http://www.w3.org/1999/xlink">
    <title>gnosis-gno-gno-logo</title>
    <g id="Protocol" stroke="none" stroke-width="1" fill="none" fill-rule="evenodd">
        <g id="Mobile-home-Copy-5" transform="translate(-18.000000, -2218.000000)" fill="#00A6C4" fill-rule="nonzero">
            <g id="gnosis-gno-gno-logo" transform="translate(18.000000, 2218.000000)">
                <path d="M53.3274948,15.000204 L51.1201472,17.2075517 C52.9596308,20.0369252 53.3680777,23.5644208 52.223821,26.7392801 C50.1894858,32.3807234 43.9788944,35.3178623 38.3275642,33.311156 C37.5493876,33.0349845 36.8080598,32.6643206 36.1202166,32.2074822 L29.0466708,39.2810281 L22.8761308,33.0603211 C19.9301919,35.0234797 16.232887,35.4879652 12.8928994,34.3144959 C10.1075364,33.3227669 7.83225333,31.2618761 6.57060105,28.5879264 C5.30894876,25.9139768 5.16496758,22.8474717 6.17052249,20.0670702 C6.47658247,19.1951961 6.89841543,18.3684035 7.42469729,17.6088876 L4.76584672,14.950037 L4.2641768,15.8028759 C-1.21191097,24.7604331 -1.42804158,35.9758895 3.69887037,45.1377748 C8.82578233,54.29966 18.4976925,59.9818542 28.9965038,60 L29.0466708,60 C39.5356258,60.0056996 49.2120326,54.3531619 54.3588037,45.2137441 C59.5055749,36.0743263 59.3222807,24.8693973 53.8793317,15.9032099 L53.3274948,15.000204 Z" id="Shape"></path>
                <path d="M10.6855518,20.8697421 C9.90401748,21.9117878 9.48154395,23.1792083 9.48154395,24.4817655 C9.48706733,27.7488377 12.1341768,30.3959471 15.401249,30.4015452 C16.7131514,30.4081602 17.9878153,29.9655686 19.0132724,29.1472957 L10.6855518,20.8697421 Z" id="Shape-2"></path>
                <path d="M39.73224,28.6456258 C40.7064314,29.3126938 41.8626557,29.6630648 43.0432615,29.6489656 C46.3103337,29.6434423 48.9574431,26.9963328 48.9629665,23.7292606 C48.9697108,22.5497116 48.6199904,21.3956342 47.9596267,20.4182391 L39.73224,28.6456258 Z" id="Shape-3"></path>
                <path d="M29.1470047,34.8663328 L5.16718265,10.7861767 L6.1203555,9.78283687 C11.9947268,3.51787829 20.2076294,-0.0252986995 28.7958358,0.000135999609 L28.8460028,0.000135999609 C37.6460227,0.0129234114 46.029673,3.7491154 51.922819,10.2845068 L52.8258249,11.2878466 L29.1470047,34.8663328 Z M9.08020802,10.7861767 L29.1470047,30.9031404 L48.9629665,11.1875126 C43.6469911,5.84833527 36.4304742,2.83543945 28.8961698,2.80962501 L28.8460028,2.80962501 C21.4654069,2.768819 14.3652098,5.63412695 9.08020802,10.7861767 L9.08020802,10.7861767 Z" id="Shape-4"></path>
            </g>
        </g>
    </g>
</svg>