<svg xmlns="http://www.w3.org/2000/svg" width="101" height="101" fill="none"><path fill="url(#a)" fill-rule="evenodd" d="M70.947 80.5c16.403 0 29.731-13.164 29.996-29.504l.004-.496c0 27.615-22.385 50-50 50-27.614 0-50-22.385-50-50h40c0 16.569 13.432 30 30 30Z" clip-rule="evenodd"/><path fill="url(#b)" fill-rule="evenodd" d="M30.947 80.5C14.544 80.5 1.217 67.336.951 50.996L.947 50.5c0 27.615 22.386 50 50 50 27.615 0 50-22.385 50-50h-40c0 16.569-13.431 30-30 30Z" clip-rule="evenodd"/><path fill="url(#c)" fill-rule="evenodd" d="M30.947 20.5C14.544 20.5 1.217 33.664.951 50.005l-.004.496C.947 22.886 23.333.5 50.947.5c27.615 0 50 22.386 50 50h-40c0-16.568-13.431-30-30-30Z" clip-rule="evenodd"/><path fill="url(#d)" fill-rule="evenodd" d="M70.947 20.5c16.403 0 29.731 13.164 29.996 29.505l.004.496c0-27.615-22.385-50.001-50-50.001-27.614 0-50 22.386-50 50h40c0-16.568 13.432-30 30-30Z" clip-rule="evenodd"/><path fill="#EF9146" d="M40.443 50h-39v1h39v-1Z"/><path fill="#E57622" d="M100.447 50h-39v1h39v-1Z"/><defs><linearGradient id="a" x1="22.822" x2="24.385" y1="50.5" y2="100.5" gradientUnits="userSpaceOnUse"><stop stop-color="#EF9146"/><stop offset="1" stop-color="#E0592E"/></linearGradient><linearGradient id="b" x1="50.947" x2="50.947" y1="50.5" y2="100.5" gradientUnits="userSpaceOnUse"><stop stop-color="#E57722"/><stop offset="1" stop-color="#F2B24C"/></linearGradient><linearGradient id="c" x1="74.344" x2="74.344" y1="50.501" y2="2.622" gradientUnits="userSpaceOnUse"><stop stop-color="#E57722"/><stop offset="1" stop-color="#DD4A33"/></linearGradient><linearGradient id="d" x1="21.26" x2="21.26" y1="50.501" y2=".5" gradientUnits="userSpaceOnUse"><stop stop-color="#EF9046"/><stop offset="1" stop-color="#F3C44F"/></linearGradient></defs></svg>