<svg xmlns="http://www.w3.org/2000/svg" width="101" height="101" fill="none"><path fill="url(#a)" fill-rule="evenodd" d="M70.197 80.25c16.403 0 29.731-13.164 29.996-29.504l.004-.496c0 27.614-22.385 49.999-50 49.999-27.614 0-50-22.385-50-49.999h40c0 16.569 13.432 30 30 30Z" clip-rule="evenodd"/><path fill="url(#b)" fill-rule="evenodd" d="M30.197 80.25C13.794 80.25.467 67.086.201 50.746l-.004-.496c0 27.614 22.386 49.999 50 49.999 27.615 0 50-22.385 50-49.999h-40c0 16.569-13.431 30-30 30Z" clip-rule="evenodd"/><path fill="url(#c)" fill-rule="evenodd" d="M30.197 20.25C13.794 20.25.467 33.414.201 49.754l-.004.496c0-27.614 22.386-50 50-50 27.615 0 50 22.386 50 50h-40c0-16.569-13.431-30-30-30Z" clip-rule="evenodd"/><path fill="url(#d)" fill-rule="evenodd" d="M70.197 20.25c16.403 0 29.731 13.164 29.996 29.504l.004.496c0-27.614-22.385-50-50-50-27.614 0-50 22.386-50 50h40c0-16.569 13.432-30 30-30Z" clip-rule="evenodd"/><path fill="#EF9146" d="M39.697 49.75h-39v1h39v-1Z"/><defs><linearGradient id="a" x1="22.072" x2="23.635" y1="50.25" y2="100.249" gradientUnits="userSpaceOnUse"><stop stop-color="#EF9146"/><stop offset="1" stop-color="#E0592E"/></linearGradient><linearGradient id="b" x1="50.197" x2="50.197" y1="50.25" y2="100.249" gradientUnits="userSpaceOnUse"><stop stop-color="#E57722"/><stop offset="1" stop-color="#F2B24C"/></linearGradient><linearGradient id="c" x1="73.594" x2="73.594" y1="50.25" y2="2.372" gradientUnits="userSpaceOnUse"><stop stop-color="#E57722"/><stop offset="1" stop-color="#DD4A33"/></linearGradient><linearGradient id="d" x1="20.51" x2="20.51" y1="50.25" y2=".25" gradientUnits="userSpaceOnUse"><stop stop-color="#EF9046"/><stop offset="1" stop-color="#F3C44F"/></linearGradient></defs></svg>