<svg xmlns="http://www.w3.org/2000/svg" width="82" height="79" viewBox="0 0 82 79" fill="none">
<path fill-rule="evenodd" clip-rule="evenodd" d="M2.97882 32.7394L16.335 9.77902L27.8482 3.04023L54.52 2.97693L66.259 9.75942L79.5367 32.7785V46.1783L65.9189 69.1405L54.6454 75.8155L27.921 75.7257L16.3456 69.2231L3.08246 46.3833L2.97882 32.7394Z" fill="black" fill-opacity="0.01" stroke="black" stroke-width="4.5" stroke-linejoin="round"/>
<path fill-rule="evenodd" clip-rule="evenodd" d="M3.08246 46.3833L9.93177 34.3525L9.6096 21.3406L22.877 21.4426L22.97 34.7537L9.93177 34.3525L16.3595 46.3797L9.67058 57.7283L21.0617 63.7295L27.921 75.7258" fill="black" fill-opacity="0.01"/>
<path d="M3.08246 46.3833L9.93177 34.3525L9.6096 21.3406L22.877 21.4426L22.97 34.7537L9.93177 34.3525L16.3595 46.3797L9.67058 57.7283L21.0617 63.7295L27.921 75.7258" stroke="black" stroke-width="4.5" stroke-linejoin="round"/>
<path fill-rule="evenodd" clip-rule="evenodd" d="M21.0618 63.7295L28.0837 53.0667L16.3595 46.3797L29.7516 46.1416L22.97 34.7537" fill="black" fill-opacity="0.01"/>
<path d="M21.0618 63.7295L28.0837 53.0667L16.3595 46.3797L29.7516 46.1416L22.97 34.7537" stroke="black" stroke-width="4.5" stroke-linejoin="round"/>
<path fill-rule="evenodd" clip-rule="evenodd" d="M29.7516 46.1416L29.5405 32.5778L22.877 21.4426L30.3571 9.58582L16.335 9.77901" fill="black" fill-opacity="0.01"/>
<path d="M29.7516 46.1416L29.5405 32.5778L22.877 21.4426L30.3571 9.58582L16.335 9.77901" stroke="black" stroke-width="4.5" stroke-linejoin="round"/>
<path fill-rule="evenodd" clip-rule="evenodd" d="M30.3571 9.58583L41.2388 3.0085L47.755 14.403L61.5311 15.2129L54.5199 2.97693" fill="black" fill-opacity="0.01"/>
<path d="M30.3571 9.58583L41.2388 3.0085L47.755 14.403L61.5311 15.2129L54.5199 2.97693" stroke="black" stroke-width="4.5" stroke-linejoin="round"/>
<path fill-rule="evenodd" clip-rule="evenodd" d="M61.5312 15.2129L72.7576 21.0255L66.0016 32.5173L54.5132 25.9468L61.5312 15.2129Z" fill="black" fill-opacity="0.01" stroke="black" stroke-width="4.5" stroke-linejoin="round"/>
<path fill-rule="evenodd" clip-rule="evenodd" d="M54.5132 25.9468L41.2676 26.0611L47.755 14.403L36.3247 21.1872L30.3571 9.58582" fill="black" fill-opacity="0.01"/>
<path d="M54.5132 25.9468L41.2676 26.0611L47.755 14.403L36.3247 21.1872L30.3571 9.58582" stroke="black" stroke-width="4.5" stroke-linejoin="round"/>
<path fill-rule="evenodd" clip-rule="evenodd" d="M36.3247 21.1872L29.5405 32.5778L41.2677 26.0611L52.8901 32.8363L66.0015 32.5174L72.2401 44.9068L79.5367 32.7785" fill="black" fill-opacity="0.01"/>
<path d="M36.3247 21.1872L29.5405 32.5778L41.2677 26.0611L52.8901 32.8363L66.0015 32.5174L72.2401 44.9068L79.5367 32.7785" stroke="black" stroke-width="4.5" stroke-linejoin="round"/>
<path fill-rule="evenodd" clip-rule="evenodd" d="M72.2401 44.9068L72.7236 57.6665L59.2916 57.6339L59.424 44.2869L72.2401 44.9068Z" fill="black" fill-opacity="0.01" stroke="black" stroke-width="4.5" stroke-linejoin="round"/>
<path fill-rule="evenodd" clip-rule="evenodd" d="M59.424 44.2869L52.8901 32.8362L52.5718 46.1681L59.2916 57.6338L51.9062 69.0924L65.9189 69.1405" fill="black" fill-opacity="0.01"/>
<path d="M59.424 44.2869L52.8901 32.8362L52.5718 46.1681L59.2916 57.6338L51.9062 69.0924L65.9189 69.1405" stroke="black" stroke-width="4.5" stroke-linejoin="round"/>
<path fill-rule="evenodd" clip-rule="evenodd" d="M51.9062 69.0924L41.2628 75.7705L34.8045 64.2905L45.5431 57.6819L51.9062 69.0924Z" fill="black" fill-opacity="0.01" stroke="black" stroke-width="4.5" stroke-linejoin="round"/>
<path fill-rule="evenodd" clip-rule="evenodd" d="M45.5432 57.6819L52.5718 46.1681L41.1986 52.7246L34.8046 64.2905L21.0618 63.7295" fill="black" fill-opacity="0.01"/>
<path d="M45.5432 57.6819L52.5718 46.1681L41.1986 52.7246L34.8046 64.2905L21.0618 63.7295" stroke="black" stroke-width="4.5" stroke-linejoin="round"/>
<path fill-rule="evenodd" clip-rule="evenodd" d="M28.0836 53.0667L41.1986 52.7246L29.7515 46.1416" fill="black" fill-opacity="0.01"/>
<path d="M28.0836 53.0667L41.1986 52.7246L29.7515 46.1416" stroke="black" stroke-width="4.5" stroke-linejoin="round"/>
</svg>