<svg xmlns="http://www.w3.org/2000/svg" width="101" height="100" fill="none"><path fill="#1E1E1E" d="M86.096 13.533A6.402 6.402 0 0 0 82.903 8L70.537.861a6.405 6.405 0 0 0-6.386 0L51.785 8a6.41 6.41 0 0 0-3.193 5.532v14.276c0 .585.089 1.158.246 1.706a6.338 6.338 0 0 0-1.625.657l-12.365 7.14a6.41 6.41 0 0 0-3.194 5.532v14.277c0 .605.09 1.193.25 1.758a6.302 6.302 0 0 0-1.628.657l-12.366 7.14a6.41 6.41 0 0 0-3.193 5.532v14.277a6.402 6.402 0 0 0 3.193 5.532l12.366 7.136a6.385 6.385 0 0 0 6.386 0l12.366-7.14a6.432 6.432 0 0 0 1.995-1.815 6.39 6.39 0 0 0 2.577-.818l12.365-7.14a6.424 6.424 0 0 0 2-1.823 6.353 6.353 0 0 0 2.572-.818l12.366-7.14a6.41 6.41 0 0 0 3.193-5.532V52.65c0-.928-.205-1.823-.58-2.641.375-.819.58-1.718.58-2.641V33.091c0-.923-.205-1.818-.576-2.637.37-.818.576-1.713.576-2.637V13.533Z"/><path fill="#fff" d="M34.38 95.343a.442.442 0 0 1-.234-.407V81.982c0-.98.528-1.895 1.379-2.387l11.22-6.483a.477.477 0 0 1 .234-.069c.093 0 .174.032.238.069.109.06.234.18.234.407v12.958c0 .984-.528 1.895-1.38 2.387l-11.22 6.48a.454.454 0 0 1-.471 0ZM30.953 76.45c.85.492 1.907.492 2.757 0l11.22-6.48a.449.449 0 0 0 .235-.406.449.449 0 0 0-.234-.408l-11.22-6.479a2.749 2.749 0 0 0-1.38-.367c-.475 0-.955.121-1.378.367l-11.225 6.48a.449.449 0 0 0-.234.407c0 .125.04.294.238.407l11.225 6.475-.004.004Zm20.832-10.475 11.22-6.48a2.767 2.767 0 0 0 1.38-2.386V44.151a.45.45 0 0 0-.234-.408.46.46 0 0 0-.238-.068c-.073 0-.15.02-.234.069l-11.22 6.483a2.767 2.767 0 0 0-1.38 2.387v12.954c0 .226.13.347.234.407.11.06.279.113.472 0ZM50.644 33.31a2.748 2.748 0 0 0-1.379-.367c-.476 0-.955.121-1.379.367l-11.224 6.48a.448.448 0 0 0-.234.407c0 .125.04.294.238.407l11.224 6.475c.851.492 1.907.492 2.758 0l11.22-6.48a.453.453 0 0 0 .234-.407c0-.12-.04-.294-.233-.407l-11.221-6.479-.004.004Zm1.133 52.257 11.22-6.48a2.767 2.767 0 0 0 1.38-2.386V63.74a.449.449 0 0 0-.234-.407.461.461 0 0 0-.238-.068c-.073 0-.15.02-.234.068l-11.22 6.483a2.767 2.767 0 0 0-1.38 2.387V85.16a.45.45 0 0 0 .234.407c.11.06.278.113.472 0Zm16.942-48.894 11.22-6.48a2.766 2.766 0 0 0 1.38-2.386V14.847a.45.45 0 0 0-.235-.407.46.46 0 0 0-.238-.069c-.072 0-.149.02-.233.069l-11.221 6.483a2.767 2.767 0 0 0-1.379 2.387v12.954c0 .226.13.347.234.408.105.06.274.113.472 0ZM67.578 4.006a2.75 2.75 0 0 0-1.38-.367c-.475 0-.955.12-1.378.367l-11.225 6.479a.452.452 0 0 0-.233.407c0 .12.04.294.233.407l11.225 6.475c.85.492 1.907.492 2.758 0l11.22-6.479a.449.449 0 0 0 .234-.407.449.449 0 0 0-.234-.407L67.578 4v.005Zm1.133 52.256 11.22-6.479a2.767 2.767 0 0 0 1.38-2.387V34.438a.449.449 0 0 0-.235-.407.46.46 0 0 0-.238-.069.429.429 0 0 0-.233.069l-11.221 6.483a2.767 2.767 0 0 0-1.379 2.387v12.954c0 .226.13.347.234.407.105.06.278.113.472 0Zm.008 19.53 11.22-6.478a2.766 2.766 0 0 0 1.38-2.387V53.968a.449.449 0 0 0-.235-.407.457.457 0 0 0-.234-.069.419.419 0 0 0-.233.07l-11.221 6.482a2.767 2.767 0 0 0-1.379 2.387v12.954c0 .226.13.347.234.408.105.06.274.113.472 0h-.004Z"/></svg>