<?xml version="1.0" encoding="UTF-8"?>
<svg width="100px" height="100px" viewBox="0 0 100 100" version="1.1" xmlns="http://www.w3.org/2000/svg" xmlns:xlink="http://www.w3.org/1999/xlink">
    <title>wrapped-bitcoin-wbtc-logo</title>
    <g id="Homepage" stroke="none" stroke-width="1" fill="none" fill-rule="evenodd">
        <g id="Artboard-Copy-4" transform="translate(-954.000000, -1899.000000)" fill-rule="nonzero">
            <g id="Group-38" transform="translate(-1.000000, 1507.000000)">
                <g id="wrapped-bitcoin-wbtc-logo" transform="translate(955.000000, 392.000000)">
                    <path d="M81.5394457,20.9866363 L78.7937016,23.7323804 C92.3738466,38.5832356 92.3738466,61.343542 78.7937016,76.1943972 L81.5394457,78.9401413 C96.6482015,62.5518819 96.6482015,37.3108283 81.5394457,20.9225689 L81.5394457,20.9866363 Z" id="Shape" fill="#5A5564"></path>
                    <path d="M23.7964477,21.2246008 C38.6473029,7.64445579 61.4076093,7.64445579 76.2584645,21.2246008 L79.0042086,18.4788567 C62.6159493,3.37010086 37.3748956,3.37010086 20.9866363,18.4788567 L23.7964477,21.2246008 Z" id="Shape-2" fill="#5A5564"></path>
                    <path d="M21.2246008,76.2218546 C7.66118646,61.3750368 7.66118646,38.6341131 21.2246008,23.7872952 L18.4788567,21.0415512 C3.37010086,37.4298105 3.37010086,62.6708641 18.4788567,79.0591235 L21.2246008,76.2218546 Z" id="Shape-3" fill="#5A5564"></path>
                    <path d="M76.2218546,78.7570917 C61.3709994,92.3372366 38.610693,92.3372366 23.7598378,78.7570917 L21.0140937,81.5028357 C37.4023531,96.6115916 62.6434067,96.6115916 79.0316661,81.5028357 L76.2218546,78.7570917 Z" id="Shape-4" fill="#5A5564"></path>
                    <path d="M67.3347963,40.838366 C66.7856475,35.1089133 61.8433081,33.1868925 55.5921641,32.6011337 L55.5921641,24.7116958 L50.7596546,24.7116958 L50.7596546,32.454694 C49.4874598,32.454694 48.1878076,32.454694 46.8973079,32.454694 L46.8973079,24.7116958 L42.1014082,24.7116958 L42.1014082,32.6560486 L32.2991019,32.6560486 L32.2991019,37.8272 C32.2991019,37.8272 35.8685692,37.7631326 35.8136543,37.8272 C37.1513905,37.6800352 38.3653514,38.6188316 38.5593984,39.9505754 L38.5593984,61.6968685 C38.5316169,62.1533841 38.3203372,62.5792447 37.9736396,62.8775384 C37.6333962,63.1815677 37.1838413,63.333623 36.7289023,63.2985525 C36.7929697,63.3534674 33.2143499,63.2985525 33.2143499,63.2985525 L32.2991019,69.0737675 L42.0098834,69.0737675 L42.0098834,77.1462551 L46.842393,77.1462551 L46.842393,69.1927498 L50.7047397,69.1927498 L50.7047397,77.1096452 L55.5464017,77.1096452 L55.5464017,69.1286824 C63.7104141,68.6344485 69.4032568,66.6209028 70.1171503,58.9785818 C70.6937565,52.8281151 67.8015728,50.082371 63.1795703,48.9749209 C65.9893817,47.5928964 67.7283529,45.0302019 67.3347963,40.838366 Z M60.5619609,58.0267239 C60.5619609,64.0307509 50.2745731,63.3443149 46.9979852,63.3443149 L46.9979852,52.6908279 C50.2745731,52.6999804 60.5619609,51.7572749 60.5619609,58.0267239 Z M58.3196032,43.0166563 C58.3196032,48.5081444 49.7345768,47.8400134 47.0071377,47.8400134 L47.0071377,38.1566892 C49.7345768,38.1566892 58.3196032,37.2963561 58.3196032,43.0166563 Z" id="Shape-5" fill="#F09242"></path>
                    <path d="M49.9908462,100 C22.3789924,99.9949435 -0.00168493392,77.6088026 0,49.9969484 C0.00168493392,22.3850942 22.3850942,0.00168493392 49.9969484,0 C77.6088026,-0.00168493392 99.9949435,22.3789924 100,49.9908462 C100.002427,63.2548422 94.7344,75.9762766 85.3553383,85.3553383 C75.9762766,94.7344 63.2548422,100.002427 49.9908462,100 Z M49.9908462,3.89894109 C24.5522662,3.91917109 3.94377244,24.5522432 3.9538741,49.9908292 C3.96398319,75.4294153 24.5888632,96.0461123 50.0274513,96.0461123 C75.4660394,96.0461123 96.090927,75.4294323 96.1010454,49.9908462 C96.1059042,37.7618545 91.2488562,26.0326014 82.599936,17.3871146 C73.9510158,8.74162786 62.219835,3.88923757 49.9908462,3.89894109 Z" id="Shape-6" fill="#282138"></path>
                </g>
            </g>
        </g>
    </g>
</svg>