<svg width="1440" height="687" xmlns="http://www.w3.org/2000/svg" xmlns:xlink="http://www.w3.org/1999/xlink">
  <defs>
    <path id="a" d="M0 0h1440v687H0z"/>
  </defs>
  <g fill="none" fill-rule="evenodd">
    <path d="M0 0h1440v687H0z" fill="#EF2B55" fill-rule="nonzero"/>
    <mask id="b" fill="#fff">
      <use xlink:href="#a"/>
    </mask>
    <g mask="url(#b)">
      <path d="M1526-101v4.803C1523.402 107.044 1357.827 271 1153.989 271A372.03 372.03 0 011039 252.892c132.322-217.376 132.322-490.408 0-707.784A372.03 372.03 0 011153.989-473c203.838 0 369.413 163.936 372.011 367.197V-101z" fill="#FED533" fill-rule="nonzero"/>
      <path d="M1534-105.47C1528.849 372.275 1139.95 758 661 758s-868.143-386.001-873-864c4.857 371.019 307.143 670.33 679.328 670.33 41.775.031 83.308-2.491 124.376-10.05.735-.135 1.47-.272 2.205-.41 74.926 26.128 153.885 38.088 233.236 37.988 387.227 0 701.704-311.346 706.855-697.327z" fill="#001E3C" fill-rule="nonzero"/>
      <path d="M1532.985-108.49v2.907a.828.828 0 010 .236C1528.778 184.949 1291.916 419 1000.291 419A534.545 534.545 0 01899 409.377a681.48 681.48 0 00147.64-170.128 371.825 371.825 0 00114.835 18.126c203.564 0 368.915-163.588 371.51-366.375-.01.17-.01.34 0 .51z"/>
      <path d="M1533-111v5.189C1528.793 184.742 1291.926 419 1000.293 419A534.113 534.113 0 01899 409.37a681.913 681.913 0 00147.644-170.279 371.54 371.54 0 00114.837 18.064c203.569 0 368.924-163.733 371.519-366.7V-111z"/>
      <path d="M1534-106v.983c-5.152 385.81-319.652 697.022-706.907 697.022C747.736 592.1 668.93 580.118 594 554c112.442-21.235 217.655-71.945 305.79-144.892a534.518 534.518 0 00101.326 9.63c291.67-.02 528.617-234.226 532.884-524.738z" fill="#EF2B55" fill-rule="nonzero"/>
      <path d="M1532.186-109v3.444a.83.83 0 010 .235C1527.97 185.514 1290.66 420 998.482 420A535.568 535.568 0 01897 410.36c58.428-48.226 110.323-105.036 149.826-169.654 37.16 12.041 74.08 17.372 113.146 17.35 203.95 0 369.614-163.893 372.214-367.056z" fill="#3A6EFF" fill-rule="nonzero"/>
      <path d="M176.915 159.95C88.846 191.16-10.771 180.054-87.49 126.706-164.207 73.358-210.552-16.314-212-109.772V-114v-4.228c1.448-93.457 47.793-180.499 124.511-233.847C-10.77-405.423 86.931-418.548 175-387.339A704.715 704.715 0 00120.197-114c-.115 93.855 20.432 187.4 56.718 273.95z" fill="#FDC22D" fill-rule="nonzero"/>
      <path d="M174.697 159.95C101.53-14.73 100.708-211.319 173.875-386 289.683-344.922 367.03-235.561 367-112.941 366.974 9.634 290.46 118.88 174.697 159.95z" fill="#FED533" fill-rule="nonzero"/>
      <path d="M467.012-113.32c-.164 104.502 30.422 206.732 87.931 293.9-73.196 81.983-174.378 133.508-283.6 144.42-39.795-50.378-71.847-105.796-96.646-165.05 115.587-41.2 192.097-151.02 192.097-273.98 0-122.96-77.207-232.612-192.794-273.812A706.66 706.66 0 01271.343-553c109.487 10.956 210.878 62.723 284.091 145.05-57.837 87.312-88.603 189.826-88.422 294.63z" fill="#EF2B55" fill-rule="nonzero"/>
      <path d="M1046.826 240.706c-39.384 64.658-89.962 121.532-148.215 169.786C758.059 383.161 634.527 299.82 555.674 180c149.66-167.324 150.198-419.815.817-587.39C635.605-527.216 759.566-609.994 900.334-637c57.706 48.049 108.038 102.691 147.135 166.876C894.583-420.241 790.16-274.726 790.16-113.522c0 161.205 103.78 304.346 256.666 354.228z" fill="#000814" fill-rule="nonzero"/>
      <path d="M669-113.285C669.156-4.631 628.448 99.223 555.674 180 437.911 1.585 438.62-228.782 556.681-407 629.157-326.304 669.165-221.68 669-113.285z" fill="#043666" fill-rule="nonzero"/>
      <path d="M467.281 566.004C95.086 566.02-207.144 266.527-212-104.714V-108c3.086 240.766 199.062 434.985 440.351 434.985 14.875 0 29.567-.728 44.075-2.184C355.71 430.239 467.24 509.603 594 554c-41.78 7.883-84.204 12.03-126.719 12.004z" fill="#FED533" fill-rule="nonzero"/>
      <path d="M227.964 327C-13.113 327-208.916 132.986-212-107.526V-109c1.447 93.402 47.756 180.391 124.414 233.707s174.284 66.434 262.283 35.243A704.905 704.905 0 00272 324.82c-14.47 1.454-29.148 2.181-44.036 2.181z" fill="#3A6EFF" fill-rule="nonzero"/>
      <path d="M594 554c-126.706-44.45-238.754-124.081-322-229.602C381.25 313.488 482.459 261.97 555.674 180 634.588 299.828 758.334 382.777 899 410.134 810.929 483.212 706.363 532.711 594 554z" fill="#001E3C" fill-rule="nonzero"/>
      <path d="M1146.002-113.5c.201 124.722-34.122 247.776-99.176 354.206C893.671 190.89 790 47.49 790-113.5c0-160.99 103.671-303.684 256.826-353.5a675.82 675.82 0 0199.176 353.5z" fill="#FDC22D" fill-rule="nonzero"/>
    </g>
  </g>
</svg>
